<?xml version="1.0" encoding="utf-8"?>
<!-- Generator: Adobe Illustrator 19.1.0, SVG Export Plug-In . SVG Version: 6.00 Build 0)  -->
<svg version="1.1" id="Capa_1" xmlns="http://www.w3.org/2000/svg" xmlns:xlink="http://www.w3.org/1999/xlink" x="0px" y="0px"
	 viewBox="0 0 100 100" style="enable-background:new 0 0 100 100;" xml:space="preserve">
<style type="text/css">
	.st0{fill:#2B2D31;}
</style>
<path class="st0" d="M85.4,14.6C76,5.2,63.5,0,50.1,0c0,0,0,0,0,0c0,0,0,0,0,0c0,0,0,0-0.1,0C22.6,0,0.3,22.3,0.3,49.8
	c0,27.5,22.3,49.8,49.9,49.8c0,0,0,0,0,0c0,0,0,0,0,0c0,0,0,0,0.1,0c27.5,0,49.8-22.3,49.8-49.8C100,36.5,94.8,24,85.4,14.6z
	 M4.8,49.8c0-24.3,19.2-44.1,43-45.2V95C23.9,93.8,4.8,74,4.8,49.8z"/>
</svg>
