<?xml version="1.0" encoding="utf-8"?>
<!-- Generator: Adobe Illustrator 19.1.0, SVG Export Plug-In . SVG Version: 6.00 Build 0)  -->
<svg version="1.1" id="Capa_1" xmlns="http://www.w3.org/2000/svg" xmlns:xlink="http://www.w3.org/1999/xlink" x="0px" y="0px"
	 viewBox="0 0 100 100" style="enable-background:new 0 0 100 100;" xml:space="preserve">
<style type="text/css">
	.st0{fill:#2B2D31;}
</style>
<g>
	<path class="st0" d="M97.4,2.8c-3.1-2.9-7.6-2.8-8-2.8H8.5C1.8,0,0,6.4,0,9.8v80.3c0,3.1,0.9,5.5,2.7,7.2c2,1.8,4.4,2,5.4,2
		c0.3,0,0.4,0,0.4,0h82c7.7,0,9.4-5.8,9.4-8V9.3C100,6.7,99.1,4.4,97.4,2.8z M95.4,91.2c0,0.8-0.4,3.5-4.8,3.5l-82.3,0
		c0,0-1.5,0.1-2.5-0.8c-0.8-0.7-1.2-2-1.2-3.8V9.8c0-0.5,0.2-5.2,4-5.2h81c0,0,0.1,0,0.2,0c1,0,3.3,0.3,4.6,1.5
		c0.8,0.7,1.2,1.8,1.2,3.2V91.2z"/>
	<path class="st0" d="M87,10.3H13c-1.3,0-2.3,1-2.3,2.3v59.1c0,1.3,1,2.3,2.3,2.3h74c1.3,0,2.3-1,2.3-2.3V12.6
		C89.3,11.4,88.3,10.3,87,10.3z M15.3,58.8c0,0,0.1,0,0.1-0.1l16-18.3c0,0,1-1,2.1-1c0.2-0.1,0.9,0,1.8,1.1
		c2.9,3.3,20.2,21.6,27.1,28.9H15.3V58.8z M84.7,69.4H68.6c0-0.1,0-0.1-0.1-0.2C68.2,69,42.2,41.5,38.7,37.5
		c-1.9-2.1-3.8-2.6-5.2-2.6c-3.3-0.2-5.3,2.2-5.6,2.5L15.3,51.9v-37h69.4V69.4z"/>
	<path class="st0" d="M65.3,45c5.7,0,10.3-4.6,10.3-10.3S71,24.3,65.3,24.3S55,29,55,34.7S59.6,45,65.3,45z M65.3,28.9
		c3.2,0,5.7,2.6,5.7,5.7s-2.6,5.7-5.7,5.7c-3.2,0-5.7-2.6-5.7-5.7S62.1,28.9,65.3,28.9z"/>
</g>
</svg>
