<?xml version="1.0" encoding="utf-8"?>
<!-- Generator: Adobe Illustrator 19.1.0, SVG Export Plug-In . SVG Version: 6.00 Build 0)  -->
<svg version="1.1" id="Capa_1" xmlns="http://www.w3.org/2000/svg" xmlns:xlink="http://www.w3.org/1999/xlink" x="0px" y="0px"
	 viewBox="0 0 100 100" style="enable-background:new 0 0 100 100;" xml:space="preserve">
<style type="text/css">
	.st0{fill:#2B2D31;}
</style>
<g>
	<g>
		<path class="st0" d="M70.5,29.5c-0.9-0.9-2.3-0.9-3.2,0L50,46.7L32.7,29.5c-0.9-0.9-2.3-0.9-3.2,0c-0.9,0.9-0.9,2.3,0,3.2L46.7,50
			L29.5,67.2c-0.9,0.9-0.9,2.3,0,3.2c0.4,0.4,1,0.7,1.6,0.7c0.6,0,1.2-0.2,1.6-0.7L50,53.2l17.3,17.3c0.4,0.4,1,0.7,1.6,0.7
			c0.6,0,1.2-0.2,1.6-0.7c0.9-0.9,0.9-2.3,0-3.2L53.2,50l17.3-17.3C71.3,31.8,71.3,30.3,70.5,29.5z"/>
		<path class="st0" d="M50,0C22.4,0,0,22.4,0,50c0,27.5,22.4,50,50,50s50-22.4,50-50C99.9,22.4,77.5,0,50,0z M50,95.4
			C24.9,95.4,4.6,75,4.6,50c0-25,20.4-45.4,45.4-45.4c25,0,45.4,20.4,45.4,45.4C95.4,75,75,95.4,50,95.4z"/>
	</g>
</g>
</svg>
