<?xml version="1.0" encoding="UTF-8" standalone="no"?>
<svg width="413px" height="413px" viewBox="0 0 413 413" version="1.1" xmlns="http://www.w3.org/2000/svg" xmlns:xlink="http://www.w3.org/1999/xlink" xmlns:sketch="http://www.bohemiancoding.com/sketch/ns">
    <!-- Generator: Sketch 3.0.4 (8054) - http://www.bohemiancoding.com/sketch -->
    <title>LOGO Black</title>
    <desc>Created with Sketch.</desc>
    <defs></defs>
    <g id="Page-1" stroke="none" stroke-width="1" fill="none" fill-rule="evenodd" sketch:type="MSPage">
        <g id="Dimensions-3" sketch:type="MSArtboardGroup" transform="translate(-1613.000000, -4019.000000)">
            <g id="LOGO-Black" sketch:type="MSLayerGroup" transform="translate(1613.000000, 4019.000000)">
                <path d="M206.5,413 C320.546801,413 413,320.546801 413,206.5 C413,92.4531992 320.546801,0 206.5,0 C92.4531992,0 0,92.4531992 0,206.5 C0,320.546801 92.4531992,413 206.5,413 Z" id="Oval-150" fill="#000000" sketch:type="MSShapeGroup"></path>
                <path d="M255.030903,114.596618 L255.030903,237.968151 C255.030903,263.512664 234.330952,284.929383 208.810075,285.800726 C208.810075,285.800726 207.035019,285.865197 206.879285,285.865197 C206.632361,285.865197 204.644776,285.792408 204.644776,285.792408 C178.890111,284.924313 158.01183,263.325726 158.01183,237.561518 L158.01183,114.596618 L127.786148,114.596618 L127.786148,237.032874 C127.786148,280.498388 163.02458,315.657523 206.491028,315.563006 L206.879284,315.562162 L206.879284,315.562162 C250.129926,315.562162 285.191498,280.326667 285.191498,236.85615 L285.191498,114.596618 L255.030903,114.596618 Z" id="Oval-20" fill="#FFFFFF" sketch:type="MSShapeGroup"></path>
            </g>
        </g>
    </g>
</svg>