<?xml version="1.0" encoding="utf-8"?>
<!-- Generator: Adobe Illustrator 19.1.0, SVG Export Plug-In . SVG Version: 6.00 Build 0)  -->
<svg version="1.1" id="Capa_1" xmlns="http://www.w3.org/2000/svg" xmlns:xlink="http://www.w3.org/1999/xlink" x="0px" y="0px"
	 viewBox="0 0 100 100" style="enable-background:new 0 0 100 100;" xml:space="preserve">
<style type="text/css">
	.st0{fill:#2B2D31;}
</style>
<g>
	<path class="st0" d="M67.2,5.2l21.9,0c0,0,0,0,0.1,0c0.5,0,3.1,0.1,4.6,1.5c0.8,0.7,1.1,1.8,1.1,3.1c0,2.3,0,11.6,0,23.1h4.6
		c0-11.5,0-20.8,0-23.1c0-2.6-0.9-4.9-2.6-6.5c-3-2.9-7.5-2.8-7.9-2.8H67.2V5.2z"/>
	<path class="st0" d="M5,32.9c0-12.8,0-22.6,0-22.6c0-0.5,0.1-5.1,3.9-5.1l23.7,0V0.6H8.9c-6.7,0-8.5,6.4-8.5,9.7c0,0,0,9.8,0,22.6
		H5z"/>
	<path class="st0" d="M32.5,95.3l-23.9,0c0,0-1.5,0-2.6-1c-0.8-0.8-1.2-2.1-1.2-3.8c0-2.4,0-11.6,0-23H0.3c0,11.4,0,20.6,0,23
		c0,3.1,0.9,5.5,2.7,7.2c2.1,2,4.8,2.2,5.6,2.2c0.1,0,0.2,0,0.2,0h23.8V95.3z"/>
	<path class="st0" d="M94.7,67.6c0,13.6,0,24.1,0,24.1c0,0.6-0.2,3.6-4.8,3.6l-22.8,0v4.6H90c7.7,0,9.4-5.9,9.4-8.2
		c0,0,0-10.6,0-24.1H94.7z"/>
</g>
</svg>
