<?xml version="1.0" encoding="utf-8"?>
<!-- Generator: Adobe Illustrator 19.1.0, SVG Export Plug-In . SVG Version: 6.00 Build 0)  -->
<svg version="1.1" id="Capa_1" xmlns="http://www.w3.org/2000/svg" xmlns:xlink="http://www.w3.org/1999/xlink" x="0px" y="0px"
	 viewBox="0 0 100 100" style="enable-background:new 0 0 100 100;" xml:space="preserve">
<style type="text/css">
	.st0{fill:#2B2D31;}
	.st1{fill:#488BFA;}
	.st2{fill:#E84A35;}
	.st3{fill:#8F3FAF;}
	.st4{fill:#F19C00;}
</style>
<g>
	<path class="st0" d="M97.6,2.8C94.5-0.1,90,0,89.6,0H8.7C2,0,0.2,6.4,0.2,9.8v80.3c0,3.1,0.9,5.5,2.7,7.2c2,1.8,4.4,2,5.4,2
		c0.3,0,0.4,0,0.4,0h82c7.7,0,9.4-5.8,9.4-8v-82C100.2,6.7,99.3,4.4,97.6,2.8z M90.8,94.7H8.5c0,0-1.5,0.1-2.5-0.8
		c-0.8-0.7-1.2-2-1.2-3.8V9.8c0-0.5,0.2-5.2,4-5.2h81c0,0,0.1,0,0.2,0c1,0,3.3,0.3,4.6,1.5c0.8,0.7,1.2,1.8,1.2,3.2v81.9
		C95.8,92.2,93.4,94.7,90.8,94.7z"/>
</g>
<g>
	<path class="st0" d="M55.6,78.6H11.1c-1.3,0-2.4-1.1-2.4-2.4c0-1.3,1.1-2.4,2.4-2.4h44.6c1.3,0,2.4,1.1,2.4,2.4
		C58,77.5,57,78.6,55.6,78.6z"/>
</g>
<g>
	<path class="st0" d="M62.6,68.6H11.1c-1.3,0-2.4-1.1-2.4-2.4c0-1.3,1.1-2.4,2.4-2.4h51.6c1.3,0,2.4,1.1,2.4,2.4
		C65,67.5,64,68.6,62.6,68.6z"/>
</g>
<g>
	<path class="st0" d="M55.6,58.6H11.1c-1.3,0-2.4-1.1-2.4-2.4s1.1-2.4,2.4-2.4h44.6c1.3,0,2.4,1.1,2.4,2.4S57,58.6,55.6,58.6z"/>
</g>
<g>
	<path class="st0" d="M62.6,48.7H11.1c-1.3,0-2.4-1.1-2.4-2.4s1.1-2.4,2.4-2.4h51.6c1.3,0,2.4,1.1,2.4,2.4S64,48.7,62.6,48.7z"/>
</g>
<g>
	<path class="st0" d="M62.6,88.5H11.1c-1.3,0-2.4-1.1-2.4-2.4c0-1.3,1.1-2.4,2.4-2.4h51.6c1.3,0,2.4,1.1,2.4,2.4
		C65,87.5,64,88.5,62.6,88.5z"/>
</g>
<rect x="8.7" y="9.7" class="st1" width="83" height="30"/>
<rect x="70.4" y="44.2" class="st2" width="21.3" height="12.9"/>
<rect x="70.4" y="59.9" class="st3" width="21.3" height="12.9"/>
<rect x="70.4" y="75.7" class="st4" width="21.3" height="12.9"/>
</svg>
