<?xml version="1.0" encoding="utf-8"?>
<!-- Generator: Adobe Illustrator 19.1.0, SVG Export Plug-In . SVG Version: 6.00 Build 0)  -->
<svg version="1.1" id="Capa_1" xmlns="http://www.w3.org/2000/svg" xmlns:xlink="http://www.w3.org/1999/xlink" x="0px" y="0px"
	 viewBox="0 0 100 100" style="enable-background:new 0 0 100 100;" xml:space="preserve">
<style type="text/css">
	.st0{fill:#2B2D31;}
</style>
<g>
	<path class="st0" d="M38.2,49H2.5c-1.3,0-2.3,1-2.3,2.3v11c0,1.3,1,2.3,2.3,2.3s2.3-1,2.3-2.3v-8.8h13.3v29.3H4.9
		c-1.3,0-2.3,1-2.3,2.3c0,1.3,1,2.3,2.3,2.3h30.9c1.3,0,2.3-1,2.3-2.3c0-1.3-1-2.3-2.3-2.3H22.6V53.5h13.3v8.8c0,1.3,1,2.3,2.3,2.3
		c1.3,0,2.3-1,2.3-2.3v-11C40.5,50,39.5,49,38.2,49z"/>
	<path class="st0" d="M97.4,10.3H31.1c-1.3,0-2.3,1-2.3,2.3v17.7c0,1.3,1,2.3,2.3,2.3s2.3-1,2.3-2.3V14.9H62v68H47.7
		c-1.3,0-2.3,1-2.3,2.3c0,1.3,1,2.3,2.3,2.3h33.1c1.3,0,2.3-1,2.3-2.3c0-1.3-1-2.3-2.3-2.3H66.5v-68h28.6v15.4c0,1.3,1,2.3,2.3,2.3
		c1.3,0,2.3-1,2.3-2.3V12.6C99.6,11.3,98.6,10.3,97.4,10.3z"/>
</g>
</svg>
