<?xml version="1.0" encoding="utf-8"?>
<!-- Generator: Adobe Illustrator 19.1.0, SVG Export Plug-In . SVG Version: 6.00 Build 0)  -->
<svg version="1.1" id="Capa_1" xmlns="http://www.w3.org/2000/svg" xmlns:xlink="http://www.w3.org/1999/xlink" x="0px" y="0px"
	 viewBox="0 0 100 100" style="enable-background:new 0 0 100 100;" xml:space="preserve">
<style type="text/css">
	.st0{fill:#2B2D31;}
</style>
<g>
	<path class="st0" d="M27.5,60.6c0.3,0.9,1.2,1.4,2.1,1.4c0,0,0,0,0,0c0.9,0,1.7-0.5,2.1-1.4l16.9-39.4c0.5-1.2,0-2.5-1.2-3
		c-1.2-0.5-2.5,0-3,1.2L29.7,53.9L15.8,19.6c-0.5-1.2-1.8-1.7-3-1.3c-1.2,0.5-1.7,1.8-1.3,3L27.5,60.6z"/>
	<path class="st0" d="M51.4,61.9c0.3,0.1,0.5,0.1,0.8,0.1c0.9,0,1.8-0.6,2.1-1.5l4.1-11.6H79l3.8,11.6c0.4,1.2,1.7,1.8,2.9,1.4
		c1.2-0.4,1.8-1.7,1.4-2.9L74.2,19.7c-0.3-0.9-1.2-1.6-2.2-1.6h-5.8c-1,0-1.8,0.6-2.1,1.5L50,59C49.6,60.2,50.2,61.5,51.4,61.9z
		 M67.8,22.7h2.6l7.1,21.7H60.1L67.8,22.7z"/>
	<path class="st0" d="M97.2,7.8H2.5c-1.3,0-2.3,1-2.3,2.3v59.1c0,1.3,1,2.3,2.3,2.3h94.7c1.3,0,2.3-1,2.3-2.3V10.1
		C99.4,8.8,98.4,7.8,97.2,7.8z M94.9,66.9H4.7V12.4h90.2V66.9z"/>
	<path class="st0" d="M98.4,85.9l-12.4-8.3c-1-0.7-2.4-0.4-3.2,0.6c-0.7,1-0.4,2.4,0.6,3.1l6.3,4.3H9.7l6.2-4.3
		c1-0.7,1.3-2.1,0.6-3.2c-0.7-1-2.1-1.3-3.2-0.6L1,86.2c-0.6,0.4-1,1.1-1,1.9c0,0.7,0.4,1.4,1,1.9l12.4,8.3c0.4,0.3,0.8,0.4,1.3,0.4
		c0.7,0,1.4-0.3,1.9-1c0.7-1,0.4-2.5-0.6-3.2l-6.4-4.3h80.3l-6.3,4.3c-1,0.7-1.3,2.1-0.6,3.2c0.4,0.6,1.2,1,1.9,1
		c0.4,0,0.9-0.1,1.3-0.4l12.4-8.6c0.6-0.4,1-1.1,1-1.9C99.4,87.1,99.1,86.4,98.4,85.9z"/>
</g>
</svg>
