<?xml version="1.0" encoding="utf-8"?>
<!-- Generator: Adobe Illustrator 19.1.0, SVG Export Plug-In . SVG Version: 6.00 Build 0)  -->
<svg version="1.1" id="Capa_1" xmlns="http://www.w3.org/2000/svg" xmlns:xlink="http://www.w3.org/1999/xlink" x="0px" y="0px"
	 viewBox="0 0 100 100" style="enable-background:new 0 0 100 100;" xml:space="preserve">
<style type="text/css">
	.st0{fill:#2B2D31;}
</style>
<g>
	<path class="st0" d="M53.2,3.6c-0.8-0.4-1.7-0.3-2.4,0.3L19.9,28.3c-0.1,0-0.1,0-0.2,0c-0.2,0-0.3,0.1-0.4,0.1
		c-1.4,0-4.1-0.1-8.5-0.1c-7.4,0-10,5.1-10.4,8c0,0.8-0.2,19,0,24.7c0.3,7.4,7,9.1,10.5,9l9.6-0.5L51,94.9c0.4,0.4,0.9,0.5,1.5,0.5
		c0.3,0,0.7-0.1,1-0.2c0.8-0.4,1.3-1.2,1.3-2.1L54.5,5.6C54.5,4.7,54,3.9,53.2,3.6z M10.7,65.5c-0.5,0-5.6,0.1-5.8-4.6
		c-0.2-5.6,0-24.2,0-24.2c0-0.2,0.6-3.8,5.9-3.8c3,0,5.1,0,6.6,0v32.3L10.7,65.5z M22.7,65.5c-0.2-0.2-0.5-0.2-0.7-0.3V32.5
		c0,0,0,0,0.1,0l27.9-22.1l0.2,78L22.7,65.5z"/>
</g>
</svg>
