<svg xmlns="http://www.w3.org/2000/svg" xmlns:xlink="http://www.w3.org/1999/xlink" viewBox="0 0 870.52 870.52"><defs><style>.cls-1{fill:url(#Безымянный_градиент_98);}.cls-2{fill:#707a27;}.cls-3{fill:#b1bf4c;}.cls-4{fill:#fff;}.cls-5{fill:#3a2127;}.cls-6{fill:#f7aa50;}.cls-7{fill:#ccd36c;}.cls-8{fill:#e8363f;}</style><radialGradient id="Безымянный_градиент_98" cx="435.26" cy="435.26" r="435.26" gradientUnits="userSpaceOnUse"><stop offset="0.39" stop-color="#5f87be"/><stop offset="1" stop-color="#5f87be" stop-opacity="0.3"/></radialGradient></defs><g id="Слой_2" data-name="Слой 2"><g id="Слой_1-2" data-name="Слой 1"><circle class="cls-1" cx="435.26" cy="435.26" r="435.26"/><path class="cls-2" d="M574.21,361.09c-.06,3.74,56.3-2.18,85.45,3.33,82.07,15.53,119,81.95,120.44,139.17.39,15.45-5.35,57.45-28.62,98.3-24.67,43.3-64.92,60.11-111.57,79.59C596.61,699.56,563,704.8,512,712.74c-100.38,15.65-193,11-217.65-.36-11.59-5.34-26.84-32.68,10.15-38,50.71-7.3,77.89-4.85,113.7-6.39,26.05-1.13,130.24-6.76,197.54-54,14.82-10.4,36-26.68,41.93-54.72,4-19,1.83-47.34-15.63-61.11-14.85-11.7-27.57-2.48-38.38-12.08-20.29-18-48.93-78.39-8-107.78C612.73,366.07,574.26,357.62,574.21,361.09Z"/><path class="cls-2" d="M389.87,608.16C305.59,549.75,268.16,503.71,262.58,464c-4.38-31.17-1.22-83.63-33.4-103.75-9.6-6-19.18-7.14-24.87-7.81-48.18-5.71-83.94,40-86,42.63-28.53,37.57-21.94,81.56-19.9,95.23,9.46,63.17,58.92,97.59,68.93,105.17C251.41,659.09,389.87,608.16,389.87,608.16Z"/><path class="cls-3" d="M656.42,417.83a224.7,224.7,0,0,1-449.39,0c0-96.34,60.67-178.56,145.91-210.46a225.2,225.2,0,0,1,162.58,1.92C598.11,242.52,656.42,323.37,656.42,417.83Z"/><path class="cls-2" d="M515.52,209.29a36.41,36.41,0,0,1-7.45,10.77l-47,47a37.33,37.33,0,0,1-52.78,0l-47-47a37.61,37.61,0,0,1-8.3-12.69,225.2,225.2,0,0,1,162.58,1.92Z"/><path class="cls-2" d="M464.45,409.85a2.9,2.9,0,0,1-2.9-2.9c0-7.54-5-13.83-10.54-11.79l-2.17.79L447.58,394a17.56,17.56,0,0,0-30.15.61L416,397.08l-2.47-1.43a6.17,6.17,0,0,0-3.11-.88c-4.6,0-8.5,5.58-8.5,12.18a2.9,2.9,0,0,1-5.8,0c0-9.92,6.42-18,14.3-18a11.52,11.52,0,0,1,3.5.54,23.29,23.29,0,0,1,37.33-.39c8.54-1.43,16.15,7.15,16.15,17.83A2.9,2.9,0,0,1,464.45,409.85Z"/><path class="cls-2" d="M478.42,350.28a2.9,2.9,0,0,1-2.9-2.9c0-11.78-7.94-21.18-16.71-18l-2.17.79-1.25-1.93a26.29,26.29,0,0,0-45.12.9l-1.47,2.45-2.47-1.42a10,10,0,0,0-5.05-1.41c-7.37,0-13.36,8.35-13.36,18.61a2.91,2.91,0,0,1-5.81,0c0-13.46,8.6-24.42,19.17-24.42a15.46,15.46,0,0,1,5.45,1A32,32,0,0,1,459,323.3a15.32,15.32,0,0,1,3.14-.34c10.57,0,19.17,11,19.17,24.42A2.9,2.9,0,0,1,478.42,350.28Z"/><circle class="cls-4" cx="319.49" cy="396.92" r="49.45" transform="translate(-187.09 342.17) rotate(-45)"/><path class="cls-5" d="M368.94,399.83a2.91,2.91,0,0,1-2.91-2.91,46.55,46.55,0,1,0-93.09,0,2.9,2.9,0,0,1-2.9,2.91H249.31a2.91,2.91,0,1,1,0-5.81h17.9a52.36,52.36,0,0,1,104.63,2.9A2.9,2.9,0,0,1,368.94,399.83Z"/><path class="cls-5" d="M277.69,396.92a41.8,41.8,0,1,0,41.8-41.8A41.79,41.79,0,0,0,277.69,396.92Z"/><path class="cls-6" d="M311.59,396.92c0,14.7,3.54,26.62,7.9,26.62s7.89-11.92,7.89-26.62-3.53-26.61-7.89-26.61S311.59,382.22,311.59,396.92Z"/><path class="cls-4" d="M291.36,410.27c-5.2,0-9.38-5.62-9.33-12.47s4.31-12.37,9.51-12.33,1.64,5.57,1.59,12.41S296.55,410.3,291.36,410.27Z"/><polygon class="cls-4" points="365.63 368.5 359.59 353.36 353.54 368.5 338.82 374.13 353.29 378.78 359.59 394.9 365.88 378.78 380.36 374.13 365.63 368.5"/><circle class="cls-4" cx="552.68" cy="396.92" r="49.45" transform="translate(-56.31 93.4) rotate(-9.19)"/><path class="cls-5" d="M510.88,396.92a41.8,41.8,0,1,0,41.8-41.8A41.79,41.79,0,0,0,510.88,396.92Z"/><path class="cls-6" d="M544.79,396.92c0,14.7,3.53,26.62,7.89,26.62s7.89-11.92,7.89-26.62-3.53-26.61-7.89-26.61S544.79,382.22,544.79,396.92Z"/><path class="cls-5" d="M622.86,399.83H602.13a2.9,2.9,0,0,1-2.9-2.91,46.55,46.55,0,0,0-93.1,0,2.9,2.9,0,1,1-5.8,0A52.35,52.35,0,0,1,605,394h17.91a2.91,2.91,0,0,1,0,5.81Z"/><path class="cls-4" d="M526.25,410.27c-5.2,0-9.38-5.62-9.33-12.47s4.31-12.37,9.51-12.33,1.65,5.57,1.6,12.41S531.45,410.3,526.25,410.27Z"/><polygon class="cls-4" points="598.32 366.56 592.27 351.43 586.22 366.56 571.5 372.2 585.98 376.85 592.27 392.96 598.56 376.85 613.04 372.2 598.32 366.56"/><path class="cls-2" d="M294.76,273.69,360,325.94S363,253.37,294.76,273.69Z"/><path class="cls-2" d="M568.87,273.69l-65.23,52.25S500.59,253.37,568.87,273.69Z"/><path class="cls-7" d="M625.76,523.68c0,54.67-86.64,99-193.52,99s-193.52-44.33-193.52-99,86.64-72.06,193.52-72.06S625.76,469,625.76,523.68Z"/><path class="cls-4" d="M397,523.91l1.53-.26a9,9,0,0,1,1-.11,2.64,2.64,0,0,1,1.11,0c.18.17.09.4.15.6l.14,1.25.27,2.49.46,5c.18,3.37.52,6.69.57,10.09s.16,6.8.13,10.22-.2,6.89-.64,10.42a2.85,2.85,0,0,1-5.09,1.38c-2.15-2.83-4-5.76-5.8-8.68s-3.47-5.9-5-8.89-3.06-6-4.6-9l-2.12-4.55-1-2.29-.51-1.15c-.05-.19-.25-.36-.18-.59a2.67,2.67,0,0,1,.95-.57,6.75,6.75,0,0,1,.92-.41l1.45-.56A89.55,89.55,0,0,1,397,523.91Z"/><path class="cls-4" d="M466.42,523.91l-1.52-.26a9.35,9.35,0,0,0-1-.11,2.67,2.67,0,0,0-1.11,0c-.17.17-.09.4-.14.6l-.14,1.25-.27,2.49-.46,5c-.18,3.37-.52,6.69-.58,10.09s-.15,6.8-.12,10.22.2,6.89.63,10.42a2.85,2.85,0,0,0,5.09,1.38c2.16-2.83,4-5.76,5.8-8.68s3.47-5.9,5.05-8.89,3.05-6,4.59-9l2.13-4.55,1-2.29.51-1.15c.05-.19.24-.36.18-.59a2.76,2.76,0,0,0-1-.57,6.22,6.22,0,0,0-.92-.41l-1.45-.56A89.55,89.55,0,0,0,466.42,523.91Z"/><path class="cls-5" d="M422.11,480c-2.81,4-5.71,6.48-8,4.86S412.22,477,415,473s7-4.2,9.25-2.58S424.91,476,422.11,480Z"/><path class="cls-5" d="M441.34,480c2.81,4,5.71,6.48,8,4.86s1.89-7.85-.92-11.83-7-4.2-9.25-2.58S438.54,476,441.34,480Z"/><path class="cls-8" d="M448.14,515.17l-16.42-11.58L415.3,515.17h0s-13.26,87.6,6.57,143.92l9.85-31.81,9.84,31.81C461.4,602.77,448.14,515.17,448.14,515.17Z"/><path class="cls-5" d="M431.72,538.38a3.09,3.09,0,0,1-2.9-3.26V507.33a2.92,2.92,0,1,1,5.8,0v27.79A3.1,3.1,0,0,1,431.72,538.38Z"/><path class="cls-5" d="M373.85,532.92a32.6,32.6,0,0,1-21-7c-14.59-11.7-24.39-25.17-32.26-36-6.14-8.44-11.44-15.73-15.5-16.54-32.2-6.44-47.9-16-46.66-28.52a2.93,2.93,0,0,1,3.17-2.6,2.9,2.9,0,0,1,2.6,3.17c-.85,8.64,14.46,16.75,42,22.26,6.28,1.25,11.64,8.62,19.06,18.81,7.66,10.54,17.21,23.66,31.19,34.88,25.07,20.12,72.85-19.65,73.33-20.06a2.9,2.9,0,1,1,3.74,4.44C431.94,507.2,401,532.92,373.85,532.92Z"/><path class="cls-5" d="M489.58,532.92c-27.15,0-58.08-25.72-59.73-27.11a2.9,2.9,0,0,1,3.74-4.44c.48.41,48.28,40.15,73.32,20.06,14-11.22,23.53-24.34,31.2-34.88,7.41-10.19,12.77-17.56,19.06-18.81,27.56-5.51,42.88-13.62,42-22.26a2.9,2.9,0,0,1,2.6-3.17,2.94,2.94,0,0,1,3.18,2.6c1.23,12.49-14.46,22.08-46.66,28.52-4.07.81-9.37,8.1-15.5,16.54-7.88,10.82-17.67,24.29-32.26,36A32.64,32.64,0,0,1,489.58,532.92Z"/></g></g></svg>