<svg xmlns="http://www.w3.org/2000/svg" xmlns:xlink="http://www.w3.org/1999/xlink" viewBox="0 0 870.52 870.52"><defs><style>.cls-1{isolation:isolate;}.cls-2{fill:url(#Безымянный_градиент_98);}.cls-3,.cls-4{fill:#ffeddf;}.cls-4{mix-blend-mode:multiply;}.cls-5{fill:#ffb19f;}.cls-6{fill:#fff;}.cls-7{fill:#3a2127;}.cls-8{fill:#f7ccc3;}.cls-9{fill:#eb4f63;}.cls-10{fill:#cab095;}</style><radialGradient id="Безымянный_градиент_98" cx="435.26" cy="435.26" r="435.26" gradientUnits="userSpaceOnUse"><stop offset="0.39" stop-color="#5f87be"/><stop offset="1" stop-color="#5f87be" stop-opacity="0.3"/></radialGradient></defs><g class="cls-1"><g id="Слой_2" data-name="Слой 2"><g id="Слой_1-2" data-name="Слой 1"><circle class="cls-2" cx="435.26" cy="435.26" r="435.26"/><circle class="cls-3" cx="433.87" cy="492.88" r="224.68"/><path class="cls-3" d="M696.87,343.38c-8.21,12-20.32,24.06-34.51,34.48C625.21,405.2,574,421.75,542.43,400.21c-43.68-29.72-33.41-120.86-3.69-164.54A95.66,95.66,0,1,1,696.87,343.38Z"/><path class="cls-4" d="M696.87,343.38c-8.21,12-20.32,24.06-34.51,34.48-1.16,0-2.32.06-3.51.06A95.55,95.55,0,0,1,622.57,194a95.64,95.64,0,0,1,74.3,149.39Z"/><path class="cls-5" d="M664.11,352.78c-23,33.72-85.55,66.86-119.27,43.89S519,303.33,542,269.62a73.87,73.87,0,0,1,122.11,83.16Z"/><path class="cls-3" d="M329.28,235.67c29.75,43.67,40,134.8-3.67,164.55S200.89,387,171.15,343.38A95.66,95.66,0,0,1,329.28,235.67Z"/><path class="cls-5" d="M203.93,352.78c23,33.72,85.55,66.86,119.27,43.89s25.8-93.34,2.83-127a73.86,73.86,0,0,0-122.1,83.16Z"/><path class="cls-6" d="M270.81,492.88a42,42,0,1,0,42-42A42,42,0,0,0,270.81,492.88Z"/><path class="cls-7" d="M354.82,495.78a2.9,2.9,0,0,1-2.9-2.9,39.11,39.11,0,0,0-78.21,0,2.9,2.9,0,0,1-5.8,0,44.91,44.91,0,1,1,89.81,0A2.9,2.9,0,0,1,354.82,495.78Z"/><circle class="cls-7" cx="312.82" cy="492.88" r="35.51"/><path class="cls-6" d="M314.86,517.57c-3,4.74-10.49,5.37-16.72,1.42s-8.86-11-5.86-15.72,6,1.67,12.26,5.61S317.86,512.84,314.86,517.57Z"/><path class="cls-5" d="M503.92,503.51c0-54.9-31.21-99.41-69.71-99.41s-69.71,44.51-69.71,99.41c0,45.76,21.68,84.27,51.19,95.84-7,3.16-11.45,8-11.45,13.55,0,9.53,13.42,17.26,30,17.26s30-7.73,30-17.26c0-5.51-4.49-10.4-11.47-13.56C482.24,587.76,503.92,549.26,503.92,503.51Z"/><path class="cls-6" d="M514.63,492.88a42,42,0,1,0,42-42A42,42,0,0,0,514.63,492.88Z"/><path class="cls-7" d="M598.64,495.78a2.9,2.9,0,0,1-2.9-2.9,39.11,39.11,0,0,0-78.21,0,2.9,2.9,0,0,1-5.8,0,44.91,44.91,0,1,1,89.81,0A2.9,2.9,0,0,1,598.64,495.78Z"/><circle class="cls-7" cx="556.64" cy="492.88" r="35.51"/><path class="cls-6" d="M558.68,517.57c-3,4.74-10.48,5.37-16.72,1.42s-8.86-11-5.86-15.72,6,1.67,12.27,5.61S561.68,512.84,558.68,517.57Z"/><path class="cls-7" d="M275.48,597.16a2.9,2.9,0,0,1-1.34-5.48l111.86-58a2.9,2.9,0,0,1,2.67,5.15L276.82,596.83A2.82,2.82,0,0,1,275.48,597.16Z"/><path class="cls-7" d="M331.41,611.67a2.86,2.86,0,0,1-2.14-.94,2.9,2.9,0,0,1,.18-4.1l60.28-55.15a2.91,2.91,0,0,1,3.92,4.29l-60.28,55.14A2.9,2.9,0,0,1,331.41,611.67Z"/><path class="cls-7" d="M588.53,597.16a2.76,2.76,0,0,1-1.33-.33L475.34,538.78a2.9,2.9,0,0,1,2.67-5.15l111.86,58a2.9,2.9,0,0,1-1.34,5.48Z"/><path class="cls-7" d="M532.6,611.67a2.86,2.86,0,0,1-2-.76l-60.29-55.14a2.91,2.91,0,0,1,3.92-4.29l60.28,55.15a2.9,2.9,0,0,1-2,5Z"/><path class="cls-7" d="M434,588.87a2.9,2.9,0,0,1-2.91-2.9V560.66a2.91,2.91,0,0,1,5.81,0V586A2.9,2.9,0,0,1,434,588.87Z"/><path class="cls-7" d="M416.15,600.48a20.8,20.8,0,0,1-20.78-20.77,2.91,2.91,0,0,1,5.81,0,15,15,0,1,0,29.93,0,2.91,2.91,0,0,1,5.81,0A20.8,20.8,0,0,1,416.15,600.48Z"/><path class="cls-7" d="M451.89,600.48a20.8,20.8,0,0,1-20.78-20.77,2.91,2.91,0,0,1,5.81,0,15,15,0,0,0,29.94,0,2.9,2.9,0,1,1,5.8,0A20.8,20.8,0,0,1,451.89,600.48Z"/><path class="cls-8" d="M454.69,540.45a20.91,20.91,0,0,1-.13,2.25,13.83,13.83,0,0,0-8.81-2.88c-4.7,0-8.74,2-10.54,4.85a1,1,0,0,1-1.67,0c-1.8-2.86-5.84-4.85-10.55-4.85a13.67,13.67,0,0,0-9.1,3.14,20.62,20.62,0,0,1-.16-2.51c0-11,9.17-11.8,20.48-11.8S454.69,529.41,454.69,540.45Z"/><path class="cls-9" d="M454.56,542.7a19.4,19.4,0,0,1-1.38,5.27,20.67,20.67,0,0,1-37.95,0,19.1,19.1,0,0,1-1.34-5,13.67,13.67,0,0,1,9.1-3.14c4.71,0,8.75,2,10.55,4.85a1,1,0,0,0,1.67,0c1.8-2.86,5.84-4.85,10.54-4.85A13.83,13.83,0,0,1,454.56,542.7Z"/><path class="cls-10" d="M415.83,302l-.36-80.64S459.26,254.66,415.83,302Z"/><path class="cls-10" d="M425.6,310.08l62-58.38S487.52,318.79,425.6,310.08Z"/><path class="cls-10" d="M365.54,421.49c0,5.88-12.18,10.65-27.2,10.65s-27.21-4.77-27.21-10.65,12.18-10.64,27.21-10.64S365.54,415.62,365.54,421.49Z"/><path class="cls-10" d="M553.94,421.49c0,5.88-12.18,10.65-27.2,10.65s-27.21-4.77-27.21-10.65,12.18-10.64,27.21-10.64S553.94,415.62,553.94,421.49Z"/></g></g></g></svg>