<svg xmlns="http://www.w3.org/2000/svg" xmlns:xlink="http://www.w3.org/1999/xlink" viewBox="0 0 870.52 870.52"><defs><style>.cls-1{fill:url(#Безымянный_градиент_98);}.cls-2{fill:#ffeddf;}.cls-3{fill:#f9ceb2;}.cls-4{fill:#fff;}.cls-5{fill:#3a2127;}.cls-6{fill:#e8363f;}.cls-7{fill:#f7aa50;}</style><radialGradient id="Безымянный_градиент_98" cx="435.26" cy="435.26" r="435.26" gradientUnits="userSpaceOnUse"><stop offset="0.39" stop-color="#5f87be"/><stop offset="1" stop-color="#5f87be" stop-opacity="0.3"/></radialGradient></defs><g id="Слой_2" data-name="Слой 2"><g id="Слой_1-2" data-name="Слой 1"><circle class="cls-1" cx="435.26" cy="435.26" r="435.26"/><circle class="cls-2" cx="434.89" cy="486.55" r="224.68"/><ellipse class="cls-3" cx="320.1" cy="486.55" rx="43.85" ry="76.11"/><path class="cls-4" d="M364,497.87A46.33,46.33,0,1,1,279,463.16l6.7,2.75a39.17,39.17,0,1,0,71.52,29.23Z"/><path class="cls-5" d="M357.24,495.14a39.17,39.17,0,1,1-71.52-29.23Z"/><path class="cls-5" d="M364,500.77a2.83,2.83,0,0,1-1.1-.21l-84.93-34.71a2.91,2.91,0,0,1,2.2-5.38l84.93,34.71a2.9,2.9,0,0,1-1.1,5.59Z"/><path class="cls-4" d="M313,515.84c-2.09,3.3-7.31,3.75-11.66,1s-6.17-7.66-4.08-11,4.2,1.16,8.55,3.91S315.11,512.54,313,515.84Z"/><ellipse class="cls-3" cx="552.59" cy="486.55" rx="44.03" ry="76.11"/><path class="cls-4" d="M508.56,497.87a46.33,46.33,0,1,0,84.93-34.71l-6.71,2.75a39.17,39.17,0,1,1-71.52,29.23Z"/><path class="cls-5" d="M515.26,495.14a39.17,39.17,0,1,0,71.52-29.23Z"/><path class="cls-5" d="M508.56,500.77a2.9,2.9,0,0,1-1.1-5.59l84.93-34.71a2.9,2.9,0,0,1,2.19,5.38l-84.92,34.71A2.83,2.83,0,0,1,508.56,500.77Z"/><path class="cls-4" d="M546.21,515.84c-2.09,3.3-7.31,3.75-11.65,1s-6.18-7.66-4.09-11,4.2,1.16,8.55,3.91S548.3,512.54,546.21,515.84Z"/><path class="cls-6" d="M377.21,520.37V631c0,32.64,49,34.39,50.65,1.79,1.14-22.44-7.94-58.4-37.16-115.64C387.29,510.48,377.21,512.87,377.21,520.37Z"/><path class="cls-6" d="M496.27,520.37V631c0,32.64-49,34.39-50.66,1.79-1.13-22.44,7.95-58.4,37.16-115.64C486.18,510.48,496.27,512.87,496.27,520.37Z"/><path class="cls-6" d="M459.6,429.11a26.63,26.63,0,0,0-10,1.94,76.55,76.55,0,0,0,.84-11.18c0-27-13.68-48.84-30.56-48.84s-30.55,21.87-30.55,48.84,13.68,48.84,30.55,48.84a21.9,21.9,0,0,0,14-5.45,26.76,26.76,0,1,0,25.71-34.15Z"/><path class="cls-7" d="M436.74,442.17l-64.23,71.07s10.71,56.49,64.23,76.11C490.26,569.73,501,513.24,501,513.24Z"/><path class="cls-5" d="M407.37,485.88l21.71-23.19S426.4,491.23,407.37,485.88Z"/><path class="cls-5" d="M466.1,485.88l-21.71-23.19S447.07,491.23,466.1,485.88Z"/><path class="cls-7" d="M374.64,428.3l-79.09-64.58S353.6,338.32,374.64,428.3Z"/><path class="cls-7" d="M344.65,423.5s-31.82-43.45-73.59-18.29Z"/><path class="cls-2" d="M322.07,337.31l-102-4S251.13,278.09,322.07,337.31Z"/><path class="cls-2" d="M296.41,337.92s-51.56-15.57-69.79,29.65Z"/><path class="cls-2" d="M554,337.31l102-4S624.89,278.09,554,337.31Z"/><path class="cls-2" d="M579.61,337.92s51.56-15.57,69.8,29.65Z"/><path class="cls-2" d="M369.6,656.07l-91.85,44.6S279.12,637.32,369.6,656.07Z"/><path class="cls-2" d="M352.64,681.27s-52.81,10.59-47.55,59.07Z"/><path class="cls-2" d="M494.43,656.07l91.86,44.6S584.92,637.32,494.43,656.07Z"/><path class="cls-2" d="M511.4,681.27s52.8,10.59,47.55,59.07Z"/><path class="cls-7" d="M497.88,428.3,577,363.72S518.92,338.32,497.88,428.3Z"/><path class="cls-7" d="M527.87,423.5s31.82-43.45,73.59-18.29Z"/><path class="cls-6" d="M576.33,284.83H573.6a80.85,80.85,0,0,0,3.48-23.47c0-41.55-31.17-75.23-69.62-75.23-18.77,0-35.8,8.05-48.32,21.11-13-41.93-47.53-71.9-88.05-71.9-51.69,0-93.6,48.78-93.6,109a121.29,121.29,0,0,0,16.34,61.51h0s5.32,12.39,20.67,25.25A89.15,89.15,0,0,0,345,348.93c34.08,13.49,88.81,18,174.4-12.35,0,0,83.92-26.62,111-8.13A55.24,55.24,0,0,0,576.33,284.83Z"/></g></g></svg>