<svg xmlns="http://www.w3.org/2000/svg" xmlns:xlink="http://www.w3.org/1999/xlink" viewBox="0 0 870.52 870.52"><defs><style>.cls-1{fill:url(#Безымянный_градиент_98);}.cls-2{fill:#3a2127;}.cls-3{fill:#ffb19f;}.cls-4{fill:#fff;}.cls-5{fill:#51333d;}</style><radialGradient id="Безымянный_градиент_98" cx="435.26" cy="435.26" r="435.26" gradientUnits="userSpaceOnUse"><stop offset="0.39" stop-color="#5f87be"/><stop offset="1" stop-color="#5f87be" stop-opacity="0.3"/></radialGradient></defs><g id="Слой_2" data-name="Слой 2"><g id="Слой_1-2" data-name="Слой 1"><circle class="cls-1" cx="435.26" cy="435.26" r="435.26"/><circle class="cls-2" cx="442.01" cy="444.46" r="224.68"/><circle class="cls-3" cx="326.89" cy="419.58" r="106.05"/><circle class="cls-3" cx="557.05" cy="418.16" r="106.05"/><path class="cls-3" d="M209.2,321.49c25,0,63.36,20.26,63.36,45.25S234.2,412,209.2,412a45.26,45.26,0,1,1,0-90.51Z"/><path class="cls-3" d="M635.64,334.21V490a118.45,118.45,0,0,1-85.45,40.7,118.71,118.71,0,0,1-217.45,0A118.33,118.33,0,0,1,248.16,491V333.16a118.7,118.7,0,0,1,193.27,23,118.71,118.71,0,0,1,194.21-21.91Z"/><path class="cls-2" d="M452.18,448.35a14.84,14.84,0,0,0-12,6.16,14.88,14.88,0,0,0-26.93,8.76,2.9,2.9,0,0,0,5.8,0,9.12,9.12,0,0,1,18.23,0,2.9,2.9,0,0,0,5.8,0,9.11,9.11,0,0,1,18.22,0,2.91,2.91,0,0,0,5.81,0A14.93,14.93,0,0,0,452.18,448.35Z"/><path class="cls-2" d="M439.84,513.41c-32.88,0-58.39-23.76-58.39-44.19a2.91,2.91,0,1,1,5.81,0c0,17.75,23,38.38,52.58,38.38s52.58-20.63,52.58-38.38a2.91,2.91,0,1,1,5.81,0C498.23,489.65,472.72,513.41,439.84,513.41Z"/><circle class="cls-4" cx="334.98" cy="406.64" r="49.45" transform="translate(-189.42 355.97) rotate(-45)"/><path class="cls-2" d="M384.43,409.54a2.9,2.9,0,0,1-2.9-2.9,46.55,46.55,0,1,0-93.1,0,2.9,2.9,0,0,1-5.8,0,52.35,52.35,0,1,1,104.7,0A2.9,2.9,0,0,1,384.43,409.54Z"/><path class="cls-2" d="M293.18,406.64a41.8,41.8,0,1,0,41.8-41.8A41.81,41.81,0,0,0,293.18,406.64Z"/><path class="cls-4" d="M333,434.33c-2.53,4-8.86,4.54-14.13,1.2s-7.49-9.29-5-13.3,5.1,1.41,10.37,4.75S335.55,430.32,333,434.33Z"/><path class="cls-2" d="M291.79,383.25a2.85,2.85,0,0,1-1.88-.7L276.4,371a2.9,2.9,0,0,1,3.78-4.41l13.5,11.57a2.9,2.9,0,0,1,.32,4.09A2.87,2.87,0,0,1,291.79,383.25Z"/><path class="cls-2" d="M314.5,364.39a2.9,2.9,0,0,1-2.63-1.68l-7.53-16.11a2.9,2.9,0,0,1,5.26-2.46l7.53,16.12a2.89,2.89,0,0,1-1.4,3.85A2.86,2.86,0,0,1,314.5,364.39Z"/><path class="cls-2" d="M356.57,365.09a2.91,2.91,0,0,1-2.56-4.26l8.31-15.72a2.9,2.9,0,1,1,5.13,2.71l-8.31,15.72A2.9,2.9,0,0,1,356.57,365.09Z"/><path class="cls-2" d="M378.24,385.78a2.91,2.91,0,0,1-1.23-5.54l16.12-7.51a2.9,2.9,0,0,1,2.46,5.26l-16.12,7.52A3,3,0,0,1,378.24,385.78Z"/><circle class="cls-4" cx="542.01" cy="406.64" r="49.45" transform="translate(-79.16 135.94) rotate(-13.33)"/><path class="cls-2" d="M591.47,409.54a2.9,2.9,0,0,1-2.91-2.9,46.55,46.55,0,1,0-93.09,0,2.91,2.91,0,0,1-5.81,0,52.36,52.36,0,1,1,104.71,0A2.9,2.9,0,0,1,591.47,409.54Z"/><path class="cls-2" d="M500.21,406.64a41.81,41.81,0,1,0,41.8-41.8A41.81,41.81,0,0,0,500.21,406.64Z"/><path class="cls-4" d="M537.91,434.33c-2.53,4-8.86,4.54-14.14,1.2s-7.49-9.29-4.95-13.3,5.1,1.41,10.37,4.75S540.45,430.32,537.91,434.33Z"/><path class="cls-2" d="M498.83,383.25a2.9,2.9,0,0,1-1.89-.7L483.43,371a2.9,2.9,0,0,1,3.78-4.41l13.51,11.57a2.9,2.9,0,0,1,.31,4.09A2.85,2.85,0,0,1,498.83,383.25Z"/><path class="cls-2" d="M521.54,364.39a2.9,2.9,0,0,1-2.63-1.68l-7.53-16.11a2.9,2.9,0,1,1,5.26-2.46l7.52,16.12a2.89,2.89,0,0,1-1.4,3.85A2.79,2.79,0,0,1,521.54,364.39Z"/><path class="cls-2" d="M563.61,365.09a2.91,2.91,0,0,1-2.57-4.26l8.31-15.72a2.91,2.91,0,0,1,5.14,2.71l-8.31,15.72A2.91,2.91,0,0,1,563.61,365.09Z"/><path class="cls-2" d="M585.28,385.78a2.91,2.91,0,0,1-1.23-5.54l16.12-7.51a2.9,2.9,0,0,1,2.45,5.26l-16.12,7.52A3,3,0,0,1,585.28,385.78Z"/><path class="cls-2" d="M242.37,365.09a2.9,2.9,0,0,1-1.92-.72c-.23-.2-15.52-13.13-44.36-8.6a2.91,2.91,0,0,1-.9-5.74c31.79-5,48.41,9.37,49.1,10a2.9,2.9,0,0,1-1.92,5.07Z"/><path class="cls-2" d="M214.57,371.16a2.89,2.89,0,0,1-2.45-4.45l.17-.33c5.5-10.54,14.77-12.5,21.54-12.24a2.9,2.9,0,0,1,2.8,3,2.82,2.82,0,0,1-3,2.8c-11.29-.36-15,6.77-16.19,9.13-.2.38-.35.65-.45.8A2.9,2.9,0,0,1,214.57,371.16Z"/><path class="cls-3" d="M674.65,321.49c-25,0-63.36,20.26-63.36,45.25S649.66,412,674.65,412a45.26,45.26,0,1,0,0-90.51Z"/><path class="cls-2" d="M641.49,365.09a2.9,2.9,0,0,1-1.93-5.07c.69-.62,17.32-15,49.1-10a2.91,2.91,0,1,1-.9,5.74c-28.92-4.55-44.21,8.47-44.36,8.6A2.9,2.9,0,0,1,641.49,365.09Z"/><path class="cls-2" d="M669.22,371.13a2.8,2.8,0,0,1-2.35-1.26,7.86,7.86,0,0,1-.45-.8c-1.23-2.35-4.92-9.49-16.2-9.13a2.84,2.84,0,0,1-3-2.8,2.91,2.91,0,0,1,2.8-3c6.81-.26,16.05,1.7,21.54,12.24l.18.34a3,3,0,0,1-1,4A3,3,0,0,1,669.22,371.13Z"/><path class="cls-2" d="M439.84,513.41a2.9,2.9,0,0,1-2.9-2.9V489.86a2.9,2.9,0,1,1,5.8,0v20.65A2.9,2.9,0,0,1,439.84,513.41Z"/><path class="cls-5" d="M428,267.62l-63.15-52.27S421.64,203.2,428,267.62Z"/><path class="cls-5" d="M439.55,279l55.61-67.73S504.73,273.84,439.55,279Z"/></g></g></svg>