<svg xmlns="http://www.w3.org/2000/svg" xmlns:xlink="http://www.w3.org/1999/xlink" viewBox="0 0 870.52 870.52"><defs><style>.cls-1{fill:url(#Безымянный_градиент_98);}.cls-2{fill:#ffeddf;}.cls-3{fill:#e8363f;}.cls-4{fill:#ffb19f;}.cls-5{fill:#3a2127;}.cls-6{fill:#fff;}.cls-7{fill:#d9c5b8;}</style><radialGradient id="Безымянный_градиент_98" cx="435.26" cy="435.26" r="435.26" gradientUnits="userSpaceOnUse"><stop offset="0.39" stop-color="#5f87be"/><stop offset="1" stop-color="#5f87be" stop-opacity="0.3"/></radialGradient></defs><g id="Слой_2" data-name="Слой 2"><g id="Слой_1-2" data-name="Слой 1"><circle class="cls-1" cx="435.26" cy="435.26" r="435.26"/><path class="cls-2" d="M657,478c0,124.08-100.59,224.68-224.67,224.68S207.68,602.09,207.68,478,310.87,278.66,435,278.66,657,353.92,657,478Z"/><path class="cls-3" d="M467.76,565.36c6.65,12.58,10.92,37,2.6,41.37s-26.09-12.84-32.75-25.41.32-15.72,8.65-20.13S461.1,552.79,467.76,565.36Z"/><path class="cls-4" d="M468.46,541.05c0,22.47-14.87,40.69-33.2,40.69s-33.2-18.22-33.2-40.69,14.86-40.7,33.2-40.7S468.46,518.57,468.46,541.05Z"/><ellipse class="cls-2" cx="480.31" cy="314.15" rx="99.41" ry="70.63"/><ellipse class="cls-2" cx="563.64" cy="402.74" rx="99.41" ry="70.63"/><ellipse class="cls-2" cx="579.72" cy="474.27" rx="99.41" ry="70.63"/><ellipse class="cls-2" cx="358.89" cy="332.53" rx="99.41" ry="70.63"/><ellipse class="cls-2" cx="304.48" cy="403.64" rx="99.41" ry="70.63"/><ellipse class="cls-2" cx="286.81" cy="481.15" rx="99.41" ry="70.63"/><path class="cls-5" d="M459.85,530.53l-14.63,9.2a18.85,18.85,0,0,1-20,0l-14.51-9.09a3.19,3.19,0,0,1,1.69-5.88l3,1.18a54.66,54.66,0,0,0,39.68-.09l3.06-1.21A3.19,3.19,0,0,1,459.85,530.53Z"/><path class="cls-5" d="M435.26,583.68c-19.5,0-34.06-13.78-34.06-26.1a2.9,2.9,0,1,1,5.8,0c0,9.19,12.61,20.29,28.26,20.29s28.25-11.1,28.25-20.29a2.91,2.91,0,0,1,5.81,0C469.32,569.9,454.75,583.68,435.26,583.68Z"/><path class="cls-5" d="M435.26,581.13a2.9,2.9,0,0,1-2.9-2.9v-40a2.9,2.9,0,0,1,5.8,0v40A2.9,2.9,0,0,1,435.26,581.13Z"/><circle class="cls-6" cx="326.59" cy="506.01" r="49.45" transform="translate(-265.65 615.35) rotate(-67.62)"/><path class="cls-5" d="M376,508.91a2.9,2.9,0,0,1-2.9-2.9,46.55,46.55,0,0,0-93.1,0,2.91,2.91,0,0,1-5.81,0,52.36,52.36,0,0,1,104.71,0A2.9,2.9,0,0,1,376,508.91Z"/><path class="cls-5" d="M284.79,506a41.8,41.8,0,1,0,41.8-41.8A41.8,41.8,0,0,0,284.79,506Z"/><path class="cls-6" d="M324.62,533.7c-2.54,4-8.87,4.54-14.14,1.2s-7.49-9.29-5-13.29,5.1,1.4,10.37,4.74S327.16,529.7,324.62,533.7Z"/><circle class="cls-6" cx="540.65" cy="506.01" r="49.45" transform="translate(-102.11 138.3) rotate(-13.33)"/><path class="cls-5" d="M590.1,508.91a2.9,2.9,0,0,1-2.91-2.9,46.55,46.55,0,1,0-93.09,0,2.91,2.91,0,0,1-5.81,0A52.36,52.36,0,0,1,593,506,2.9,2.9,0,0,1,590.1,508.91Z"/><path class="cls-5" d="M498.85,506a41.8,41.8,0,1,0,41.8-41.8A41.8,41.8,0,0,0,498.85,506Z"/><path class="cls-6" d="M538.68,533.7c-2.54,4-8.87,4.54-14.14,1.2s-7.49-9.29-4.95-13.29,5.1,1.4,10.37,4.74S541.21,529.7,538.68,533.7Z"/><path class="cls-2" d="M339.85,347.88c-8.11,15.9-55.46,8-105.75-17.67S149.62,270.86,157.73,255s67-30.57,117.26-4.91S348,332,339.85,347.88Z"/><path class="cls-4" d="M320.71,337.23c-4.85,9.49-33.14,4.77-63.19-10.57s-50.49-35.46-45.65-45,40-18.27,70.08-2.94S325.56,327.73,320.71,337.23Z"/><path class="cls-2" d="M530.67,347.88c8.11,15.9,55.45,8,105.74-17.67S720.9,270.86,712.79,255s-67-30.57-117.27-4.91S522.56,332,530.67,347.88Z"/><path class="cls-4" d="M549.81,337.23C554.65,346.72,583,342,613,326.66s50.49-35.46,45.64-45-40-18.27-70.08-2.94S545,327.73,549.81,337.23Z"/><path class="cls-5" d="M461.33,591.93a2.91,2.91,0,0,1-2.57-1.54l-7-13.15a2.9,2.9,0,0,1,5.13-2.71l7,13.14a2.91,2.91,0,0,1-1.21,3.93A2.84,2.84,0,0,1,461.33,591.93Z"/><path class="cls-7" d="M411.46,385.19c-3.74-12.94-20.61-19.44-37.68-14.5a38.68,38.68,0,0,0-18.14,11.06l-1.28.33c-19.57,5.66-33,18.75-29.94,29.26s21.36,14.43,40.93,8.78c1.5-.44,2.95-.93,4.37-1.44a39.81,39.81,0,0,0,17.6-1.12C404.39,412.63,415.2,398.14,411.46,385.19Z"/><path class="cls-7" d="M459.06,385.19c3.74-12.94,20.61-19.44,37.68-14.5a38.73,38.73,0,0,1,18.14,11.06l1.28.33c19.57,5.66,33,18.75,29.94,29.26s-21.36,14.43-40.93,8.78c-1.5-.44-2.95-.93-4.37-1.44a39.85,39.85,0,0,1-17.61-1.12C466.12,412.63,455.32,398.14,459.06,385.19Z"/></g></g></svg>