<svg xmlns="http://www.w3.org/2000/svg" xmlns:xlink="http://www.w3.org/1999/xlink" viewBox="0 0 870.52 870.52"><defs><style>.cls-1{fill:url(#Безымянный_градиент_98);}.cls-2{fill:#f26831;}.cls-3{fill:#d6522a;}.cls-4{fill:#ffeddf;}.cls-5{fill:#3a2127;}.cls-6{fill:#faa244;}.cls-7{fill:#fff;}</style><radialGradient id="Безымянный_градиент_98" cx="435.26" cy="435.26" r="435.26" gradientUnits="userSpaceOnUse"><stop offset="0.39" stop-color="#5f87be"/><stop offset="1" stop-color="#5f87be" stop-opacity="0.3"/></radialGradient></defs><g id="Слой_2" data-name="Слой 2"><g id="Слой_1-2" data-name="Слой 1"><circle class="cls-1" cx="435.26" cy="435.26" r="435.26"/><path class="cls-2" d="M664.82,463.66a224.68,224.68,0,0,1-430.54,90c-1.92-4.39-3.72-8.89-5.35-13.42a223.93,223.93,0,0,1-13.27-67.54c-.12-3-.19-6-.19-9.07A224.24,224.24,0,0,1,360.94,253.35a219.78,219.78,0,0,1,28.73-8.7,229,229,0,0,1,50.5-5.68c7.52,0,15,.37,22.31,1.07a222.58,222.58,0,0,1,26.85,4.35,216,216,0,0,1,28.73,8.48C603.74,284.52,664.82,367,664.82,463.66Z"/><path class="cls-2" d="M246.86,253.72V352l90-66.3s-7.54-34.82-38.65-58C277,212,246.86,227.31,246.86,253.72Z"/><path class="cls-3" d="M644.46,557.23a224.71,224.71,0,0,1-410.18-3.54c59.53,32,131.27,50.68,208.47,50.68C517.07,604.37,586.22,587.11,644.46,557.23Z"/><path class="cls-4" d="M441.36,525.3c0,17.29-19.85,31.3-44.33,31.3s-44.33-14-44.33-31.3S372.54,494,397,494,441.36,508,441.36,525.3Z"/><path class="cls-4" d="M526.55,525.3c0,17.29-19.85,31.3-44.33,31.3s-44.33-14-44.33-31.3S457.74,494,482.22,494,526.55,508,526.55,525.3Z"/><path class="cls-3" d="M491.76,492.21c0-.22,0-.38,0-.6,0-89.49-23.4-153.77-52.27-153.77s-52.28,64.28-52.28,153.77c0,.22,0,.38,0,.6l52.27,16.65Z"/><path class="cls-4" d="M502.55,556c0,37.31-28.11,67.56-62.79,67.56S377,593.28,377,556l62.27-42.71Z"/><path class="cls-5" d="M489.78,498.12l-29.92,18.81a38.56,38.56,0,0,1-41,0l-29.66-18.59a6.51,6.51,0,0,1,3.44-12l46.84,15,46.8-15.25A6.5,6.5,0,0,1,489.78,498.12Z"/><path class="cls-5" d="M524.91,528.52a2.9,2.9,0,0,0-2.9,2.9c0,12.08-18.22,22.28-39.79,22.28C461,553.7,443,543.8,442.48,532c0-.19,0-.36,0-.55V512.51a2.91,2.91,0,0,0-5.81,0V531a3.55,3.55,0,0,0-.09.47c0,.19,0,.36,0,.55-.54,11.83-18.5,21.73-39.74,21.73-21.56,0-39.78-10.2-39.78-22.28a2.91,2.91,0,0,0-5.81,0c0,15.75,20,28.08,45.59,28.08,19.79,0,36.21-7.4,42.65-18,6.43,10.64,22.85,18,42.64,18,25.57,0,45.59-12.33,45.59-28.08A2.9,2.9,0,0,0,524.91,528.52Z"/><path class="cls-4" d="M368.75,467.62H325.06a43.69,43.69,0,0,1-43.7-43.69V361.58a43.69,43.69,0,0,1,43.7-43.69h0a43.69,43.69,0,0,1,43.69,43.69Z"/><path class="cls-5" d="M375.17,443S398,393.26,349,362.53Z"/><path class="cls-5" d="M347.28,417.47c.51,2.7-57.69-44.91-57.69-44.91S336.64,360.86,347.28,417.47Z"/><path class="cls-5" d="M266.88,418.12a103.42,103.42,0,0,0,11.57,20.28c6.58,9.17,16.1,19.48,28.92,26.4a84.79,84.79,0,0,0,31.74,9.25h0A106.75,106.75,0,0,0,368.64,473a105.57,105.57,0,0,0-13.52-22.92c-6.49-8.47-15.39-17.51-27-23.77-13.75-7.42-28.7-9.52-40.35-9.77A102.87,102.87,0,0,0,266.88,418.12Z"/><path class="cls-6" d="M355.11,450.1a57.8,57.8,0,0,1-3.69,8.41,56.62,56.62,0,0,1-12.29,15.55h0a93.51,93.51,0,0,1-19.81-4.15,76.32,76.32,0,0,1-9.43-3.86c-.77-.38-1.53-.75-2.27-1.15a1.13,1.13,0,0,1-.22-.11c-.77-.42-1.54-.85-2.29-1.33a52.62,52.62,0,0,1-4.48-2.83c-1.87-1.28-3.65-2.65-5.38-4a97.27,97.27,0,0,1-16.77-18.18,56.79,56.79,0,0,1,5.81-16.15,60.12,60.12,0,0,1,3.52-5.71,103.7,103.7,0,0,1,23.54,3.19c1.67.45,3.35.95,5,1.53a3.86,3.86,0,0,1,.54.19,72.43,72.43,0,0,1,11.22,4.87,64.73,64.73,0,0,1,5.79,3.53c.33.19.64.41,1,.63.65.44,1.26.89,1.88,1.36A90.41,90.41,0,0,1,355.11,450.1Z"/><path class="cls-5" d="M336.76,431.85a80.31,80.31,0,0,1-5.62,18.67,76.68,76.68,0,0,1-11.85,19.39,76.32,76.32,0,0,1-9.43-3.86c-.77-.38-1.53-.75-2.27-1.15a1.13,1.13,0,0,1-.22-.11c-.77-.42-1.54-.85-2.29-1.33a52.62,52.62,0,0,1-4.48-2.83c-1.87-1.28-3.65-2.65-5.38-4a78.16,78.16,0,0,1,5.7-19.17,79.6,79.6,0,0,1,10.4-17.68c1.67.45,3.35.95,5,1.53a3.86,3.86,0,0,1,.54.19,72.43,72.43,0,0,1,11.22,4.87,64.73,64.73,0,0,1,5.79,3.53c.33.19.64.41,1,.63C335.53,430.93,336.14,431.38,336.76,431.85Z"/><path class="cls-5" d="M368.64,475.91a2.9,2.9,0,0,1-2.71-1.84,104.08,104.08,0,0,0-13.11-22.22c-7.73-10.08-16.5-17.81-26.07-23-11-5.94-24.13-9.11-39-9.42a98.06,98.06,0,0,0-20.24,1.5,2.9,2.9,0,1,1-1.18-5.68,102.73,102.73,0,0,1,21.54-1.63c15.84.34,29.86,3.74,41.67,10.12,10.3,5.56,19.7,13.82,27.92,24.55A107.83,107.83,0,0,1,371.34,472a2.91,2.91,0,0,1-1.64,3.76A2.84,2.84,0,0,1,368.64,475.91Z"/><path class="cls-7" d="M298.5,427c-2.5-1.25-6.2,1.09-8.27,5.22s-1.71,8.49.79,9.74,2.48-2.94,4.55-7.07S301,428.23,298.5,427Z"/><path class="cls-4" d="M510.76,467.62h43.7a43.69,43.69,0,0,0,43.69-43.69V361.58a43.69,43.69,0,0,0-43.69-43.69h0a43.69,43.69,0,0,0-43.7,43.69Z"/><path class="cls-5" d="M504.34,443s-22.85-49.76,26.15-80.49Z"/><path class="cls-5" d="M532.23,417.47c-.51,2.7,57.69-44.91,57.69-44.91S542.87,360.86,532.23,417.47Z"/><path class="cls-5" d="M612.63,418.12a103.42,103.42,0,0,1-11.57,20.28c-6.58,9.17-16.1,19.48-28.92,26.4a84.79,84.79,0,0,1-31.74,9.25h0a106.65,106.65,0,0,1-29.5-1.05,105.25,105.25,0,0,1,13.51-22.92c6.49-8.47,15.39-17.51,27-23.77,13.75-7.42,28.69-9.52,40.35-9.77A102.82,102.82,0,0,1,612.63,418.12Z"/><path class="cls-6" d="M524.4,450.1a60.05,60.05,0,0,0,3.69,8.41,56.8,56.8,0,0,0,12.29,15.55h0a93.6,93.6,0,0,0,19.82-4.15,76.32,76.32,0,0,0,9.43-3.86c.76-.38,1.53-.75,2.27-1.15a1.5,1.5,0,0,0,.22-.11c.77-.42,1.54-.85,2.29-1.33a52.45,52.45,0,0,0,4.47-2.83c1.87-1.28,3.65-2.65,5.38-4a96.93,96.93,0,0,0,16.77-18.18,57.79,57.79,0,0,0-9.33-21.86,103.77,103.77,0,0,0-23.54,3.19c-1.67.45-3.35.95-5,1.53a3.86,3.86,0,0,0-.54.19,72.85,72.85,0,0,0-11.22,4.87,66.18,66.18,0,0,0-5.79,3.53c-.33.19-.64.41-1,.63-.64.44-1.26.89-1.88,1.36A90.66,90.66,0,0,0,524.4,450.1Z"/><path class="cls-5" d="M542.75,431.85a80.31,80.31,0,0,0,5.62,18.67,76.69,76.69,0,0,0,11.86,19.39,76.32,76.32,0,0,0,9.43-3.86c.76-.38,1.53-.75,2.27-1.15a1.5,1.5,0,0,0,.22-.11c.77-.42,1.54-.85,2.29-1.33a52.45,52.45,0,0,0,4.47-2.83c1.87-1.28,3.65-2.65,5.38-4a78.16,78.16,0,0,0-5.7-19.17,79.6,79.6,0,0,0-10.4-17.68c-1.67.45-3.35.95-5,1.53a3.86,3.86,0,0,0-.54.19,72.85,72.85,0,0,0-11.22,4.87,66.18,66.18,0,0,0-5.79,3.53c-.33.19-.64.41-1,.63C544,430.93,543.37,431.38,542.75,431.85Z"/><path class="cls-5" d="M510.88,475.91a2.81,2.81,0,0,1-1.06-.2,2.89,2.89,0,0,1-1.64-3.76,107.53,107.53,0,0,1,13.91-23.63c8.23-10.73,17.62-19,27.92-24.55,11.81-6.38,25.83-9.78,41.66-10.12a103.45,103.45,0,0,1,21.56,1.63A2.9,2.9,0,0,1,612,421a97.76,97.76,0,0,0-20.24-1.5c-14.91.31-28,3.48-39,9.42-9.57,5.16-18.34,12.89-26.06,23a103.42,103.42,0,0,0-13.12,22.22A2.89,2.89,0,0,1,510.88,475.91Z"/><path class="cls-7" d="M581,427c2.49-1.25,6.19,1.09,8.26,5.22s1.72,8.49-.78,9.74-2.49-2.94-4.56-7.07S578.52,428.23,581,427Z"/><path class="cls-4" d="M291.85,285.72V238.59s29.81,8.64,35.13,47.13Z"/><path class="cls-5" d="M279.84,273.67a17.62,17.62,0,0,1-17.64,17.64H246.84V256H262.2A17.66,17.66,0,0,1,279.84,273.67Z"/><path class="cls-2" d="M634.31,253.72V362.53l-90-76.81s7.54-34.82,38.65-58C604.17,212,634.3,227.31,634.31,253.72Z"/><path class="cls-4" d="M589.32,285.72V238.59s-29.81,8.64-35.13,47.13Z"/><path class="cls-5" d="M601.33,273.67A17.62,17.62,0,0,0,619,291.31h15.36V256H619A17.66,17.66,0,0,0,601.33,273.67Z"/><path class="cls-5" d="M389.67,244.65v32.42c0,9.59-6.45,17.33-14.35,17.33s-14.38-7.74-14.38-17.33V253.35A219.78,219.78,0,0,1,389.67,244.65Z"/><path class="cls-5" d="M462.48,240v53c0,16.19-10.92,29.36-24.38,29.36S413.76,309.23,413.76,293V240.52A221.53,221.53,0,0,1,440.17,239C447.69,239,455.14,239.34,462.48,240Z"/><path class="cls-5" d="M518.06,252.87v24.2c0,9.59-6.41,17.33-14.38,17.33s-14.35-7.74-14.35-17.33V244.39A216,216,0,0,1,518.06,252.87Z"/><path class="cls-5" d="M284.52,489.26s-42.68-1.88-68.86-16.53c-.12-3-.19-6-.19-9.07a227.2,227.2,0,0,1,5.31-48.87Z"/><path class="cls-5" d="M278.21,531.16s-24.45,7.78-49.28,9.11A218.06,218.06,0,0,1,218,497.45Z"/><path class="cls-5" d="M595.78,489.26s42.67-1.88,68.86-16.53c.11-3,.18-6,.18-9.07a226.57,226.57,0,0,0-5.31-48.87Z"/><path class="cls-5" d="M602.08,531.16s24.46,7.78,49.28,9.11a218.08,218.08,0,0,0,10.92-42.82Z"/></g></g></svg>