<svg xmlns="http://www.w3.org/2000/svg" xmlns:xlink="http://www.w3.org/1999/xlink" viewBox="0 0 870.52 870.52"><defs><style>.cls-1{fill:url(#Безымянный_градиент_98);}.cls-2{fill:#ffb19f;}.cls-3{fill:#fff;}.cls-4{fill:#3a2127;}.cls-5{fill:#eb4f63;}</style><radialGradient id="Безымянный_градиент_98" cx="435.26" cy="435.26" r="435.26" gradientUnits="userSpaceOnUse"><stop offset="0.39" stop-color="#5f87be"/><stop offset="1" stop-color="#5f87be" stop-opacity="0.3"/></radialGradient></defs><g id="Слой_2" data-name="Слой 2"><g id="Слой_1-2" data-name="Слой 1"><circle class="cls-1" cx="435.26" cy="435.26" r="435.26"/><circle class="cls-2" cx="435.26" cy="447.24" r="224.68"/><path class="cls-3" d="M289.32,402.24a41.36,41.36,0,1,0,41.35-41.35A41.35,41.35,0,0,0,289.32,402.24Z"/><path class="cls-4" d="M295.72,402.24a35,35,0,1,0,34.95-34.95A35,35,0,0,0,295.72,402.24Z"/><path class="cls-3" d="M332.68,426.55c-2.95,4.66-10.32,5.29-16.45,1.4s-8.72-10.81-5.77-15.47,5.93,1.63,12.07,5.52S335.64,421.89,332.68,426.55Z"/><path class="cls-3" d="M501.37,402.24a41.35,41.35,0,1,0,41.35-41.35A41.35,41.35,0,0,0,501.37,402.24Z"/><path class="cls-4" d="M507.76,402.24a35,35,0,1,0,35-34.95A35,35,0,0,0,507.76,402.24Z"/><path class="cls-3" d="M544.73,426.55c-3,4.66-10.32,5.29-16.46,1.4s-8.72-10.81-5.77-15.47,5.94,1.63,12.07,5.52S547.68,421.89,544.73,426.55Z"/><path class="cls-5" d="M532.48,473c0,53.7-43.53,49.76-97.24,49.76S338,526.72,338,473a97.24,97.24,0,1,1,194.47,0Z"/><path class="cls-5" d="M331.48,245.52H206.73a29.82,29.82,0,0,0-29.81,28.14c-1.48,26.6.91,66.35,23.26,93.31,16.11,19.43,46.71,16.87,59.87-4.65Z"/><path class="cls-5" d="M539,245.52H663.77a29.82,29.82,0,0,1,29.81,28.14c1.48,26.6-.91,66.35-23.26,93.31-16.1,19.43-46.7,16.87-59.87-4.65Z"/><path class="cls-4" d="M418.42,582.39a27.09,27.09,0,0,1-24.89-37.69,2.9,2.9,0,1,1,5.34,2.28,21.29,21.29,0,0,0,39.18,16.65,2.9,2.9,0,0,1,5.34,2.27A27.13,27.13,0,0,1,418.42,582.39Z"/><path class="cls-4" d="M387.25,479.37a2.9,2.9,0,0,1-2.9-2.9c0-14.81-5.22-24.25-8.82-24.25s-8.81,9.44-8.81,24.25a2.91,2.91,0,0,1-5.81,0c0-17.14,6.29-30.06,14.62-30.06s14.62,12.92,14.62,30.06A2.9,2.9,0,0,1,387.25,479.37Z"/><path class="cls-4" d="M512.33,479.37a2.9,2.9,0,0,1-2.91-2.9c0-14.81-5.22-24.25-8.81-24.25s-8.82,9.44-8.82,24.25a2.9,2.9,0,0,1-5.8,0c0-17.14,6.28-30.06,14.62-30.06s14.62,12.92,14.62,30.06A2.9,2.9,0,0,1,512.33,479.37Z"/><path class="cls-4" d="M430.24,248.42h-.09a2.92,2.92,0,0,1-2.82-3c.92-29.33-17.29-47-17.47-47.14a2.9,2.9,0,1,1,4-4.21c.83.78,20.29,19.63,19.29,51.53A2.9,2.9,0,0,1,430.24,248.42Z"/><path class="cls-4" d="M430.27,257.62a2.9,2.9,0,0,1-2.89-2.75c-1.93-36.79,25.37-80.19,26.53-82a2.9,2.9,0,1,1,4.9,3.11c-.28.43-27.47,43.68-25.64,78.59a2.91,2.91,0,0,1-2.74,3.06Z"/><path class="cls-4" d="M446.2,262a2.91,2.91,0,0,1-2.77-2c-5.64-18,6.07-37.81,6.57-38.65a2.9,2.9,0,0,1,5,3c-.11.18-10.87,18.46-6,33.92A2.89,2.89,0,0,1,446.2,262Z"/><path class="cls-4" d="M378.29,357.22a2.91,2.91,0,0,1-2.68-1.77,28.08,28.08,0,0,0-24.33-15.72,2.9,2.9,0,0,1,.32-5.8A33.91,33.91,0,0,1,381,353.19a2.91,2.91,0,0,1-1.55,3.81A3,3,0,0,1,378.29,357.22Z"/><path class="cls-4" d="M492.22,357.22a3,3,0,0,1-1.13-.22,2.91,2.91,0,0,1-1.55-3.81,33.93,33.93,0,0,1,29.37-19.26,2.86,2.86,0,0,1,3.05,2.74,2.91,2.91,0,0,1-2.74,3.06,28.4,28.4,0,0,0-24.33,15.71A2.89,2.89,0,0,1,492.22,357.22Z"/></g></g></svg>