<svg xmlns="http://www.w3.org/2000/svg" xmlns:xlink="http://www.w3.org/1999/xlink" viewBox="0 0 870.52 870.52"><defs><style>.cls-1{fill:url(#Безымянный_градиент_98);}.cls-2{fill:#7a4438;}.cls-3{fill:#fff;}.cls-4{fill:#3a2127;}.cls-5{fill:#ffe0c0;}.cls-6{fill:#ffb19f;}.cls-7{fill:#5b2d25;}</style><radialGradient id="Безымянный_градиент_98" cx="435.26" cy="435.26" r="435.26" gradientUnits="userSpaceOnUse"><stop offset="0.39" stop-color="#5f87be"/><stop offset="1" stop-color="#5f87be" stop-opacity="0.3"/></radialGradient></defs><g id="Слой_2" data-name="Слой 2"><g id="Слой_1-2" data-name="Слой 1"><circle class="cls-1" cx="435.26" cy="435.26" r="435.26"/><circle class="cls-2" cx="438.7" cy="512.32" r="224.68"/><circle class="cls-3" cx="330.32" cy="490.26" r="49.45" transform="translate(-103.8 89.01) rotate(-13.28)"/><path class="cls-4" d="M379.77,493.17a2.9,2.9,0,0,1-2.9-2.91,46.55,46.55,0,0,0-93.1,0,2.91,2.91,0,1,1-5.81,0,52.36,52.36,0,0,1,104.71,0A2.9,2.9,0,0,1,379.77,493.17Z"/><path class="cls-4" d="M288.52,490.26a41.8,41.8,0,1,0,41.8-41.8A41.79,41.79,0,0,0,288.52,490.26Z"/><path class="cls-3" d="M328.35,518c-2.53,4-8.86,4.55-14.14,1.21s-7.49-9.3-4.95-13.3,5.1,1.41,10.37,4.75S330.89,514,328.35,518Z"/><path class="cls-4" d="M287.13,466.88a2.9,2.9,0,0,1-1.89-.7l-13.5-11.57a2.9,2.9,0,1,1,3.78-4.41L289,461.77a2.9,2.9,0,0,1-1.89,5.11Z"/><path class="cls-4" d="M309.84,448a2.89,2.89,0,0,1-2.63-1.67l-7.53-16.12a2.9,2.9,0,0,1,5.26-2.45l7.53,16.11a2.9,2.9,0,0,1-1.4,3.86A2.85,2.85,0,0,1,309.84,448Z"/><path class="cls-4" d="M351.91,448.72a2.85,2.85,0,0,1-1.35-.34,2.9,2.9,0,0,1-1.21-3.92l8.31-15.72a2.9,2.9,0,0,1,5.13,2.71l-8.31,15.72A2.9,2.9,0,0,1,351.91,448.72Z"/><path class="cls-4" d="M373.58,469.4a2.9,2.9,0,0,1-1.23-5.53l16.12-7.51a2.9,2.9,0,1,1,2.45,5.26l-16.12,7.51A2.78,2.78,0,0,1,373.58,469.4Z"/><circle class="cls-3" cx="544.38" cy="490.26" r="49.45" transform="translate(-98.08 138.19) rotate(-13.28)"/><path class="cls-4" d="M593.83,493.17a2.9,2.9,0,0,1-2.9-2.91,46.55,46.55,0,0,0-93.1,0,2.91,2.91,0,1,1-5.81,0,52.36,52.36,0,0,1,104.71,0A2.9,2.9,0,0,1,593.83,493.17Z"/><path class="cls-4" d="M502.58,490.26a41.8,41.8,0,1,0,41.8-41.8A41.79,41.79,0,0,0,502.58,490.26Z"/><path class="cls-3" d="M542.41,518c-2.54,4-8.86,4.55-14.14,1.21s-7.49-9.3-4.95-13.3,5.1,1.41,10.37,4.75S545,514,542.41,518Z"/><path class="cls-4" d="M501.19,466.88a2.9,2.9,0,0,1-1.89-.7l-13.5-11.57a2.9,2.9,0,1,1,3.78-4.41l13.5,11.57a2.9,2.9,0,0,1-1.89,5.11Z"/><path class="cls-4" d="M523.9,448a2.89,2.89,0,0,1-2.63-1.67l-7.53-16.12a2.9,2.9,0,0,1,5.26-2.45l7.53,16.11a2.9,2.9,0,0,1-1.4,3.86A2.85,2.85,0,0,1,523.9,448Z"/><path class="cls-4" d="M566,448.72a2.85,2.85,0,0,1-1.35-.34,2.9,2.9,0,0,1-1.21-3.92l8.3-15.72a2.91,2.91,0,0,1,5.14,2.71l-8.31,15.72A2.9,2.9,0,0,1,566,448.72Z"/><path class="cls-4" d="M587.64,469.4a2.9,2.9,0,0,1-1.23-5.53l16.12-7.51a2.9,2.9,0,1,1,2.45,5.26l-16.12,7.51A2.78,2.78,0,0,1,587.64,469.4Z"/><path class="cls-2" d="M297.07,403.75a14.24,14.24,0,0,1-23.81,9.93c-32.11-29.43-84-90.43-54.55-157.43,10.25-23.4,30.43-47.51,64.81-71.27a14.26,14.26,0,0,1,22.41,12.27Z"/><path class="cls-2" d="M580.34,403.75a14.23,14.23,0,0,0,23.8,9.93c32.12-29.43,84-90.43,54.55-157.43-10.24-23.4-30.42-47.51-64.8-71.27a14.27,14.27,0,0,0-22.42,12.27Z"/><polygon class="cls-3" points="366.27 463.6 360.22 448.46 354.17 463.6 339.45 469.23 353.93 473.88 360.22 490 366.52 473.88 380.99 469.23 366.27 463.6"/><polygon class="cls-3" points="579.11 463.6 573.06 448.46 567.01 463.6 552.29 469.23 566.76 473.88 573.06 490 579.35 473.88 593.83 469.23 579.11 463.6"/><path class="cls-5" d="M514.16,310.93l-75.46.29-75.46-.29S431.53,430.33,387,504.67H490.46C445.88,430.33,514.16,310.93,514.16,310.93Z"/><path class="cls-5" d="M512.82,405.65,597,391S541.85,320.61,512.82,405.65Z"/><path class="cls-5" d="M364.58,405.65,280.41,391S335.56,320.61,364.58,405.65Z"/><ellipse class="cls-5" cx="438.7" cy="590.74" rx="123.47" ry="94.77"/><path class="cls-4" d="M438.7,675.5c-35.34,0-68.36-14.68-86.17-38.31a2.9,2.9,0,1,1,4.63-3.49c16.74,22.2,48,36,81.54,36s64.81-13.79,81.55-36a2.9,2.9,0,1,1,4.63,3.49C507.07,660.82,474.05,675.5,438.7,675.5Z"/><path class="cls-6" d="M368.17,568.07c7.68,14.92,8.14,29.72,1,33.06s-19.13-6-26.81-21-8.14-29.73-1-33.07S360.49,553.14,368.17,568.07Z"/><path class="cls-4" d="M369.18,603.9a2.91,2.91,0,0,1-2.6-1.55,2.7,2.7,0,0,1,1.32-3.7c4.86-2.28,4.9-15.32-2.33-29.36-3.54-6.87-8.1-12.7-12.86-16.42-4-3.14-7.77-4.37-10.07-3.29a3,3,0,0,1-3.89-1.26,2.72,2.72,0,0,1,1.33-3.71c4.52-2.12,10.32-.71,16.32,4,5.37,4.21,10.48,10.69,14.38,18.26,8.66,16.82,8.52,32.63-.32,36.77A3,3,0,0,1,369.18,603.9Z"/><path class="cls-6" d="M509.23,568.07c-7.68,14.92-8.13,29.72-1,33.06s19.13-6,26.81-21,8.13-29.73,1-33.07S516.92,553.14,509.23,568.07Z"/><path class="cls-4" d="M508.22,603.9a3,3,0,0,1-1.27-.28c-8.85-4.14-9-20-.32-36.77,3.89-7.57,9-14.05,14.38-18.26,6-4.69,11.79-6.1,16.32-4a2.71,2.71,0,0,1,1.32,3.71,3,3,0,0,1-3.88,1.26c-2.3-1.07-6.07.16-10.08,3.29-4.75,3.72-9.31,9.55-12.85,16.42-7.23,14-7.2,27.08-2.33,29.36a2.71,2.71,0,0,1,1.32,3.7A2.91,2.91,0,0,1,508.22,603.9Z"/><path class="cls-7" d="M538.42,306.11c0,50.41-74.07,40.79-93.62,144.92,0,0-97.72-65.19-97.72-115.6s44.78-101.78,97.72-91.28c21.2,4.2,16.81,32.39,16.81,32.39S538.42,268.24,538.42,306.11Z"/><path class="cls-7" d="M387.07,257.56s-70.44,44.49-41.84,148.09l42.85-81.38Z"/></g></g></svg>