<svg xmlns="http://www.w3.org/2000/svg" xmlns:xlink="http://www.w3.org/1999/xlink" viewBox="0 0 870.52 870.52"><defs><style>.cls-1{fill:url(#Безымянный_градиент_98);}.cls-2{fill:#3a2127;}.cls-3{fill:#ffeddf;}.cls-4{fill:#fff;}.cls-5{fill:#ffb19f;}.cls-6{fill:#51333d;}.cls-7{fill:#f99787;}.cls-8{fill:#eb4f63;}</style><radialGradient id="Безымянный_градиент_98" cx="435.26" cy="435.26" r="435.26" gradientUnits="userSpaceOnUse"><stop offset="0.39" stop-color="#5f87be"/><stop offset="1" stop-color="#5f87be" stop-opacity="0.3"/></radialGradient></defs><g id="Слой_2" data-name="Слой 2"><g id="Слой_1-2" data-name="Слой 1"><circle class="cls-1" cx="435.26" cy="435.26" r="435.26"/><circle class="cls-2" cx="432.8" cy="494" r="224.68"/><path class="cls-3" d="M380,317.64c-30.43-2-60.57-8.24-89.23-21-14.26-6.54-28.29-14.61-40.83-26.55a83,83,0,0,1-16.55-21.63,63,63,0,0,1-5.25-13.94,58.66,58.66,0,0,1-1.49-15.36,57.24,57.24,0,0,1,2.89-14.95,58.84,58.84,0,0,1,6.36-12.89,75.88,75.88,0,0,1,17.81-18.68c13-9.82,27.11-15.7,41.17-20.1,28.25-8.44,57-10.46,85.12-8.6a6.3,6.3,0,0,1,0,12.57h0c-26.76,1.95-53.25,7.87-76.54,18.63-11.51,5.43-22.32,12.19-30.22,20.26-3.88,4-7.11,8.29-8.89,12.43a24.87,24.87,0,0,0-1.83,5.95,21.54,21.54,0,0,0-.07,5.37,22.3,22.3,0,0,0,1.46,5,26.35,26.35,0,0,0,2.95,4.9A45.42,45.42,0,0,0,277,238.54c8.39,6,19.24,10.52,30.55,13.8,22.89,6.49,48,8.2,72.43,6.28a29.6,29.6,0,1,1,.54,59.05Z"/><path class="cls-3" d="M490.34,317.64c30.43-2,60.58-8.24,89.24-21,14.26-6.54,28.29-14.61,40.83-26.55A83.22,83.22,0,0,0,637,248.49a63,63,0,0,0,5.25-13.94,58.24,58.24,0,0,0,1.49-15.36,57.23,57.23,0,0,0-2.88-14.95,59.32,59.32,0,0,0-6.37-12.89,75.7,75.7,0,0,0-17.81-18.68c-13-9.82-27.1-15.7-41.17-20.1-28.25-8.44-57-10.46-85.12-8.6a6.3,6.3,0,0,0,0,12.57h0c26.77,1.95,53.25,7.87,76.55,18.63,11.51,5.43,22.32,12.19,30.21,20.26A43.65,43.65,0,0,1,606,207.87a24,24,0,0,1,1.83,5.95,21.54,21.54,0,0,1,.07,5.37,22.3,22.3,0,0,1-1.46,5,26.35,26.35,0,0,1-2.95,4.9,45.42,45.42,0,0,1-10.16,9.48c-8.39,6-19.24,10.52-30.55,13.8-22.89,6.49-48,8.2-72.43,6.28a29.6,29.6,0,1,0-.54,59.05Z"/><path class="cls-2" d="M538.74,342.31H338.53V263.92a21.27,21.27,0,0,1,21.27-21.27H517.47a21.27,21.27,0,0,1,21.27,21.27Z"/><circle class="cls-4" cx="335.15" cy="467.76" r="49.45" transform="translate(-224.99 599.58) rotate(-67.62)"/><path class="cls-2" d="M293.35,467.76a41.8,41.8,0,1,0,41.8-41.8A41.79,41.79,0,0,0,293.35,467.76Z"/><circle class="cls-4" cx="542.18" cy="467.76" r="49.45" transform="translate(-93.25 137.62) rotate(-13.33)"/><path class="cls-2" d="M500.38,467.76a41.8,41.8,0,1,0,41.8-41.8A41.79,41.79,0,0,0,500.38,467.76Z"/><path class="cls-5" d="M595.36,544.62c0,55.47-69.55,100.43-155.35,100.43s-155.36-45-155.36-100.43S354.21,471.53,440,471.53,595.36,489.16,595.36,544.62Z"/><path class="cls-2" d="M393.33,613.63a27.1,27.1,0,0,1-24.89-37.69,2.9,2.9,0,1,1,5.34,2.27A21.29,21.29,0,1,0,413,594.87a2.9,2.9,0,1,1,5.34,2.27A27.13,27.13,0,0,1,393.33,613.63Z"/><path class="cls-2" d="M320,272.74c17,15.08,23.68,34.82,20.49,54.95-2.2,14-9.17,28.23-20.67,41.21C299.76,391.55,256.2,391,221.06,366a108.12,108.12,0,0,1-9.52-7.57c-23.35-20.69-26.39-58.6-25.54-83.07a25.63,25.63,0,0,1,24.45-24.84C241,249.14,294.74,250.35,320,272.74Z"/><path class="cls-5" d="M209,272.49s27.07,3.64,40.5,15.53.75,48.15,29.14,65.62C278.64,353.64,227.23,367.77,209,272.49Z"/><path class="cls-2" d="M560,272.74c-17,15.08-23.68,34.82-20.5,54.95,2.21,14,9.17,28.23,20.67,41.21C580.25,391.55,623.81,391,659,366a109.61,109.61,0,0,0,9.52-7.57c23.34-20.69,26.38-58.6,25.53-83.07a25.63,25.63,0,0,0-24.45-24.84C639.06,249.14,585.27,250.35,560,272.74Z"/><path class="cls-5" d="M671,272.49s-27.07,3.64-40.5,15.53-.75,48.15-29.13,65.62C601.38,353.64,652.79,367.77,671,272.49Z"/><path class="cls-4" d="M322.75,439.64c0-5.2,5.62-9.37,12.46-9.32s12.37,4.3,12.33,9.5-5.56,1.65-12.41,1.6S322.71,444.84,322.75,439.64Z"/><path class="cls-4" d="M529.78,439.64c0-5.2,5.62-9.37,12.47-9.32s12.36,4.3,12.33,9.5-5.57,1.65-12.41,1.6S529.75,444.84,529.78,439.64Z"/><path class="cls-6" d="M393.21,434.74s35.82-67.15-35.16-70.88Z"/><path class="cls-6" d="M484.05,434.74s-35.82-67.15,35.17-70.88Z"/><path class="cls-7" d="M421.73,484.79c-9.21-26.85-23-31.55-36.4-26.94s-21.4,16.77-12.19,43.61,32.14,58.21,45.56,53.61S431,511.63,421.73,484.79Z"/><path class="cls-8" d="M416.74,505c-5.16-15-12.87-17.66-20.39-15.08s-12,9.39-6.82,24.43,18,32.6,25.51,30S421.9,520.08,416.74,505Z"/><path class="cls-7" d="M458.28,484.79c9.21-26.85,23-31.55,36.4-26.94s21.41,16.77,12.19,43.61-32.14,58.21-45.56,53.61S449.07,511.63,458.28,484.79Z"/><path class="cls-8" d="M463.28,505c5.16-15,12.87-17.66,20.38-15.08s12,9.39,6.83,24.43-18,32.6-25.51,30S458.11,520.08,463.28,505Z"/></g></g></svg>