<svg xmlns="http://www.w3.org/2000/svg" xmlns:xlink="http://www.w3.org/1999/xlink" viewBox="0 0 870.52 870.52"><defs><style>.cls-1{fill:url(#Безымянный_градиент_98);}.cls-2{fill:#ffeddf;}.cls-3{fill:#fff;}.cls-4{fill:#3a2127;}.cls-5{fill:#d9c5b8;}.cls-6{fill:#eb4f63;}.cls-7{fill:#ffb19f;}</style><radialGradient id="Безымянный_градиент_98" cx="435.26" cy="435.26" r="435.26" gradientUnits="userSpaceOnUse"><stop offset="0.39" stop-color="#5f87be"/><stop offset="1" stop-color="#5f87be" stop-opacity="0.3"/></radialGradient></defs><g id="Слой_2" data-name="Слой 2"><g id="Слой_1-2" data-name="Слой 1"><circle class="cls-1" cx="435.26" cy="435.26" r="435.26"/><circle class="cls-2" cx="435.26" cy="507.7" r="224.68"/><circle class="cls-3" cx="355.33" cy="516.76" r="46.32" transform="translate(-170.03 174.27) rotate(-22.39)"/><path class="cls-4" d="M394.49,516.76a39.16,39.16,0,1,1-39.16-39.16A39.15,39.15,0,0,1,394.49,516.76Z"/><path class="cls-5" d="M462.7,595.49a24.95,24.95,0,0,1-48.33.06c.32,0,.67,0,1,0a22.78,22.78,0,0,0,22.78-22.76,22.76,22.76,0,0,0,22.76,22.76A17,17,0,0,0,462.7,595.49Z"/><path class="cls-3" d="M349.34,546.05c-2.09,3.3-7.31,3.75-11.66,1s-6.17-7.66-4.08-11,4.2,1.16,8.55,3.91S351.43,542.75,349.34,546.05Z"/><circle class="cls-3" cx="523.68" cy="516.76" r="46.32" transform="translate(-157.34 238.39) rotate(-22.39)"/><path class="cls-4" d="M562.83,516.76a39.16,39.16,0,1,1-39.15-39.16A39.15,39.15,0,0,1,562.83,516.76Z"/><path class="cls-3" d="M517.68,546.05c-2.09,3.3-7.31,3.75-11.65,1s-6.18-7.66-4.09-11,4.21,1.16,8.55,3.91S519.77,542.75,517.68,546.05Z"/><path class="cls-5" d="M457.2,545.45c0,7.11-8.52,7.49-19,7.49s-19-.38-19-7.49,8.52-21.16,19-21.16S457.2,538.34,457.2,545.45Z"/><path class="cls-4" d="M438.16,584.43a2.9,2.9,0,0,1-2.9-2.9V556.22a2.9,2.9,0,1,1,5.8,0v25.31A2.9,2.9,0,0,1,438.16,584.43Z"/><path class="cls-6" d="M456.68,549.83l-17.42,14.54a1.8,1.8,0,0,1-2.29,0L419.64,550c-2-1.7-1.13-5.88,1.27-5.88l10.44,3.47a21.28,21.28,0,0,0,13.61,0L455.4,544C457.81,544,458.72,548.13,456.68,549.83Z"/><path class="cls-4" d="M415.4,598.48a25.69,25.69,0,0,1-25.67-25.66,2.91,2.91,0,0,1,5.81,0,19.86,19.86,0,0,0,39.72,0,2.9,2.9,0,1,1,5.8,0A25.69,25.69,0,0,1,415.4,598.48Z"/><path class="cls-4" d="M460.93,598.48a25.69,25.69,0,0,1-25.67-25.66,2.9,2.9,0,1,1,5.8,0,19.87,19.87,0,0,0,39.73,0,2.9,2.9,0,1,1,5.8,0A25.69,25.69,0,0,1,460.93,598.48Z"/><path class="cls-2" d="M347,272.69c0,92.1-39.39,199.51-61.4,199.51s-39.85-74.66-39.85-166.76S258,114.32,280,114.32,347,180.59,347,272.69Z"/><path class="cls-7" d="M334.17,281.44c0,52.91-22.62,114.62-35.27,114.62S276,353.16,276,300.25s7-109.79,19.67-109.79S334.17,228.53,334.17,281.44Z"/><path class="cls-2" d="M532,272.69c0,92.1,39.38,199.51,61.39,199.51s39.86-74.66,39.86-166.76S621,114.32,599,114.32,532,180.59,532,272.69Z"/><path class="cls-7" d="M544.83,281.44c0,52.91,22.63,114.62,35.27,114.62s22.9-42.9,22.9-95.81-7-109.79-19.67-109.79S544.83,228.53,544.83,281.44Z"/><path class="cls-5" d="M355.66,421.6c-4.8-9.21-17-13.85-39.69-2s-30.49,25.51-25.69,34.72,20.35,10.48,43.06-1.34S360.46,430.82,355.66,421.6Z"/><path class="cls-5" d="M523.35,421.6c4.79-9.21,17-13.85,39.69-2s30.48,25.51,25.69,34.72-20.36,10.48-43.07-1.34S518.55,430.82,523.35,421.6Z"/></g></g></svg>