<svg xmlns="http://www.w3.org/2000/svg" xmlns:xlink="http://www.w3.org/1999/xlink" viewBox="0 0 870.52 870.52"><defs><style>.cls-1{fill:url(#Безымянный_градиент_98);}.cls-2{fill:#7a4438;}.cls-3{fill:#fff;}.cls-4{fill:#3a2127;}.cls-5{fill:#e0c2a1;}.cls-6{fill:#ffe0c0;}.cls-7{fill:#66372f;}.cls-8{fill:#51333d;}</style><radialGradient id="Безымянный_градиент_98" cx="435.26" cy="435.26" r="435.26" gradientUnits="userSpaceOnUse"><stop offset="0.39" stop-color="#5f87be"/><stop offset="1" stop-color="#5f87be" stop-opacity="0.3"/></radialGradient></defs><g id="Слой_2" data-name="Слой 2"><g id="Слой_1-2" data-name="Слой 1"><circle class="cls-1" cx="435.26" cy="435.26" r="435.26"/><circle class="cls-2" cx="436.94" cy="490.4" r="224.68"/><circle class="cls-3" cx="338.36" cy="423.05" r="36.96"/><circle class="cls-4" cx="338.36" cy="423.05" r="31.25"/><path class="cls-3" d="M340.16,444.78c-2.64,4.17-9.23,4.73-14.72,1.25s-7.79-9.67-5.15-13.83,5.3,1.46,10.79,4.94S342.79,440.62,340.16,444.78Z"/><path class="cls-3" d="M504.53,423.05a37,37,0,1,0,37-37A37,37,0,0,0,504.53,423.05Z"/><path class="cls-4" d="M510.25,423.05a31.25,31.25,0,1,0,31.24-31.24A31.25,31.25,0,0,0,510.25,423.05Z"/><path class="cls-3" d="M543.29,444.78c-2.64,4.17-9.22,4.73-14.71,1.25s-7.79-9.67-5.16-13.83,5.31,1.46,10.8,4.94S545.93,440.62,543.29,444.78Z"/><path class="cls-5" d="M500.36,596.42c0,21.75-27.07,53.89-60.47,53.89s-60.46-32.14-60.46-53.89,27.07-30.68,60.46-30.68S500.36,574.67,500.36,596.42Z"/><path class="cls-6" d="M613.86,554.25c0,56-39.21,89.78-87.57,89.78-43.59,0-79.76-36.9-86.43-85.22C433.15,607.13,397,644,353.39,644c-48.36,0-87.57-33.79-87.57-89.78,0-66.09,76.95-113,125.3-113h97.44C536.91,441.23,613.86,488.16,613.86,554.25Z"/><path class="cls-4" d="M526.29,646.93c-40.39,0-74.95-30.11-86.45-73.4-11.49,43.29-46,73.4-86.44,73.4a2.91,2.91,0,1,1,0-5.81c41.78,0,76.92-34.78,83.57-82.7l2.87-20.74,2.88,20.74c6.64,47.92,41.79,82.7,83.57,82.7a2.91,2.91,0,0,1,0,5.81Z"/><path class="cls-4" d="M439.84,564.21a2.9,2.9,0,0,1-2.9-2.91V485.72a2.9,2.9,0,1,1,5.8,0V561.3A2.9,2.9,0,0,1,439.84,564.21Z"/><path class="cls-7" d="M433.79,307.29l23.68-80.22S407,267.58,433.79,307.29Z"/><path class="cls-7" d="M429.66,298.14l31.45-35.79S469.81,298.14,429.66,298.14Z"/><path class="cls-6" d="M467.93,380l98.53-15.37S516,272.62,467.93,380Z"/><path class="cls-6" d="M411.76,380l-98.54-15.37S363.73,272.62,411.76,380Z"/><path class="cls-2" d="M343,270.86c0,46.91-47.26,84.95-73.33,84.95s-21.09-38-21.09-84.95,3.72-85,29.8-85S343,224,343,270.86Z"/><path class="cls-6" d="M322.34,270.86c0,26.49-26.68,48-41.4,48s-11.9-21.47-11.9-48,2.1-48,16.82-48S322.34,244.37,322.34,270.86Z"/><path class="cls-2" d="M541.3,270.86c0,46.91,47.26,84.95,73.33,84.95s21.09-38,21.09-84.95-3.72-85-29.8-85S541.3,224,541.3,270.86Z"/><path class="cls-6" d="M563.54,270.86c0,24.9,25.08,45.09,38.92,45.09s11.2-20.19,11.2-45.09-2-45.09-15.82-45.09S563.54,246,563.54,270.86Z"/><path class="cls-8" d="M488.27,452.34a31.91,31.91,0,0,1-.31,4.38c-5-3.44-12.45-5.61-20.8-5.61-11.11,0-20.65,3.88-24.9,9.44a2.61,2.61,0,0,1-3.94,0c-4.26-5.56-13.79-9.44-24.93-9.44-8.74,0-16.5,2.4-21.5,6.12a33,33,0,0,1-.37-4.89c0-21.5,21.65-23,48.37-23S488.27,430.84,488.27,452.34Z"/><path class="cls-4" d="M488,456.72A32.64,32.64,0,0,1,484.72,467c-7.19,14.25-24.55,24.29-44.83,24.29s-37.63-10-44.82-24.29a32.59,32.59,0,0,1-3.18-9.76c5-3.72,12.76-6.12,21.5-6.12,11.14,0,20.67,3.88,24.93,9.44a2.61,2.61,0,0,0,3.94,0c4.25-5.56,13.79-9.44,24.9-9.44C475.51,451.11,483,453.28,488,456.72Z"/></g></g></svg>