<svg xmlns="http://www.w3.org/2000/svg" xmlns:xlink="http://www.w3.org/1999/xlink" viewBox="0 0 870.52 870.52"><defs><style>.cls-1{fill:url(#Безымянный_градиент_98);}.cls-2{fill:#e8363f;}.cls-3{fill:#c72d3c;}.cls-4{fill:#3a2127;}.cls-5{fill:#fff;}.cls-6{fill:#f7aa50;}.cls-7{fill:#f0f0f0;}</style><radialGradient id="Безымянный_градиент_98" cx="435.26" cy="435.26" r="435.26" gradientUnits="userSpaceOnUse"><stop offset="0.39" stop-color="#5f87be"/><stop offset="1" stop-color="#5f87be" stop-opacity="0.3"/></radialGradient></defs><g id="Слой_2" data-name="Слой 2"><g id="Слой_1-2" data-name="Слой 1"><circle class="cls-1" cx="435.26" cy="435.26" r="435.26"/><path class="cls-2" d="M666.7,493.3a224.69,224.69,0,0,1-449.38,0c0-124.08,100.61-224.7,224.69-224.7S666.7,369.22,666.7,493.3Z"/><path class="cls-3" d="M589.54,662.74a224.58,224.58,0,0,1-295.47-.37c.52-36.88,7.82-67.39,23.49-96.08,52.53,55.29,154.33,44.33,222.78,23.27a92.21,92.21,0,0,0,29.21-16.08A220,220,0,0,1,589.54,662.74Z"/><path class="cls-2" d="M551.92,582.61c-27.06,3.41-43.76-4.27-77.27-32.71-5.25-4.47-15.54-6.39-22.66-7.21a49.2,49.2,0,0,0-15.32,0c-7.11.82-17.4,2.74-22.66,7.21-33.5,28.44-50.21,36.12-77.26,32.71C337.92,613.26,385,638,443.24,638.45h2.18C503.68,638,550.74,613.26,551.92,582.61Z"/><path class="cls-4" d="M391.29,522.37a2.9,2.9,0,0,1-2.69-1.8c-3.82-9.27-2-18.52,4.13-21.06s14,2.75,17.79,12a2.9,2.9,0,0,1-5.37,2.21c-2.64-6.4-7.56-10-10.2-8.87s-3.62,7.08-1,13.48a2.91,2.91,0,0,1-2.68,4Z"/><path class="cls-4" d="M492.37,522.37a2.91,2.91,0,0,1-2.69-4c2.64-6.4,1.66-12.39-1-13.48s-7.57,2.47-10.21,8.87a2.9,2.9,0,1,1-5.36-2.21c3.83-9.28,11.64-14.56,17.78-12s8,11.79,4.13,21.06A2.88,2.88,0,0,1,492.37,522.37Z"/><path class="cls-5" d="M302.54,549.24a1.46,1.46,0,0,1-.1.23,3.27,3.27,0,0,1-.34.61,13.43,13.43,0,0,1-.91,1.36c-.65.95-1.46,1.84-2.24,2.79a45.57,45.57,0,0,1-19.55,12.61,53.94,53.94,0,0,1-17,2.56,25.33,25.33,0,0,1-4.52-.17l-4.59-.42c-3.06-.45-6.11-1.17-9.25-1.77l-.36-.07a2.81,2.81,0,0,0-2,5.18c2.87,1.71,5.74,3.57,8.77,5.2l4.71,2.21a32.37,32.37,0,0,0,4.88,2,69.93,69.93,0,0,0,21.47,4.28,68.18,68.18,0,0,0,23-3.13,73,73,0,0,0,11.17-4.53c1.8-1,3.62-1.93,5.4-3.1.9-.54,1.8-1.18,2.71-1.83l.45-.33C315,566.73,307.35,558.92,302.54,549.24Z"/><path class="cls-6" d="M463.28,541.92h0a74.57,74.57,0,0,0-37.59,0h0s-25.15,89.36-2.45,146.81l21.09-19.61,21.39,19.61C488.43,631.28,463.28,541.92,463.28,541.92Z"/><path class="cls-4" d="M445.12,574.31a2.91,2.91,0,0,1-2.9-2.84l-.64-29.32a2.9,2.9,0,1,1,5.8-.13l.65,29.32a2.92,2.92,0,0,1-2.84,3Z"/><path class="cls-5" d="M586.75,549.24c0,.07.06.15.09.23a4,4,0,0,0,.34.61,13.61,13.61,0,0,0,.92,1.36c.64.95,1.46,1.84,2.24,2.79a45.6,45.6,0,0,0,19.54,12.61,54,54,0,0,0,17,2.56,25.36,25.36,0,0,0,4.52-.17l4.59-.42c3-.45,6.1-1.17,9.24-1.77l.36-.07a2.81,2.81,0,0,1,2,5.18c-2.86,1.71-5.73,3.57-8.76,5.2l-4.71,2.21a32.07,32.07,0,0,1-4.89,2,69.86,69.86,0,0,1-21.46,4.28,68.14,68.14,0,0,1-23-3.13,72.62,72.62,0,0,1-11.17-4.53c-1.8-1-3.62-1.93-5.41-3.1-.89-.54-1.8-1.18-2.71-1.83-.14-.1-.29-.23-.44-.33C574.26,566.73,581.94,558.92,586.75,549.24Z"/><path class="cls-4" d="M535.75,586.73c-1,0-2.07,0-3.11-.08a58.42,58.42,0,0,1-42.9-22.84A50.69,50.69,0,0,0,449.38,544h-8.51a50.69,50.69,0,0,0-40.36,19.83,58.42,58.42,0,0,1-42.9,22.84,52,52,0,0,1-40.79-15.85c-10.6-11-18.09-25-22.27-41.73a2.9,2.9,0,1,1,5.63-1.41c3.93,15.72,10.93,28.88,20.82,39.1a46.21,46.21,0,0,0,36.28,14.09,52.63,52.63,0,0,0,38.64-20.59,56.43,56.43,0,0,1,44.95-22.09h8.51a56.43,56.43,0,0,1,44.95,22.09A52.61,52.61,0,0,0,533,580.85a46.23,46.23,0,0,0,36.3-14.09c9.88-10.22,16.88-23.38,20.81-39.1a2.9,2.9,0,0,1,5.63,1.41c-4.18,16.72-11.67,30.76-22.27,41.73A51.77,51.77,0,0,1,535.75,586.73Z"/><path class="cls-7" d="M552.73,562.6c.14,3.32.62,7.3,1.16,10.95a110.6,110.6,0,0,0,2.28,11,91.82,91.82,0,0,0,8,20.56c6.92,12.72,17.91,22.22,31.55,26a69.28,69.28,0,0,0,21.5,2.35,94.1,94.1,0,0,0,10.93-1.08,48.88,48.88,0,0,0,9.95-3,40.17,40.17,0,0,0,16-12.8A69.55,69.55,0,0,0,664,597c4.87-14.44,7-30.2,8.66-46s2.67-31.9,4.41-48c.87-8.05,2-16.13,3.54-24.17a104.16,104.16,0,0,1,7.34-23.66c3.49-7.54,8.67-14.83,16.08-19.3s16.15-5.54,24.26-4.94a1.26,1.26,0,0,1-.09,2.52h0c-7.83-.06-15.72,1.52-21.91,5.87S695.81,450.23,693,457.36s-4.42,14.88-5.63,22.65-1.84,15.7-2.31,23.66c-1,15.91-1.17,32-2.12,48.17s-2.63,32.58-7.43,48.85a81.88,81.88,0,0,1-11,23.55A53.59,53.59,0,0,1,643.86,642a63.13,63.13,0,0,1-12.94,4.4,95.42,95.42,0,0,1-13,1.71,83,83,0,0,1-26.27-2.27,63.82,63.82,0,0,1-24.21-12.32,71.71,71.71,0,0,1-16.91-20.89,96.05,96.05,0,0,1-9.15-24.36,126.6,126.6,0,0,1-2.27-12.63,97.36,97.36,0,0,1-.83-13,7.22,7.22,0,0,1,14.44-.3Z"/><path class="cls-7" d="M332.31,562.6c-.14,3.32-.62,7.3-1.16,10.95a110.6,110.6,0,0,1-2.28,11,91.84,91.84,0,0,1-8,20.56c-6.91,12.72-17.91,22.22-31.55,26a69.18,69.18,0,0,1-21.49,2.35,94.1,94.1,0,0,1-10.93-1.08,48.88,48.88,0,0,1-9.95-3,40,40,0,0,1-16-12.8,69.57,69.57,0,0,1-10-19.61c-4.86-14.44-7-30.2-8.65-46s-2.68-31.9-4.42-48c-.87-8.05-1.94-16.13-3.54-24.17a104.14,104.14,0,0,0-7.33-23.66c-3.49-7.54-8.67-14.83-16.09-19.3s-16.15-5.54-24.26-4.94a1.26,1.26,0,0,0,.1,2.52h0c7.83-.06,15.72,1.52,21.92,5.87s10.43,10.92,13.24,18.05,4.41,14.88,5.63,22.65,1.83,15.7,2.31,23.66c1,15.91,1.16,32,2.11,48.17s2.64,32.58,7.44,48.85a81.61,81.61,0,0,0,11,23.55A53.52,53.52,0,0,0,241.18,642a62.73,62.73,0,0,0,12.94,4.4,95.08,95.08,0,0,0,13,1.71,83.08,83.08,0,0,0,26.28-2.27,63.89,63.89,0,0,0,24.21-12.32,71.52,71.52,0,0,0,16.9-20.89,96.08,96.08,0,0,0,9.16-24.36,126.6,126.6,0,0,0,2.27-12.63,99,99,0,0,0,.83-13,7.22,7.22,0,0,0-14.44-.3Z"/><path class="cls-6" d="M349.16,298l-63.48-38.62-18.25-56a18.86,18.86,0,0,0-35.87,11.7l4.61,14.14L192,202.36a18.87,18.87,0,0,0-19.62,32.24l71.86,43.72c-10.33-1.82-17.29-3.05-18.58-3.29a18.87,18.87,0,0,0-8,36.87c.59.13,2.37.54,118.44,20.77A18.87,18.87,0,0,0,349.16,298Z"/><path class="cls-6" d="M717.55,208.67a18.88,18.88,0,0,0-25.93-6.31l-44.14,26.86,4.61-14.14a18.86,18.86,0,0,0-35.87-11.7l-18.25,56L534.49,298a18.87,18.87,0,0,0,13,34.71C663.61,312.44,665.34,312,666,311.9A18.87,18.87,0,0,0,658,275c-1.28.24-8.25,1.47-18.58,3.29l71.86-43.72A18.88,18.88,0,0,0,717.55,208.67Z"/><ellipse class="cls-2" cx="442.01" cy="289.04" rx="81.99" ry="85.52"/><ellipse class="cls-2" cx="354.59" cy="297.94" rx="44.68" ry="59.08"/><ellipse class="cls-2" cx="521.78" cy="297.94" rx="44.68" ry="59.08"/><path class="cls-4" d="M474.75,427.73a2.9,2.9,0,0,1-2.91-2.9c0-7.55-5-13.81-10.54-11.8a2.91,2.91,0,0,1-3.43-1.14,17.57,17.57,0,0,0-30.15.61,2.89,2.89,0,0,1-3.94,1,6.12,6.12,0,0,0-3.1-.87c-4.61,0-8.5,5.58-8.5,12.18a2.91,2.91,0,0,1-5.81,0c0-9.92,6.42-18,14.31-18a11.46,11.46,0,0,1,3.49.54,23.3,23.3,0,0,1,37.34-.39,11.29,11.29,0,0,1,1.83-.15c7.89,0,14.31,8.06,14.31,18A2.9,2.9,0,0,1,474.75,427.73Z"/><path class="cls-4" d="M497.77,395.08a2.9,2.9,0,0,1-2.9-2.9c0-14.44-9.85-26-20.7-22a2.9,2.9,0,0,1-3.43-1.14,32,32,0,0,0-54.82,1.1,2.91,2.91,0,0,1-3.94,1,12.47,12.47,0,0,0-6.31-1.76c-9.11,0-16.52,10.22-16.52,22.78a2.91,2.91,0,0,1-5.81,0c0-15.76,10-28.59,22.33-28.59a17.67,17.67,0,0,1,6.71,1.32,37.69,37.69,0,0,1,62-.85,17.51,17.51,0,0,1,4-.47c12.31,0,22.33,12.83,22.33,28.59A2.9,2.9,0,0,1,497.77,395.08Z"/><path class="cls-4" d="M530.2,327.71a2.89,2.89,0,0,1-2.9-2.9c0-20.8-12.48-37.71-27.82-37.71a21,21,0,0,0-7.19,1.32,2.91,2.91,0,0,1-3.43-1.14c-10-15.33-26.51-24.48-44.22-24.48-18.53,0-35.48,9.82-45.34,26.28a2.9,2.9,0,0,1-3.94,1,21.49,21.49,0,0,0-10.82-3c-15.34,0-27.82,16.91-27.82,37.71a2.9,2.9,0,1,1-5.8,0c0-24,15.08-43.52,33.62-43.52a26.63,26.63,0,0,1,11.23,2.5C406.86,267,424.93,257,444.64,257a58.52,58.52,0,0,1,47.84,25.28,26.1,26.1,0,0,1,7-1c18.54,0,33.62,19.53,33.62,43.52A2.9,2.9,0,0,1,530.2,327.71Z"/><path class="cls-5" d="M376.79,473.84a46.33,46.33,0,1,1-84.93-34.72l6.71,2.76a39.17,39.17,0,1,0,71.52,29.23Z"/><path class="cls-4" d="M370.09,471.11a39.17,39.17,0,1,1-71.52-29.23Z"/><path class="cls-6" d="M356.39,401.06a61.76,61.76,0,0,1,31.92,81.29L275.09,433A61.77,61.77,0,0,1,356.39,401.06Z"/><path class="cls-4" d="M388.31,485.25a2.81,2.81,0,0,1-1.16-.24L273.93,435.65a2.89,2.89,0,0,1-1.41-1.33l-12.41-23.88a2.9,2.9,0,0,1,5.15-2.67l11.94,23,112.27,49a2.9,2.9,0,0,1-1.16,5.56Z"/><path class="cls-5" d="M320.49,486c-2.09,3.3-7.31,3.75-11.66,1s-6.17-7.66-4.08-11,4.2,1.16,8.55,3.91S322.58,482.69,320.49,486Z"/><path class="cls-5" d="M514.71,473.84a46.33,46.33,0,1,0,84.92-34.72l-6.7,2.76a39.17,39.17,0,1,1-71.52,29.23Z"/><path class="cls-4" d="M521.41,471.11a39.17,39.17,0,1,0,71.52-29.23Z"/><path class="cls-6" d="M535.11,401.06a61.76,61.76,0,0,0-31.92,81.29L616.4,433A61.75,61.75,0,0,0,535.11,401.06Z"/><path class="cls-4" d="M503.19,485.25a2.9,2.9,0,0,1-1.16-5.56l112.27-49,11.93-23a2.9,2.9,0,1,1,5.15,2.67L619,434.32a3,3,0,0,1-1.41,1.33L504.35,485A2.81,2.81,0,0,1,503.19,485.25Z"/><path class="cls-5" d="M550,486c-2.09,3.3-7.31,3.75-11.66,1s-6.17-7.66-4.08-11,4.2,1.16,8.55,3.91S552.11,482.69,550,486Z"/><path class="cls-5" d="M302.42,549.21c.09-.07.09,0,.1,0l0-.06Z"/></g></g></svg>