<svg width="98" height="68" viewBox="0 0 98 68" fill="none" xmlns="http://www.w3.org/2000/svg">
  <path fill-rule="evenodd" clip-rule="evenodd"
    d="M21.753 0.112005C20.8568 0.291947 20.1107 0.730268 19.4197 1.48279C19.0582 1.87651 18.3729 2.45171 17.8966 2.76084C16.3878 3.74038 15.3855 5.62269 15.4932 7.27401C15.5831 8.65248 16.1524 9.63832 17.849 11.3524L19.2978 12.8162V14.4651V16.1141L18.5688 16.9447C18.1679 17.4017 17.626 18.0428 17.3645 18.3694C17.0124 18.8092 16.6952 19.0151 16.1415 19.1636C14.0846 19.7149 11.3673 21.4427 9.5372 23.3625C7.16174 25.8545 3.39493 31.2026 1.80377 34.3422C0.457983 36.9977 0.225655 37.8355 0.295169 39.7841C0.350719 41.341 0.384479 41.4811 1.02054 42.801C2.28761 45.4306 6.06777 50.3217 9.98007 54.3938L11.5134 55.9899L11.2622 60.6225C11.1239 63.1706 10.9732 65.809 10.927 66.4857C10.881 67.1624 10.7421 69.2387 10.6187 71.0996C10.3603 74.9945 10.0562 78.777 9.70984 82.4037C9.25546 87.162 9.01807 89.7075 8.86369 91.4777C8.77884 92.4504 8.6685 93.4885 8.61847 93.7846C8.5686 94.0807 8.42927 95.2226 8.30896 96.3223C8.1885 97.4219 7.98686 99.2213 7.86072 100.321C7.73458 101.421 7.56318 102.943 7.47985 103.704C7.39668 104.466 7.25873 105.6 7.17356 106.225C7.05647 107.083 7.0643 107.416 7.20532 107.586C7.42891 107.856 8.55863 108.588 9.97424 109.38C10.8167 109.851 10.984 110.006 10.8753 110.215C10.802 110.356 10.588 111.129 10.4001 111.933C9.706 114.899 10.2894 116.398 13.1536 119.007C15.3252 120.986 17.6986 122.534 19.1443 122.916C19.3553 122.971 19.783 123.093 20.0946 123.187C20.5535 123.325 20.7592 123.31 21.1768 123.112C22.8058 122.337 22.5361 121.286 19.8529 117.955C18.1508 115.841 17.471 114.786 16.9257 113.413C16.5075 112.361 16.6223 111.436 17.4721 109.01C18.2451 106.804 19.4506 103.121 19.8376 101.782C19.9476 101.401 20.2576 100.329 20.5263 99.3982C20.7951 98.4677 21.1872 97.0489 21.3976 96.2454C21.608 95.4418 21.873 94.4382 21.9864 94.0153C22.1647 93.3512 22.1785 94.0228 22.088 98.9368C22.0303 102.067 21.9832 105.908 21.9832 107.473V110.318L23.9389 110.321C25.0147 110.323 25.9004 110.376 25.9071 110.439C25.9388 110.733 25.6822 111.557 25.4201 112.002C25.0418 112.645 24.5152 114.722 24.5152 115.571C24.5152 116.04 24.6092 116.333 24.8302 116.555C25.1406 116.866 25.255 116.87 32.4977 116.824C39.2883 116.781 39.8705 116.756 40.1211 116.505C40.6422 115.983 40.0146 115.514 37.8249 114.791C36.5172 114.359 35.076 113.688 34.3311 113.165C33.4494 112.546 31.8969 110.993 31.9695 110.803C32.0819 110.508 32.4967 108.26 32.7258 106.704C32.8442 105.9 33.0476 104.568 33.1782 103.743C33.6251 100.919 33.8752 99.2436 34.0337 98.014C34.1209 97.3373 34.2561 96.403 34.3342 95.9378C34.5424 94.6957 34.9043 91.8654 35.1796 89.3245C35.3124 88.098 35.4875 86.5754 35.5687 85.941C35.6497 85.3066 35.7553 84.1646 35.8032 83.4033C35.8511 82.642 35.9217 81.8634 35.9602 81.6731L36.03 81.3271H51.8455C60.5442 81.3271 67.6381 81.3789 67.6099 81.4424C67.5818 81.5059 67.303 82.0854 66.9904 82.7305C66.2911 84.1732 66.0671 85.0299 66.1295 86.0216C66.1974 87.0965 66.4915 87.2123 69.3683 87.2968C70.6167 87.3336 71.613 87.3888 71.5822 87.4196C71.5515 87.4505 70.3228 87.6169 68.852 87.7896C66.7984 88.0308 66.1332 88.1629 65.9859 88.359C65.5366 88.9571 65.9555 92.187 66.6672 93.6128C67.2749 94.8303 67.647 94.8438 69.8721 93.7289C71.2618 93.0325 71.4567 92.9666 71.0115 93.3428C70.7161 93.5925 69.9048 94.1811 69.2084 94.6508C68.348 95.2314 67.9424 95.6008 67.9424 95.8044C67.9424 97.0016 70.3131 99.3457 71.9784 99.7951C72.4926 99.9339 72.6469 99.9065 73.2083 99.5766C74.2887 98.9419 75.5683 97.4579 76.2443 96.0562C76.5816 95.3567 76.814 94.9573 76.7609 95.1688C76.5808 95.8867 75.6661 97.7018 74.8718 98.918C73.9141 100.385 73.8539 100.879 74.5793 101.322C75.1805 101.69 76.6463 101.738 77.2772 101.411C77.9031 101.087 79.0657 99.7748 79.5153 98.8854C79.7872 98.3474 79.9118 97.8553 79.9118 97.3182C79.9118 96.459 80.1877 95.1688 80.3714 95.1688C80.6292 95.1688 82.674 100.729 82.674 101.43C82.674 101.578 82.2955 101.628 81.1701 101.628C80.205 101.628 79.6003 101.694 79.4821 101.813C79.2314 102.064 79.2496 102.857 79.5131 103.154C79.652 103.311 79.8194 104.297 79.985 105.935C80.4087 110.122 80.9577 112.594 81.9151 114.624C82.2343 115.301 82.7128 116.062 82.9782 116.316L83.4612 116.777L86.7888 116.83C90.0244 116.881 90.1283 116.873 90.5449 116.545C91.7538 115.591 93.6442 110.141 94.5718 104.935C94.7429 103.975 94.965 103.235 95.1629 102.966C95.4554 102.569 95.462 102.503 95.2478 102.12L95.0154 101.705L92.2022 101.663L89.3889 101.621L89.4851 101.125C89.5892 100.588 90.176 99.0123 90.3446 98.8167C90.4017 98.7505 90.4186 98.8994 90.3822 99.1475C90.2917 99.7658 90.7824 100.244 91.5076 100.244C92.3731 100.244 92.6578 100.022 92.5409 99.4362L92.4423 98.9419L92.9569 99.3759C93.516 99.8474 94.0501 99.8523 94.7504 99.3923C95.2126 99.0887 95.201 99.0111 94.5666 98.1783C94.2712 97.7904 94.0295 97.4465 94.0295 97.4141C94.0295 97.3816 94.2885 97.488 94.6049 97.6506C95.4256 98.072 95.7825 97.9822 95.8439 97.3391C95.9197 96.5433 95.7732 96.1964 95.2231 95.8698L94.72 95.571L95.2571 95.4853C95.7717 95.403 95.7962 95.3698 95.8399 94.6945C95.8688 94.2486 95.7638 93.6631 95.5544 93.1017C95.2587 92.31 95.1477 92.1808 94.5256 91.9051C92.9515 91.2071 90.5182 91.6295 90.3425 92.6311C90.279 92.9929 90.2386 93.0344 90.1554 92.8234C90.0069 92.4466 89.7475 92.4855 88.9259 93.0076C88.1479 93.5022 87.5054 94.5231 87.6618 95.0167C87.7126 95.1772 88.0046 95.3982 88.3108 95.5077L88.8675 95.7071L88.1108 95.784C87.4011 95.8561 87.3518 95.8893 87.3145 96.3223C87.2667 96.8782 87.8636 97.9896 88.2501 98.0643C88.4007 98.0934 88.7545 98.0074 89.0364 97.8733C89.3183 97.7392 89.6203 97.6295 89.7076 97.6295C89.795 97.6295 89.6242 98.1547 89.3281 98.7967C89.0323 99.4386 88.7117 100.338 88.616 100.796L88.4418 101.628H86.2485C84.4477 101.628 84.055 101.589 84.055 101.408C84.055 101.071 82.5698 96.5491 82.1366 95.5673C81.9257 95.0896 81.7532 94.666 81.7532 94.626C81.7532 94.4575 82.5357 94.5757 83.3788 94.8718C85.0304 95.4514 86.0998 95.0911 86.8054 93.7172C87.1153 93.1136 87.1908 92.7011 87.2486 91.2973L87.3181 89.6052L86.7185 89.9117C86.3889 90.0803 85.7065 90.2908 85.2021 90.3795C83.8442 90.6185 80.5256 90.7394 80.5256 90.5498C80.5256 90.3174 81.094 90.1405 83.0148 89.7756C85.7395 89.2579 86.6512 88.7445 87.205 87.416C87.3952 86.9596 87.4295 86.5895 87.3475 85.8781C87.1941 84.5462 87.0544 84.2492 86.5821 84.2492C86.1388 84.2492 82.7442 85.3679 81.0001 86.0889C80.3748 86.3473 79.8411 86.5365 79.8139 86.5093C79.7867 86.482 80.8663 85.783 82.213 84.9559C86.1391 82.5447 86.2598 82.4266 85.5629 81.683L85.2291 81.3271L90.3583 81.3249C93.1792 81.3239 95.6418 81.2814 95.8309 81.2306C96.0198 81.1799 96.3132 80.9131 96.4831 80.6378C96.79 80.1401 96.7917 79.9374 96.7917 43.5749V7.01255L96.2699 6.48964L95.7482 5.96673H62.2033C39.2464 5.96673 28.6584 5.9166 28.6584 5.80802C28.6584 5.72066 28.762 5.40076 28.8886 5.09717C29.4559 3.73622 28.9325 2.36051 27.6352 1.80315C27.2555 1.64013 26.757 1.50663 26.5271 1.50663C26.2974 1.50663 25.8715 1.32684 25.5807 1.10692C24.4794 0.274107 22.9392 -0.126225 21.753 0.112005ZM25.5775 5.3171C26.0202 5.59024 26.3792 5.97689 26.609 6.42812C27.0514 7.29631 27.0534 7.3955 26.6251 7.27216C26.4352 7.21741 26.159 7.13897 26.0113 7.0976C25.8379 7.04916 25.7428 7.10806 25.7428 7.2637C25.7428 7.39627 25.8497 7.5047 25.9806 7.5047C26.4367 7.5047 27.1239 7.96932 27.1239 8.27768C27.1239 8.54852 27.0172 8.58128 26.1352 8.58128C25.2873 8.58128 25.1123 8.63003 24.9075 8.92317L24.6686 9.2649V8.92317C24.6686 8.72846 24.5736 8.58128 24.4481 8.58128C24.0959 8.58128 24.3214 9.63202 24.8366 10.3928C25.0819 10.7549 25.2824 11.0932 25.2824 11.1449C25.2824 11.391 24.6803 11.648 24.0932 11.6523C23.4039 11.6575 23.2153 11.8698 23.7708 12.0154C24.2228 12.1338 24.9965 11.9711 25.3208 11.6892C25.6696 11.3861 25.6608 10.9636 25.2936 10.3681L24.9979 9.88855H26.1295H27.2609L27.1731 10.5806C27.0189 11.7944 26.2386 13.4457 25.4222 14.2857C24.5234 15.2105 23.816 15.5413 23.0121 15.4125C22.5864 15.3442 22.3756 15.3831 22.2322 15.5563C21.9063 15.9498 22.2418 16.292 23.7749 17.1298C25.1399 17.8755 25.2079 17.9372 25.253 18.469C25.2789 18.7755 25.2206 19.1756 25.1231 19.358C24.9659 19.6525 24.8492 19.6814 24.0784 19.6176C22.7667 19.5088 21.5003 18.955 20.6836 18.1331C19.7036 17.1467 19.593 16.6634 19.7461 14.0411C19.8153 12.8568 19.82 11.7495 19.7563 11.5803C19.6926 11.4111 19.2876 10.9748 18.8561 10.6106C17.9679 9.86087 17.7465 9.33227 18.1387 8.89779C18.3575 8.65556 18.4828 8.63526 18.9559 8.76629C19.4494 8.90287 19.5465 8.88133 19.7877 8.58266C19.9381 8.39672 20.1362 7.96455 20.2281 7.6222C20.5774 6.32277 21.7033 5.07118 22.7096 4.86371C23.6227 4.67561 24.8531 4.87016 25.5775 5.3171ZM88.2331 6.41797L95.8639 6.42812L96.0987 6.78724C96.3077 7.10698 96.3338 11.1557 96.3365 43.7369L96.3397 80.3274L95.9391 80.6771L95.5384 81.0269L89.9885 80.983L84.4387 80.939L82.956 80.3712C82.1406 80.0589 81.1393 79.7591 80.7309 79.7051L79.9885 79.607L79.493 80.3133C79.0267 80.9778 78.9558 81.0195 78.2923 81.0195H77.5873L77.6123 80.289C77.626 79.8872 77.6312 79.4684 77.6237 79.3583C77.5735 78.6223 73.6656 78.3133 71.0882 78.8416L69.5537 79.1561L68.6997 80.0915L67.8458 81.027L52.0562 81.0216C43.3718 81.0187 36.2189 80.965 36.1607 80.9026C36.1027 80.84 36.1129 80.2005 36.1834 79.4815C36.254 78.7625 36.316 77.707 36.3214 77.1361L36.3311 76.098H62.9851H89.6394L90.0696 75.6847L90.5001 75.2715V67.3679V59.4643L90.0515 59.0147L89.603 58.5652H63.2739H36.9449L36.944 57.2964C36.9435 56.5984 36.8987 55.4565 36.8445 54.7587L36.746 53.4899H63.3088H89.8715L90.416 52.9281L90.9604 52.3661V34.4849C90.9604 17.7812 90.9429 16.573 90.6936 16.1378C90.5469 15.8815 90.2674 15.599 90.0726 15.5101C89.8287 15.3988 80.6148 15.3483 60.509 15.3483H31.2996L30.823 15.7945L30.3464 16.2407V18.041C30.3464 19.6703 30.3217 19.8318 30.0863 19.7412C29.9431 19.6863 29.4771 19.5353 29.0505 19.4059C27.7473 19.0107 27.5078 18.8484 26.5277 17.6976C25.7928 16.8345 25.5513 16.424 25.446 15.8599C25.3179 15.1719 25.3375 15.1021 25.816 14.5417C27.1513 12.9783 27.9157 10.1697 27.5614 8.12973L27.3893 7.13974L27.8321 6.78493L28.2748 6.43028L52.8273 6.39075C66.3312 6.36907 78.1049 6.36399 78.9911 6.37952C79.8773 6.39506 84.0362 6.41228 88.2331 6.41797ZM21.9065 7.25047C21.6111 7.3569 21.2397 7.51731 21.0812 7.60682C20.5772 7.8915 21.1126 8.023 21.728 7.76569C22.0372 7.6365 22.4153 7.49086 22.5683 7.44195C22.7214 7.39304 22.8037 7.28339 22.7511 7.19818C22.6328 7.00625 22.5735 7.00994 21.9065 7.25047ZM85.9663 7.42088C85.4268 7.96148 85.4407 8.91917 85.9956 9.43454C86.8838 10.2595 88.1829 9.6374 88.1934 8.38211C88.2 7.59975 87.6598 7.04331 86.8939 7.04331C86.5135 7.04331 86.2262 7.1602 85.9663 7.42088ZM89.5163 7.51654C88.9781 8.15741 88.9958 8.7889 89.5675 9.3621C90.3914 10.1877 91.6378 9.75198 91.8248 8.57282C91.8954 8.12835 91.8344 7.93395 91.4991 7.53469C90.9212 6.84614 90.0854 6.83861 89.5163 7.51654ZM93.1781 7.45026C92.3576 8.33766 92.9369 9.81165 94.1062 9.81165C95.2783 9.81165 95.8778 8.26661 95.0339 7.42088C94.5061 6.89182 93.6825 6.90489 93.1781 7.45026ZM87.5146 7.72848C87.9623 8.17695 87.9923 8.57605 87.6136 9.04482C87.0724 9.7146 85.8965 9.27536 85.8965 8.40349C85.8965 8.04437 86.5537 7.3509 86.8939 7.3509C87.0282 7.3509 87.3075 7.52085 87.5146 7.72848ZM90.9681 7.5856C91.3238 7.77 91.4208 7.9238 91.4208 8.30398C91.4208 8.9021 91.0379 9.35026 90.5268 9.35026C89.971 9.35026 89.5794 8.92916 89.5794 8.33167C89.5794 7.93395 89.672 7.77169 90.0014 7.59267C90.5251 7.30784 90.4336 7.30861 90.9681 7.5856ZM94.7337 7.70817C95.0914 8.01654 95.1339 8.14096 95.0448 8.61742C94.8235 9.79965 93.1088 9.56604 93.1088 8.35366C93.1088 8.04222 93.7857 7.3509 94.0907 7.3509C94.2164 7.3509 94.5058 7.51162 94.7337 7.70817ZM21.3286 8.66494C20.4424 9.03836 20.6277 9.72583 21.6804 9.97006C22.7948 10.2286 23.9014 9.88163 23.9014 9.27336C23.9014 9.06789 23.7806 8.83689 23.6328 8.76014C23.1717 8.52068 21.805 8.46408 21.3286 8.66494ZM23.1982 8.98223C23.6259 9.14679 23.4583 9.46653 22.8883 9.57373C22.2362 9.6963 22.1979 9.67323 22.314 9.22815C22.4021 8.89072 22.7259 8.80059 23.1982 8.98223ZM26.9517 9.0279C27.2718 9.23107 27.0105 9.50406 26.4956 9.50406C26.0865 9.50406 26.056 9.47207 26.2031 9.19646C26.3795 8.86611 26.6139 8.81336 26.9517 9.0279ZM21.3482 9.27336C21.3967 9.40024 21.3695 9.50406 21.2879 9.50406C21.2061 9.50406 21.1392 9.40024 21.1392 9.27336C21.1392 9.14648 21.1664 9.04267 21.1995 9.04267C21.2326 9.04267 21.2995 9.14648 21.3482 9.27336ZM25.2824 9.27336C25.2824 9.31566 25.2479 9.35026 25.2057 9.35026C25.1635 9.35026 25.129 9.31566 25.129 9.27336C25.129 9.23107 25.1635 9.19646 25.2057 9.19646C25.2479 9.19646 25.2824 9.23107 25.2824 9.27336ZM21.8385 12.1529C21.408 12.7687 21.5707 12.9877 22.0599 12.451C22.583 11.877 22.6076 11.811 22.2988 11.811C22.177 11.811 21.9698 11.9648 21.8385 12.1529ZM24.5152 12.7422C24.2198 12.8141 23.6248 12.8331 23.193 12.7847C22.7184 12.7312 22.369 12.7596 22.3093 12.8565C22.1692 13.0837 24.0832 13.2658 24.8604 13.0991C25.2055 13.0251 25.5164 12.878 25.5514 12.7722C25.6229 12.5558 25.317 12.5471 24.5152 12.7422ZM23.8598 13.8208C23.7103 13.91 23.6287 14.0492 23.6785 14.13C23.7284 14.2107 23.8437 14.2305 23.9348 14.1741C24.026 14.1176 24.2632 14.0646 24.4619 14.0563C24.6608 14.0478 24.8253 13.9718 24.8274 13.8873C24.8333 13.6709 24.1854 13.6264 23.8598 13.8208ZM90.11 16.002L90.5042 16.348L90.507 34.3048C90.5088 46.5321 90.4583 52.3578 90.3489 52.5628C90.2605 52.7284 89.9303 52.9384 89.6153 53.0294C89.2134 53.1455 81.2536 53.1817 62.9552 53.1502L36.8682 53.1054L36.7684 51.106C36.5985 47.7021 36.0326 41.4905 35.6528 38.8618L35.4614 37.537L36.6862 38.1433C37.9755 38.7814 39.1755 39.1834 40.7051 39.4896C41.8881 39.7265 45.1833 39.6124 46.9193 39.2743C47.6367 39.1347 48.474 38.9821 48.7798 38.9355L49.3359 38.8506L49.9003 39.9799C50.2108 40.6011 50.8482 41.5854 51.3167 42.1674L52.1688 43.2257L50.3541 45.0491L48.5395 46.8725L43.6245 46.9129C40.4772 46.9389 38.7096 47.0089 38.7096 47.1073C38.7096 47.2059 40.4962 47.2757 43.6815 47.3017L48.6534 47.3423L50.5979 45.4139L52.5426 43.4854L52.8383 43.8152C53.3799 44.4185 54.9881 45.4772 56.2169 46.0392C56.8846 46.3447 57.5443 46.6538 57.6829 46.7265C58.7583 47.29 62.8912 47.5126 64.8982 47.115C69.4937 46.2048 73.5028 42.6738 75.071 38.1556C75.2704 37.5809 75.5514 36.3531 75.6955 35.4272C75.9766 33.6203 75.8835 32.1274 75.3588 30.0359C74.5035 26.6252 71.9356 23.3724 68.699 21.5995C66.8657 20.5954 65.4542 20.1826 62.8401 19.8862L61.9578 19.7863V22.7778V25.7693L62.9936 25.9263C64.4271 26.1435 65.6348 26.6322 66.6754 27.4161C70.5103 30.3055 70.921 35.7336 67.5593 39.1028C64.1509 42.5188 58.3037 41.9824 55.7343 38.0179C55.2393 37.2542 55.2308 37.2141 55.4147 36.4918L55.6036 35.7499L57.131 35.4898C60.1504 34.9757 61.3601 34.4489 62.729 33.0523C63.5095 32.256 63.7834 31.8601 63.8686 31.4058C63.9589 30.9225 63.9292 30.7777 63.7142 30.6523C63.5676 30.5671 63.2738 30.3069 63.0611 30.0744C62.7117 29.6922 62.5733 29.6514 61.6283 29.6514C61.053 29.6514 60.0942 29.7354 59.4974 29.8378C57.9829 30.0982 57.8913 30.0194 57.8913 28.4581C57.8913 27.46 57.8352 27.1614 57.5989 26.8995C56.9296 26.1576 56.2874 26.6607 56.0495 28.1134C55.9105 28.9632 55.4848 29.8281 54.7817 30.6895C54.2615 31.3269 54.2251 31.3432 53.3245 31.3432H52.4007L52.4871 30.5045C52.6534 28.8892 53.9543 26.6708 55.3602 25.605C56.7224 24.5723 57.9422 24.0886 59.6943 23.8867L60.5767 23.785V20.6981V17.6111L59.1999 17.7153C54.6511 18.0595 50.789 20.4284 48.2868 24.4094C47.014 26.4341 46.1558 29.0602 46.153 30.9379L46.1521 31.5323L45.2697 31.4262C43.7142 31.2389 42.6231 30.8115 41.5485 29.9687C40.6451 29.2602 40.7499 29.3689 39.0931 27.4214C35.4677 23.16 33.3907 21.2632 31.3822 20.3792L30.6533 20.0583V18.2346C30.6533 16.5033 30.6723 16.3918 31.03 16.0335L31.4066 15.6559H60.5612H89.7156L90.11 16.002ZM19.8348 17.6988C20.4247 18.7269 21.5916 19.5281 22.9923 19.8669C23.5585 20.0039 24.1674 20.116 24.3453 20.116C24.5231 20.116 24.6686 20.1599 24.6686 20.2135C24.6686 20.3561 23.4333 22.7822 23.2754 22.95C23.0874 23.1495 21.7737 22.8235 20.7094 22.313C19.1368 21.5588 17.8748 20.515 17.5221 19.6769C17.3219 19.2011 17.3311 19.1231 17.6408 18.6773C18.3123 17.7099 19.0318 16.8864 19.2011 16.8914C19.2965 16.8943 19.5816 17.2576 19.8348 17.6988ZM26.7815 18.6007C27.3711 19.3603 27.44 19.5384 27.4721 20.3821C27.4915 20.8978 27.4575 21.3701 27.3962 21.4316C27.3352 21.4933 26.9561 21.2743 26.5541 20.9451C25.3645 19.9711 25.2381 19.8166 25.4356 19.578C25.5312 19.4627 25.6493 18.9804 25.6981 18.5064C25.7526 17.9776 25.8525 17.666 25.9567 17.7005C26.05 17.7314 26.4212 18.1365 26.7815 18.6007ZM17.3145 20.1113C17.8766 21.0268 18.5444 21.5792 20.1167 22.4293C21.5449 23.2012 23.0465 23.5986 23.5384 23.3347C23.8077 23.1901 23.962 23.2104 24.3527 23.4417C24.908 23.7705 24.9131 23.7878 25.1208 26.0372C25.5267 30.4307 25.7615 32.925 25.8955 34.2653C25.9759 35.0689 26.0807 36.4185 26.1283 37.2643C26.3584 41.3487 26.5496 43.1106 26.7972 43.4253C27.6243 44.4766 28.7666 45.6463 28.9664 45.6463C29.1026 45.6463 29.4978 45.0866 29.9167 44.3005L30.6338 42.9548L30.4969 40.6479C30.1627 35.0155 28.9788 28.5462 27.5061 24.3045C26.9345 22.6586 26.9408 22.196 27.5344 22.1935C27.7806 22.1924 27.8198 22.0299 27.8588 20.8466C27.8832 20.1065 27.9327 19.5008 27.9691 19.5008C28.0055 19.5008 28.5456 19.6679 29.1696 19.8719C31.5608 20.6543 33.431 21.8753 35.6043 24.0734C36.4215 24.8997 37.2473 25.7907 37.4395 26.053C37.6316 26.3156 38.5337 27.3711 39.4442 28.3987C42.1186 31.417 43.0141 31.7875 47.9935 31.9365L51.2928 32.0353L51.7514 32.9557C52.1653 33.7865 52.2098 34.0192 52.2069 35.3396C52.205 36.1444 52.1367 36.9186 52.0551 37.06C51.9181 37.2973 51.8532 37.2923 51.216 36.9981C50.2071 36.532 49.467 36.5673 48.2194 37.1413C47.3892 37.523 46.7324 37.6845 45.2881 37.862C43.8784 38.035 43.1749 38.2048 42.3896 38.5618C41.1441 39.1277 40.5676 39.1468 39.0762 38.6719C37.6124 38.2056 36.6918 37.7293 36.4772 37.3274C36.2309 36.8663 36.3866 35.2684 36.7818 34.2024L37.1184 33.2936L36.6728 32.4337C36.4277 31.9608 36.0473 31.2278 35.8273 30.8049C35.6074 30.3819 35.3115 29.6999 35.1699 29.2892C34.8981 28.5015 34.1319 27.4983 33.802 27.4983C33.6944 27.4983 33.5175 27.6058 33.4087 27.7371C33.2003 27.9889 33.2453 28.3415 33.8005 30.8049C33.9338 31.397 34.1488 32.4697 34.2782 33.1887C34.4074 33.9077 34.5783 34.842 34.658 35.265C35.2489 38.4024 35.7742 42.803 36.0944 47.2996C36.1637 48.2705 36.1389 48.5696 35.9893 48.5739C35.8819 48.577 35.1034 48.6813 34.2594 48.8059C31.9854 49.1411 26.9362 49.3766 24.0548 49.2814C21.1162 49.1845 18.4809 48.8275 15.2828 48.0932C14.5758 47.9309 14.5651 47.9189 14.4086 47.1336C14.2493 46.334 14.1428 45.8862 13.7074 44.1852C13.1478 41.9984 13.556 40.4003 14.988 39.1727C15.4231 38.7999 16.001 38.1501 16.2723 37.7288C16.7655 36.9634 16.7658 36.9615 16.7263 35.1275C16.6812 33.0352 16.718 32.9362 17.952 31.8219C18.7441 31.1065 19.374 30.0725 19.2365 29.7134C19.1893 29.59 18.9424 29.4976 18.6598 29.4976C18.2323 29.4976 17.925 29.7417 16.3834 31.3047C14.1317 33.5877 10.6088 38.2994 9.95766 39.8987C9.65367 40.6456 10.0246 41.7388 11.4643 44.339C12.1349 45.5498 13.7305 48.0541 14.226 48.673C14.8998 49.5147 15.6149 50.5493 15.6149 50.6825C15.6149 51.0971 12.9845 53.1966 11.4238 54.0279L10.558 54.489L10.1324 54.0189C4.86977 48.2062 2.16331 44.6334 1.16878 42.1858C0.715785 41.0713 0.669596 40.8107 0.677882 39.4175C0.685555 38.1316 0.756756 37.6905 1.11231 36.7261C2.43492 33.1386 6.97591 26.4821 10.482 22.9914C11.3777 22.0997 12.8708 21.0562 14.3872 20.262C14.6751 20.1113 16.5153 19.4219 16.8055 19.3561C16.8275 19.351 17.0564 19.6909 17.3145 20.1113ZM26.4536 21.3944C26.8857 21.7887 26.9178 21.8768 26.7708 22.2672C26.658 22.5666 26.3781 22.805 25.868 23.036C25.1399 23.3659 25.1195 23.3667 24.519 23.0892C24.1837 22.9342 23.9075 22.7672 23.9053 22.7178C23.9032 22.6684 24.1895 22.0966 24.5417 21.4471L25.1821 20.2661L25.5775 20.6111C25.795 20.8007 26.1892 21.1532 26.4536 21.3944ZM65.2455 20.6552C67.5941 21.2667 69.7572 22.3993 70.9095 23.6207L71.3445 24.082L69.5667 25.8669C68.5889 26.8488 67.7505 27.6521 67.7032 27.6521C67.6561 27.6521 67.3627 27.4509 67.051 27.2051C66.1226 26.4724 65.0038 25.9721 63.6333 25.6768L62.3414 25.3985L62.2994 22.8341L62.2573 20.2698H63.0114C63.4262 20.2698 64.4316 20.4433 65.2455 20.6552ZM26.6127 24.7745C27.3402 25.3542 27.459 25.5349 27.7455 26.4986C27.9217 27.0907 28.1327 27.7399 28.2143 27.941C28.2961 28.1424 28.334 28.3361 28.2984 28.3717C28.263 28.4074 27.6447 27.9658 26.9245 27.3906C25.703 26.4149 25.6087 26.2983 25.5178 25.6527C25.4643 25.2721 25.3796 24.7245 25.3297 24.436C25.2497 23.9736 25.2723 23.9242 25.5195 24.0192C25.6739 24.0786 26.1659 24.4185 26.6127 24.7745ZM75.6151 24.5761V25.0409L81.9451 25.0008L88.275 24.9606V24.5761V24.1916L81.9451 24.1515L75.6151 24.1114V24.5761ZM72.6591 25.4608C73.6629 26.7467 74.5867 28.5867 75.0334 30.1897C75.5236 31.9494 75.5204 35.3388 75.0268 37.0847C74.4817 39.0119 73.1572 41.4655 72.1291 42.4521L71.6915 42.8721L69.8634 41.0351L68.0353 39.1982L68.5048 38.6127C70.7035 35.8705 70.7496 31.5316 68.6084 28.8326C68.3282 28.4793 68.0979 28.1211 68.0967 28.0365C68.0938 27.838 71.4995 24.4332 71.702 24.4322C71.7864 24.4317 72.2172 24.8946 72.6591 25.4608ZM57.4314 28.5458C57.3431 29.489 57.3684 29.7199 57.5862 29.961C57.9974 30.4166 58.665 30.4741 60.1938 30.1855C61.5778 29.9246 62.725 29.9624 62.725 30.2692C62.725 30.4253 61.4923 30.8024 60.4624 30.9616C59.8265 31.06 59.5297 31.2467 59.7715 31.3965C59.8378 31.4376 60.4085 31.369 61.04 31.244C62.9861 30.8589 63.4923 30.8226 63.4923 31.0679C63.4923 31.3153 62.1642 31.7447 60.9246 31.8981C60.1757 31.9907 59.6371 32.2953 59.917 32.468C60.0396 32.5436 62.4101 32.0769 62.9168 31.8773C63.0732 31.8158 63.1854 31.8419 63.1854 31.9399C63.1854 32.1503 62.4129 32.4783 61.16 32.7999C60.6296 32.9362 60.1307 33.1128 60.0513 33.1924C59.7486 33.4957 60.1512 33.5415 60.9373 33.2932C61.3868 33.1511 61.88 33.0349 62.0331 33.0349C62.2737 33.0349 62.2614 33.0792 61.9429 33.3598C61.1165 34.0875 58.6577 34.9422 56.8846 35.118L55.8778 35.2176L55.9384 34.6976C56.0124 34.0625 55.5077 32.5669 54.9898 31.8864L54.6083 31.3852L55.0651 30.9465C55.5934 30.4392 56.4334 28.8381 56.4334 28.3383C56.4334 28.1507 56.541 27.7394 56.6724 27.4241C56.9075 26.86 56.9161 26.8555 57.224 27.1348C57.5056 27.3903 57.5262 27.5309 57.4314 28.5458ZM78.1078 29.4449C77.4369 29.7199 78.615 29.8052 83.0794 29.8052C87.004 29.8052 88.0568 29.7641 88.0065 29.613C87.9575 29.4653 86.8223 29.4144 83.1216 29.3933C80.4701 29.3783 78.2138 29.4015 78.1078 29.4449ZM27.587 31.0379C28.824 32.0419 29.1206 32.3627 29.1857 32.7681C29.4435 34.3727 29.5942 35.6856 29.528 35.7519C29.4551 35.825 28.4839 35.0892 26.9414 33.7927C26.1656 33.1404 26.1714 33.1583 25.9756 30.8433C25.9272 30.2723 25.9283 29.8052 25.978 29.8052C26.0278 29.8052 26.7517 30.36 27.587 31.0379ZM58.2749 31.2131C58.2749 31.8541 59.0756 34.2429 59.2659 34.1697C59.3986 34.1186 59.3202 33.6523 58.9837 32.4903C58.5416 30.9635 58.2749 30.483 58.2749 31.2131ZM54.1855 32.1506C54.8569 33.0422 55.0524 33.7416 55.0524 35.2511V36.6608L53.7951 37.0738C53.1037 37.3011 52.5146 37.4635 52.4859 37.4349C52.4573 37.4061 52.5139 36.8972 52.6117 36.3037C52.7628 35.386 52.7495 35.0437 52.5218 34.0145C52.3745 33.3488 52.124 32.6206 51.9652 32.3961C51.8064 32.1715 51.6764 31.9499 51.6764 31.9035C51.6764 31.8572 52.1081 31.7947 52.6355 31.7646C53.163 31.7346 53.6429 31.6968 53.7018 31.6805C53.7609 31.6641 53.9785 31.8758 54.1855 32.1506ZM77.993 32.4208C77.9404 32.506 77.9887 32.6109 78.1004 32.6538C78.212 32.6967 80.4722 32.7135 83.123 32.6912C86.8131 32.66 87.9577 32.6054 88.0065 32.4582C88.0886 32.2112 78.1451 32.1741 77.993 32.4208ZM77.9936 35.3419C77.9312 35.4432 79.6288 35.4957 82.9718 35.4957C86.2516 35.4957 88.0448 35.4414 88.0448 35.3419C88.0448 35.2425 86.2832 35.1881 83.0667 35.1881C79.9133 35.1881 78.0536 35.2445 77.9936 35.3419ZM29.6324 39.2245C30.0519 39.5673 30.0725 39.6476 30.1544 41.256L30.2397 42.9307L29.5093 42.405C29.1074 42.1157 28.3134 41.4867 27.7449 41.007L26.7109 40.1347L26.6115 38.8534C26.4269 36.4768 26.3159 36.5712 27.8528 37.7968C28.5913 38.3857 29.3921 39.0281 29.6324 39.2245ZM54.8463 37.4255C54.9092 37.5898 54.3525 38.2331 53.0484 39.5033L51.1594 41.343L50.7029 40.6397L50.2465 39.9366L51.2107 38.9615C51.9879 38.1754 52.3422 37.9367 53.0381 37.73C53.5129 37.589 54.0396 37.4138 54.2084 37.3409C54.6542 37.1482 54.7447 37.1602 54.8463 37.4255ZM55.85 38.8408L56.1107 39.2843L54.2701 41.1196L52.4294 42.9548L51.9804 42.4165C51.7333 42.1205 51.5294 41.8101 51.5271 41.7268C51.5248 41.6434 52.3312 40.7631 53.319 39.7705C55.275 37.8049 55.2474 37.8151 55.85 38.8408ZM78.1087 38.0486C77.4515 38.3477 78.3773 38.4178 82.9809 38.4178C86.2545 38.4178 88.0448 38.3634 88.0448 38.264C88.0448 38.1656 86.6502 38.1098 84.1701 38.1091C82.039 38.1085 79.8466 38.075 79.298 38.0347C78.7494 37.9943 78.2143 38.0006 78.1087 38.0486ZM51.216 38.3335C51.216 38.3717 50.961 38.6513 50.6492 38.9547L50.0823 39.5064L49.8925 39.1544C49.6671 38.7365 49.739 38.6445 50.4488 38.4437C51.0977 38.2602 51.216 38.2431 51.216 38.3335ZM57.5793 40.457C57.7085 40.5608 54.2045 44.2621 53.9771 44.2621C53.9319 44.2621 53.6311 44.0443 53.309 43.7782L52.7233 43.2944L54.6113 41.3973L56.4996 39.5004L56.9653 39.9192C57.2214 40.1494 57.4976 40.3915 57.5793 40.457ZM68.5141 40.2969L69.0237 40.792L65.9141 43.9111L62.8045 47.0304H61.7673C61.1969 47.0304 60.7301 46.9791 60.7301 46.9163C60.7301 46.7456 67.6862 39.802 67.8571 39.802C67.9383 39.802 68.2338 40.0247 68.5141 40.2969ZM58.9278 41.0917C59.3283 41.2512 59.656 41.4253 59.656 41.4785C59.656 41.5317 58.7945 42.4367 57.7415 43.4894L55.827 45.4036L55.1328 45.0655C54.751 44.8796 54.4386 44.641 54.4386 44.5355C54.4386 44.3315 57.9859 40.6963 58.1204 40.7626C58.1639 40.7841 58.5273 40.9322 58.9278 41.0917ZM63.0817 43.8599C61.4176 45.5245 59.9748 46.8551 59.8756 46.817C59.7764 46.7788 59.3756 46.6996 58.9851 46.6409C58.5945 46.5821 58.2749 46.4909 58.2749 46.438C58.2749 46.3853 59.3271 45.2858 60.6132 43.9948C62.4232 42.1778 63.0411 41.6475 63.348 41.6475C63.771 41.6475 64.9895 41.2671 65.6251 40.9366C65.8369 40.8264 66.0321 40.7581 66.0586 40.7849C66.0854 40.8117 64.7457 42.1954 63.0817 43.8599ZM38.6329 41.34C38.6329 41.4393 40.4232 41.4938 43.6968 41.4938C46.9704 41.4938 48.7608 41.4393 48.7608 41.34C48.7608 41.2406 46.9704 41.1862 43.6968 41.1862C40.4232 41.1862 38.6329 41.2406 38.6329 41.34ZM69.8138 41.5994C70.0506 41.8267 70.2442 42.0872 70.2442 42.1783C70.2442 42.2693 69.3294 43.2578 68.211 44.375L66.1777 46.406L65.0552 46.6413C64.4377 46.7707 63.8515 46.8766 63.7524 46.8766C63.6533 46.8766 64.8482 45.5963 66.4079 44.0314C67.9676 42.4665 69.2752 41.1862 69.3135 41.1862C69.3521 41.1862 69.5772 41.3721 69.8138 41.5994ZM61.7996 41.7466L62.2934 41.8455L60.0944 44.0535C58.8849 45.2679 57.8168 46.2614 57.7209 46.2614C57.625 46.2614 57.2181 46.1158 56.8165 45.9377L56.0863 45.614L58.0608 43.6308C59.956 41.7271 60.0606 41.6475 60.6704 41.6475C61.0197 41.6475 61.5278 41.6922 61.7996 41.7466ZM71.1373 42.9253L71.47 43.2804L70.4351 44.0597C67.5551 46.2282 66.9548 46.2879 69.0139 44.2007C69.8985 43.3039 70.6633 42.5703 70.7135 42.5703C70.7635 42.5703 70.9543 42.7301 71.1373 42.9253ZM38.6329 44.2621C38.6329 44.3614 40.4232 44.4159 43.6968 44.4159C46.9704 44.4159 48.7608 44.3614 48.7608 44.2621C48.7608 44.1627 46.9704 44.1083 43.6968 44.1083C40.4232 44.1083 38.6329 44.1627 38.6329 44.2621ZM17.7632 49.0395C18.3118 49.1234 19.0544 49.2593 19.4133 49.3412C19.7722 49.4232 21.6022 49.5624 23.4798 49.6505C25.3575 49.7386 26.9801 49.8404 27.0855 49.8767C27.2127 49.9206 27.2773 50.2815 27.2773 50.9475V51.9519H25.1845C23.0661 51.9519 20.0824 51.6651 17.8399 51.2458C16.7095 51.0345 16.5672 50.965 16.0435 50.369C15.7306 50.0132 15.4715 49.6807 15.468 49.6305C15.4643 49.5802 15.2928 49.3423 15.0865 49.1018C14.8803 48.8612 14.7394 48.6195 14.7733 48.5642C14.8074 48.5092 15.2696 48.5593 15.8004 48.6754C16.3313 48.7917 17.2146 48.9555 17.7632 49.0395ZM36.3311 50.0924V51.1549L35.2953 51.328C33.8045 51.5768 31.9767 51.7698 31.8426 51.6926C31.7792 51.656 31.7275 51.1817 31.7275 50.6385C31.7275 49.7376 31.7577 49.6447 32.0727 49.581C32.68 49.458 35.3978 49.0908 35.9858 49.0524C36.3127 49.031 36.3311 49.0862 36.3311 50.0924ZM31.3438 50.7984V51.875L29.5408 51.9184L27.7377 51.9616V50.893C27.7377 50.1834 27.8021 49.7975 27.9295 49.7443C28.0351 49.7002 28.8464 49.6771 29.7326 49.693L31.3438 49.7219V50.7984ZM16.9923 52.3443L17.9131 53.5056L17.3394 54.0811C16.5784 54.8447 15.4749 55.7169 14.2485 56.5243L13.2465 57.1838L12.1364 56.0789C11.526 55.4711 11.063 54.9145 11.1078 54.8421C11.1524 54.7696 11.8568 54.2718 12.673 53.7357C13.4892 53.1997 14.5369 52.4092 15.0011 51.979C15.4653 51.5488 15.896 51.1937 15.9583 51.1899C16.0206 51.186 16.4859 51.7055 16.9923 52.3443ZM20.5929 55.0006C20.0524 56.4266 19.0189 57.6951 17.6905 58.5626C16.5735 59.2919 15.257 59.7719 14.0882 59.8758L13.2363 59.9515L14.2588 59.5924C14.8212 59.3949 15.4723 59.1078 15.7059 58.9544L16.1305 58.6756L15.5699 58.1607L15.0093 57.6459L15.8876 56.9991C16.3706 56.6433 17.1644 55.9729 17.6517 55.5094L18.5375 54.6667L19.061 55.1752C19.3489 55.4549 19.6752 55.6486 19.7863 55.6055C19.8974 55.5625 20.1609 55.1769 20.3719 54.7489C20.8304 53.8186 20.9773 53.9859 20.5929 55.0006ZM89.8164 59.2503L90.1932 59.6278V67.3956V75.1632L89.8573 75.4768C89.5388 75.7742 89.3311 75.7906 85.8291 75.7929C83.7985 75.7941 71.8824 75.7956 59.3491 75.7962L36.5612 75.7975L36.5209 75.2941C36.4988 75.0173 36.5333 74.134 36.5976 73.3315L36.7147 71.8723L37.5054 71.7585C39.0457 71.5368 39.9163 71.0839 41.3754 69.745C42.1305 69.0521 42.7546 68.4332 42.7623 68.3697C42.8008 68.0483 42.3386 68.3679 41.1722 69.4689C39.7934 70.7706 38.8314 71.2666 37.3428 71.4433C36.6998 71.5196 36.6001 71.4972 36.6779 71.294C36.7284 71.1625 36.8194 68.3139 36.8804 64.9639L36.9914 58.8728H63.2156H89.4399L89.8164 59.2503ZM83.6742 63.1122C83.4448 63.4136 82.8797 64.4691 82.4186 65.4576C80.8488 68.8225 80.546 69.4075 79.9256 70.2753C79.3942 71.0184 78.3167 71.929 77.711 72.147C77.6132 72.1822 77.5795 72.2609 77.6359 72.3221C77.8227 72.5242 78.9033 71.8901 79.6179 71.159C80.3774 70.382 81.1026 69.0819 82.4286 66.1215C82.8928 65.0848 83.5178 63.8945 83.8173 63.4767C84.1169 63.0588 84.3619 62.6825 84.3619 62.6405C84.3619 62.4104 84.0405 62.6309 83.6742 63.1122ZM26.3764 63.6789C26.7652 64.6028 26.5518 68.3277 25.8938 72.0993C25.8126 72.5645 25.6111 73.7757 25.4462 74.7907C25.1466 76.6337 24.8799 78.1593 24.4512 80.4812C24.3263 81.1579 24.1486 82.1268 24.0562 82.6344C23.7675 84.2208 23.0554 87.7678 22.8209 88.7862C21.6692 93.7895 20.9305 96.6066 19.5945 101.09C18.2843 105.487 16.5397 110.749 16.3188 110.971C16.2186 111.071 14.2545 110.625 13.3447 110.295L12.6859 110.056L13.4822 109.264C15.4297 107.327 15.9038 105.893 16.2354 100.936C16.4375 97.9167 16.7371 96.9354 17.9029 95.4764C19.0073 94.094 19.0363 93.9058 18.377 92.4004C18.0701 91.6996 17.9177 91.1015 17.92 90.6059C17.9233 89.8888 18.3292 88.7362 18.7495 88.2507C19.1679 87.7672 19.9116 86.2504 19.9116 85.8802C19.9116 85.6209 19.7362 85.3612 19.3745 85.0846C18.9212 84.7381 18.8374 84.5797 18.8374 84.0696C18.8374 83.3781 18.9402 83.1582 20.4436 80.635C22.1061 77.8447 23.0303 75.5013 23.84 72.0224C24.2541 70.2437 24.9411 66.5992 25.2172 64.717C25.3404 63.877 25.6768 63.1791 25.9582 63.1791C26.0726 63.1791 26.2605 63.4039 26.3764 63.6789ZM66.945 63.776C65.8257 64.4767 65.0526 65.6209 64.0097 68.1206C63.2323 69.9838 62.5877 71.1913 62.0702 71.7526C61.8952 71.9426 61.8049 72.1502 61.8698 72.214C62.1832 72.5224 63.3177 70.6627 64.3456 68.1552C65.356 65.6912 66.279 64.3838 67.3107 63.9554C67.7907 63.7563 67.9559 63.4862 67.5972 63.4873C67.4918 63.4876 67.1982 63.6175 66.945 63.776ZM69.9373 63.8236C69.9373 63.9361 70.0714 64.1117 70.2352 64.2143C70.7144 64.5143 71.2804 65.6247 71.9947 67.6669C72.3617 68.7161 72.8378 69.9221 73.0524 70.3468C73.4916 71.2153 74.4865 72.1949 75.0812 72.3446C75.7168 72.5044 75.6946 72.3 75.04 71.9653C73.8157 71.3394 73.1909 70.3197 72.247 67.4085C71.9727 66.5626 71.544 65.5091 71.2943 65.0672C70.831 64.2478 69.9373 63.4287 69.9373 63.8236ZM53.4721 67.01C53.1739 67.3405 52.5058 68.4452 51.9873 69.4647C51.4482 70.5244 50.8456 71.4859 50.5804 71.7096C50.3254 71.9246 50.144 72.1825 50.1773 72.2826C50.3156 72.6986 51.5145 71.1453 52.4065 69.3943C52.9198 68.3866 53.5525 67.359 53.8125 67.1106C54.0724 66.8622 54.2851 66.6026 54.2851 66.5338C54.2851 66.263 53.9892 66.4362 53.4721 67.01ZM56.7083 66.9339C56.9613 67.2227 57.3824 68.036 57.644 68.741C58.3083 70.531 59.0265 71.9263 59.3814 72.1167C59.8855 72.387 59.8805 72.1347 59.3712 71.6127C59.106 71.3409 58.7478 70.7336 58.5752 70.2633C57.6772 67.8156 57.4432 67.2785 57.0941 66.8625C56.8844 66.613 56.6085 66.4088 56.4807 66.4088C56.3174 66.4088 56.3853 66.5652 56.7083 66.9339ZM44.771 68.3814C44.771 68.4512 44.9501 68.6761 45.1691 68.8812C45.3879 69.0863 45.8487 69.7385 46.1932 70.3306C46.8969 71.5408 47.8505 72.599 47.9559 72.2866C47.9924 72.1782 47.8434 71.9484 47.6248 71.776C47.4061 71.6036 46.9387 70.9656 46.5862 70.3583C45.7542 68.9246 44.771 67.8539 44.771 68.3814ZM35.9496 75.0746C36.0047 75.5952 35.9751 76.8862 35.8837 77.9436C35.4432 83.0474 35.2497 85.1129 35.0264 87.0945C34.8931 88.2787 34.7181 89.8543 34.6377 90.5961C34.468 92.1617 34.2528 93.7226 33.4035 99.552C33.0576 101.925 32.782 103.718 32.4223 105.935C32.2919 106.738 32.1418 107.69 32.0889 108.049C32.0009 108.647 31.9415 108.718 31.3948 108.883C30.6593 109.104 30.5546 109.014 30.2637 107.918C29.8745 106.453 30.0551 104.862 31.0533 100.965C31.5516 99.0203 31.4876 98.5174 30.5443 96.9611C30.074 96.1854 29.9924 95.917 30.0036 95.1851C30.0112 94.6748 30.1699 93.9149 30.3921 93.3232C32.3235 88.1804 32.5903 87.3719 33.0314 85.3258C33.1681 84.6914 33.3403 83.9301 33.4141 83.634C33.4877 83.338 33.591 82.7497 33.6433 82.3268C34.1367 78.3439 34.6923 75.2293 35.0565 74.4062C35.4005 73.6286 35.4476 73.5833 35.6401 73.8443C35.7553 74.0005 35.8945 74.5542 35.9496 75.0746ZM76.7276 79.1745L77.3031 79.3422V81.4989C77.3031 83.613 77.3095 83.6545 77.6304 83.6063C77.8618 83.5716 78.2501 83.0674 78.9555 81.8863L79.9532 80.2156L80.5706 80.2985C81.5172 80.4258 83.2812 81.3766 84.055 82.1768C84.8769 83.0265 85.1108 82.7529 81.8422 84.7635C79.5127 86.1961 79.0881 86.5611 79.3934 86.8671C79.5114 86.9854 79.8997 86.897 80.7521 86.5575C82.9384 85.6872 85.4891 84.8559 85.6043 84.9762C85.7783 85.1578 86.0499 86.8238 86.0499 87.7093C86.0499 88.4682 86.028 88.5091 85.4815 88.7702C85.169 88.9196 84.0173 89.2139 82.9221 89.4242C80.2798 89.9315 79.6156 90.2971 80.3008 90.8669C80.5669 91.0882 84.4262 90.9817 85.49 90.7236L86.0809 90.5802L85.9738 91.296C85.8422 92.1768 85.5388 92.7874 85.0846 93.0856C84.8947 93.2103 84.0609 93.4144 83.2315 93.5393C81.4508 93.8074 80.419 94.2692 80.0137 94.9794C79.83 95.3013 79.6862 95.9727 79.6141 96.8458C79.5246 97.9279 79.4134 98.3596 79.075 98.9382C78.1551 100.512 77.1139 101.321 76.009 101.321C75.2585 101.321 74.3875 100.941 74.3875 100.613C74.3875 100.469 74.7235 99.8257 75.1343 99.1829C76.89 96.4351 77.7677 93.939 76.9148 94.1193C76.7852 94.1466 76.4481 94.7029 76.1657 95.3553C75.8832 96.0076 75.415 96.8727 75.1251 97.2778C74.4263 98.2542 72.9079 99.4751 72.392 99.4751C71.3362 99.4751 69.2368 97.8602 68.5905 96.5508C68.2569 95.875 68.2739 95.5588 68.6514 95.4136C68.7752 95.3661 70.0506 94.4841 71.4858 93.4536C73.768 91.8149 74.0672 91.5521 73.872 91.3566C73.677 91.161 73.4394 91.2596 71.9775 92.1424C70.1196 93.2643 68.1602 94.246 67.7787 94.246C67.0503 94.246 66.4176 92.4589 66.2951 90.055C66.2264 88.705 66.2502 88.4016 66.4245 88.401C66.9257 88.3994 71.8217 87.7781 71.9476 87.7001C72.2101 87.5374 72.0844 87.1769 71.7404 87.1066C71.5506 87.0678 70.4629 87.0031 69.3235 86.9626C66.7148 86.8702 66.4079 86.7661 66.4079 85.9727C66.4079 84.5997 67.6885 81.73 68.9399 80.2986C69.5876 79.5576 69.716 79.4841 70.7463 79.2642C71.3563 79.1341 72.0627 78.9969 72.3159 78.9595C73.0771 78.847 76.1109 78.9948 76.7276 79.1745ZM78.4448 82.0576C77.604 83.5127 77.61 83.5105 77.61 82.3611V81.3271H78.2384H78.8668L78.4448 82.0576ZM94.4791 92.2086C94.9445 92.4369 95.078 92.6276 95.3669 93.477C95.8789 94.9836 95.851 95.1299 95.0269 95.2537C94.6471 95.3107 94.3369 95.4361 94.3376 95.5323C94.3382 95.6285 94.6145 95.8649 94.9514 96.0577C95.5215 96.3841 95.564 96.4557 95.564 97.092C95.564 97.7739 95.563 97.7753 95.142 97.6163C94.9099 97.5285 94.4211 97.2819 94.0557 97.0682C93.6905 96.8545 93.3529 96.7184 93.3055 96.766C93.2582 96.8133 93.4189 97.104 93.6629 97.4117C94.3642 98.2967 94.7968 98.9185 94.7968 99.0417C94.7968 99.1041 94.5236 99.2372 94.1899 99.3374C93.3446 99.5912 92.9498 99.3057 92.5978 98.1866C92.4321 97.6595 92.239 97.3219 92.1035 97.3219C91.8212 97.3219 91.8238 97.5937 92.117 98.7279C92.2467 99.2295 92.3116 99.7067 92.2614 99.7882C92.1164 100.023 91.0194 99.9623 90.8084 99.7075C90.6884 99.5624 90.6557 99.2811 90.7194 98.9406C90.819 98.4085 90.6308 97.8247 90.2852 97.5934C90.0099 97.4091 89.2879 97.4599 88.8337 97.6952C88.6008 97.8159 88.3413 97.8678 88.257 97.8105C87.9313 97.5892 87.5845 96.9271 87.5845 96.5263C87.5845 96.1243 87.6207 96.1049 88.4547 96.0608C88.9333 96.0354 89.3487 95.9424 89.3777 95.8539C89.4067 95.7655 89.076 95.5431 88.643 95.3596C87.9052 95.0473 87.8621 94.999 87.961 94.5976C88.0866 94.0887 88.714 93.3872 89.3338 93.0628C89.7635 92.838 89.7943 92.8464 90.224 93.3074C90.4688 93.5697 90.7025 93.7846 90.7433 93.7846C90.7841 93.7846 90.7723 93.443 90.7171 93.0256L90.6167 92.2668L91.364 92.0275C92.2682 91.738 93.6876 91.8206 94.4791 92.2086ZM81.7368 95.6408C82.1941 96.6657 83.4412 100.282 83.6558 101.205C83.7375 101.557 83.7032 101.628 83.4501 101.628C83.2206 101.628 83.1059 101.468 82.9821 100.975C82.7393 100.008 81.7795 97.261 81.2108 95.9064C80.7463 94.7998 80.7391 94.6194 81.1572 94.5657C81.2093 94.5591 81.4701 95.0428 81.7368 95.6408ZM89.9805 98.6715C89.7762 99.0755 89.4564 99.9097 89.27 100.525C89.0834 101.141 88.9066 101.62 88.877 101.591C88.728 101.441 89.7273 98.5451 90.0712 98.1297C90.3795 97.7575 90.3482 97.9442 89.9805 98.6715ZM92.2904 98.1935C92.2341 98.2498 92.1881 98.2036 92.1881 98.0909C92.1881 97.9782 92.2341 97.932 92.2904 97.9883C92.3466 98.0448 92.3466 98.137 92.2904 98.1935ZM92.4463 98.735C92.3974 98.8576 92.361 98.8211 92.3536 98.642C92.347 98.4799 92.3833 98.3891 92.4342 98.4402C92.4851 98.4912 92.4907 98.624 92.4463 98.735ZM94.9502 102.474V102.859H87.2776H79.6049V102.474V102.09H87.2776H94.9502V102.474ZM94.4018 103.897C94.2506 104.751 93.3162 107.205 92.5474 108.767C90.8364 112.243 89.2477 114.251 87.2688 115.438C86.2707 116.037 84.1184 116.431 83.3843 116.148C82.9508 115.982 82.2259 114.624 81.6819 112.96C80.9484 110.715 80.2235 106.335 80.2199 104.127L80.2187 103.32H87.3612H94.5038L94.4018 103.897ZM31.6773 110.125L31.5042 110.856H28.9305C26.8466 110.856 26.3566 110.816 26.3566 110.644C26.3566 110.298 26.6901 110.128 27.5842 110.016C28.8054 109.864 30.955 109.465 31.3293 109.32C31.7985 109.139 31.8713 109.307 31.6773 110.125ZM13.1245 110.632C13.738 110.834 14.653 111.085 15.1577 111.189C16.0936 111.383 16.3088 111.637 15.8911 112.056C15.5638 112.384 14.1351 112.276 13.2652 111.857C12.2274 111.358 11.2296 110.509 11.3851 110.257C11.4497 110.152 11.6165 110.111 11.7557 110.165C11.8949 110.22 12.5108 110.43 13.1245 110.632ZM49.4513 116.547C49.389 116.648 50.6774 116.7 53.2019 116.7C55.6631 116.7 57.0473 116.645 57.0473 116.547C57.0473 116.448 55.6947 116.393 53.2967 116.393C50.9619 116.393 49.5104 116.451 49.4513 116.547ZM64.8734 116.547C64.8734 116.646 66.9992 116.7 70.9438 116.7C74.9517 116.7 76.9821 116.648 76.9195 116.547C76.8588 116.448 74.6672 116.393 70.849 116.393C66.9676 116.393 64.8734 116.447 64.8734 116.547ZM91.4208 116.547C91.4208 116.644 92.5973 116.7 94.6433 116.7C96.6893 116.7 97.8658 116.644 97.8658 116.547C97.8658 116.449 96.6893 116.393 94.6433 116.393C92.5973 116.393 91.4208 116.449 91.4208 116.547Z"
    fill="black" />
</svg>
