<svg width="24" height="25" viewBox="0 0 24 25" fill="none" xmlns="http://www.w3.org/2000/svg">
<path d="M16.2426 12.907C17.3284 11.8212 18 10.3212 18 8.66437C18 5.35066 15.3137 2.66437 12 2.66437C8.6863 2.66437 6 5.35066 6 8.66437C6 10.3212 6.67155 11.8212 7.75735 12.907" stroke="#305AA6" stroke-width="2" stroke-linecap="round"/>
<path d="M3 22.6644L3.5 20.1644L9 16.1644L12 19.1644L15 16.1644L20.5 20.1644L21 22.6644" stroke="#305AA6" stroke-width="2" stroke-linecap="round" stroke-linejoin="round"/>
<path d="M6.49707 11.1679C6.50342 9.11262 6.83782 7.61142 7.50037 6.66432C8.49422 5.24372 9.19387 5.34814 9.70307 5.56941C10.2123 5.79067 10.5117 7.23647 11.3622 7.65322C12.2127 8.06997 14.3892 8.12142 15.1347 8.62272C15.8802 9.12407 17.5852 10.0566 17.1601 11.6486" stroke="#305AA6" stroke-width="2"/>
</svg>
