<svg width="271" height="266" viewBox="0 0 271 266" fill="none" xmlns="http://www.w3.org/2000/svg">
<g clip-path="url(#clip0_3053_59711)">
<path d="M116.436 73.4898L114.021 73.3833C114.165 70.0723 115.611 40.8806 121.967 35.5554C122.371 35.1928 122.846 34.9211 123.363 34.7585C123.879 34.5959 124.424 34.5461 124.961 34.6125C128.745 35.1424 132.877 41.1782 137.593 53.0653C140.951 61.5287 143.371 69.9675 143.395 70.0518L141.073 70.723C141.049 70.6397 138.657 62.3029 135.343 53.9512C129.49 39.2051 125.9 37.1988 124.629 37.0209C124.425 36.9987 124.218 37.0234 124.025 37.0932C123.832 37.163 123.657 37.276 123.513 37.4238C118.824 41.3527 116.814 64.7902 116.436 73.4898Z" fill="#C460C0"/>
<path d="M95.1055 57.7388L92.6885 118.713L172.435 110.071L162.577 51.2021L95.1055 57.7388Z" fill="#305AA6"/>
<path d="M162.577 51.2021L156.711 51.7703L164.518 103.393L92.9678 111.675L92.6885 118.713L172.435 110.071L162.577 51.2021Z" fill="#214483"/>
<path d="M205.66 156.05L202.344 155.679C202.372 155.417 205.126 129.333 196.195 119.579C195.145 118.392 193.842 117.46 192.384 116.852C190.925 116.245 189.349 115.977 187.773 116.069C168.318 116.626 159.171 150.214 159.081 150.553L155.857 149.686C157.654 143.413 160.15 137.365 163.297 131.657C170.075 119.526 178.505 112.976 187.678 112.714C189.731 112.608 191.783 112.965 193.681 113.76C195.58 114.554 197.278 115.766 198.651 117.306C208.609 128.185 205.785 154.917 205.66 156.05Z" fill="#305AA6"/>
<path d="M146.481 132.128L216.876 140.527L215.784 252.827L121.815 241.568L146.481 132.128Z" fill="#C460C0"/>
<path d="M216.876 140.527L209.904 139.695L206.509 243.603L123.139 235.695L121.815 241.568L215.784 252.827L216.876 140.527Z" fill="#A752A3"/>
<path d="M234.518 176.217C237.724 176.892 240.778 174.314 241.34 170.453C241.938 171.48 242.536 172.508 243.134 173.537C242.573 177.398 239.516 179.977 236.314 179.301C235.716 178.272 235.117 177.244 234.518 176.217Z" fill="#FFBA49"/>
<path d="M139.842 258.807C143.048 259.483 146.102 256.904 146.664 253.044C147.262 254.071 147.86 255.099 148.458 256.127C147.897 259.988 144.841 262.568 141.638 261.892C141.04 260.863 140.441 259.834 139.842 258.807Z" fill="#9B9B9B"/>
<path d="M241.677 111.587C243.021 115.155 246.512 116.741 249.477 115.122C249.11 116.297 248.742 117.473 248.373 118.648C245.408 120.264 241.918 118.681 240.575 115.111C240.945 113.938 241.312 112.763 241.677 111.587Z" fill="#FF5C00"/>
<path d="M220.932 86.2425C221.473 82.3771 219.311 78.7171 216.102 78.066C216.95 77.3376 217.8 76.6093 218.65 75.8813C221.858 76.5325 224.021 80.194 223.481 84.0579C222.632 84.7865 221.783 85.5147 220.932 86.2425Z" fill="#021193"/>
<path d="M28.2828 70.6429C28.8239 66.7775 26.662 63.1173 23.4521 62.4662C24.3009 61.7378 25.1505 61.0096 26.001 60.2817C29.2083 60.9327 31.3715 64.5942 30.8316 68.4583C29.9829 69.1867 29.1333 69.9149 28.2828 70.6429Z" fill="#FF5C00"/>
<path d="M93.9302 207.608C94.4714 203.742 92.3093 200.082 89.0996 199.431C89.9484 198.702 90.7979 197.974 91.6483 197.246C94.8556 197.897 97.0188 201.559 96.479 205.423C95.6302 206.151 94.7806 206.879 93.9302 207.608Z" fill="#FF5C00"/>
<path d="M262.312 62.7564C265.498 63.5645 268.621 61.1107 269.292 57.2734C269.861 58.3247 270.431 59.3769 271 60.4298C270.331 64.2632 267.205 66.7186 264.022 65.9128C263.452 64.8615 262.882 63.8094 262.312 62.7564Z" fill="#FFBA49"/>
<path d="M7.58382 110.241C6.44231 106.57 3.0479 104.708 0 106.085C0.431147 104.943 0.86293 103.801 1.29535 102.656C4.34072 101.281 7.73702 103.141 8.87916 106.811C8.44803 107.954 8.01625 109.097 7.58382 110.241Z" fill="#FFBA49"/>
<path d="M86.6861 154.958C86.911 158.867 89.7254 161.816 92.9709 161.544C92.2864 162.493 91.6008 163.438 90.9176 164.388C87.6708 164.657 84.8576 161.706 84.6328 157.797C85.3173 156.852 86.0017 155.906 86.6861 154.958Z" fill="#DB3022"/>
<path d="M63.748 83.9285C66.9714 83.3899 69.2212 79.8048 68.7727 75.9224C69.6054 76.6805 70.4368 77.4377 71.2671 78.194C71.7143 82.078 69.4658 85.6607 66.2425 86.2017C65.4122 85.4434 64.5807 84.6857 63.748 83.9285Z" fill="#021193"/>
<path d="M200.146 63.4768C195.966 63.616 198.971 71.0202 194.79 71.1624C193.992 70.3551 193.193 69.5477 192.395 68.7404C196.575 68.6005 193.571 61.1962 197.75 61.0542C198.55 61.8615 199.348 62.6691 200.146 63.4768Z" fill="#FF5C00"/>
<path d="M202.783 230.927C198.715 229.766 200.033 237.853 195.963 236.694C195.364 235.665 194.765 234.637 194.167 233.609C198.237 234.77 196.917 226.683 200.988 227.844C201.586 228.872 202.184 229.9 202.783 230.927Z" fill="#FFBA49"/>
<path d="M81.7955 241.455C78.9219 245.116 85.3932 247.797 82.5195 251.455C81.4817 251.562 80.4427 251.674 79.4049 251.779C82.2786 248.121 75.8072 245.443 78.6809 241.782C79.7199 241.675 80.7581 241.566 81.7955 241.455Z" fill="#021193"/>
<path d="M179.838 15.8624C175.746 16.9093 179.807 23.5435 175.718 24.5881C174.814 23.9661 173.904 23.3463 173 22.7228C177.091 21.6788 173.027 15.0469 177.119 14C178.026 14.6235 178.932 15.2443 179.838 15.8624Z" fill="#DB3022"/>
<path d="M85.6962 25C87.7087 29.4167 91.8109 22.8198 93.8204 27.2352C93.587 28.4576 93.3565 29.6846 93.1218 30.9078C91.1124 26.4911 87.0125 33.0901 85 28.6734C85.2341 27.4472 85.4661 26.2227 85.6962 25Z" fill="#9B9B9B"/>
<path d="M8.87891 184.172C9.41873 184.074 9.90711 183.788 10.2588 183.364C10.6105 182.941 10.8031 182.406 10.8031 181.854C10.8031 181.302 10.6105 180.768 10.2588 180.344C9.90711 179.921 9.41873 179.635 8.87891 179.537" fill="black"/>
<path d="M232.244 32.2502C230.485 32.2502 229.055 30.5269 229.055 28.4085C229.055 26.2901 230.485 24.5669 232.244 24.5669C234.003 24.5669 235.433 26.2902 235.433 28.4085C235.433 30.5269 234.003 32.2502 232.244 32.2502ZM232.244 26.0908C231.685 26.1463 231.171 26.4203 230.811 26.8538C230.451 27.2872 230.275 27.8456 230.32 28.4085C230.269 28.692 230.28 28.9832 230.353 29.2617C230.427 29.5402 230.56 29.7991 230.743 30.0202C230.927 30.2413 231.156 30.4191 231.416 30.5411C231.675 30.6631 231.958 30.7264 232.244 30.7264C232.53 30.7264 232.813 30.6631 233.072 30.5411C233.332 30.4191 233.561 30.2413 233.745 30.0202C233.928 29.7991 234.061 29.5402 234.135 29.2617C234.208 28.9832 234.219 28.692 234.168 28.4085C234.213 27.8456 234.037 27.2873 233.677 26.8538C233.317 26.4203 232.803 26.1463 232.244 26.0908Z" fill="black"/>
<path d="M41.6239 150.64C39.8653 150.64 38.4346 148.917 38.4346 146.798C38.4346 144.68 39.8653 142.957 41.6239 142.957C43.3825 142.957 44.8132 144.68 44.8132 146.798C44.8132 148.917 43.3825 150.64 41.6239 150.64ZM41.6239 144.48C41.0841 144.579 40.5957 144.865 40.244 145.288C39.8923 145.712 39.6996 146.246 39.6996 146.798C39.6996 147.35 39.8923 147.884 40.244 148.308C40.5957 148.732 41.0841 149.018 41.6239 149.116C42.1637 149.018 42.6521 148.732 43.0038 148.308C43.3555 147.884 43.5481 147.35 43.5481 146.798C43.5481 146.246 43.3555 145.712 43.0038 145.288C42.6521 144.865 42.1637 144.579 41.6239 144.48Z" fill="black"/>
</g>
<defs>
<clipPath id="clip0_3053_59711">
<rect width="271" height="266" fill="white"/>
</clipPath>
</defs>
</svg>
