<svg width="72" height="60" viewBox="0 0 72 60" fill="none" xmlns="http://www.w3.org/2000/svg">
<path d="M5.4633 51.9558C5.68841 51.7448 5.86609 51.4881 5.9845 51.2028C6.1029 50.9174 6.15932 50.6101 6.14998 50.3012C6.14998 48.7843 4.95688 47.7408 3.25049 47.7408H0.955275C0.828402 47.7363 0.70195 47.7579 0.583787 47.8045C0.465623 47.8511 0.358277 47.9215 0.268426 48.0115C0.178575 48.1014 0.108142 48.209 0.0615092 48.3274C0.0148763 48.4458 -0.00695883 48.5726 -0.00263764 48.6999V55.959C-0.00694503 56.0864 0.0148864 56.2132 0.0615016 56.3318C0.108117 56.4503 0.178521 56.5579 0.268345 56.648C0.358169 56.7381 0.465495 56.8087 0.583663 56.8555C0.701831 56.9022 0.828318 56.9241 0.955275 56.9198H4.07622C5.85299 56.9198 7.10102 55.8058 7.10102 54.22C7.10102 53.1249 6.48988 52.3191 5.4633 51.9558ZM1.81534 49.3542H3.10457C3.84103 49.3542 4.30625 49.7433 4.30625 50.3976C4.30625 51.0519 3.84961 51.4548 3.11315 51.4548H1.81534V49.3542ZM3.94575 55.3099H1.81534V53.001H3.94575C4.76461 53.001 5.25043 53.4314 5.25043 54.1546C5.25043 54.8777 4.75602 55.3099 3.94575 55.3099Z" fill="white"/>
<path d="M9.54417 47.5745C9.4183 47.5714 9.29312 47.5941 9.17635 47.6413C9.05958 47.6886 8.9537 47.7593 8.86524 47.8492C8.77677 47.939 8.70759 48.0461 8.66197 48.1638C8.61635 48.2815 8.59526 48.4074 8.59999 48.5336V56.1319C8.59044 56.2609 8.60752 56.3904 8.65016 56.5125C8.69281 56.6345 8.7601 56.7464 8.84784 56.8412C8.93557 56.936 9.04185 57.0116 9.16004 57.0633C9.27823 57.115 9.40579 57.1417 9.53472 57.1417C9.66366 57.1417 9.79122 57.115 9.90941 57.0633C10.0276 57.0116 10.1339 56.936 10.2216 56.8412C10.3093 56.7464 10.3766 56.6345 10.4193 56.5125C10.4619 56.3904 10.479 56.2609 10.4695 56.1319V48.5336C10.4746 48.4089 10.4544 48.2844 10.4101 48.1678C10.3658 48.0511 10.2983 47.9448 10.2118 47.8551C10.1253 47.7654 10.0215 47.6943 9.90671 47.646C9.79194 47.5978 9.6686 47.5735 9.54417 47.5745Z" fill="white"/>
<path d="M17.8685 53.2231C18.3128 52.97 18.6804 52.6008 18.9322 52.1548C19.184 51.7088 19.3105 51.2027 19.2985 50.6903C19.2985 48.9375 17.9663 47.7409 16.0093 47.7409H13.5115C13.3858 47.7362 13.2605 47.7573 13.1433 47.8029C13.026 47.8486 12.9194 47.9178 12.8298 48.0063C12.7402 48.0949 12.6697 48.2009 12.6225 48.3178C12.5753 48.4347 12.5524 48.5601 12.5553 48.6862V56.1313C12.5499 56.258 12.5701 56.3845 12.6147 56.5032C12.6593 56.6219 12.7275 56.7303 12.8149 56.8219C12.9024 56.9135 13.0075 56.9864 13.1238 57.0361C13.2401 57.0859 13.3653 57.1116 13.4918 57.1116C13.6182 57.1116 13.7434 57.0859 13.8597 57.0361C13.976 56.9864 14.0811 56.9135 14.1686 56.8219C14.2561 56.7303 14.3242 56.6219 14.3688 56.5032C14.4134 56.3845 14.4336 56.258 14.4282 56.1313V53.6829H16.023L18.083 56.6099C18.1693 56.7552 18.291 56.8761 18.4366 56.9614C18.5823 57.0466 18.7471 57.0933 18.9156 57.0972C19.1446 57.0964 19.3643 57.0059 19.5278 56.8452C19.6913 56.6844 19.7858 56.4659 19.7911 56.2363C19.7743 55.979 19.6823 55.7323 19.5268 55.5269L17.8685 53.2231ZM15.9955 52.0265H14.4282V49.3955H15.9955C16.8419 49.3955 17.3826 49.9121 17.3826 50.7041C17.3826 51.4962 16.8556 52.0265 15.9955 52.0265Z" fill="white"/>
<path d="M29.0258 51.8874H26.3615C26.2505 51.8801 26.1391 51.8958 26.0343 51.9334C25.9295 51.9711 25.8335 52.0299 25.7523 52.1062C25.6711 52.1826 25.6063 52.2748 25.5621 52.3773C25.5178 52.4797 25.495 52.5901 25.495 52.7018C25.495 52.8134 25.5178 52.9239 25.5621 53.0263C25.6063 53.1287 25.6711 53.221 25.7523 53.2973C25.8335 53.3737 25.9295 53.4325 26.0343 53.4701C26.1391 53.5078 26.2505 53.5234 26.3615 53.5162H28.1091V54.3082C27.5821 54.997 26.7083 55.4085 25.6955 55.4085C23.8912 55.4085 22.6432 54.155 22.6432 52.3333C22.6432 50.5116 23.8449 49.3133 25.5839 49.3133C25.9983 49.3033 26.4099 49.3856 26.7889 49.5541C27.1679 49.7226 27.505 49.9731 27.7761 50.2878C28.0542 50.5926 28.2756 50.7045 28.5675 50.7045C28.7931 50.7045 29.0096 50.6155 29.1702 50.4566C29.3308 50.2977 29.4227 50.0819 29.4258 49.8556C29.4258 49.5354 29.2542 49.2427 28.8576 48.8673C28.1074 48.0753 26.8594 47.5742 25.6096 47.5742C22.8492 47.5742 20.7136 49.6404 20.7136 52.3333C20.7136 55.0262 22.8492 57.0924 25.6096 57.0924C27.2336 57.0924 28.8576 56.2986 29.6902 55.0744C29.8933 54.7656 29.9948 54.4007 29.9803 54.031V52.8481C29.9848 52.721 29.9633 52.5944 29.917 52.476C29.8707 52.3576 29.8006 52.25 29.7111 52.1599C29.6216 52.0698 29.5146 51.9991 29.3967 51.9522C29.2788 51.9054 29.1526 51.8833 29.0258 51.8874Z" fill="white"/>
<path d="M37.1685 55.2272H33.4724V52.9028H35.893C36.0008 52.9078 36.1085 52.8908 36.2096 52.8529C36.3107 52.8149 36.4031 52.7568 36.4812 52.6821C36.5593 52.6073 36.6214 52.5175 36.6639 52.4179C36.7063 52.3184 36.7282 52.2112 36.7282 52.103C36.7282 51.9947 36.7063 51.8876 36.6639 51.788C36.6214 51.6885 36.5593 51.5986 36.4812 51.5239C36.4031 51.4491 36.3107 51.391 36.2096 51.3531C36.1085 51.3151 36.0008 51.2982 35.893 51.3032H33.4724V49.4385H37.0105C37.1227 49.4401 37.234 49.4193 37.3381 49.3773C37.4422 49.3354 37.5369 49.2731 37.6168 49.1941C37.6966 49.1152 37.76 49.021 37.8033 48.9173C37.8466 48.8135 37.8689 48.7021 37.8689 48.5896C37.8713 48.4765 37.8506 48.364 37.8082 48.2591C37.7658 48.1542 37.7024 48.0592 37.6221 47.9797C37.5417 47.9002 37.446 47.838 37.3409 47.797C37.2357 47.7559 37.1233 47.7367 37.0105 47.7408H32.53C32.4073 47.7384 32.2854 47.7609 32.1716 47.8069C32.0578 47.8528 31.9543 47.9213 31.8675 48.0083C31.7806 48.0952 31.7122 48.1988 31.6661 48.3129C31.6201 48.427 31.5974 48.5492 31.5995 48.6723V55.9917C31.5972 56.1149 31.6197 56.2373 31.6656 56.3516C31.7115 56.4658 31.78 56.5696 31.8669 56.6568C31.9537 56.7439 32.0572 56.8126 32.1712 56.8586C32.2851 56.9047 32.4071 56.9272 32.53 56.9249H37.177C37.4015 56.9249 37.6168 56.8355 37.7755 56.6763C37.9342 56.5171 38.0234 56.3012 38.0234 56.076C38.0234 55.8509 37.9342 55.635 37.7755 55.4758C37.6168 55.3166 37.4015 55.2272 37.177 55.2272H37.1685Z" fill="white"/>
<path d="M47.7576 47.5742C45.0367 47.5742 42.9011 49.6611 42.9011 52.3333C42.9011 55.0056 45.0229 57.0924 47.7576 57.0924C50.4923 57.0924 52.6399 54.9901 52.6399 52.3333C52.6399 49.6766 50.4906 47.5742 47.7576 47.5742ZM47.7714 55.3517C46.0547 55.3517 44.829 54.0999 44.829 52.3333C44.829 50.5667 46.0495 49.3133 47.7714 49.3133C49.4932 49.3133 50.712 50.5788 50.712 52.3333C50.712 54.0878 49.4778 55.3517 47.7714 55.3517Z" fill="white"/>
<path d="M67.1824 58.3707C67.0433 58.3707 66.8081 58.3983 66.4957 58.3983C64.4151 58.3983 62.8907 57.6613 61.6392 56.0342C62.1988 55.5945 62.651 55.0325 62.9613 54.391C63.2716 53.7494 63.4318 53.0454 63.4297 52.3323C63.4297 49.6739 61.2787 47.5732 58.5457 47.5732C55.8127 47.5732 53.6892 49.6601 53.6892 52.3323C53.6892 55.0046 55.8127 57.0914 58.5457 57.0914C59.0698 57.0922 59.5909 57.0121 60.0907 56.8538C60.7683 57.8416 61.6791 58.6458 62.7419 59.1947C63.8046 59.7436 64.9863 60.0201 66.1816 59.9996C66.6202 60.0165 67.0582 59.9505 67.4725 59.805C67.619 59.7602 67.747 59.6687 67.8371 59.5444C67.9273 59.4202 67.9746 59.2699 67.9721 59.1163C67.9789 58.6514 67.6682 58.3707 67.1824 58.3707ZM58.5663 55.3507C56.8496 55.3507 55.6256 54.0851 55.6256 52.3323C55.6256 50.5795 56.8462 49.3123 58.544 49.3123C60.2418 49.3123 61.4984 50.5778 61.4984 52.3323C61.4984 54.0869 60.2727 55.3524 58.5663 55.3524V55.3507Z" fill="white"/>
<path d="M70.7353 47.5745C70.3319 47.5745 70.0692 47.7553 69.8598 48.1307L67.8907 51.5537L65.9183 48.1307C65.6968 47.7416 65.4324 47.5745 65.0307 47.5745C64.9119 47.5713 64.7937 47.5919 64.6829 47.6352C64.5722 47.6784 64.4711 47.7434 64.3858 47.8263C64.3004 47.9092 64.2323 48.0084 64.1857 48.118C64.139 48.2277 64.1147 48.3455 64.114 48.4647C64.1154 48.6907 64.1887 48.9103 64.3234 49.0915L66.9483 53.4322V56.132C66.9429 56.2587 66.9631 56.3852 67.0077 56.5039C67.0523 56.6226 67.1204 56.731 67.2079 56.8226C67.2954 56.9142 67.4005 56.987 67.5168 57.0368C67.6331 57.0866 67.7582 57.1123 67.8847 57.1123C68.0112 57.1123 68.1363 57.0866 68.2527 57.0368C68.369 56.987 68.474 56.9142 68.5615 56.8226C68.649 56.731 68.7171 56.6226 68.7617 56.5039C68.8064 56.3852 68.8266 56.2587 68.8212 56.132V53.4322L71.458 49.0915C71.5841 48.9121 71.6519 48.698 71.652 48.4785C71.6529 48.3582 71.6298 48.239 71.5838 48.1278C71.5379 48.0167 71.4702 47.916 71.3847 47.8316C71.2991 47.7473 71.1976 47.6811 71.086 47.6369C70.9744 47.5928 70.8552 47.5715 70.7353 47.5745Z" fill="white"/>
<path d="M67.149 46.1438C67.3154 46.0935 67.4665 46.0017 67.588 45.8771C67.7096 45.7524 67.7977 45.599 67.8442 45.431L68.3781 43.5611C68.4401 43.3552 68.446 43.1364 68.3953 42.9274C68.3608 42.788 68.2988 42.6568 68.213 42.5418C68.1271 42.4267 68.0192 42.3301 67.8955 42.2575C67.7718 42.185 67.6349 42.138 67.4928 42.1194C67.3507 42.1008 67.2064 42.1109 67.0683 42.1492C66.8649 42.204 66.681 42.3153 66.538 42.4704C66.3949 42.6255 66.2985 42.8179 66.2597 43.0256L65.9696 44.8903C65.9447 45.057 65.9447 45.2264 65.9696 45.3931C65.9929 45.5226 66.0428 45.6459 66.116 45.7552C66.1893 45.8645 66.2843 45.9573 66.3951 46.0278C66.506 46.0984 66.6302 46.1451 66.7599 46.1651C66.8897 46.185 67.0222 46.1778 67.149 46.1438Z" fill="white"/>
<path d="M29.6093 28.9557C29.3671 28.9552 29.1349 28.8587 28.9634 28.687C28.792 28.5154 28.6952 28.2827 28.6943 28.0397V12.583C28.6947 12.4194 28.7387 12.259 28.8217 12.1182C28.9046 11.9774 29.0236 11.8614 29.1663 11.7822C29.309 11.703 29.4702 11.6635 29.6332 11.6678C29.7962 11.6721 29.9551 11.7199 30.0934 11.8065L42.421 19.5339C42.5515 19.6165 42.659 19.7308 42.7335 19.8663C42.808 20.0018 42.8471 20.154 42.8471 20.3088C42.8471 20.4635 42.808 20.6157 42.7335 20.7512C42.659 20.8867 42.5515 21.001 42.421 21.0836L30.0934 28.8111C29.9489 28.9041 29.7811 28.9543 29.6093 28.9557ZM30.5226 14.2359V26.3868L40.2133 20.3174L30.5226 14.2359Z" fill="white"/>
<path d="M58.4436 37.0581C58.2668 37.2472 58.0278 37.3659 57.7707 37.3922C57.6611 37.4028 57.5505 37.3915 57.4453 37.359C57.3402 37.3265 57.2424 37.2734 57.1578 37.2028L53.503 33.8418L51.8739 36.9083C51.8257 37.018 51.7469 37.1114 51.647 37.1771C51.5471 37.2428 51.4303 37.278 51.3108 37.2785C51.2222 37.268 51.1388 37.231 51.0715 37.1724C51.0041 37.1137 50.9559 37.0361 50.9331 36.9496L47.395 25.9783C47.3871 25.953 47.3858 25.9261 47.3912 25.9002C47.3966 25.8743 47.4086 25.8502 47.4259 25.8302L47.4654 25.7854C47.4841 25.7643 47.5083 25.7488 47.5352 25.7406C47.5622 25.7324 47.5909 25.7318 47.6182 25.7389L58.7406 28.666C58.827 28.6844 58.9059 28.7283 58.9671 28.7922C59.0283 28.856 59.069 28.9368 59.084 29.0241C59.0901 29.1449 59.0608 29.2649 58.9998 29.3692C58.9388 29.4735 58.8487 29.5577 58.7406 29.6113L55.7896 31.414L59.3363 34.8818C59.4134 34.9617 59.4735 35.0564 59.513 35.1603C59.5525 35.2642 59.5707 35.375 59.5663 35.4861C59.561 35.6275 59.5279 35.7664 59.469 35.8949C59.4101 36.0234 59.3265 36.139 59.223 36.2351L58.4951 37.0065C58.479 37.0247 58.4618 37.0419 58.4436 37.0581Z" fill="white"/>
<path fill-rule="evenodd" clip-rule="evenodd" d="M47.9136 5.92477C45.0928 3.09571 41.499 1.16913 37.5865 0.388643C33.6741 -0.39184 29.6188 0.00883061 25.9333 1.53999C22.2479 3.07115 19.0979 5.66402 16.8818 8.99074C14.6656 12.3175 13.4827 16.2286 13.4827 20.2296C13.4827 24.2306 14.6656 28.1417 16.8818 31.4684C19.0979 34.7951 22.2479 37.388 25.9333 38.9192C29.6188 40.4503 33.6741 40.851 37.5865 40.0705C41.499 39.29 45.0928 37.3635 47.9136 34.5344L48.0097 34.4363L47.39 32.5423C47.1611 32.7994 46.9254 33.0496 46.6828 33.293C43.5358 36.4435 39.3575 38.344 34.9211 38.6427C30.4848 38.9414 26.0907 37.6182 22.5521 34.9178C19.0136 32.2174 16.5701 28.3228 15.674 23.9547C14.7778 19.5866 15.4897 15.0407 17.6778 11.1585C19.8658 7.27623 23.382 4.32041 27.5756 2.83806C31.7691 1.35572 36.3561 1.44721 40.4876 3.09561C44.619 4.74401 48.0153 7.83771 50.0477 11.8041C52.0802 15.7706 52.6113 20.3412 51.5427 24.6701L53.2268 25.1144C54.0631 21.7276 54.0134 18.1816 53.0826 14.8198C52.1517 11.4579 50.3713 8.39405 47.9136 5.92477Z" fill="white"/>
</svg>
