<svg width="24" height="24" viewBox="0 0 24 24" fill="none" xmlns="http://www.w3.org/2000/svg">
<path d="M12.375 20.249H4.46875C4.27813 20.249 4.09531 20.1733 3.96052 20.0385C3.82573 19.9037 3.75 19.7209 3.75 19.5303V11.624C3.75 10.4914 3.97309 9.3698 4.40654 8.32337C4.83998 7.27694 5.4753 6.32613 6.2762 5.52522C7.0771 4.72432 8.02791 4.08901 9.07435 3.65556C10.1208 3.22211 11.2423 2.99902 12.375 2.99902H12.375C13.5077 2.99902 14.6292 3.22212 15.6756 3.65556C16.7221 4.08901 17.6729 4.72432 18.4738 5.52523C19.2747 6.32613 19.91 7.27695 20.3435 8.32338C20.7769 9.36981 21 10.4914 21 11.624V11.624C21 13.9115 20.0913 16.1053 18.4738 17.7228C16.8563 19.3403 14.6625 20.249 12.375 20.249Z" stroke="#546272" stroke-width="1.5" stroke-linecap="round" stroke-linejoin="round"/>
<path d="M13.4609 12C13.4609 12.5997 12.9747 13.0859 12.375 13.0859C11.7753 13.0859 11.2891 12.5997 11.2891 12C11.2891 11.4003 11.7753 10.9141 12.375 10.9141C12.9747 10.9141 13.4609 11.4003 13.4609 12Z" fill="#546272" stroke="#546272" stroke-width="0.078125"/>
<path d="M8.96094 12C8.96094 12.5997 8.47475 13.0859 7.875 13.0859C7.27525 13.0859 6.78906 12.5997 6.78906 12C6.78906 11.4003 7.27525 10.9141 7.875 10.9141C8.47475 10.9141 8.96094 11.4003 8.96094 12Z" fill="#546272" stroke="#546272" stroke-width="0.078125"/>
<path d="M16.875 13.125C17.4963 13.125 18 12.6213 18 12C18 11.3787 17.4963 10.875 16.875 10.875C16.2537 10.875 15.75 11.3787 15.75 12C15.75 12.6213 16.2537 13.125 16.875 13.125Z" fill="#546272"/>
</svg>
