<svg width="15" height="15" viewBox="0 0 15 15" fill="none" xmlns="http://www.w3.org/2000/svg">
  <path
    d="M7.23869 1.97534C6.10166 1.97534 4.99016 2.31251 4.04475 2.94421C3.09934 3.57592 2.36248 4.47378 1.92736 5.52426C1.49224 6.57474 1.37839 7.73066 1.60021 8.84585C1.82204 9.96103 2.36957 10.9854 3.17357 11.7894C3.97758 12.5934 5.00194 13.1409 6.11713 13.3628C7.23231 13.5846 8.38823 13.4707 9.43872 13.0356C10.4892 12.6005 11.3871 11.8636 12.0188 10.9182C12.6505 9.97282 12.9876 8.86132 12.9876 7.72428C12.9859 6.20011 12.3796 4.73887 11.3019 3.66111C10.2241 2.58336 8.76286 1.9771 7.23869 1.97534V1.97534ZM10.3343 8.16651H7.23869C7.18061 8.16654 7.12309 8.15513 7.06942 8.13292C7.01575 8.1107 6.96699 8.07813 6.92591 8.03706C6.88484 7.99599 6.85227 7.94722 6.83006 7.89356C6.80785 7.83989 6.79643 7.78237 6.79646 7.72428V4.6287C6.79646 4.51141 6.84306 4.39893 6.92599 4.316C7.00892 4.23307 7.12141 4.18647 7.23869 4.18647C7.35598 4.18647 7.46846 4.23307 7.55139 4.316C7.63433 4.39893 7.68092 4.51141 7.68092 4.6287V7.28206H10.3343C10.4516 7.28206 10.564 7.32865 10.647 7.41158C10.7299 7.49452 10.7765 7.607 10.7765 7.72428C10.7765 7.84157 10.7299 7.95405 10.647 8.03699C10.564 8.11992 10.4516 8.16651 10.3343 8.16651Z"
    fill="#546272" />
</svg>
