<svg width="100" height="100" viewBox="0 0 100 100" fill="none" xmlns="http://www.w3.org/2000/svg">
<path d="M36.1235 48.7559C39.3651 55.383 44.737 60.7305 51.3788 63.9418C51.8647 64.1721 52.4022 64.2719 52.9385 64.2313C53.4747 64.1907 53.9911 64.0112 54.4369 63.7105L64.2164 57.1892C64.6489 56.9008 65.1466 56.7249 65.6642 56.6773C66.1819 56.6297 66.7033 56.7121 67.1811 56.9169L85.4768 64.7579C86.0983 65.0219 86.6172 65.4807 86.9553 66.0653C87.2934 66.6498 87.4323 67.3284 87.3512 67.9988C86.7729 72.5238 84.5651 76.6829 81.1411 79.6973C77.7171 82.7117 73.3118 84.3747 68.75 84.375C54.6604 84.375 41.1478 78.7779 31.185 68.815C21.2221 58.8521 15.625 45.3396 15.625 31.25C15.6252 26.6881 17.2883 22.2828 20.3027 18.8588C23.3171 15.4349 27.4762 13.2271 32.0012 12.6488C32.6715 12.5677 33.3501 12.7066 33.9347 13.0447C34.5192 13.3827 34.978 13.9016 35.2421 14.5231L43.0899 32.8348C43.2929 33.3084 43.3756 33.8249 43.3307 34.3383C43.2858 34.8516 43.1146 35.3459 42.8324 35.7771L36.3338 45.7066C36.038 46.1533 35.8632 46.6691 35.8263 47.2035C35.7895 47.738 35.8919 48.2729 36.1235 48.7559V48.7559Z" stroke="white" stroke-width="3" stroke-linecap="round" stroke-linejoin="round"/>
</svg>
