<svg width="100" height="100" viewBox="0 0 100 100" fill="none" xmlns="http://www.w3.org/2000/svg">
<path d="M50 65.625C58.6294 65.625 65.625 58.6294 65.625 50C65.625 41.3706 58.6294 34.375 50 34.375C41.3706 34.375 34.375 41.3706 34.375 50C34.375 58.6294 41.3706 65.625 50 65.625Z" stroke="white" stroke-width="3" stroke-miterlimit="10"/>
<path d="M67.1875 14.0625H32.8125C22.4572 14.0625 14.0625 22.4572 14.0625 32.8125V67.1875C14.0625 77.5428 22.4572 85.9375 32.8125 85.9375H67.1875C77.5428 85.9375 85.9375 77.5428 85.9375 67.1875V32.8125C85.9375 22.4572 77.5428 14.0625 67.1875 14.0625Z" stroke="white" stroke-width="3" stroke-linecap="round" stroke-linejoin="round"/>
<path d="M70.3125 34.375C72.9013 34.375 75 32.2763 75 29.6875C75 27.0987 72.9013 25 70.3125 25C67.7237 25 65.625 27.0987 65.625 29.6875C65.625 32.2763 67.7237 34.375 70.3125 34.375Z" fill="white"/>
</svg>
