<svg width="22" height="21" viewBox="0 0 22 21" fill="none" xmlns="http://www.w3.org/2000/svg">
<path fill-rule="evenodd" clip-rule="evenodd" d="M1.04596 7.69114C0.693015 7.50291 0.693015 6.99703 1.04596 6.80879L10.5294 1.75095C10.8235 1.59409 11.1765 1.59409 11.4706 1.75095L20.954 6.80879C21.307 6.99703 21.307 7.50291 20.954 7.69114L20.765 7.79195L16.1853 9.93925C16.1417 9.90055 16.0932 9.86662 16.0404 9.83847L11.3529 7.33847C10.9874 7.14355 10.5331 7.28181 10.3382 7.6473C10.1433 8.01278 10.2815 8.46708 10.647 8.662L14.5125 10.7236L10.999 12.371L1.53592 7.95246L1.04596 7.69114ZM3.8125 10.6709V13.4259C3.81224 13.5607 3.85583 13.692 3.93668 13.7999C4.46298 14.5002 6.68337 17.0623 11 17.0623C12.5903 17.0623 13.8961 16.7146 14.9375 16.2403V12.181L11.318 13.8781C11.1167 13.9725 10.8838 13.9727 10.6823 13.8786L3.8125 10.6709ZM16.4375 15.3664C17.3075 14.7344 17.8391 14.0982 18.0633 13.7999C18.1442 13.692 18.1878 13.5607 18.1875 13.4259V10.6572L16.4375 11.4777V15.3664Z" fill="#007BFC"/>
</svg>
