<svg width="24" height="25" viewBox="0 0 24 25" fill="none" xmlns="http://www.w3.org/2000/svg">
<path d="M12 21.5C16.9706 21.5 21 17.4706 21 12.5C21 7.52944 16.9706 3.5 12 3.5C7.02944 3.5 3 7.52944 3 12.5C3 17.4706 7.02944 21.5 12 21.5Z" stroke="white" stroke-width="1.5" stroke-linecap="round" stroke-linejoin="round"/>
<path d="M15.8975 14.7497C15.5021 15.4335 14.9338 16.0013 14.2496 16.396C13.5654 16.7908 12.7894 16.9986 11.9995 16.9986C11.2096 16.9986 10.4336 16.7908 9.74944 16.3961C9.06525 16.0013 8.49694 15.4336 8.10156 14.7497" stroke="white" stroke-width="1.5" stroke-linecap="round" stroke-linejoin="round"/>
<path d="M8.625 11.75C9.24632 11.75 9.75 11.2463 9.75 10.625C9.75 10.0037 9.24632 9.5 8.625 9.5C8.00368 9.5 7.5 10.0037 7.5 10.625C7.5 11.2463 8.00368 11.75 8.625 11.75Z" fill="white"/>
<path d="M15.375 11.75C15.9963 11.75 16.5 11.2463 16.5 10.625C16.5 10.0037 15.9963 9.5 15.375 9.5C14.7537 9.5 14.25 10.0037 14.25 10.625C14.25 11.2463 14.7537 11.75 15.375 11.75Z" fill="white"/>
</svg>
