<svg width="16" height="15" viewBox="0 0 16 15" fill="none" xmlns="http://www.w3.org/2000/svg">
    <path d="M14.9033 6.68223C15.6841 6.11137 15.2803 4.875 14.3131 4.875H10.9488C10.5139 4.875 10.1288 4.59388 9.99635 4.17962L8.95247 0.91566C8.65595 -0.0115135 7.34405 -0.0115147 7.04753 0.915659L6.00365 4.17962C5.87116 4.59388 5.4861 4.875 5.05117 4.875H1.65569C0.691592 4.875 0.285783 6.10488 1.06056 6.67863L3.83245 8.73133C4.17572 8.98554 4.31963 9.42971 4.19065 9.83692L3.15075 13.12C2.85798 14.0444 3.92001 14.8027 4.6992 14.2256L7.40488 12.222C7.75843 11.9601 8.24157 11.9601 8.59512 12.222L11.2889 14.2168C12.0693 14.7947 13.1323 14.0334 12.8365 13.1086L11.782 9.81146C11.6509 9.40151 11.7968 8.95365 12.1443 8.69961L14.9033 6.68223Z" fill="white"/>
</svg>
