<svg width="55" height="55" viewBox="0 0 55 55" fill="none" xmlns="http://www.w3.org/2000/svg">
<path d="M7.6401 15.5553L27.0001 25.0624M27.0001 25.0624L46.3601 15.5553M27.0001 25.0624L27.0001 48.1624M17.0001 10.3303L37.0001 20.1517M28.7801 6.30348L44.7801 14.1606C45.4465 14.4859 46.0074 14.9872 46.3995 15.6084C46.7917 16.2295 46.9997 16.9458 47.0001 17.6767V36.3963C46.9997 37.1272 46.7917 37.8435 46.3995 38.4646C46.0074 39.0858 45.4465 39.5872 44.7801 39.9124L28.7801 47.7696C28.2244 48.0427 27.6115 48.1849 26.9901 48.1849C26.3687 48.1849 25.7558 48.0427 25.2001 47.7696L9.2001 39.9124C8.53436 39.583 7.9756 39.0773 7.58687 38.4526C7.19814 37.8279 6.99491 37.1088 7.0001 36.3767V17.6767C7.00049 16.9458 7.20847 16.2295 7.60066 15.6084C7.99284 14.9872 8.55367 14.4859 9.2201 14.1606L25.2201 6.30348C25.7732 6.03354 26.3825 5.89307 27.0001 5.89307C27.6177 5.89307 28.227 6.03354 28.7801 6.30348Z" stroke="#C460C0" stroke-width="2" stroke-linecap="round" stroke-linejoin="round"/>
</svg>
