<svg width="122" height="34" viewBox="0 0 122 34" fill="none" xmlns="http://www.w3.org/2000/svg">
  <path opacity="0.57"
    d="M18.3425 0L0.5 11.5077L8.4455 16.6322L18.3425 10.2491L28.2396 16.6322L36.1852 11.5077L18.3425 0Z"
    fill="#007BFC" />
  <path d="M8.4454 16.6322L0.5 21.7567L18.3425 33.2645L36.1852 21.7567L28.2397 16.6322L18.3425 23.0156L8.4454 16.6322Z"
    fill="#007BFC" />
  <path
    d="M46.6626 24.132V9.13243H53.1467C55.4853 9.13243 57.3065 9.7855 58.6104 11.0916C59.9285 12.3838 60.5875 14.2025 60.5875 16.548C60.5875 19.062 59.9427 20.958 58.6529 22.236C57.3632 23.5 55.4569 24.132 52.9341 24.132H46.6626ZM50.5956 20.8667H52.7641C55.3294 20.8667 56.612 19.4622 56.612 16.6533C56.612 15.291 56.2577 14.2376 55.549 13.4933C54.8546 12.7489 53.8341 12.3767 52.4877 12.3767H50.5956V20.8667Z"
    fill="#007BFC" />
  <path
    d="M68.7254 9.13243H72.7009V19.1813C72.7009 22.7206 70.9151 24.4902 67.3436 24.4902C65.5294 24.4902 64.1546 23.9635 63.2192 22.9102C62.7373 22.3484 62.4255 21.7515 62.2838 21.1195C62.1421 20.4734 62.0712 19.6729 62.0712 18.7179V18.1912H65.6853V18.5915C65.6853 18.8723 65.6853 19.062 65.6853 19.1603C65.6853 19.2586 65.6924 19.4341 65.7066 19.6869C65.7349 19.9257 65.7633 20.1013 65.7916 20.2136C65.8341 20.326 65.8908 20.4734 65.9617 20.656C66.0467 20.8245 66.1459 20.9509 66.2593 21.0352C66.3727 21.1054 66.5144 21.1757 66.6845 21.2459C66.8688 21.3021 67.0743 21.3302 67.301 21.3302C67.8113 21.3302 68.1727 21.1827 68.3853 20.8877C68.612 20.5788 68.7254 20.0661 68.7254 19.3499V9.13243Z"
    fill="#007BFC" />
  <path
    d="M89.7462 16.6533C89.7462 18.9145 89.073 20.7894 87.7266 22.2782C86.3943 23.7528 84.6085 24.4902 82.3692 24.4902C80.059 24.4902 78.2165 23.7599 76.8417 22.2992C75.4669 20.8386 74.7796 18.9496 74.7796 16.6322C74.7796 14.3711 75.474 12.4961 76.863 11.0074C78.2661 9.51865 80.0873 8.77429 82.3267 8.77429C84.5802 8.77429 86.3801 9.49057 87.7266 10.9231C89.073 12.3416 89.7462 14.2517 89.7462 16.6533ZM85.7069 16.5269C85.7069 15.1084 85.4022 13.9919 84.7928 13.1773C84.1833 12.3627 83.3471 11.9554 82.2841 11.9554C81.2212 11.9554 80.3779 12.3767 79.7543 13.2194C79.1307 14.048 78.8188 15.1716 78.8188 16.5901C78.8188 18.0507 79.1236 19.1954 79.733 20.024C80.3566 20.8526 81.2141 21.267 82.3054 21.267C83.3825 21.267 84.2188 20.8526 84.814 20.024C85.4093 19.1954 85.7069 18.0297 85.7069 16.5269Z"
    fill="#007BFC" />
  <path
    d="M106.293 16.6533C106.293 18.9145 105.62 20.7894 104.273 22.2782C102.941 23.7528 101.155 24.4902 98.9158 24.4902C96.6056 24.4902 94.7632 23.7599 93.3884 22.2992C92.0136 20.8386 91.3262 18.9496 91.3262 16.6322C91.3262 14.3711 92.0207 12.4961 93.4096 11.0074C94.8128 9.51865 96.634 8.77429 98.8733 8.77429C101.127 8.77429 102.927 9.49057 104.273 10.9231C105.62 12.3416 106.293 14.2517 106.293 16.6533ZM102.254 16.5269C102.254 15.1084 101.949 13.9919 101.339 13.1773C100.73 12.3627 99.8938 11.9554 98.8308 11.9554C97.7678 11.9554 96.9245 12.3767 96.3009 13.2194C95.6773 14.048 95.3655 15.1716 95.3655 16.5901C95.3655 18.0507 95.6702 19.1954 96.2797 20.024C96.9033 20.8526 97.7607 21.267 98.8521 21.267C99.9292 21.267 100.765 20.8526 101.361 20.024C101.956 19.1954 102.254 18.0297 102.254 16.5269Z"
    fill="#007BFC" />
  <path
    d="M108.426 24.132V9.13243H112.38L117.844 18.6125L117.673 9.13243H121.5V24.132H117.652L112.125 14.5045L112.231 24.132H108.426Z"
    fill="#007BFC" />
</svg>
