<svg width="100" height="100" viewBox="0 0 100 100" fill="none" xmlns="http://www.w3.org/2000/svg">
<path d="M91.6667 64.5833C91.6667 76.0892 82.3392 85.4167 70.8333 85.4167C67.1023 85.4167 63.6002 84.4358 60.571 82.7179C55.2381 79.6935 51.3706 74.3846 50.2992 68.1215C50.1025 66.9715 50 65.7894 50 64.5833C50 59.234 52.0163 54.3554 55.3302 50.6662C59.1442 46.4204 64.6769 43.75 70.8333 43.75C82.3392 43.75 91.6667 53.0775 91.6667 64.5833Z" stroke="white" stroke-width="3" stroke-linecap="round" stroke-linejoin="round"/>
<path d="M70.832 25V41.6667V43.75C64.6756 43.75 59.1429 46.4204 55.3289 50.6663C52.0149 54.3554 49.9987 59.234 49.9987 64.5833C49.9987 65.7894 50.1012 66.9715 50.2979 68.1215C51.3693 74.3846 55.2368 79.6935 60.5697 82.7179C55.0229 84.395 47.6604 85.4167 39.582 85.4167C22.3231 85.4167 8.33203 80.7529 8.33203 75V58.3333V41.6667V25" stroke="white" stroke-width="3" stroke-linecap="round" stroke-linejoin="round"/>
<path d="M70.832 25C70.832 30.753 56.841 35.4167 39.582 35.4167C22.3231 35.4167 8.33203 30.753 8.33203 25C8.33203 19.2471 22.3231 14.5834 39.582 14.5834C56.841 14.5834 70.832 19.2471 70.832 25Z" stroke="white" stroke-width="3" stroke-linecap="round" stroke-linejoin="round"/>
<path d="M8.33203 58.3334C8.33203 64.0863 22.3231 68.75 39.582 68.75C43.3466 68.75 46.9556 68.5282 50.2979 68.1215" stroke="white" stroke-width="3" stroke-linecap="round" stroke-linejoin="round"/>
<path d="M8.33203 41.6666C8.33203 47.4195 22.3231 52.0833 39.582 52.0833C45.3243 52.0833 50.705 51.567 55.3289 50.6662" stroke="white" stroke-width="3" stroke-linecap="round" stroke-linejoin="round"/>
<path d="M70.832 64.5834L64.582 70.8334M77.082 70.8334L70.832 64.5834L77.082 70.8334ZM70.832 64.5834L77.082 58.3334L70.832 64.5834ZM70.832 64.5834L64.582 58.3334L70.832 64.5834Z" stroke="white" stroke-width="3" stroke-linecap="round" stroke-linejoin="round"/>
</svg>
