<svg width="100" height="100" viewBox="0 0 100 100" fill="none" xmlns="http://www.w3.org/2000/svg">
<path d="M49.998 62.5C54.3128 62.5 57.8105 59.0022 57.8105 54.6875C57.8105 50.3728 54.3128 46.875 49.998 46.875C45.6833 46.875 42.1855 50.3728 42.1855 54.6875C42.1855 59.0022 45.6833 62.5 49.998 62.5Z" stroke="white" stroke-width="3" stroke-linecap="round" stroke-linejoin="round"/>
<path d="M49.998 62.5V71.875" stroke="white" stroke-width="3" stroke-linecap="round" stroke-linejoin="round"/>
<path d="M81.248 34.375H18.748C17.0222 34.375 15.623 35.7741 15.623 37.5V81.25C15.623 82.9759 17.0222 84.375 18.748 84.375H81.248C82.9739 84.375 84.373 82.9759 84.373 81.25V37.5C84.373 35.7741 82.9739 34.375 81.248 34.375Z" stroke="white" stroke-width="3" stroke-linecap="round" stroke-linejoin="round"/>
<path d="M35.9355 34.375V20.3125C35.9355 16.5829 37.4171 13.006 40.0544 10.3688C42.6916 7.73158 46.2684 6.25 49.998 6.25C53.7277 6.25 57.3045 7.73158 59.9417 10.3688C62.579 13.006 64.0605 16.5829 64.0605 20.3125V34.375" stroke="white" stroke-width="3" stroke-linecap="round" stroke-linejoin="round"/>
</svg>
