<svg width="100" height="100" viewBox="0 0 100 100" fill="none" xmlns="http://www.w3.org/2000/svg">
<path d="M50 87.5C70.7107 87.5 87.5 70.7107 87.5 50C87.5 29.2893 70.7107 12.5 50 12.5C29.2893 12.5 12.5 29.2893 12.5 50C12.5 70.7107 29.2893 87.5 50 87.5Z" stroke="white" stroke-width="3" stroke-miterlimit="10"/>
<path d="M50 62.5C58.6294 62.5 65.625 55.5044 65.625 46.875C65.625 38.2456 58.6294 31.25 50 31.25C41.3706 31.25 34.375 38.2456 34.375 46.875C34.375 55.5044 41.3706 62.5 50 62.5Z" stroke="white" stroke-width="3" stroke-miterlimit="10"/>
<path d="M24.9219 77.8805C27.2758 73.2524 30.8645 69.366 35.2907 66.6514C39.7169 63.9368 44.808 62.5 50.0003 62.5C55.1926 62.5 60.2837 63.9368 64.7099 66.6513C69.1361 69.3659 72.7248 73.2523 75.0788 77.8804" stroke="white" stroke-width="3" stroke-linecap="round" stroke-linejoin="round"/>
</svg>
