<svg width="100" height="100" viewBox="0 0 100 100" fill="none" xmlns="http://www.w3.org/2000/svg">
<path d="M50 87.5C70.7107 87.5 87.5 70.7107 87.5 50C87.5 29.2893 70.7107 12.5 50 12.5C29.2893 12.5 12.5 29.2893 12.5 50C12.5 70.7107 29.2893 87.5 50 87.5Z" stroke="white" stroke-width="4" stroke-linecap="round" stroke-linejoin="round"/>
<path d="M50 59.375V56.25C52.4723 56.25 54.889 55.5169 56.9446 54.1434C59.0002 52.7699 60.6024 50.8176 61.5485 48.5336C62.4946 46.2495 62.7421 43.7361 62.2598 41.3114C61.7775 38.8866 60.587 36.6593 58.8388 34.9112C57.0907 33.163 54.8634 31.9725 52.4386 31.4902C50.0139 31.0079 47.5005 31.2554 45.2165 32.2015C42.9324 33.1476 40.9801 34.7498 39.6066 36.8054C38.2331 38.861 37.5 41.2777 37.5 43.75" stroke="white" stroke-width="4" stroke-linecap="round" stroke-linejoin="round"/>
<path d="M50 73C51.6569 73 53 71.6569 53 70C53 68.3431 51.6569 67 50 67C48.3431 67 47 68.3431 47 70C47 71.6569 48.3431 73 50 73Z" fill="white"/>
</svg>
