<svg width="150" height="150" viewBox="0 0 150 150" fill="none" xmlns="http://www.w3.org/2000/svg">
<path d="M75 150C116.421 150 150 116.421 150 75C150 33.5786 116.421 0 75 0C33.5786 0 0 33.5786 0 75C0 116.421 33.5786 150 75 150Z" fill="url(#paint0_linear_2709_37251)"/>
<path d="M120 150H30V53C34.242 52.9952 38.3089 51.308 41.3084 48.3085C44.308 45.3089 45.9952 41.242 46 37H104C103.996 39.1014 104.408 41.1828 105.213 43.1238C106.018 45.0648 107.2 46.8268 108.691 48.308C110.172 49.7991 111.934 50.9816 113.875 51.787C115.817 52.5924 117.898 53.0047 120 53V150Z" fill="white"/>
<path d="M75 102C88.2548 102 99 91.2548 99 78C99 64.7452 88.2548 54 75 54C61.7452 54 51 64.7452 51 78C51 91.2548 61.7452 102 75 102Z" fill="#C460C0"/>
<path d="M88 108H62C60.3431 108 59 109.343 59 111C59 112.657 60.3431 114 62 114H88C89.6569 114 91 112.657 91 111C91 109.343 89.6569 108 88 108Z" fill="#DFEAFB"/>
<path d="M97 120H53C51.3431 120 50 121.343 50 123C50 124.657 51.3431 126 53 126H97C98.6569 126 100 124.657 100 123C100 121.343 98.6569 120 97 120Z" fill="#DFEAFB"/>
<path d="M61.5633 88.2452C61.6688 88.1467 61.7522 88.0269 61.8077 87.8937C61.8632 87.7606 61.8897 87.6172 61.8853 87.473C61.8853 86.7651 61.3258 86.2782 60.5257 86.2782H59.4494C59.3899 86.2761 59.3306 86.2862 59.2752 86.3079C59.2198 86.3297 59.1695 86.3625 59.1274 86.4045C59.0852 86.4465 59.0522 86.4967 59.0303 86.552C59.0085 86.6072 58.9982 86.6664 59.0003 86.7258V90.1133C58.9982 90.1727 59.0085 90.2319 59.0303 90.2872C59.0522 90.3425 59.0852 90.3927 59.1273 90.4348C59.1694 90.4768 59.2198 90.5098 59.2752 90.5316C59.3306 90.5534 59.3899 90.5636 59.4494 90.5616H60.9129C61.746 90.5616 62.3312 90.0418 62.3312 89.3017C62.3312 88.7907 62.0447 88.4147 61.5633 88.2452ZM59.8527 87.0311H60.4573C60.8026 87.0311 61.0207 87.2127 61.0207 87.518C61.0207 87.8233 60.8066 88.0113 60.4613 88.0113H59.8527V87.0311ZM60.8517 89.8103H59.8527V88.7329H60.8517C61.2357 88.7329 61.4635 88.9337 61.4635 89.2712C61.4635 89.6087 61.2316 89.8103 60.8517 89.8103Z" fill="white"/>
<path d="M63.4771 86.2006C63.4181 86.1992 63.3594 86.2098 63.3047 86.2318C63.2499 86.2539 63.2003 86.2869 63.1588 86.3288C63.1173 86.3707 63.0849 86.4207 63.0635 86.4756C63.0421 86.5306 63.0322 86.5893 63.0344 86.6482V90.1939C63.0299 90.2541 63.0379 90.3146 63.0579 90.3715C63.0779 90.4285 63.1095 90.4807 63.1506 90.5249C63.1918 90.5692 63.2416 90.6044 63.297 90.6286C63.3524 90.6527 63.4123 90.6651 63.4727 90.6651C63.5332 90.6651 63.593 90.6527 63.6484 90.6286C63.7038 90.6044 63.7537 90.5692 63.7948 90.5249C63.8359 90.4807 63.8675 90.4285 63.8875 90.3715C63.9075 90.3146 63.9155 90.2541 63.911 90.1939V86.6482C63.9134 86.59 63.904 86.5319 63.8832 86.4775C63.8624 86.4231 63.8308 86.3734 63.7902 86.3316C63.7496 86.2897 63.701 86.2565 63.6471 86.234C63.5933 86.2115 63.5355 86.2001 63.4771 86.2006Z" fill="white"/>
<path d="M67.3805 88.8365C67.5888 88.7184 67.7612 88.5461 67.8792 88.338C67.9973 88.1299 68.0567 87.8937 68.051 87.6546C68.051 86.8367 67.4264 86.2783 66.5087 86.2783H65.3374C65.2785 86.276 65.2198 86.2859 65.1648 86.3072C65.1098 86.3285 65.0598 86.3608 65.0178 86.4021C64.9758 86.4435 64.9427 86.4929 64.9206 86.5475C64.8984 86.602 64.8877 86.6605 64.8891 86.7194V90.1936C64.8865 90.2528 64.896 90.3118 64.9169 90.3672C64.9379 90.4226 64.9698 90.4732 65.0108 90.5159C65.0518 90.5586 65.1011 90.5927 65.1557 90.6159C65.2102 90.6391 65.2689 90.6511 65.3282 90.6511C65.3875 90.6511 65.4462 90.6391 65.5007 90.6159C65.5553 90.5927 65.6045 90.5586 65.6456 90.5159C65.6866 90.4732 65.7185 90.4226 65.7394 90.3672C65.7604 90.3118 65.7698 90.2528 65.7673 90.1936V89.0511H66.5151L67.4811 90.417C67.5216 90.4848 67.5786 90.5412 67.6469 90.581C67.7152 90.6208 67.7925 90.6426 67.8715 90.6444C67.9789 90.644 68.0819 90.6018 68.1585 90.5268C68.2352 90.4517 68.2795 90.3498 68.282 90.2426C68.2741 90.1226 68.231 90.0074 68.1581 89.9116L67.3805 88.8365ZM66.5022 88.2781H65.7673V87.0504H66.5022C66.8991 87.0504 67.1527 87.2915 67.1527 87.6611C67.1527 88.0307 66.9055 88.2781 66.5022 88.2781Z" fill="white"/>
<path d="M72.6115 88.2132H71.3622C71.3101 88.2098 71.2579 88.2172 71.2088 88.2347C71.1597 88.2523 71.1146 88.2797 71.0766 88.3154C71.0385 88.351 71.0081 88.394 70.9874 88.4418C70.9666 88.4896 70.9559 88.5412 70.9559 88.5933C70.9559 88.6454 70.9666 88.6969 70.9874 88.7447C71.0081 88.7925 71.0385 88.8356 71.0766 88.8712C71.1146 88.9068 71.1597 88.9342 71.2088 88.9518C71.2579 88.9694 71.3101 88.9767 71.3622 88.9733H72.1817V89.3429C71.9346 89.6643 71.5248 89.8564 71.0499 89.8564C70.2039 89.8564 69.6187 89.2714 69.6187 88.4213C69.6187 87.5712 70.1821 87.012 70.9976 87.012C71.1919 87.0074 71.3849 87.0458 71.5626 87.1244C71.7404 87.203 71.8984 87.32 72.0255 87.4668C72.1559 87.609 72.2598 87.6612 72.3966 87.6612C72.5024 87.6612 72.6039 87.6197 72.6792 87.5456C72.7546 87.4714 72.7976 87.3707 72.7991 87.2651C72.7991 87.1157 72.7186 86.9791 72.5327 86.8039C72.1809 86.4343 71.5957 86.2005 71.0097 86.2005C69.7153 86.2005 68.7139 87.1647 68.7139 88.4213C68.7139 89.678 69.7153 90.6422 71.0097 90.6422C71.7712 90.6422 72.5327 90.2718 72.9231 89.7005C73.0183 89.5564 73.0659 89.3861 73.0591 89.2136V88.6616C73.0612 88.6023 73.0511 88.5431 73.0294 88.4879C73.0077 88.4326 72.9748 88.3824 72.9329 88.3404C72.8909 88.2984 72.8407 88.2654 72.7854 88.2435C72.7302 88.2216 72.671 88.2113 72.6115 88.2132Z" fill="white"/>
<path d="M76.4307 89.7717H74.6976V88.687H75.8327C75.8832 88.6894 75.9337 88.6815 75.9811 88.6638C76.0285 88.6461 76.0719 88.619 76.1085 88.5841C76.1451 88.5492 76.1742 88.5072 76.1941 88.4608C76.214 88.4143 76.2243 88.3643 76.2243 88.3138C76.2243 88.2633 76.214 88.2133 76.1941 88.1669C76.1742 88.1204 76.1451 88.0785 76.1085 88.0436C76.0719 88.0087 76.0285 87.9816 75.9811 87.9639C75.9337 87.9462 75.8832 87.9383 75.8327 87.9406H74.6976V87.0704H76.3567C76.4093 87.0712 76.4615 87.0615 76.5103 87.0419C76.5591 87.0223 76.6035 86.9933 76.641 86.9564C76.6784 86.9196 76.7081 86.8756 76.7284 86.8272C76.7487 86.7788 76.7592 86.7268 76.7592 86.6743C76.7603 86.6215 76.7506 86.569 76.7307 86.5201C76.7108 86.4711 76.6811 86.4268 76.6434 86.3897C76.6058 86.3526 76.5609 86.3236 76.5116 86.3044C76.4623 86.2853 76.4096 86.2763 76.3567 86.2782H74.2557C74.1982 86.2771 74.141 86.2876 74.0877 86.3091C74.0343 86.3305 73.9858 86.3625 73.9451 86.403C73.9043 86.4436 73.8722 86.492 73.8506 86.5452C73.829 86.5984 73.8184 86.6555 73.8194 86.7129V90.1285C73.8183 90.186 73.8289 90.2431 73.8504 90.2964C73.8719 90.3498 73.904 90.3982 73.9448 90.4389C73.9855 90.4795 74.034 90.5116 74.0875 90.5331C74.1409 90.5546 74.1981 90.5651 74.2557 90.564H76.4348C76.54 90.564 76.641 90.5222 76.7154 90.448C76.7898 90.3737 76.8316 90.2729 76.8316 90.1679C76.8316 90.0628 76.7898 89.9621 76.7154 89.8878C76.641 89.8135 76.54 89.7717 76.4348 89.7717H76.4307Z" fill="white"/>
<path d="M81.3964 86.2005C80.1205 86.2005 79.1191 87.1743 79.1191 88.4213C79.1191 89.6683 80.1141 90.6422 81.3964 90.6422C82.6787 90.6422 83.6857 89.6611 83.6857 88.4213C83.6857 87.1816 82.6779 86.2005 81.3964 86.2005ZM81.4028 89.8298C80.5979 89.8298 80.0231 89.2457 80.0231 88.4213C80.0231 87.597 80.5955 87.012 81.4028 87.012C82.2102 87.012 82.7818 87.6026 82.7818 88.4213C82.7818 89.2401 82.203 89.8298 81.4028 89.8298Z" fill="white"/>
<path d="M90.5038 91.2387C90.4386 91.2387 90.3284 91.2516 90.1819 91.2516C89.2062 91.2516 88.4914 90.9077 87.9046 90.1484C88.167 89.9432 88.379 89.6809 88.5245 89.3816C88.67 89.0822 88.7452 88.7536 88.7442 88.4209C88.7442 87.1803 87.7355 86.2001 86.454 86.2001C85.1725 86.2001 84.1768 87.1739 84.1768 88.4209C84.1768 89.6679 85.1725 90.6417 86.454 90.6417C86.6998 90.6421 86.9441 90.6047 87.1785 90.5309C87.4962 90.9918 87.9233 91.3671 88.4216 91.6232C88.92 91.8793 89.4741 92.0084 90.0345 91.9988C90.2402 92.0067 90.4456 91.9759 90.6399 91.908C90.7086 91.8871 90.7686 91.8444 90.8109 91.7864C90.8531 91.7285 90.8753 91.6583 90.8741 91.5866C90.8774 91.3697 90.7317 91.2387 90.5038 91.2387ZM86.4637 89.8294C85.6587 89.8294 85.0848 89.2388 85.0848 88.4209C85.0848 87.603 85.6571 87.0116 86.4532 87.0116C87.2493 87.0116 87.8386 87.6022 87.8386 88.4209C87.8386 89.2397 87.2638 89.8302 86.4637 89.8302V89.8294Z" fill="white"/>
<path d="M92.1702 86.2007C91.981 86.2007 91.8579 86.285 91.7597 86.4602L90.8364 88.0575L89.9115 86.4602C89.8076 86.2786 89.6836 86.2007 89.4953 86.2007C89.4396 86.1992 89.3841 86.2088 89.3322 86.2289C89.2803 86.2491 89.2329 86.2794 89.1929 86.3181C89.1528 86.3568 89.1209 86.4031 89.099 86.4543C89.0772 86.5054 89.0657 86.5604 89.0654 86.6161C89.0661 86.7215 89.1005 86.824 89.1636 86.9085L90.3944 88.9341V90.194C90.3919 90.2531 90.4014 90.3121 90.4223 90.3675C90.4432 90.4229 90.4752 90.4735 90.5162 90.5162C90.5572 90.559 90.6065 90.593 90.661 90.6162C90.7156 90.6395 90.7742 90.6514 90.8336 90.6514C90.8929 90.6514 90.9515 90.6395 91.0061 90.6162C91.0606 90.593 91.1099 90.559 91.1509 90.5162C91.1919 90.4735 91.2239 90.4229 91.2448 90.3675C91.2657 90.3121 91.2752 90.2531 91.2727 90.194V88.9341L92.5091 86.9085C92.5683 86.8248 92.6 86.7249 92.6001 86.6225C92.6005 86.5663 92.5896 86.5107 92.5681 86.4588C92.5466 86.407 92.5148 86.36 92.4747 86.3206C92.4346 86.2813 92.387 86.2504 92.3347 86.2298C92.2824 86.2091 92.2264 86.1992 92.1702 86.2007Z" fill="white"/>
<path d="M90.4885 85.533C90.5666 85.5095 90.6374 85.4667 90.6944 85.4086C90.7514 85.3504 90.7927 85.2788 90.8146 85.2004L91.0649 84.3278C91.094 84.2317 91.0967 84.1296 91.0729 84.0321C91.0568 83.967 91.0277 83.9058 90.9875 83.8521C90.9472 83.7984 90.8966 83.7533 90.8386 83.7195C90.7806 83.6856 90.7164 83.6637 90.6498 83.655C90.5831 83.6464 90.5155 83.6511 90.4507 83.6689C90.3553 83.6945 90.2691 83.7465 90.202 83.8188C90.1349 83.8912 90.0897 83.981 90.0716 84.0779L89.9355 84.9481C89.9238 85.0259 89.9238 85.1049 89.9355 85.1827C89.9465 85.2432 89.9698 85.3007 90.0042 85.3517C90.0385 85.4027 90.0831 85.446 90.1351 85.4789C90.187 85.5118 90.2453 85.5336 90.3061 85.543C90.367 85.5523 90.4291 85.5489 90.4885 85.533Z" fill="white"/>
<path d="M72.8851 77.5122C72.7715 77.512 72.6626 77.4669 72.5822 77.3868C72.5018 77.3067 72.4565 77.1981 72.4561 77.0847V69.8719C72.4562 69.7955 72.4769 69.7207 72.5158 69.655C72.5547 69.5893 72.6105 69.5351 72.6774 69.4982C72.7443 69.4612 72.8198 69.4428 72.8963 69.4448C72.9727 69.4468 73.0472 69.4691 73.1121 69.5095L78.8926 73.1155C78.9538 73.154 79.0042 73.2074 79.0392 73.2706C79.0741 73.3339 79.0924 73.4049 79.0924 73.4771C79.0924 73.5493 79.0741 73.6203 79.0392 73.6836C79.0042 73.7468 78.9538 73.8001 78.8926 73.8387L73.1121 77.4447C73.0443 77.4881 72.9656 77.5115 72.8851 77.5122ZM73.3134 70.6432V76.3134L77.8574 73.4811L73.3134 70.6432Z" fill="white"/>
<path d="M86.4068 81.2931C86.3239 81.3814 86.2118 81.4368 86.0912 81.449C86.0399 81.454 85.988 81.4487 85.9387 81.4336C85.8894 81.4184 85.8435 81.3936 85.8039 81.3606L84.0901 79.7922L83.3261 81.2232C83.3036 81.2744 83.2666 81.318 83.2198 81.3487C83.1729 81.3793 83.1181 81.3958 83.0621 81.396C83.0206 81.3911 82.9815 81.3738 82.9499 81.3465C82.9183 81.3191 82.8957 81.2829 82.885 81.2425L81.226 76.1227C81.2223 76.1109 81.2217 76.0984 81.2242 76.0863C81.2267 76.0742 81.2323 76.063 81.2405 76.0536L81.259 76.0327C81.2678 76.0229 81.2791 76.0156 81.2917 76.0118C81.3044 76.008 81.3178 76.0077 81.3306 76.011L86.546 77.377C86.5866 77.3855 86.6236 77.4061 86.6523 77.4358C86.681 77.4656 86.7 77.5034 86.707 77.5441C86.7099 77.6005 86.6962 77.6564 86.6676 77.7051C86.639 77.7538 86.5967 77.7931 86.546 77.8181L85.1623 78.6593L86.8254 80.2775C86.8615 80.3148 86.8897 80.3591 86.9082 80.4075C86.9268 80.456 86.9353 80.5077 86.9332 80.5596C86.9307 80.6255 86.9152 80.6903 86.8876 80.7503C86.86 80.8103 86.8208 80.8642 86.7722 80.9091L86.4309 81.269C86.4234 81.2775 86.4153 81.2856 86.4068 81.2931Z" fill="white"/>
<path fill-rule="evenodd" clip-rule="evenodd" d="M81.4683 66.7648C80.1456 65.4446 78.4604 64.5456 76.6258 64.1814C74.7912 63.8171 72.8896 64.0041 71.1615 64.7186C69.4334 65.4331 67.9563 66.6431 66.9171 68.1955C65.8779 69.7479 65.3232 71.5731 65.3232 73.4401C65.3232 75.3072 65.8779 77.1323 66.9171 78.6847C67.9563 80.2371 69.4334 81.4471 71.1615 82.1616C72.8896 82.8761 74.7912 83.0631 76.6258 82.6989C78.4604 82.3347 80.1456 81.4357 81.4683 80.1155L81.5134 80.0697L81.2228 79.1858C81.1154 79.3058 81.0049 79.4226 80.8911 79.5362C79.4155 81.0064 77.4562 81.8932 75.376 82.0326C73.2957 82.172 71.2353 81.5545 69.576 80.2944C67.9167 79.0343 66.771 77.2168 66.3508 75.1784C65.9306 73.1401 66.2643 71.0188 67.2904 69.2071C68.3164 67.3955 69.9652 66.0161 71.9316 65.3244C73.898 64.6326 76.0488 64.6753 77.9861 65.4446C79.9234 66.2138 81.5159 67.6575 82.469 69.5084C83.422 71.3593 83.6711 73.4922 83.17 75.5123L83.9597 75.7196C84.3518 74.1392 84.3285 72.4845 83.8921 70.9157C83.4556 69.3468 82.6207 67.9171 81.4683 66.7648Z" fill="white"/>
<defs>
<linearGradient id="paint0_linear_2709_37251" x1="75" y1="0" x2="75" y2="150" gradientUnits="userSpaceOnUse">
<stop stop-color="#F7E9F6"/>
<stop offset="1" stop-color="#DAE7FF"/>
</linearGradient>
</defs>
</svg>
