<svg width="126" height="105" viewBox="0 0 126 105" fill="none" xmlns="http://www.w3.org/2000/svg">
<g opacity="0.88" clip-path="url(#clip0_1617_15580)">
<path d="M9.56572 90.9227C9.95967 90.5534 10.2706 90.1041 10.4778 89.6048C10.685 89.1055 10.7837 88.5676 10.7674 88.027C10.7674 85.3724 8.67948 83.5465 5.6933 83.5465H1.67667C1.45465 83.5385 1.23336 83.5764 1.02657 83.6579C0.819785 83.7394 0.631929 83.8626 0.474689 84.0201C0.31745 84.1775 0.194193 84.3657 0.112585 84.573C0.0309774 84.7802 -0.00723411 85.0021 0.00032797 85.2248V97.9283C-0.00720995 98.1512 0.030995 98.3732 0.112572 98.5806C0.194148 98.788 0.317356 98.9764 0.474547 99.134C0.631739 99.2917 0.81956 99.4153 1.02635 99.4971C1.23315 99.5789 1.4545 99.6172 1.67667 99.6097H7.13832C10.2477 99.6097 12.4317 97.6602 12.4317 94.885C12.4317 92.9686 11.3622 91.5585 9.56572 90.9227ZM3.18178 86.3698H5.43794C6.72675 86.3698 7.54089 87.0508 7.54089 88.1958C7.54089 89.3408 6.74177 90.0459 5.45296 90.0459H3.18178V86.3698ZM6.91 96.7924H3.18178V92.7517H6.91C8.34301 92.7517 9.1932 93.505 9.1932 94.7705C9.1932 96.0361 8.32799 96.7924 6.91 96.7924Z" fill="white"/>
<path d="M16.7066 83.2539C16.4864 83.2484 16.2673 83.2882 16.0629 83.3709C15.8586 83.4536 15.6733 83.5774 15.5185 83.7346C15.3637 83.8919 15.2426 84.0793 15.1628 84.2852C15.083 84.4912 15.046 84.7114 15.0543 84.9323V98.2294C15.0376 98.4551 15.0675 98.6818 15.1421 98.8954C15.2168 99.109 15.3345 99.3048 15.488 99.4707C15.6416 99.6365 15.8276 99.7688 16.0344 99.8593C16.2412 99.9498 16.4645 99.9964 16.6901 99.9964C16.9157 99.9964 17.139 99.9498 17.3458 99.8593C17.5526 99.7688 17.7386 99.6365 17.8922 99.4707C18.0457 99.3048 18.1635 99.109 18.2381 98.8954C18.3127 98.6818 18.3426 98.4551 18.3259 98.2294V84.9323C18.3349 84.714 18.2995 84.4963 18.222 84.2921C18.1445 84.088 18.0264 83.9019 17.875 83.7449C17.7236 83.5879 17.5419 83.4635 17.3411 83.3791C17.1402 83.2947 16.9244 83.2521 16.7066 83.2539Z" fill="white"/>
<path d="M31.274 93.14C32.0515 92.697 32.6948 92.0509 33.1355 91.2704C33.5761 90.4899 33.7977 89.6043 33.7765 88.7076C33.7765 85.6402 31.4452 83.5461 28.0205 83.5461H23.6493C23.4294 83.5378 23.2101 83.5747 23.005 83.6546C22.7998 83.7345 22.6131 83.8557 22.4564 84.0106C22.2996 84.1656 22.1761 84.351 22.0935 84.5556C22.0109 84.7602 21.9709 84.9796 21.976 85.2003V98.2292C21.9665 98.451 22.0019 98.6724 22.08 98.8801C22.1581 99.0878 22.2773 99.2775 22.4304 99.4378C22.5835 99.5981 22.7673 99.7256 22.9709 99.8128C23.1744 99.8999 23.3935 99.9448 23.6148 99.9448C23.8361 99.9448 24.0551 99.8999 24.2587 99.8128C24.4622 99.7256 24.6461 99.5981 24.7992 99.4378C24.9523 99.2775 25.0715 99.0878 25.1496 98.8801C25.2277 98.6724 25.263 98.451 25.2536 98.2292V93.9445H28.0445L31.6495 99.0669C31.8005 99.3211 32.0135 99.5328 32.2683 99.6819C32.5232 99.8311 32.8116 99.9129 33.1066 99.9196C33.5073 99.9182 33.8917 99.7599 34.1778 99.4785C34.464 99.1971 34.6293 98.8149 34.6387 98.413C34.6092 97.9627 34.4483 97.531 34.1761 97.1716L31.274 93.14ZM27.9964 91.0458H25.2536V86.4417H27.9964C29.4775 86.4417 30.4238 87.3457 30.4238 88.7317C30.4238 90.1178 29.5015 91.0458 27.9964 91.0458Z" fill="white"/>
<path d="M50.7984 90.8019H46.1359C45.9415 90.7892 45.7466 90.8167 45.5633 90.8826C45.3799 90.9484 45.2119 91.0514 45.0698 91.1849C44.9276 91.3185 44.8143 91.48 44.7369 91.6592C44.6594 91.8385 44.6195 92.0318 44.6195 92.2271C44.6195 92.4225 44.6594 92.6158 44.7369 92.7951C44.8143 92.9743 44.9276 93.1357 45.0698 93.2693C45.2119 93.4029 45.3799 93.5058 45.5633 93.5717C45.7466 93.6376 45.9415 93.6651 46.1359 93.6524H49.1942V95.0384C48.2719 96.2437 46.7428 96.9638 44.9703 96.9638C41.8129 96.9638 39.6288 94.7703 39.6288 91.5823C39.6288 88.3944 41.7317 86.2972 44.775 86.2972C45.5003 86.2799 46.2205 86.4238 46.8838 86.7187C47.5471 87.0135 48.1371 87.452 48.6114 88.0027C49.0981 88.536 49.4856 88.7319 49.9963 88.7319C50.3911 88.7319 50.77 88.5761 51.0511 88.2981C51.3322 88.0201 51.4929 87.6423 51.4984 87.2464C51.4984 86.6859 51.198 86.1737 50.504 85.5168C49.1912 84.1307 47.0071 83.2539 44.8201 83.2539C39.9893 83.2539 36.2521 86.8697 36.2521 91.5823C36.2521 96.2949 39.9893 99.9107 44.8201 99.9107C47.6621 99.9107 50.504 98.5217 51.9611 96.3793C52.3166 95.8389 52.4942 95.2003 52.4688 94.5533V92.4833C52.4767 92.2608 52.439 92.0391 52.3579 91.832C52.2769 91.6248 52.1542 91.4365 51.9976 91.2788C51.841 91.1212 51.6537 90.9975 51.4474 90.9154C51.2411 90.8334 51.0202 90.7947 50.7984 90.8019Z" fill="white"/>
<path d="M65.0504 96.6476H58.5823V92.5798H62.8182C63.0069 92.5886 63.1955 92.5589 63.3724 92.4925C63.5493 92.4262 63.711 92.3245 63.8476 92.1936C63.9843 92.0628 64.093 91.9055 64.1673 91.7314C64.2416 91.5572 64.28 91.3697 64.28 91.1802C64.28 90.9907 64.2416 90.8032 64.1673 90.629C64.093 90.4548 63.9843 90.2976 63.8476 90.1667C63.711 90.0359 63.5493 89.9342 63.3724 89.8679C63.1955 89.8015 63.0069 89.7718 62.8182 89.7806H58.5823V86.5173H64.774C64.9702 86.5201 65.1651 86.4838 65.3472 86.4104C65.5293 86.337 65.6951 86.228 65.8349 86.0898C65.9746 85.9515 66.0856 85.7868 66.1614 85.6052C66.2371 85.4236 66.2761 85.2287 66.2761 85.0318C66.2803 84.8338 66.2442 84.637 66.1699 84.4534C66.0956 84.2699 65.9848 84.1035 65.8442 83.9645C65.7035 83.8254 65.5361 83.7166 65.3521 83.6447C65.1681 83.5728 64.9713 83.5393 64.774 83.5463H56.933C56.7183 83.5422 56.505 83.5816 56.3058 83.662C56.1066 83.7425 55.9256 83.8624 55.7737 84.0145C55.6217 84.1667 55.5018 84.348 55.4213 84.5476C55.3407 84.7472 55.3011 84.9611 55.3047 85.1765V97.9854C55.3007 98.201 55.34 98.4152 55.4204 98.6152C55.5007 98.8152 55.6205 98.9969 55.7726 99.1494C55.9246 99.3018 56.1057 99.422 56.3051 99.5026C56.5045 99.5832 56.7181 99.6227 56.933 99.6186H65.0654C65.4582 99.6186 65.8349 99.4621 66.1127 99.1835C66.3904 98.9049 66.5465 98.5271 66.5465 98.1331C66.5465 97.7391 66.3904 97.3613 66.1127 97.0827C65.8349 96.8041 65.4582 96.6476 65.0654 96.6476H65.0504Z" fill="white"/>
<path d="M83.5805 83.2539C78.8189 83.2539 75.0817 86.9059 75.0817 91.5823C75.0817 96.2588 78.7949 99.9107 83.5805 99.9107C88.3662 99.9107 92.1245 96.2316 92.1245 91.5823C92.1245 86.933 88.3632 83.2539 83.5805 83.2539ZM83.6046 96.8644C80.6004 96.8644 78.4554 94.6738 78.4554 91.5823C78.4554 88.4908 80.5914 86.2972 83.6046 86.2972C86.6178 86.2972 88.7508 88.5119 88.7508 91.5823C88.7508 94.6527 86.5908 96.8644 83.6046 96.8644Z" fill="white"/>
<path d="M117.573 102.146C117.33 102.146 116.918 102.194 116.371 102.194C112.73 102.194 110.062 100.905 107.872 98.0572C108.852 97.2877 109.643 96.3042 110.186 95.1815C110.729 94.0588 111.009 92.8267 111.006 91.5789C111.006 86.9266 107.242 83.2505 102.459 83.2505C97.6762 83.2505 93.96 86.9024 93.96 91.5789C93.96 96.2553 97.6762 99.9073 102.459 99.9073C103.376 99.9087 104.288 99.7685 105.163 99.4915C106.348 101.22 107.942 102.627 109.802 103.588C111.662 104.549 113.73 105.032 115.822 104.997C116.589 105.026 117.356 104.911 118.081 104.656C118.337 104.578 118.561 104.418 118.719 104.2C118.877 103.983 118.959 103.72 118.955 103.451C118.967 102.637 118.423 102.146 117.573 102.146ZM102.495 96.861C99.4907 96.861 97.3487 94.6463 97.3487 91.5789C97.3487 88.5115 99.4847 86.2938 102.456 86.2938C105.427 86.2938 107.626 88.5085 107.626 91.5789C107.626 94.6493 105.481 96.864 102.495 96.864V96.861Z" fill="white"/>
<path d="M123.791 83.254C123.085 83.254 122.626 83.5704 122.259 84.2272L118.813 90.2174L115.362 84.2272C114.974 83.5463 114.511 83.254 113.808 83.254C113.601 83.2484 113.394 83.2844 113.2 83.3601C113.006 83.4358 112.829 83.5495 112.68 83.6946C112.53 83.8397 112.411 84.0132 112.33 84.2051C112.248 84.3969 112.205 84.6032 112.204 84.8118C112.207 85.2073 112.335 85.5916 112.571 85.9086L117.164 93.5048V98.2295C117.155 98.4512 117.19 98.6726 117.268 98.8803C117.346 99.088 117.465 99.2777 117.619 99.438C117.772 99.5983 117.956 99.7259 118.159 99.813C118.363 99.9001 118.582 99.945 118.803 99.945C119.024 99.945 119.243 99.9001 119.447 99.813C119.65 99.7259 119.834 99.5983 119.987 99.438C120.14 99.2777 120.26 99.088 120.338 98.8803C120.416 98.6726 120.451 98.4512 120.442 98.2295V93.5048L125.056 85.9086C125.277 85.5947 125.396 85.22 125.396 84.8359C125.397 84.6254 125.357 84.4167 125.276 84.2222C125.196 84.0278 125.078 83.8515 124.928 83.7039C124.778 83.5563 124.6 83.4404 124.405 83.3631C124.21 83.2859 124.001 83.2487 123.791 83.254Z" fill="white"/>
<path d="M117.516 80.7528C117.807 80.6648 118.072 80.5042 118.284 80.2861C118.497 80.068 118.651 79.7994 118.733 79.5054L119.667 76.2331C119.776 75.8728 119.786 75.4899 119.697 75.1242C119.637 74.8802 119.528 74.6507 119.378 74.4493C119.228 74.2479 119.039 74.0788 118.822 73.9519C118.606 73.8249 118.366 73.7427 118.118 73.7102C117.869 73.6776 117.617 73.6953 117.375 73.7623C117.019 73.8582 116.697 74.0531 116.447 74.3244C116.196 74.5958 116.028 74.9326 115.96 75.296L115.452 78.5593C115.409 78.8509 115.409 79.1475 115.452 79.4391C115.493 79.6658 115.58 79.8816 115.708 80.0728C115.837 80.264 116.003 80.4265 116.197 80.5499C116.391 80.6734 116.608 80.7552 116.835 80.7901C117.062 80.825 117.294 80.8123 117.516 80.7528Z" fill="white"/>
<path d="M51.8202 50.6724C51.3963 50.6716 50.99 50.5025 50.6899 50.2022C50.3899 49.9018 50.2206 49.4945 50.219 49.0694V22.0201C50.2197 21.7339 50.2966 21.4531 50.4418 21.2067C50.587 20.9603 50.7953 20.7574 51.0449 20.6188C51.2946 20.4802 51.5767 20.4111 51.8619 20.4185C52.1472 20.426 52.4253 20.5097 52.6674 20.6612L74.2406 34.1843C74.469 34.3287 74.6572 34.5288 74.7876 34.7659C74.918 35.003 74.9864 35.2694 74.9864 35.5402C74.9864 35.811 74.918 36.0774 74.7876 36.3145C74.6572 36.5516 74.469 36.7517 74.2406 36.8961L52.6674 50.4193C52.4145 50.5821 52.1208 50.6699 51.8202 50.6724ZM53.4185 24.9128V46.1767L70.3772 35.5553L53.4185 24.9128Z" fill="white"/>
<path d="M102.281 64.8524C101.972 65.1834 101.554 65.391 101.104 65.437C100.912 65.4556 100.719 65.4359 100.534 65.379C100.35 65.3221 100.179 65.2292 100.031 65.1055L93.6353 59.2238L90.7843 64.5903C90.7001 64.7823 90.5622 64.9456 90.3873 65.0606C90.2124 65.1756 90.008 65.2372 89.7989 65.2381C89.6439 65.2197 89.498 65.155 89.3801 65.0524C89.2623 64.9498 89.1779 64.814 89.138 64.6626L82.9463 45.4627C82.9325 45.4184 82.9302 45.3714 82.9397 45.326C82.9492 45.2807 82.9701 45.2385 83.0004 45.2035L83.0695 45.1252C83.1023 45.0882 83.1446 45.0611 83.1918 45.0467C83.2389 45.0323 83.2892 45.0314 83.3369 45.0438L102.801 50.1662C102.952 50.1984 103.09 50.2753 103.198 50.387C103.305 50.4988 103.376 50.6402 103.402 50.793C103.413 51.0044 103.362 51.2143 103.255 51.3968C103.148 51.5794 102.99 51.7267 102.801 51.8205L97.6369 54.9753L103.844 61.0438C103.978 61.1837 104.084 61.3495 104.153 61.5313C104.222 61.713 104.254 61.907 104.246 62.1014C104.237 62.3488 104.179 62.5919 104.076 62.8168C103.973 63.0417 103.826 63.244 103.645 63.4121L102.372 64.762C102.343 64.7939 102.313 64.824 102.281 64.8524Z" fill="white"/>
<path fill-rule="evenodd" clip-rule="evenodd" d="M83.8536 10.3683C78.9173 5.41749 72.6281 2.04597 65.7813 0.680124C58.9345 -0.68572 51.8376 0.0154536 45.3882 2.69498C38.9387 5.3745 33.4262 9.91204 29.5479 15.7338C25.6695 21.5555 23.5995 28.4 23.5995 35.4018C23.5995 42.4035 25.6695 49.248 29.5479 55.0697C33.4262 60.8915 38.9387 65.429 45.3882 68.1086C51.8376 70.7881 58.9345 71.4893 65.7813 70.1234C72.6281 68.7576 78.9173 65.386 83.8536 60.4352L84.0219 60.2634L82.9374 56.949C82.5368 57.3989 82.1242 57.8368 81.6996 58.2627C76.1925 63.7761 68.8805 67.102 61.1168 67.6248C53.3532 68.1475 45.6635 65.8318 39.4711 61.1061C33.2786 56.3805 29.0025 49.5649 27.4343 41.9207C25.866 34.2765 27.1117 26.3213 30.9409 19.5273C34.7701 12.7334 40.9234 7.56071 48.2621 4.96661C55.6008 2.37251 63.628 2.53262 70.858 5.41732C78.0881 8.30202 84.0315 13.716 87.5884 20.6573C91.1452 27.5985 92.0746 35.5971 90.2045 43.1727L93.1517 43.9501C94.6152 38.0233 94.5283 31.8179 92.8993 25.9346C91.2704 20.0514 88.1546 14.6896 83.8536 10.3683Z" fill="white"/>
</g>
<defs>
<clipPath id="clip0_1617_15580">
<rect width="125.393" height="105" fill="white"/>
</clipPath>
</defs>
</svg>
