<svg width="24" height="24" viewBox="0 0 24 24" fill="none" xmlns="http://www.w3.org/2000/svg">
<path d="M12.5021 3.45605L12.504 3.45785L20.0041 10.2763C20.0042 10.2764 20.0043 10.2765 20.0043 10.2765C20.0816 10.347 20.1434 10.4328 20.1857 10.5285C20.2281 10.6242 20.25 10.7278 20.2501 10.8325V19.4995C20.25 19.6361 20.213 19.7702 20.143 19.8875C20.0729 20.0048 19.9725 20.101 19.8522 20.1659L19.8515 20.1663C19.7473 20.2227 19.6304 20.2515 19.512 20.25V20.2499H19.5022L14.9968 20.2499L14.9968 15.7492C14.9968 15.3514 14.8388 14.9699 14.5575 14.6886C14.2762 14.4072 13.8946 14.2492 13.4968 14.2492H10.4968C10.099 14.2492 9.71745 14.4072 9.43614 14.6886C9.15484 14.9699 8.99681 15.3514 8.99681 15.7492L8.99681 20.2499L4.50029 20.2499L4.49838 20.2499C4.3926 20.2502 4.28798 20.2278 4.19155 20.1844C4.0961 20.1414 4.01084 20.0787 3.94136 20.0004C3.81587 19.8541 3.74785 19.667 3.75005 19.4742H3.7501V19.4657V10.8321C3.75023 10.7275 3.77215 10.6241 3.81447 10.5284L3.12858 10.225L3.81447 10.5284C3.85681 10.4327 3.91865 10.3469 3.99603 10.2764C3.99605 10.2764 3.99606 10.2764 3.99607 10.2764L11.495 3.45795L11.497 3.45611C11.6342 3.33046 11.8135 3.26075 11.9995 3.26074C12.1856 3.26073 12.3649 3.33041 12.5021 3.45605Z" stroke="#007BFC" stroke-width="1.5"/>
</svg>
