<svg width="65" height="65" viewBox="0 0 65 65" fill="none" xmlns="http://www.w3.org/2000/svg">
    <path d="M54.8438 12.1875H10.1562C9.03442 12.1875 8.125 13.0969 8.125 14.2188V50.7812C8.125 51.9031 9.03442 52.8125 10.1562 52.8125H54.8438C55.9656 52.8125 56.875 51.9031 56.875 50.7812V14.2188C56.875 13.0969 55.9656 12.1875 54.8438 12.1875Z" stroke="#0B1F35" stroke-width="2" stroke-linecap="round" stroke-linejoin="round"/>
    <path d="M8.125 42.6562L20.9074 29.8738C21.096 29.6852 21.3199 29.5356 21.5664 29.4335C21.8128 29.3314 22.077 29.2789 22.3437 29.2789C22.6105 29.2789 22.8746 29.3314 23.121 29.4335C23.3675 29.5356 23.5914 29.6852 23.78 29.8738L35.1262 41.2199C35.3148 41.4086 35.5387 41.5582 35.7851 41.6603C36.0316 41.7623 36.2957 41.8149 36.5625 41.8149C36.8292 41.8149 37.0933 41.7623 37.3398 41.6603C37.5862 41.5582 37.8102 41.4086 37.9988 41.2199L43.2512 35.9676C43.4398 35.7789 43.6637 35.6293 43.9101 35.5272C44.1566 35.4252 44.4207 35.3726 44.6875 35.3726C44.9542 35.3726 45.2183 35.4252 45.4648 35.5272C45.7112 35.6293 45.9352 35.7789 46.1238 35.9676L56.875 46.7188" stroke="#0B1F35" stroke-width="2" stroke-linecap="round" stroke-linejoin="round"/>
    <path d="M39.6094 28.4375C41.2921 28.4375 42.6562 27.0734 42.6562 25.3906C42.6562 23.7079 41.2921 22.3438 39.6094 22.3438C37.9266 22.3438 36.5625 23.7079 36.5625 25.3906C36.5625 27.0734 37.9266 28.4375 39.6094 28.4375Z" fill="#0B1F35"/>
</svg>
