<svg width="179" height="240" viewBox="0 0 179 240" fill="none" xmlns="http://www.w3.org/2000/svg">
<path d="M177.01 102.212C176.262 101.811 175.494 101.447 174.709 101.124C172.775 100.303 170.752 99.7075 168.682 99.3498C161.283 98.0356 153.666 99.7683 145.681 103.242C138.432 106.389 130.882 110.976 122.922 116.023C122.767 114.776 122.689 113.521 122.688 112.265C122.688 96.303 135.243 83.3542 150.719 83.3542C156.51 83.4085 162.143 85.2488 166.848 88.6241C171.554 91.9993 175.103 96.7448 177.01 102.212Z" fill="#D4E4FF"/>
<path d="M169.04 108.908C168.596 113.504 166.696 124.167 164.068 137.694C163.641 139.912 163.231 142.205 162.72 144.557C156.242 177.302 146.608 222.174 142.473 241.351H29.3659L37.7863 192.854C37.7863 192.854 9.57026 186.509 3.85339 175.828C-3.52079 162.051 0.505257 151.496 9.0429 137.049C15.2369 126.536 27.6081 102.639 37.2422 87.5644C40.8582 81.8977 44.0891 77.5201 46.4495 75.4861C58.9295 64.9815 71.8113 69.0745 83.6385 72.138C83.6385 72.138 83.6385 74.6491 83.7724 78.7254C83.8477 82.0316 83.9566 86.3758 84.1072 91.2807C84.3667 99.9105 84.76 110.298 85.3209 119.873C85.4213 121.548 85.5217 123.222 85.6306 124.896C86.4676 137.007 87.539 146.943 89.0289 148.901C89.4056 149.395 89.9748 149.261 90.703 148.608C92.8206 146.667 96.2775 140.188 100.128 131.91C101.291 129.399 102.48 126.779 103.685 124.05C110.231 109.185 117.078 91.7327 120.233 83.6554C121.229 81.0942 121.849 79.4703 121.957 79.1774C121.956 79.1607 121.956 79.1439 121.957 79.1272L124.251 79.4369L129.189 80.1149C133.483 80.7008 139.359 81.521 145.93 82.4836C147.604 82.7264 149.169 83.011 150.726 83.3792C158.134 85.1035 164.461 88.4014 167.425 95.2984C167.986 96.6097 168.41 97.9758 168.688 99.3747C169.282 102.517 169.401 105.731 169.04 108.908Z" fill="#D4E4FF"/>
<path d="M168.68 99.3833C161.28 98.0692 153.663 99.8019 145.678 103.275C138.43 106.423 130.88 111.01 122.92 116.057L120.408 117.656C114.357 121.514 108.765 123.473 103.668 124.059C112.289 104.489 121.438 80.4499 121.949 79.186C121.947 79.1693 121.947 79.1524 121.949 79.1357L129.18 80.1234C133.474 80.7093 139.35 81.5296 145.921 82.4922C147.595 82.735 149.16 83.0195 150.717 83.3878C158.125 85.1121 164.453 88.41 167.416 95.307C167.977 96.6183 168.401 97.9844 168.68 99.3833Z" fill="#D4E4FF"/>
<path d="M37.7852 192.887C48.8925 195.851 71.693 201.216 71.693 201.216" stroke="#90BAFF" stroke-width="0.627768" stroke-linecap="round" stroke-linejoin="round"/>
<path d="M50.8537 115.145L45.2707 153.271C37.3692 149.471 33.8705 148.408 30.4387 148.885C29.8946 141.394 46.7439 148.299 43.3372 133.183C41.2614 123.975 45.4297 117.279 50.8537 115.145Z" fill="#90BAFF"/>
<path d="M45.2695 153.271L50.8525 115.145L51.7648 108.901" stroke="#90BAFF" stroke-width="0.627768" stroke-linecap="round" stroke-linejoin="round"/>
<path d="M26.3008 150.024C33.9093 147.245 35.8093 148.35 61.6399 161.533" stroke="#90BAFF" stroke-width="0.627768" stroke-linecap="round" stroke-linejoin="round"/>
<path d="M83.6395 72.1723C83.6395 72.1723 84.0497 98.12 85.3136 119.883C76.5332 114.584 70.741 105.653 68.3303 100.137C64.7646 92.0097 58.0015 82.0073 37.2266 87.5819C40.8425 81.9152 44.0734 77.5376 46.4338 75.5036C58.9306 65.0157 71.8124 69.1088 83.6395 72.1723Z" fill="#D4E4FF"/>
<path d="M128.66 104.221C127.974 105.176 113.134 114.023 113.41 115.253C113.686 116.484 116.13 121.514 116.13 122.469C116.13 123.071 107.007 134.43 99.624 142.021C95.3635 146.424 91.6807 149.555 90.693 148.617C88.4246 146.458 108.547 94.4702 115.025 77.939L121.964 79.1359L129.196 80.1236C128.577 92.0595 129.263 103.384 128.66 104.221Z" fill="#90BAFF"/>
<path d="M121.966 79.1364C121.964 79.1531 121.964 79.1699 121.966 79.1866C121.539 80.8606 110.992 121.933 99.6425 142.022C96.0935 148.316 92.4691 152.552 89.0457 152.903C74.4731 154.284 83.6553 72.2058 83.6553 72.2058C89.0624 73.4195 105.552 76.324 115.044 77.9729L121.966 79.1364Z" fill="white"/>
<path d="M119.228 75.5201C117.63 80.2827 103.166 90.6869 94.2934 85.6731C89.1792 82.777 88.2417 77.4536 89.5809 68.6565C90.2254 64.3458 91.4308 59.1981 92.929 53.0962C93.6907 50.0411 94.5361 46.7516 95.4401 43.211C97.5913 34.6901 102.605 29.3666 111.729 30.9486C120.852 32.5305 120.358 41.4281 120.099 51.0371C119.839 60.6461 120.827 70.7658 119.228 75.5201Z" fill="#FFC5A4"/>
<path d="M107.586 51.5728C106.9 60.5038 102.966 70.2133 89.582 68.6564C90.2265 64.3457 91.4319 59.198 92.9301 53.0961L107.586 51.5728Z" fill="#DD9378"/>
<path d="M90.6953 83.8816C91.072 92.5866 91.1641 95.3069 92.0094 95.7673C92.8548 96.2277 96.6884 97.2656 97.7179 96.6043C98.7474 95.9431 104.632 86.242 104.632 86.242C104.632 86.242 97.6259 81.4458 90.6953 83.8816Z" fill="#28426C"/>
<path d="M97.163 92.4777C98.3766 107.586 100.938 143.536 101.306 146.332C101.675 149.127 90.2157 160.955 89.0606 159.49C87.9055 158.025 82.0547 147.236 82.0547 144.038C82.0547 140.841 92.6514 91.8667 92.6514 91.8667L97.163 92.4777Z" fill="#28426C"/>
<path d="M96.9536 82.1661C103.365 81.5049 118.088 72.3227 120.005 71.0839C121.922 69.8451 124.475 78.3326 124.257 80.0066C124.04 81.6807 105.374 94.0351 105.374 94.0351C105.374 94.0351 100.737 84.6521 96.6271 84.5433C92.5173 84.4345 86.3652 94.0351 86.3652 94.0351C78.5641 87.0125 83.7537 74.9259 89.0939 72.984C89.0939 72.984 94.3588 82.434 96.9536 82.1661Z" fill="#C460C0"/>
<path d="M80.7096 208.574L74.9844 241.385" stroke="#90BAFF" stroke-width="0.627768" stroke-linecap="round" stroke-linejoin="round"/>
<path d="M127.92 17.5484C126.879 19.102 125.462 20.3667 123.801 21.2245C122.14 22.0822 120.288 22.505 118.419 22.4534C111.723 22.3446 105.295 17.0378 105.295 17.0378C105.295 17.0378 99.4356 11.095 100.072 5.82173C100.267 4.30925 101.015 2.92267 102.173 1.92957C107.195 -2.59036 115.029 1.61988 117.917 6.45787C120.805 11.2959 121.675 11.2624 124.99 11.3042C127.869 11.3377 129.133 14.6189 127.92 17.5484Z" fill="#28426C"/>
<path d="M118.419 22.4534C111.723 22.3446 105.295 17.0379 105.295 17.0379C105.295 17.0379 99.4356 11.095 100.072 5.82175C106.642 4.26488 114.636 6.10634 119.666 11.2289C123.676 15.3136 121.14 19.6243 118.419 22.4534Z" fill="#28426C"/>
<path d="M109.068 12.978C105.067 7.83027 105.77 1.95436 110.013 0.422607" stroke="#3A5685" stroke-width="0.627768" stroke-linecap="round" stroke-linejoin="round"/>
<path d="M114.4 15.9999C110.399 10.8606 111.102 4.97633 115.345 3.44458" stroke="#3A5685" stroke-width="0.627768" stroke-linecap="round" stroke-linejoin="round"/>
<path d="M123.5 28.4962C122.462 30.7963 121.288 33.0324 119.984 35.1924C118.212 38.2131 116.179 41.0727 113.907 43.7384C109.722 48.5764 104.265 52.8201 97.9118 53.3642C82.6613 54.67 83.3727 43.8975 83.8582 40.6331C83.8582 40.5577 83.8582 40.4908 83.8582 40.4238C83.8582 40.3568 87.1644 33.6188 90.839 26.9142C92.6803 23.4581 94.7089 20.105 96.9158 16.87C101.812 10.0398 108.567 8.63366 115.247 11.4544C121.926 14.2752 122.679 18.3264 123.5 28.4962Z" fill="#FFC5A4"/>
<path d="M119.983 35.2518C118.208 38.2522 116.174 41.0921 113.906 43.7392H113.47C112.205 43.7413 110.964 43.3889 109.888 42.7221C108.812 42.0552 107.944 41.1005 107.383 39.966C106.822 38.8315 106.589 37.5626 106.712 36.3027C106.834 35.0429 107.307 33.8426 108.076 32.8376C108.846 31.8326 109.881 31.0631 111.066 30.6161C112.25 30.1692 113.536 30.0627 114.777 30.3087C116.019 30.5547 117.167 31.1434 118.091 32.0082C119.016 32.8729 119.679 33.9791 120.008 35.2016L119.983 35.2518Z" fill="#DD9378"/>
<path d="M93.1983 32.6233C93.1983 34.773 92.345 36.8347 90.8257 38.3555C89.3065 39.8763 87.2456 40.7318 85.0959 40.734C84.6726 40.7346 84.25 40.701 83.832 40.6336C83.832 40.5583 83.832 40.4913 83.832 40.4244C83.832 40.3574 87.1382 33.6194 90.8128 26.9148C92.3333 28.4261 93.1914 30.4795 93.1983 32.6233Z" fill="#DD9378"/>
<path d="M125.482 35.6617L123.197 37.7627C119.464 41.2782 118.66 42.1487 118.66 42.1487C116.576 36.9256 116.091 28.1536 120.033 21.6834C123.975 15.2132 128.663 14.9873 131.132 16.9877C131.376 17.1843 131.574 17.4331 131.709 17.716C133.492 21.0222 131.073 30.4722 125.482 35.6617Z" fill="#28426C"/>
<path d="M131.709 17.7406C127.106 19.0129 123.222 26.5545 123.197 37.7873C119.464 41.3028 118.66 42.1733 118.66 42.1733C116.576 36.9503 116.091 28.1783 120.033 21.7081C123.975 15.2379 128.663 15.0119 131.132 17.0124C131.376 17.209 131.574 17.4578 131.709 17.7406Z" fill="#28426C"/>
<path d="M115.707 44.4589C118.469 48.3008 127.283 46.1329 127.852 40.4997C128.421 34.8666 123.424 31.8198 118.996 34.356C114.568 36.8922 114.878 43.3122 115.707 44.4589Z" fill="#FFC5A4"/>
<path d="M124.688 16.8369C125.525 21.3485 129.182 24.9895 131.484 25.6089" stroke="#3A5685" stroke-width="0.627768" stroke-linecap="round" stroke-linejoin="round"/>
<path d="M120.828 20.5112C121.665 24.5289 124.561 29.844 130.161 29.4674" stroke="#3A5685" stroke-width="0.627768" stroke-linecap="round" stroke-linejoin="round"/>
<path d="M97.082 23.023C97.082 23.2564 97.1512 23.4846 97.2809 23.6787C97.4106 23.8728 97.5949 24.024 97.8106 24.1133C98.0262 24.2027 98.2635 24.226 98.4925 24.1805C98.7214 24.135 98.9317 24.0226 99.0967 23.8575C99.2618 23.6925 99.3742 23.4822 99.4198 23.2532C99.4653 23.0243 99.4419 22.787 99.3526 22.5713C99.2633 22.3557 99.112 22.1714 98.9179 22.0417C98.7238 21.912 98.4956 21.8428 98.2622 21.8428C97.9492 21.8428 97.649 21.9671 97.4277 22.1884C97.2064 22.4098 97.082 22.71 97.082 23.023Z" fill="#28426C"/>
<path d="M106.114 27.3582C106.766 27.3582 107.294 26.8298 107.294 26.178C107.294 25.5262 106.766 24.9978 106.114 24.9978C105.462 24.9978 104.934 25.5262 104.934 26.178C104.934 26.8298 105.462 27.3582 106.114 27.3582Z" fill="#28426C"/>
<path d="M119.665 36.3812C119.749 37.6702 116.141 42.3743 115.831 43.8391C114.752 49.0119 114.693 51.5899 108.934 55.4151C102.623 59.6002 90.5198 63.3584 84.4095 58.5204C82.0407 56.6539 80.7266 53.0547 80.7266 48.8444C80.79 45.581 81.5028 42.3629 82.8236 39.378C84.1443 36.3931 86.0464 33.7012 88.4188 31.4595C87.6714 34.2006 86.7545 36.8926 85.6734 39.52C86.893 37.8724 88.2094 36.2989 89.6157 34.8076C91.2772 34.0289 93.1079 33.6806 94.9393 33.7948C95.9855 34.0794 102.121 36.6239 102.364 37.7874C102.606 38.9508 101.635 42.9518 102.924 43.2364C104.213 43.521 109.863 42.9099 111.295 41.9892C112.726 41.0685 116.585 35.0085 116.945 34.0794C117.171 33.5018 118.125 34.0291 118.836 34.8243C119.267 35.2448 119.557 35.7889 119.665 36.3812Z" fill="#28426C"/>
<path d="M124.395 39.9303C122.964 36.5822 119.297 36.6827 117.297 39.3611" stroke="#DD9378" stroke-width="0.627768" stroke-linecap="round" stroke-linejoin="round"/>
<path d="M118.258 38.3653C122.209 37.386 123.95 43.2284 118.676 43.22" stroke="#DD9378" stroke-width="0.627768" stroke-linecap="round" stroke-linejoin="round"/>
<path d="M96.5016 15.0683C95.5256 16.4596 101.913 21.0355 103.066 18.8121C104.22 16.5888 97.5465 13.5891 96.5016 15.0683Z" fill="#28426C"/>
<path d="M115.049 19.0521C115.449 20.6787 107.859 22.6912 107.546 20.2048C107.232 17.7184 114.623 17.3025 115.049 19.0521Z" fill="#28426C"/>
<path d="M92.9102 37.9595C97.6979 37.1895 99.8156 37.9595 101.063 39.9851" stroke="#DD9378" stroke-width="0.627768" stroke-linecap="round" stroke-linejoin="round"/>
<path d="M94.7383 30.9572C96.3286 27.7179 98.438 26.5461 100.522 26.3117C101.509 26.1746 102.428 25.728 103.145 25.0362C103.862 24.3444 104.342 23.4429 104.515 22.4614" stroke="#DD9378" stroke-width="0.627768" stroke-linecap="round" stroke-linejoin="round"/>
<path d="M119.665 36.3816C119.749 37.6706 116.141 42.3747 115.831 43.8395C114.752 49.0123 114.693 51.5903 108.934 55.4155C102.623 59.6006 90.5198 63.3588 84.4095 58.5208C82.0407 56.6543 80.7266 53.0551 80.7266 48.8448C87.4228 54.5868 97.241 55.1978 103.268 53.4736C111.772 51.0295 116.97 39.7213 118.853 34.8247C119.278 35.2475 119.561 35.7913 119.665 36.3816Z" fill="#28426C"/>
<path d="M81.7812 42.1741C90.6286 49.7073 102.816 43.7477 103.544 43.2204" stroke="#3A5685" stroke-width="0.627768" stroke-linecap="round" stroke-linejoin="round"/>
<path d="M80.7773 50.1842C88.1432 54.0512 99.7861 55.1226 108.5 42.8435" stroke="#3A5685" stroke-width="0.627768" stroke-linecap="round" stroke-linejoin="round"/>
<path d="M89.9336 60.6718C91.7499 58.0603 96.521 56.922 101.526 55.5325C111.269 52.8122 112.768 48.7777 113.713 39.2273" stroke="#3A5685" stroke-width="0.627768" stroke-linecap="round" stroke-linejoin="round"/>
<path d="M119.404 194.596C119.401 196.384 119.007 198.149 118.249 199.769C117.286 201.8 115.909 203.607 114.206 205.075C109.703 209.076 102.689 211.646 94.8038 211.646C90.3768 211.681 85.9879 210.827 81.8969 209.135C78.0455 207.615 74.7269 204.995 72.3548 201.602C70.9656 199.531 70.2148 197.098 70.1953 194.604C70.195 193.888 70.2622 193.173 70.3962 192.47C71.409 186.803 76.4395 181.999 83.4621 179.471C87.1038 178.181 90.9406 177.53 94.8038 177.546C99.8508 177.508 104.836 178.655 109.36 180.894C111.304 181.862 113.098 183.108 114.683 184.593C117.655 187.372 119.404 190.837 119.404 194.596Z" fill="#D4E4FF"/>
<path d="M118.249 199.769C117.286 201.8 115.909 203.608 114.207 205.076C109.703 209.077 102.689 211.646 94.8044 211.646C90.3775 211.681 85.9886 210.827 81.8976 209.135C78.0462 207.616 74.7275 204.996 72.3555 201.602C89.9162 206.181 108.883 202.322 118.249 199.769Z" fill="#90BAFF"/>
<path d="M174.055 126.002C170.272 132.196 157.44 149.371 144.81 165.769C134.154 179.588 123.641 192.846 118.82 198.48C117.537 199.967 116.045 201.261 114.392 202.322C111.421 204.203 108.103 205.469 104.633 206.045C101.164 206.62 97.6141 206.492 94.1948 205.67C89.3066 204.439 85.0713 201.635 82.7611 197.191C81.76 195.241 81.1514 193.114 80.9699 190.93C80.6016 186.945 81.5976 182.099 83.6484 176.7C87.5238 166.539 95.1323 154.477 104.281 142.675C105.403 141.227 106.558 139.779 107.721 138.34C109.512 136.107 111.348 133.92 113.229 131.777C113.882 131.016 114.535 130.271 115.204 129.517C115.723 128.931 116.242 128.345 116.769 127.768L118.569 125.784L118.669 125.675L120.502 123.708C121.75 122.377 123.014 121.063 124.261 119.783L125.935 118.109C126.546 117.489 127.165 116.87 127.785 116.267C127.81 116.237 127.838 116.209 127.868 116.184C129.174 114.894 130.477 113.645 131.777 112.434L131.953 112.275C136.358 108.117 140.988 104.205 145.822 100.556C150.928 96.7729 155.54 94.0359 159.273 92.7217C165.568 90.512 171.327 93.1905 174.85 98.4386C179.379 105.059 180.258 115.857 174.055 126.002Z" fill="#D4E4FF"/>
<path d="M158.536 150.233C154.2 156.017 149.404 162.328 144.624 168.522C133.969 182.342 123.456 195.6 118.635 201.233C117.351 202.72 115.86 204.014 114.207 205.075" stroke="#90BAFF" stroke-width="0.627768" stroke-linecap="round" stroke-linejoin="round"/>
<path d="M83.4609 179.463C87.3364 169.302 94.9449 157.24 104.094 145.438C112.479 134.649 121.686 124.524 131.632 115.155" stroke="#90BAFF" stroke-width="0.627768" stroke-linecap="round" stroke-linejoin="round"/>
<path d="M144.204 112.308C139.801 109.797 135.465 110.735 127.605 119.005" stroke="#90BAFF" stroke-width="0.627768" stroke-linecap="round" stroke-linejoin="round"/>
<path d="M174.708 101.159C172.774 100.338 170.752 99.7423 168.681 99.3846C161.282 98.0705 153.665 99.8031 145.68 103.277C150.786 99.4934 155.398 96.7563 159.131 95.4422C165.425 93.2325 171.184 95.9109 174.708 101.159Z" fill="#D4E4FF"/>
<path d="M144.623 168.523C133.967 182.342 123.454 195.601 118.633 201.234C117.35 202.721 115.858 204.015 114.205 205.076C111.234 206.958 107.916 208.224 104.446 208.799C100.977 209.374 97.4272 209.247 94.0079 208.424C89.1197 207.194 84.8844 204.39 82.5742 199.945C90.4255 203 98.2265 203.009 103.801 200.196C106.905 198.692 109.346 196.096 110.656 192.906C111.819 190.033 113.164 187.237 114.682 184.535C123.756 168.565 136.16 162.739 144.623 168.523Z" fill="#90BAFF"/>
<path d="M54.9451 99.9865C54.5433 97.735 62.1016 95.3327 67.9775 94.6631L69.0824 104.599C69.0824 104.599 56.3345 107.804 54.9451 99.9865Z" fill="#90BAFF"/>
<path d="M66.7578 94.0354C63.7027 82.6267 63.6273 64.162 64.6736 61.5505C65.7199 58.939 67.8292 59.9183 69.0847 59.9936C70.3403 60.0689 70.9262 56.7125 75.1699 56.7125C75.1699 56.7125 75.4043 52.4771 78.3422 51.9916C78.3422 51.9916 77.2206 45.8228 82.1674 46.8105C83.289 47.0365 82.1674 53.8833 85.0133 63.5509C85.1723 64.095 91.1654 59.8011 92.5465 58.8218C94.7646 57.223 99.0585 56.6957 96.2629 61.3914C94.5888 64.2457 91.8016 68.7572 89.8597 71.5864C86.0018 77.368 84.0014 84.1898 84.126 91.1392L66.7578 94.0354Z" fill="#FFC5A4"/>
<path d="M64.0954 67.1585C64.0535 65.2724 64.2476 63.3885 64.673 61.5505C65.7109 58.9473 67.8286 59.9183 69.0841 59.9936C70.3396 60.0689 70.9255 56.7125 75.1692 56.7125C75.1692 56.7125 75.4036 52.4771 78.3416 51.9916C78.3416 51.9916 77.22 45.8228 82.1668 46.8105C83.2884 47.0365 82.1668 53.8833 85.0126 63.5509C85.1717 64.095 91.1648 59.8011 92.5458 58.8218C94.764 57.223 99.0579 56.6957 96.2622 61.3914C95.4252 62.8144 94.2953 64.6558 93.1485 66.4973" stroke="#DD9378" stroke-width="0.627768" stroke-linecap="round" stroke-linejoin="round"/>
<path d="M75.1675 56.7124C75.1502 57.499 75.1978 58.2857 75.3099 59.0644" stroke="#DD9378" stroke-width="0.627768" stroke-linecap="round" stroke-linejoin="round"/>
<path d="M78.3398 51.9919C78.6998 54.0594 79.2271 55.9762 79.2271 55.9762" stroke="#DD9378" stroke-width="0.627768" stroke-linecap="round" stroke-linejoin="round"/>
<path d="M61.3828 89.323L62.7137 108.072C62.7137 108.072 87.0962 103.887 86.7279 103.343C86.3596 102.799 85.7235 87.4397 85.7235 87.4397L61.3828 89.323Z" fill="white"/>
<path d="M109.226 180.894C109.226 181.379 109.201 181.864 109.151 182.35C109.151 182.718 109.101 183.087 109.067 183.455C109.071 183.527 109.071 183.6 109.067 183.672C109.067 184.091 108.984 184.509 108.933 184.911C108.825 185.849 108.682 186.778 108.506 187.69C107.745 192.153 106.106 196.42 103.685 200.246C101.377 203.959 97.9474 206.84 93.8921 208.473C90.0537 209.881 85.8877 210.137 81.9059 209.21H81.7803C73.7616 207.477 68.9738 198.546 66.0275 188.335C63.3407 179.002 62.1856 168.598 61.5243 161.625C60.1181 146.977 54.8281 100.071 54.8281 100.071C58.5696 101.945 92.0506 94.1277 92.0506 94.1277C92.0506 94.1277 98.9309 121.415 103.987 145.529C106.699 158.461 108.892 170.489 109.21 176.901C109.251 178.165 109.268 179.512 109.226 180.894Z" fill="#D4E4FF"/>
<path d="M66.0119 188.243C63.325 178.91 62.1699 168.506 61.5087 161.533C60.1025 146.885 54.8125 99.9785 54.8125 99.9785" stroke="#90BAFF" stroke-width="0.627768" stroke-linecap="round" stroke-linejoin="round"/>
<path d="M92.0273 94.0352C92.0273 94.0352 98.9077 121.322 103.963 145.437C106.675 158.369 108.868 170.397 109.186 176.808C109.253 178.164 109.27 179.512 109.186 180.851C109.105 183.297 108.825 185.733 108.349 188.133" stroke="#90BAFF" stroke-width="0.627768" stroke-linecap="round" stroke-linejoin="round"/>
<path d="M103.669 200.145C101.362 203.858 97.9316 206.74 93.8762 208.373C90.0379 209.781 85.8719 210.037 81.89 209.109H81.7645C73.7458 207.377 68.958 198.446 66.0117 188.234C67.3325 189.724 68.7531 191.122 70.2638 192.419C73.8628 195.591 77.983 198.117 82.4424 199.885C90.2937 202.982 98.0948 202.991 103.669 200.145Z" fill="#90BAFF"/>
</svg>
