<svg width="229" height="226" viewBox="0 0 229 226" fill="none" xmlns="http://www.w3.org/2000/svg">
<path d="M20.5428 99.5896C20.0237 93.6833 46.0827 82.5053 50.3625 91.1339L41.8953 99.5896C41.8953 99.5896 24.2804 106.546 20.5428 99.5896Z" fill="#91BAFF"/>
<path d="M33.3146 57.3917C29.5079 45.6254 29.2425 44.1834 31.7689 43.2721C34.2952 42.3608 40.732 55.7652 41.4588 57.3917C44.0039 62.5403 45.9656 67.9573 47.3074 73.5417C48.4609 78.7558 49.9029 90.7759 50.1451 93.6713C51.1372 105.888 30.996 109.591 30.1193 100.097C29.2425 90.6029 29.1503 87.5228 29.1503 87.5228C29.1503 87.5228 18.7682 88.5149 17.3031 80.7399C16.3885 74.6598 16.0371 68.5083 16.2534 62.3636C16.2534 62.3636 0.449562 59.745 1.01481 55.5806C1.58006 51.4163 32.4956 59.8373 32.4956 59.8373L33.3146 57.3917Z" fill="#FFC5A4"/>
<path d="M16.2534 62.3636C16.2534 62.3636 0.449562 59.745 1.01481 55.5806C1.58006 51.4163 32.4956 59.8373 32.4956 59.8373L33.3146 57.3917C29.5079 45.6254 29.2425 44.1834 31.7689 43.2721C34.2952 42.3608 40.732 55.7652 41.4588 57.3917" stroke="#DD9378" stroke-width="0.703675" stroke-linecap="round" stroke-linejoin="round"/>
<path d="M32.4726 59.8373C31.1345 65.0361 31.3633 70.5144 33.1301 75.5835" stroke="#DD9378" stroke-width="0.703675" stroke-linecap="round" stroke-linejoin="round"/>
<path d="M25.0668 50.828C27.547 52.12 29.4965 52.3969 30.2348 48.867C30.9731 45.3371 27.547 45.2217 26.3934 45.4063C24.6285 45.6947 24.0056 50.2628 25.0668 50.828Z" fill="#683F1D"/>
<path d="M25.5634 49.9051C25.0096 51.7969 24.6059 54.1617 24.6174 54.0925C25.0327 54.3002 27.4091 55.1192 27.7782 54.3002C28.1497 52.8569 28.4119 51.3877 28.5626 49.9051H25.5634Z" fill="#683F1D"/>
<path d="M23.3239 55.2692C22.0204 61.037 15.3297 92.8293 15.1105 93.8675C14.8914 94.9057 15.1797 99.7045 15.595 99.8891C16.0103 100.074 18.3174 96.636 19.1826 94.8941C20.0478 93.1523 27.546 58.3031 28.0189 56.6765C29.1725 52.7198 24.1775 51.4855 23.3239 55.2692Z" fill="#683F1D"/>
<path d="M17.4288 73.2996C14.1872 74.0494 13.2644 77.1409 15.6638 79.1943C18.2362 81.3976 24.5693 80.3478 24.8923 77.5908C25.2153 74.8338 20.1281 72.6766 17.4288 73.2996Z" fill="#FFC5A4" stroke="#DD9378" stroke-width="0.703675" stroke-linecap="round" stroke-linejoin="round"/>
<path d="M17.1635 68.2237C13.8412 67.7392 13.0222 71.0269 15.3985 73.6224C17.7749 76.2179 25.6076 76.7485 26.0459 73.7147C26.4843 70.6808 19.1822 68.5236 17.1635 68.2237Z" fill="#FFC5A4" stroke="#DD9378" stroke-width="0.703675" stroke-linecap="round" stroke-linejoin="round"/>
<path d="M14.1988 62.548C18.3747 61.556 27.4187 67.6929 27.061 69.5963C26.6227 71.9842 22.366 72.3533 16.3098 69.7809C10.6343 67.3815 12.1455 63.0325 14.1988 62.548Z" fill="#FFC5A4" stroke="#DD9378" stroke-width="0.703675" stroke-linecap="round" stroke-linejoin="round"/>
<path d="M215.335 108.609C202.369 107.975 191.629 119.683 188.307 133.122C188.203 133.491 188.122 133.907 188.042 134.345C187.684 136.415 187.438 138.502 187.303 140.597C185.919 158.339 190.349 239.336 190.429 240.121C190.487 240.409 181.201 240.121 168.454 239.521C163.748 239.302 158.545 239.059 153.146 238.782C125.645 237.433 87.8891 236.5 87.8891 236.5V167.891C87.8891 167.891 83.7709 174.812 69.7089 188.436C55.647 202.059 33.1409 194.446 35.5634 177.362C37.0746 166.633 43.4192 158.778 51.0904 145.65C53.3975 141.578 55.9584 137.01 58.4847 131.692C61.8416 124.621 65.1177 117.849 68.2439 111.77C69.6166 109.082 70.9663 106.533 72.2698 104.122C77.2071 95.0201 81.6368 88.1217 85.2013 84.9033C95.9179 75.2133 118.862 80.7966 124.976 82.7577C134.101 85.7234 143.568 87.5068 153.146 88.0641C166.712 89.01 187.303 94.8586 198.216 98.6538C204.523 100.766 210.33 104.151 215.277 108.598L215.335 108.609Z" fill="#D5E4FF"/>
<path d="M224.456 128.75C212.586 116.834 194.556 111.631 176.468 127.758C155.427 146.504 139.277 149.757 115.606 122.383C98.4869 102.587 92.5345 97.5348 72.3125 104.122C77.2498 95.0201 81.6795 88.1217 85.244 84.9033C95.9606 75.2133 118.905 80.7966 125.019 82.7577C134.143 85.7234 143.611 87.5068 153.189 88.0641C166.755 89.01 187.346 94.8586 198.259 98.6538C204.566 100.766 210.373 104.151 215.32 108.598C219.992 112.335 222.76 119.822 224.456 128.75Z" fill="#D5E4FF"/>
<path d="M67.9207 162.815C60.3879 171.017 53.5588 153.218 51.1133 145.65C53.4204 141.578 55.9813 137.01 58.5076 131.692C61.8645 124.621 65.1406 117.849 68.2668 111.77C73.8385 120.295 66.3057 128.105 65.7751 131.969C64.46 142.282 78.7873 151.037 67.9207 162.815Z" fill="#91BAFF"/>
<path d="M20.543 99.5882C32.217 102.045 50.3626 91.1326 50.3626 91.1326C50.3626 91.1326 60.364 135.764 62.9711 145.662C65.5781 155.559 82.2818 194.33 49.7397 195.922C28.8602 196.938 27.4528 157.243 26.23 144.173C25.0073 131.104 20.543 99.5882 20.543 99.5882Z" fill="#D5E4FF"/>
<path d="M28.2852 104.687C37.2714 105.322 47.2844 99.2769 47.2844 99.2769" stroke="#91BAFF" stroke-width="0.703675" stroke-linecap="round" stroke-linejoin="round"/>
<path d="M50.3633 91.1326C50.3633 91.1326 60.3647 135.764 62.9717 145.662C64.4022 151.06 70.02 165.053 69.5471 176.912" stroke="#91BAFF" stroke-width="0.703675" stroke-linecap="round" stroke-linejoin="round"/>
<path d="M115.609 90.0487C121.377 100.858 136.881 111.24 155.523 96.9009C155.523 96.9009 157.53 90.9485 157.322 90.9485C157.115 90.9485 118.251 86.2419 118.251 86.2419L115.609 90.0487Z" fill="white"/>
<path d="M130.95 76.6442C126.151 75.5599 119.183 76.7711 114.384 84.1424C109.586 91.5137 108.974 97.6045 109.251 97.5353C109.528 97.4661 116.761 92.921 120.072 93.2094C123.643 93.8163 127.172 94.6485 130.638 95.7011L130.95 76.6442Z" fill="#C460C0"/>
<path d="M152.591 78.8013C152.591 78.8013 163.204 78.8705 164.635 86.311C166.065 93.7515 162.131 102.669 157.321 106.798C152.511 110.928 155.164 100.846 137.918 96.1163L152.591 78.8013Z" fill="#C460C0"/>
<path d="M157.77 87.4993C157.77 87.4993 151.875 96.4625 138.736 96.6701C125.597 96.8777 123.07 89.0335 123.07 89.0335C124.489 85.4805 126.208 77.9016 127.304 72.5837C127.996 69.2268 128.457 66.8159 128.457 66.8159C128.457 66.8159 130.626 45.7748 153.19 47.0438L153.571 50.5045L157.77 87.4993Z" fill="#FFC5A4"/>
<path d="M127.305 72.7456C127.997 69.3887 128.458 66.9778 128.458 66.9778L141.297 60.9562C141.297 60.9562 143.328 75.618 127.305 72.7456Z" fill="#DD9378"/>
<path d="M87.9244 167.891C86.1133 147.127 86.1133 130.377 86.1133 130.377" stroke="#91BAFF" stroke-width="0.703675" stroke-linecap="round" stroke-linejoin="round"/>
<path d="M173.647 218.291C172.546 217.888 171.497 217.358 170.52 216.711C163.945 212.373 163.38 203.918 165.375 193.847C166.921 186.13 169.99 177.466 172.954 168.976C176.346 159.298 179.668 149.85 180.603 142.294C180.741 141.233 180.822 140.218 180.856 139.249C181.027 133.445 182.089 127.703 184.006 122.222C189.427 106.961 201.309 97.3514 215.325 108.599C219.939 112.325 222.754 119.811 224.45 128.74C225.061 131.924 225.534 135.292 225.926 138.73C227.218 150.415 227.391 162.955 227.968 172.333C230.794 217.668 219.939 235.756 173.647 218.291Z" fill="#D5E4FF"/>
<path d="M224.463 128.751C214.254 118.496 199.454 113.213 184.008 122.222C189.43 106.961 201.311 97.3514 215.327 108.599C219.999 112.336 222.768 119.823 224.463 128.751Z" fill="#D5E4FF"/>
<path d="M187.351 194.447C187.409 194.735 178.123 194.447 165.376 193.847C160.67 193.628 155.467 193.385 150.068 193.109C140.84 188.944 135.072 182.923 139.998 174.294C153.402 150.842 178.065 183.338 179.311 160.082C180.176 144.151 184.041 140.702 187.305 140.598C185.921 158.34 187.225 193.639 187.351 194.447Z" fill="#91BAFF"/>
<path d="M190.501 126.202C188.668 130.798 187.589 135.659 187.305 140.599C186.071 158.352 187.225 193.663 187.305 194.447" stroke="#91BAFF" stroke-width="0.703675" stroke-linecap="round" stroke-linejoin="round"/>
<path d="M173.646 218.291C172.545 217.888 171.496 217.358 170.52 216.711C181.121 219.018 196.971 221.037 203.973 215.073C214.989 205.694 207.987 193.674 214.078 187.053C220.169 180.431 228.948 178.297 225.937 138.776C227.229 150.462 227.402 163.001 227.979 172.379C230.793 217.668 219.938 235.756 173.646 218.291Z" fill="#91BAFF"/>
<path d="M147.112 138.753C148.797 131.174 139.291 131.52 139.291 131.52C140.133 124.53 130.882 122.603 128.748 129.409C121.238 127.102 118.862 129.409 117.766 133.366L147.112 138.753Z" fill="#6CA1FF"/>
<path d="M134.296 132.247C135.539 132.247 136.546 131.24 136.546 129.997C136.546 128.755 135.539 127.748 134.296 127.748C133.054 127.748 132.047 128.755 132.047 129.997C132.047 131.24 133.054 132.247 134.296 132.247Z" fill="#F9F9F9" stroke="#6CA1FF" stroke-width="0.945923" stroke-linecap="round" stroke-linejoin="round"/>
<path d="M103.484 127.759L89.457 203.825L145.163 215.072L160.124 138.903L103.484 127.759Z" fill="#F9F9F9" stroke="#6CA1FF" stroke-width="0.945923" stroke-linecap="round" stroke-linejoin="round"/>
<path d="M120.648 178.158C117.799 185.564 117.637 193.339 118.941 195.946C118.941 195.946 124.259 196.927 129.565 182.519L120.648 178.158Z" fill="#91BAFF"/>
<path d="M127.906 163.877C115.159 159.505 109.068 156.852 106.773 156.229C104.477 155.606 96.1832 154.914 94.8566 156.229C94.2712 156.859 93.8711 157.638 93.7001 158.481C93.5291 159.324 93.594 160.197 93.8876 161.005C94.3259 162.77 92.9186 164.051 92.734 165.839C92.5494 167.627 94.6835 168.146 94.2336 169.922C93.7838 171.699 92.3879 173.625 93.3569 175.575C94.3259 177.524 92.3879 179.543 94.2336 181.931C96.0793 184.319 114.871 185.461 118.989 184.584L127.064 188.195C127.064 188.195 141.311 173.51 127.906 163.877Z" fill="#FFC5A4"/>
<path d="M106.726 156.194C104.419 155.583 96.1363 154.879 94.8097 156.194C94.2244 156.824 93.8242 157.603 93.6532 158.446C93.4822 159.288 93.5471 160.162 93.8407 160.97C94.2791 162.735 92.8717 164.015 92.6871 165.803C92.5026 167.591 94.6367 168.111 94.1868 169.887C93.7369 171.664 92.3411 173.59 93.31 175.54C94.279 177.489 92.3411 179.508 94.1868 181.896" stroke="#DD9378" stroke-width="0.703675" stroke-linecap="round" stroke-linejoin="round"/>
<path d="M204.041 215.072C200.73 221.059 192.425 223.955 176.678 219.19C172.422 217.91 168.315 216.572 164.393 215.222C157.887 212.996 151.888 210.712 146.513 208.531C137.138 204.803 127.959 200.598 119.012 195.935C121.37 193.313 123.273 190.314 124.641 187.064C125.501 185.134 126.207 183.14 126.752 181.1C128.223 175.456 128.614 169.585 127.906 163.796C130.051 164.442 132.358 165.096 134.827 165.757C140.699 167.361 147.274 169.033 153.942 170.787C173.921 176.047 194.697 182.08 199.761 189.578C200.223 190.259 200.661 190.963 201.076 191.678C201.238 191.955 201.411 192.243 201.561 192.532C201.607 192.606 201.65 192.683 201.688 192.762C201.872 193.097 202.057 193.454 202.23 193.8C202.545 194.408 202.834 195.019 203.095 195.635C205.991 202.498 206.833 209.927 204.041 215.072Z" fill="#D5E4FF"/>
<path d="M127.906 163.877C150.781 170.799 192.264 178.631 199.716 189.659C201.003 191.576 202.119 193.602 203.049 195.716" stroke="#91BAFF" stroke-width="0.703675" stroke-linecap="round" stroke-linejoin="round"/>
<path d="M134.733 165.804C136.152 180.142 128.746 193.904 128.746 193.904" stroke="#91BAFF" stroke-width="0.703675" stroke-linecap="round" stroke-linejoin="round"/>
<path d="M203.972 215.072C200.662 221.059 192.356 223.955 176.61 219.191C172.353 217.91 168.246 216.572 164.324 215.222C173.541 217.656 195.39 222.386 203.972 215.072Z" fill="#91BAFF"/>
<path d="M153.192 47.1714L153.585 50.6321C145.59 63.0791 134.678 66.9781 128.46 66.9781C118.193 64.4172 114.686 55.1771 114.087 45.268C113.932 42.8944 113.925 40.5135 114.064 38.139C114.547 31.4143 115.706 24.7553 117.524 18.2631C117.524 18.2631 148.359 3.91271 150.493 32.7172C150.493 32.7172 157.103 31.5637 158.337 38.8657C159.295 44.9335 153.192 47.1714 153.192 47.1714Z" fill="#FFC5A4"/>
<path d="M119.012 38.1736C119.693 38.1736 120.246 37.621 120.246 36.9393C120.246 36.2576 119.693 35.705 119.012 35.705C118.33 35.705 117.777 36.2576 117.777 36.9393C117.777 37.621 118.33 38.1736 119.012 38.1736Z" fill="#683F1D"/>
<path d="M127.594 36.6046C128.275 36.6046 128.828 36.0519 128.828 35.3702C128.828 34.6885 128.275 34.1359 127.594 34.1359C126.912 34.1359 126.359 34.6885 126.359 35.3702C126.359 36.0519 126.912 36.6046 127.594 36.6046Z" fill="#683F1D"/>
<path d="M125.716 28.7491C125.855 30.4218 131.6 31.0562 131.923 30.1218C132.419 28.6799 125.416 24.8039 125.716 28.7491Z" fill="#28426C"/>
<path d="M114.77 31.2173C114.77 32.1286 121.022 32.5554 120.791 29.3255C120.641 27.0299 114.908 28.7256 114.77 31.2173Z" fill="#28426C"/>
<path d="M148.82 41.8188C151.393 38.012 155.465 38.4273 155.892 39.1541" stroke="#DD9378" stroke-width="0.703675" stroke-linecap="round" stroke-linejoin="round"/>
<path d="M149.918 40.5148C153.713 38.2885 155.778 43.2834 150.979 43.2834" stroke="#DD9378" stroke-width="0.703675" stroke-linecap="round" stroke-linejoin="round"/>
<path d="M122.336 33.3634C123.375 35.3821 123.294 36.5934 122.602 37.8969C121.91 39.2004 119.822 42.142 120.918 44.7491" stroke="#DD9378" stroke-width="0.703675" stroke-linecap="round" stroke-linejoin="round"/>
<path d="M129.059 45.1985C128.147 48.3246 124.444 50.2857 122.656 49.882C122.656 49.882 124.444 54.7385 127.594 53.4926C131.216 52.0737 129.059 45.1985 129.059 45.1985Z" fill="white" stroke="#DD9378" stroke-width="0.703675" stroke-linecap="round" stroke-linejoin="round"/>
<path d="M148.254 46.2714C148.967 46.7614 149.775 47.095 150.626 47.2501C151.477 47.4052 152.351 47.3783 153.191 47.1711" stroke="#DD9378" stroke-width="0.703675" stroke-linecap="round" stroke-linejoin="round"/>
<path d="M159.456 29.741C163.009 34.609 157.68 36.6624 157.68 36.6624C157.135 35.8824 156.422 35.2357 155.592 34.7705C155.068 34.4624 154.481 34.275 153.875 34.2219C153.27 34.1687 152.659 34.2512 152.089 34.4633C151.519 34.6754 151.004 35.0118 150.58 35.448C150.156 35.8843 149.835 36.4094 149.64 36.9854C142.384 37.1353 145.51 31.4713 145.51 31.4713C139.004 34.0668 138.796 27.4108 141.599 24.4C136.524 30.0986 130.064 24.4 131.125 19.2666C129.325 24.8729 122.923 25.0344 123.777 20.4202C123.227 21.379 122.56 22.2663 121.793 23.0618C117.386 27.48 113.452 22.7504 115.102 19.2551C108.504 25.542 105.643 18.5052 111.941 14.7216C106.958 10.6379 112.841 4.82397 116.867 7.80017C115.956 0.567316 123.408 0.244317 126.684 4.46636C127.976 -3.4817 137.919 0.855706 138.323 4.62786C145.648 -0.493964 151.324 3.28973 150.586 11.6069C153.55 7.6502 159.895 9.96887 157.507 20.1202C163.54 19.6819 164.59 27.2608 159.456 29.741Z" fill="#28426C"/>
<path d="M155.592 34.771C155.068 34.4629 154.482 34.2755 153.876 34.2223C153.27 34.1692 152.66 34.2516 152.09 34.4637C151.52 34.6758 151.004 35.0122 150.58 35.4485C150.157 35.8847 149.835 36.4099 149.64 36.9858C142.384 37.1358 145.51 31.4718 145.51 31.4718C139.004 34.0673 138.796 27.4112 141.6 24.4004C136.524 30.099 130.064 24.4004 131.125 19.267C129.326 24.8734 122.923 25.0349 123.777 20.4206C123.227 21.3795 122.561 22.2668 121.793 23.0623C120.016 17.6751 123.996 10.5692 130.076 13.8338C130.871 9.50789 140.815 6.70473 140.758 17.6636C144.437 12.5187 152.766 14.2836 148.832 24.0774C151.924 21.6319 159.053 25.6463 155.592 34.771Z" fill="#28426C"/>
<path d="M142.244 36.6737C143.121 38.4271 141.471 41.0341 138.552 42.4992C135.634 43.9642 132.554 43.6527 131.631 41.957C130.708 40.2612 132.404 37.5965 135.322 36.1315C138.241 34.6665 141.356 34.9202 142.244 36.6737Z" fill="#DD9378"/>
<path d="M117.915 43.3533C117.465 44.5991 115.942 45.2682 114.062 45.2336C113.917 42.871 113.917 40.5017 114.062 38.1392C116.854 39.3619 118.561 41.5999 117.915 43.3533Z" fill="#DD9378"/>
</svg>
