
<svg width="230" height="223" viewBox="0 0 230 223" fill="none" xmlns="http://www.w3.org/2000/svg">
    <g filter="url(#filter0_dd_2401_31604)">
        <circle r="10.7614" transform="matrix(-0.892078 -0.451882 -0.451882 0.892078 61.9708 188.665)" fill="url(#paint0_linear_2401_31604)" shape-rendering="crispEdges"/>
    </g>
    <g filter="url(#filter1_dd_2401_31604)">
        <circle r="7.96136" transform="matrix(-0.892078 -0.451882 -0.451882 0.892078 48.2143 143.195)" fill="url(#paint1_linear_2401_31604)" shape-rendering="crispEdges"/>
    </g>
    <circle r="80.7947" transform="matrix(-0.892078 -0.451882 -0.451882 0.892078 121.345 108.585)" fill="url(#paint2_radial_2401_31604)" fill-opacity="0.6"/>
    <g filter="url(#filter2_d_2401_31604)">
        <ellipse rx="48.4082" ry="30.3264" transform="matrix(-0.892078 -0.451882 -0.451882 0.892078 98.3309 117.243)" fill="url(#paint3_linear_2401_31604)" fill-opacity="0.5" shape-rendering="crispEdges"/>
        <path d="M55.5669 95.5812C51.8822 102.855 53.2219 111.888 58.5083 120.662C63.7907 129.43 72.981 137.87 84.8396 143.877C96.6982 149.884 108.94 152.3 119.134 151.372C129.335 150.444 137.41 146.18 141.095 138.906C144.78 131.631 143.44 122.598 138.154 113.824C132.871 105.057 123.681 96.6167 111.822 90.6097C99.9636 84.6027 87.7218 82.1865 77.5282 83.1145C67.3269 84.0432 59.2516 88.3071 55.5669 95.5812Z" stroke="url(#paint4_linear_2401_31604)" stroke-opacity="0.6" stroke-width="0.941174" shape-rendering="crispEdges"/>
    </g>
    <circle r="61.4135" transform="matrix(-0.892078 -0.451882 -0.451882 0.892078 111.107 92.0173)" fill="url(#paint5_radial_2401_31604)"/>
    <ellipse rx="60.042" ry="35.1257" transform="matrix(-0.892078 -0.451882 -0.451882 0.892078 106.522 101.076)" fill="url(#paint6_linear_2401_31604)" fill-opacity="0.5"/>
    <path d="M53.38 74.1565C49.1036 82.5987 51.0452 93.2831 57.82 103.793C64.5877 114.291 76.1326 124.53 90.8622 131.991C105.592 139.452 120.676 142.703 133.144 141.948C145.625 141.193 155.388 136.437 159.665 127.995C163.941 119.553 161.999 108.868 155.225 98.3588C148.457 87.8602 136.912 77.622 122.182 70.1607C107.453 62.6994 92.3684 59.4485 79.9003 60.2032C67.4191 60.9587 57.6564 65.7143 53.38 74.1565Z" stroke="url(#paint7_linear_2401_31604)" stroke-opacity="0.6" stroke-width="0.941174"/>
    <circle r="45.4902" transform="matrix(-0.892078 -0.451882 -0.451882 0.892078 111.109 92.017)" fill="url(#paint8_radial_2401_31604)"/>
    <circle r="45.4902" transform="matrix(-0.892078 -0.451882 -0.451882 0.892078 111.109 92.017)" fill="url(#paint9_radial_2401_31604)"/>
    <g filter="url(#filter3_d_2401_31604)">
        <ellipse rx="59.4313" ry="34.3134" transform="matrix(-0.892078 -0.451882 -0.451882 0.892078 116.376 81.6215)" fill="url(#paint10_linear_2401_31604)" fill-opacity="0.5" shape-rendering="crispEdges"/>
        <path d="M63.7781 54.9782C59.6044 63.2175 61.5732 73.6884 68.3166 84.0189C75.0521 94.3374 86.5025 104.426 101.083 111.812C115.663 119.197 130.571 122.46 142.875 121.786C155.193 121.111 164.799 116.504 168.973 108.265C173.147 100.025 171.178 89.5546 164.434 79.224C157.699 68.9055 146.249 58.8166 131.669 51.4311C117.088 44.0455 102.18 40.7825 89.8765 41.4566C77.5583 42.1315 67.9517 46.7389 63.7781 54.9782Z" stroke="url(#paint11_linear_2401_31604)" stroke-opacity="0.6" stroke-width="0.941174" shape-rendering="crispEdges"/>
    </g>
    <g filter="url(#filter4_d_2401_31604)">
        <ellipse rx="46.1169" ry="29.8088" transform="matrix(-0.892078 -0.451882 -0.451882 0.892078 124.382 65.8153)" fill="url(#paint12_linear_2401_31604)" fill-opacity="0.5" shape-rendering="crispEdges"/>
        <path d="M83.6622 45.1885C80.0389 52.3414 81.2156 61.1466 86.1737 69.6456C91.1289 78.1398 99.8332 86.2674 111.125 91.9872C122.417 97.707 134.119 99.9163 143.898 98.8862C153.684 97.8554 161.479 93.595 165.102 86.4421C168.726 79.2891 167.549 70.4839 162.591 61.9849C157.636 53.4908 148.931 45.3632 137.64 39.6434C126.348 33.9235 114.646 31.7143 104.866 32.7444C95.0807 33.7751 87.2855 38.0356 83.6622 45.1885Z" stroke="url(#paint13_linear_2401_31604)" stroke-opacity="0.6" stroke-width="0.941174" shape-rendering="crispEdges"/>
    </g>
    <ellipse rx="28.7043" ry="19.4553" transform="matrix(-0.892078 -0.451882 -0.451882 0.892078 129.059 56.579)" fill="url(#paint14_linear_2401_31604)" fill-opacity="0.5"/>
    <path d="M103.872 43.8206C101.536 48.4324 102.155 54.0531 105.148 59.4511C108.139 64.8465 113.482 69.9698 120.48 73.5147C127.479 77.0597 134.77 78.3363 140.89 77.5563C147.012 76.7758 151.91 73.9491 154.246 69.3373C156.582 64.7255 155.964 59.1048 152.971 53.7068C149.979 48.3114 144.636 43.1882 137.638 39.6432C130.64 36.0982 123.348 34.8216 117.229 35.6016C111.106 36.3821 106.208 39.2088 103.872 43.8206Z" stroke="url(#paint15_linear_2401_31604)" stroke-opacity="0.6" stroke-width="0.941174"/>
    <ellipse rx="16.6184" ry="11.4345" transform="matrix(-0.892078 -0.451882 -0.451882 0.892078 132.063 50.654)" fill="url(#paint16_linear_2401_31604)" fill-opacity="0.5"/>
    <path d="M117.658 43.3571C116.321 45.996 116.642 49.2182 118.339 52.3315C120.036 55.4426 123.089 58.3985 127.108 60.4347C131.128 62.4709 135.317 63.1833 138.829 62.7106C142.344 62.2375 145.131 60.5899 146.468 57.951C147.805 55.3121 147.484 52.0899 145.786 48.9766C144.089 45.8655 141.037 42.9096 137.017 40.8734C132.997 38.8372 128.808 38.1248 125.296 38.5975C121.782 39.0706 118.994 40.7182 117.658 43.3571Z" stroke="url(#paint17_linear_2401_31604)" stroke-opacity="0.6" stroke-width="0.941174"/>
    <circle r="61.4135" transform="matrix(-0.892078 -0.451882 -0.451882 0.892078 111.107 92.0173)" fill="url(#paint18_radial_2401_31604)" fill-opacity="0.3"/>
    <defs>
        <filter id="filter0_dd_2401_31604" x="18.2659" y="143.078" width="87.4095" height="87.4095" filterUnits="userSpaceOnUse" color-interpolation-filters="sRGB">
            <feFlood flood-opacity="0" result="BackgroundImageFix"/>
            <feColorMatrix in="SourceAlpha" type="matrix" values="0 0 0 0 0 0 0 0 0 0 0 0 0 0 0 0 0 0 127 0" result="hardAlpha"/>
            <feOffset dy="-1.88235"/>
            <feGaussianBlur stdDeviation="16.4705"/>
            <feComposite in2="hardAlpha" operator="out"/>
            <feColorMatrix type="matrix" values="0 0 0 0 0.371081 0 0 0 0 0.235903 0 0 0 0 0.658333 0 0 0 1 0"/>
            <feBlend mode="normal" in2="BackgroundImageFix" result="effect1_dropShadow_2401_31604"/>
            <feColorMatrix in="SourceAlpha" type="matrix" values="0 0 0 0 0 0 0 0 0 0 0 0 0 0 0 0 0 0 127 0" result="hardAlpha"/>
            <feOffset dy="-1.88235"/>
            <feGaussianBlur stdDeviation="9.41174"/>
            <feComposite in2="hardAlpha" operator="out"/>
            <feColorMatrix type="matrix" values="0 0 0 0 0.48825 0 0 0 0 0.372778 0 0 0 0 0.733333 0 0 0 1 0"/>
            <feBlend mode="normal" in2="effect1_dropShadow_2401_31604" result="effect2_dropShadow_2401_31604"/>
            <feBlend mode="normal" in="SourceGraphic" in2="effect2_dropShadow_2401_31604" result="shape"/>
        </filter>
        <filter id="filter1_dd_2401_31604" x="7.30891" y="100.409" width="81.808" height="81.8082" filterUnits="userSpaceOnUse" color-interpolation-filters="sRGB">
            <feFlood flood-opacity="0" result="BackgroundImageFix"/>
            <feColorMatrix in="SourceAlpha" type="matrix" values="0 0 0 0 0 0 0 0 0 0 0 0 0 0 0 0 0 0 127 0" result="hardAlpha"/>
            <feOffset dy="-1.88235"/>
            <feGaussianBlur stdDeviation="16.4705"/>
            <feComposite in2="hardAlpha" operator="out"/>
            <feColorMatrix type="matrix" values="0 0 0 0 0.371081 0 0 0 0 0.235903 0 0 0 0 0.658333 0 0 0 1 0"/>
            <feBlend mode="normal" in2="BackgroundImageFix" result="effect1_dropShadow_2401_31604"/>
            <feColorMatrix in="SourceAlpha" type="matrix" values="0 0 0 0 0 0 0 0 0 0 0 0 0 0 0 0 0 0 127 0" result="hardAlpha"/>
            <feOffset dy="-1.88235"/>
            <feGaussianBlur stdDeviation="9.41174"/>
            <feComposite in2="hardAlpha" operator="out"/>
            <feColorMatrix type="matrix" values="0 0 0 0 0.48825 0 0 0 0 0.372778 0 0 0 0 0.733333 0 0 0 1 0"/>
            <feBlend mode="normal" in2="effect1_dropShadow_2401_31604" result="effect2_dropShadow_2401_31604"/>
            <feBlend mode="normal" in="SourceGraphic" in2="effect2_dropShadow_2401_31604" result="shape"/>
        </filter>
        <filter id="filter2_d_2401_31604" x="43.6" y="73.9809" width="109.46" height="88.4075" filterUnits="userSpaceOnUse" color-interpolation-filters="sRGB">
            <feFlood flood-opacity="0" result="BackgroundImageFix"/>
            <feColorMatrix in="SourceAlpha" type="matrix" values="0 0 0 0 0 0 0 0 0 0 0 0 0 0 0 0 0 0 127 0" result="hardAlpha"/>
            <feOffset dy="0.941174"/>
            <feGaussianBlur stdDeviation="4.70587"/>
            <feComposite in2="hardAlpha" operator="out"/>
            <feColorMatrix type="matrix" values="0 0 0 0 0.440043 0 0 0 0 0.20092 0 0 0 0 0.679167 0 0 0 0.3 0"/>
            <feBlend mode="normal" in2="BackgroundImageFix" result="effect1_dropShadow_2401_31604"/>
            <feBlend mode="normal" in="SourceGraphic" in2="effect1_dropShadow_2401_31604" result="shape"/>
        </filter>
        <filter id="filter3_d_2401_31604" x="56.4152" y="37.135" width="119.92" height="90.8553" filterUnits="userSpaceOnUse" color-interpolation-filters="sRGB">
            <feFlood flood-opacity="0" result="BackgroundImageFix"/>
            <feColorMatrix in="SourceAlpha" type="matrix" values="0 0 0 0 0 0 0 0 0 0 0 0 0 0 0 0 0 0 127 0" result="hardAlpha"/>
            <feOffset dy="0.941174"/>
            <feGaussianBlur stdDeviation="2.35293"/>
            <feComposite in2="hardAlpha" operator="out"/>
            <feColorMatrix type="matrix" values="0 0 0 0 0.369333 0 0 0 0 0.0916667 0 0 0 0 0.5 0 0 0 0.15 0"/>
            <feBlend mode="normal" in2="BackgroundImageFix" result="effect1_dropShadow_2401_31604"/>
            <feBlend mode="normal" in="SourceGraphic" in2="effect1_dropShadow_2401_31604" result="shape"/>
        </filter>
        <filter id="filter4_d_2401_31604" x="74.9644" y="25.9117" width="100.719" height="81.6896" filterUnits="userSpaceOnUse" color-interpolation-filters="sRGB">
            <feFlood flood-opacity="0" result="BackgroundImageFix"/>
            <feColorMatrix in="SourceAlpha" type="matrix" values="0 0 0 0 0 0 0 0 0 0 0 0 0 0 0 0 0 0 127 0" result="hardAlpha"/>
            <feOffset dx="0.941174" dy="0.941174"/>
            <feGaussianBlur stdDeviation="3.5294"/>
            <feComposite in2="hardAlpha" operator="out"/>
            <feColorMatrix type="matrix" values="0 0 0 0 0.440043 0 0 0 0 0.20092 0 0 0 0 0.679167 0 0 0 0.2 0"/>
            <feBlend mode="normal" in2="BackgroundImageFix" result="effect1_dropShadow_2401_31604"/>
            <feBlend mode="normal" in="SourceGraphic" in2="effect1_dropShadow_2401_31604" result="shape"/>
        </filter>
        <linearGradient id="paint0_linear_2401_31604" x1="10.7614" y1="-4.67885" x2="10.7614" y2="33.0639" gradientUnits="userSpaceOnUse">
            <stop stop-color="white"/>
            <stop offset="0.223958" stop-color="#6BE4FF"/>
            <stop offset="0.623188" stop-color="#371B73" stop-opacity="0.6"/>
            <stop offset="1" stop-color="#0A1153" stop-opacity="0.4"/>
        </linearGradient>
        <linearGradient id="paint1_linear_2401_31604" x1="7.96136" y1="-3.46146" x2="7.96136" y2="24.461" gradientUnits="userSpaceOnUse">
            <stop stop-color="white"/>
            <stop offset="0.223958" stop-color="#6BE4FF"/>
            <stop offset="0.623188" stop-color="#371B73" stop-opacity="0.6"/>
            <stop offset="1" stop-color="#0A1153" stop-opacity="0.4"/>
        </linearGradient>
        <radialGradient id="paint2_radial_2401_31604" cx="0" cy="0" r="1" gradientUnits="userSpaceOnUse" gradientTransform="translate(80.7947 80.7947) rotate(90) scale(80.7947)">
            <stop stop-color="#FF65C1"/>
            <stop offset="1" stop-color="#FF65C1" stop-opacity="0"/>
        </radialGradient>
        <linearGradient id="paint3_linear_2401_31604" x1="48.4082" y1="0" x2="48.4082" y2="60.6528" gradientUnits="userSpaceOnUse">
            <stop stop-color="#13154D"/>
            <stop offset="1" stop-color="#8E92EE" stop-opacity="0"/>
        </linearGradient>
        <linearGradient id="paint4_linear_2401_31604" x1="75.1554" y1="109.79" x2="58.8863" y2="135.844" gradientUnits="userSpaceOnUse">
            <stop stop-color="white" stop-opacity="0"/>
            <stop offset="1" stop-color="white"/>
        </linearGradient>
        <radialGradient id="paint5_radial_2401_31604" cx="0" cy="0" r="1" gradientUnits="userSpaceOnUse" gradientTransform="translate(4.66635e-06 83.754) rotate(-19.6638) scale(130.433)">
            <stop offset="0.249306" stop-color="white"/>
            <stop offset="0.48315" stop-color="#FF8FED" stop-opacity="0.5"/>
            <stop offset="0.627037" stop-color="#220C7A" stop-opacity="0.5"/>
        </radialGradient>
        <linearGradient id="paint6_linear_2401_31604" x1="4.89977" y1="42.591" x2="118.701" y2="29.746" gradientUnits="userSpaceOnUse">
            <stop stop-color="white"/>
            <stop offset="1" stop-color="#12178E" stop-opacity="0.4"/>
        </linearGradient>
        <linearGradient id="paint7_linear_2401_31604" x1="75.4183" y1="141.383" x2="111.21" y2="110.928" gradientUnits="userSpaceOnUse">
            <stop offset="0.0011346" stop-color="white"/>
            <stop offset="1" stop-color="white" stop-opacity="0"/>
        </linearGradient>
        <radialGradient id="paint8_radial_2401_31604" cx="0" cy="0" r="1" gradientUnits="userSpaceOnUse" gradientTransform="translate(11.0838 68.59) rotate(-14.8494) scale(90.1356)">
            <stop offset="0.239373" stop-color="white"/>
            <stop offset="0.410099" stop-color="#FFCEF1"/>
            <stop offset="0.67492" stop-color="#B6B9FF"/>
            <stop offset="0.861176" stop-color="#FFA8E7"/>
            <stop offset="1" stop-color="white"/>
        </radialGradient>
        <radialGradient id="paint9_radial_2401_31604" cx="0" cy="0" r="1" gradientUnits="userSpaceOnUse" gradientTransform="translate(88.5872 80.6518) rotate(-121.724) scale(51.8284)">
            <stop stop-color="#3F52FF"/>
            <stop offset="1" stop-color="#3F52FF" stop-opacity="0"/>
        </radialGradient>
        <linearGradient id="paint10_linear_2401_31604" x1="1.27979" y1="31.9484" x2="118.862" y2="35.6014" gradientUnits="userSpaceOnUse">
            <stop stop-color="white"/>
            <stop offset="1" stop-color="#5653FF" stop-opacity="0.2"/>
        </linearGradient>
        <linearGradient id="paint11_linear_2401_31604" x1="96.904" y1="137.38" x2="125.493" y2="89.1187" gradientUnits="userSpaceOnUse">
            <stop stop-color="white"/>
            <stop offset="1" stop-color="white" stop-opacity="0"/>
        </linearGradient>
        <linearGradient id="paint12_linear_2401_31604" x1="46.1169" y1="0" x2="46.1169" y2="59.6175" gradientUnits="userSpaceOnUse">
            <stop stop-color="#13154D" stop-opacity="0.5"/>
            <stop offset="1" stop-color="#8E92EE" stop-opacity="0"/>
        </linearGradient>
        <linearGradient id="paint13_linear_2401_31604" x1="97.8729" y1="100.311" x2="122.206" y2="38.7373" gradientUnits="userSpaceOnUse">
            <stop stop-color="white"/>
            <stop offset="1" stop-color="white" stop-opacity="0"/>
        </linearGradient>
        <linearGradient id="paint14_linear_2401_31604" x1="28.7043" y1="0" x2="28.7043" y2="38.9105" gradientUnits="userSpaceOnUse">
            <stop stop-color="#13154D"/>
            <stop offset="1" stop-color="#8E92EE" stop-opacity="0"/>
        </linearGradient>
        <linearGradient id="paint15_linear_2401_31604" x1="97.0862" y1="94.2825" x2="137.851" y2="39.2234" gradientUnits="userSpaceOnUse">
            <stop stop-color="white"/>
            <stop offset="1" stop-color="white" stop-opacity="0"/>
        </linearGradient>
        <linearGradient id="paint16_linear_2401_31604" x1="16.6184" y1="0" x2="16.6184" y2="22.8691" gradientUnits="userSpaceOnUse">
            <stop stop-color="#13154D"/>
            <stop offset="1" stop-color="#8E92EE" stop-opacity="0"/>
        </linearGradient>
        <linearGradient id="paint17_linear_2401_31604" x1="107.995" y1="78.3086" x2="137.23" y2="40.4536" gradientUnits="userSpaceOnUse">
            <stop stop-color="white"/>
            <stop offset="1" stop-color="white" stop-opacity="0"/>
        </linearGradient>
        <radialGradient id="paint18_radial_2401_31604" cx="0" cy="0" r="1" gradientUnits="userSpaceOnUse" gradientTransform="translate(4.66635e-06 83.754) rotate(-19.6638) scale(130.433)">
            <stop offset="0.249306" stop-color="white"/>
            <stop offset="0.48315" stop-color="#FF8FED" stop-opacity="0.5"/>
            <stop offset="0.627037" stop-color="#220C7A" stop-opacity="0"/>
        </radialGradient>
    </defs>
</svg>
