<svg width="555" height="286" viewBox="0 0 555 286" fill="none" xmlns="http://www.w3.org/2000/svg">
    <rect width="3.01585" height="3.01585" transform="matrix(-0.839642 -0.54314 -0.54314 0.839642 172.836 264.069)" fill="white"/>
    <rect width="6.09089" height="6.09089" transform="matrix(-0.839642 -0.54314 -0.54314 0.839642 107.398 245.353)" fill="white"/>
    <rect x="79.8203" y="137.271" width="2.83422" height="2.83422" transform="rotate(32.8977 79.8203 137.271)" fill="white"/>
    <rect width="3.01585" height="3.01585" transform="matrix(-0.839667 -0.543102 -0.543179 0.839617 37.1562 194.264)" fill="white"/>
    <rect width="2.10503" height="2.10503" transform="matrix(-0.839624 -0.543168 -0.543113 0.83966 222.031 257.884)" fill="#0500FF" fill-opacity="0.5"/>
    <rect width="3.92731" height="3.92731" transform="matrix(-0.839652 -0.543126 -0.543155 0.839632 237.711 280.782)" fill="#0500FF" fill-opacity="0.5"/>
    <rect width="6.09089" height="6.09089" transform="matrix(-0.985732 0.168319 0.168319 0.985733 339.602 169.188)" fill="white"/>
    <rect x="246.152" y="108.277" width="2.83422" height="2.83422" transform="rotate(-9.6901 246.152 108.277)" fill="white"/>
    <rect width="3.01585" height="3.01585" transform="matrix(-0.985732 0.168319 0.168319 0.985733 253.309 179.109)" fill="white"/>
    <rect width="3.01585" height="3.01585" transform="matrix(-0.985732 0.168319 0.168319 0.985733 458.773 171.244)" fill="white"/>
    <rect width="3.01585" height="3.01585" transform="matrix(-0.985732 0.168319 0.168319 0.985733 504.32 79.1079)" fill="#0500FF" fill-opacity="0.5"/>
    <rect width="2.10503" height="2.10503" transform="matrix(-0.985735 0.168305 0.168333 0.98573 432.477 100.838)" fill="#0500FF" fill-opacity="0.5"/>
    <rect width="3.92731" height="3.92731" transform="matrix(-0.985732 0.168319 0.168319 0.985733 459.512 107.09)" fill="#0500FF" fill-opacity="0.5"/>
</svg>
