<svg width="24" height="24" viewBox="0 0 24 24" fill="none" xmlns="http://www.w3.org/2000/svg">
<rect width="24" height="24" fill="white"/>
<path d="M10.9492 17.4275C10.9492 17.7536 11.1232 18.055 11.4056 18.218C11.688 18.3811 12.036 18.3811 12.3184 18.218C12.6008 18.055 12.7747 17.7536 12.7747 17.4275C12.7747 16.9234 12.3661 16.5148 11.862 16.5148C11.3579 16.5148 10.9492 16.9234 10.9492 17.4275H10.9492Z" fill="#CBD6E9"/>
<path d="M8.96094 9.48291C9.00367 7.91121 10.11 6.44397 12.1376 6.44397C14.4215 6.44397 15.3549 8.77341 14.9486 10.0432C14.4928 11.4677 11.9666 13.1344 11.8907 14.4782" stroke="#CBD6E9" stroke-width="1.5" stroke-linecap="round" stroke-linejoin="round"/>
<circle cx="12" cy="12.0001" r="10" stroke="#CBD6E9" stroke-width="1.5"/>
</svg>
