<svg width="213" height="322" viewBox="0 0 213 322" fill="none" xmlns="http://www.w3.org/2000/svg">
<path d="M196.606 254.813C198.027 257.441 201.089 255.579 201.089 255.579C201.089 255.579 200.907 254.703 199.558 254.01C198.538 253.463 197.08 253.901 196.533 254.12L194.856 254.083H194.82C194.455 254.12 194.091 254.12 193.69 254.156C198.501 252.441 196.241 246.784 196.241 246.784C196.241 246.784 194.747 246.857 193.143 248.974C191.867 250.689 192.378 253.572 192.523 254.302C190.592 254.594 188.769 255.068 186.983 255.689C187.202 255.47 187.457 255.214 187.675 254.922C189.498 252.733 188.696 248.572 188.696 248.572C182.135 249.412 183.447 255.579 183.848 257.003C181.698 258.024 179.729 259.265 177.907 260.543C178.381 259.922 178.854 258.973 179.183 257.696C180.021 254.594 177.251 250.762 177.251 250.762C170.835 254.813 175.465 260.652 176.339 261.71C175.173 262.586 174.116 263.499 173.168 264.374C172.111 265.323 171.163 266.272 170.289 267.184C170.617 266.309 170.872 264.958 170.617 263.024C170.143 259.557 165.732 256.857 165.732 256.857C161.067 263.499 167.737 267.44 169.304 268.243C166.315 271.491 164.602 274.009 164.602 274.045L165.185 274.447C165.222 274.41 166.315 272.768 168.32 270.433C170.799 278.315 179.328 274.301 179.328 274.301C179.328 274.301 179.11 272.148 175.938 270.068C173.897 268.717 170.872 269.046 169.231 269.411C170.471 268.06 171.929 266.528 173.642 264.995C174.189 264.484 174.808 263.973 175.428 263.462C177.615 270.87 185.561 267.184 185.561 267.184C185.561 267.184 185.379 265.214 182.463 263.28C180.641 262.075 177.943 262.331 176.449 262.659C178.271 261.236 180.385 259.776 182.645 258.535C183.994 265.542 191.466 262.732 191.466 262.732C191.466 262.732 191.43 260.98 188.988 259.046C187.384 257.805 184.832 257.915 183.484 258.097C185.962 256.857 188.66 255.835 191.503 255.287C191.393 261.637 198.283 260.433 198.283 260.433C198.283 260.433 198.538 258.937 196.752 256.93C195.367 255.36 192.56 255.251 191.758 255.251C192.779 255.068 193.799 254.959 194.82 254.886L196.606 254.813Z" fill="#E9C3E7"/>
<path d="M140.983 292.657C140.983 292.657 126.694 260.36 137.046 230.361C147.398 200.363 172.366 191.604 172.366 191.604C172.366 191.604 157.531 208.793 166.133 235.58C174.262 260.907 158.77 292.693 158.77 292.693H140.983V292.657Z" fill="url(#paint0_linear_4373_69659)"/>
<path d="M140.983 292.657C140.983 292.657 126.694 260.36 137.046 230.361C147.398 200.363 172.366 191.604 172.366 191.604C172.366 191.604 157.531 208.793 166.133 235.58C174.262 260.907 158.77 292.693 158.77 292.693H140.983V292.657Z" fill="url(#paint1_linear_4373_69659)"/>
<path opacity="0.3" d="M146.049 292.657C146.049 292.657 142.404 226.967 157.859 209.669C143.789 231.456 149.658 292.657 149.658 292.657H146.049Z" fill="white"/>
<path d="M170.58 292.657H155.307C155.927 289.956 158.114 281.818 163.618 275.687C170.289 268.206 178.672 268.935 178.672 268.935C178.672 268.935 174.116 273.972 173.387 282.986C173.132 286.599 171.892 289.956 170.58 292.657Z" fill="#5E6398"/>
<path opacity="0.3" d="M160.264 292.656H159.135C161.322 287.657 166.862 275.979 172.074 273.606C166.971 277.037 162.269 287.584 160.264 292.656Z" fill="white"/>
<path d="M135.259 256.928C146.377 271.453 148.892 290.393 149.147 292.656H127.532C122.064 287.583 115.357 279.409 115.284 269.592C115.175 252.001 107.047 241.601 107.047 241.601C107.047 241.601 123.413 241.491 135.259 256.928Z" fill="#E9C3E7"/>
<path opacity="0.3" d="M142.294 292.657H140.034C137.41 283.935 129.354 259.666 119.185 251.638C129.719 257.477 139.488 284.41 142.294 292.657Z" fill="white"/>
<path d="M115.019 295.233H179.5V292.679H115.019V295.233Z" fill="#43457B" fill-opacity="0.45"/>
<path d="M86.2087 309.579L86.8186 307.186L92.3071 309.017L91.307 311.289L86.2087 309.579Z" fill="#F8AC9B"/>
<path d="M93.1608 311.924C93.1608 311.924 93.4047 313.902 93.9902 314.757C94.3073 315.221 95.0391 316.295 97.5272 317.834C99.5275 319.08 103.333 319.251 103.455 319.91C103.723 321.449 102.308 321.742 102.211 321.717C102.186 321.717 98.8689 322.352 96.9906 321.717C91.5264 319.91 83.0863 316.906 83.0131 316.735C82.9155 316.491 85.5744 309.335 85.5744 309.335L93.1608 311.924Z" fill="url(#paint2_linear_4373_69659)"/>
<path d="M150.998 121.891C151.096 121.354 151.364 120.694 151.901 120.645C152.462 120.597 152.803 121.329 152.73 121.915C152.706 122.086 152.657 122.282 152.73 122.428C152.901 122.843 153.486 122.697 153.852 122.453C154.462 122.038 155.023 121.5 155.486 120.914C155.852 120.45 156.145 119.937 156.56 119.522C156.974 119.107 157.487 118.765 158.048 118.789C159.121 118.814 159.829 120.059 159.95 121.183C160.17 123.014 159.463 124.895 158.365 126.336C157.731 127.166 156.926 127.875 155.974 128.192C155.535 128.339 155.047 128.387 154.608 128.558C153.925 128.803 153.364 129.315 152.706 129.682C152.535 129.779 152.071 130.561 151.901 130.537C151.754 130.512 151.413 130.317 151.266 130.244C150.705 129.877 149.486 128.998 149.095 128.436C148.266 127.313 149.827 126.58 150.266 125.457C150.73 124.333 150.779 123.088 150.998 121.891Z" fill="#F8AC9B"/>
<path d="M54.6188 110.95C54.7896 110.412 54.8872 109.729 54.4481 109.436C53.9846 109.118 53.326 109.582 53.082 110.144C53.0089 110.315 52.9601 110.486 52.8137 110.608C52.4722 110.876 52.0087 110.461 51.838 110.071C51.5209 109.387 51.3013 108.654 51.1793 107.921C51.1062 107.335 51.0818 106.749 50.9354 106.187C50.7891 105.626 50.4963 105.064 50.0085 104.795C49.0571 104.282 47.8374 105.015 47.1544 105.919C46.0567 107.408 45.7152 109.362 45.9835 111.17C46.1299 112.195 46.4714 113.221 47.13 113.978C47.4471 114.32 47.8374 114.613 48.1302 114.979C48.5936 115.541 48.8376 116.274 49.2279 116.884C49.3254 117.031 49.3498 117.959 49.4962 118.032C49.6426 118.106 50.0329 118.081 50.1792 118.081C50.8378 118.032 52.3502 117.886 52.9601 117.617C54.2285 117.055 53.2528 115.639 53.4236 114.442C53.6431 113.221 54.2285 112.098 54.6188 110.95Z" fill="#F8AC9B"/>
<path d="M89.502 139.475C89.7947 140.843 90.307 142.186 91.0632 143.359C91.3071 143.749 91.5511 144.14 91.795 144.702C92.1121 145.386 92.1121 147.803 92.8439 147.926C93.3318 147.999 93.3318 146.094 93.6489 145.728C93.9904 145.337 94.1612 144.848 94.3075 144.384C95.0637 141.991 95.3565 139.28 97.1128 137.497C98.0885 136.496 99.4546 135.934 100.845 135.91C102.333 135.861 103.601 136.935 105.041 136.862C107.773 136.691 110.773 134.469 111.944 132.075C112.847 130.244 112.92 128.021 112.066 126.189C111.188 124.358 109.334 122.99 107.309 122.868C106.846 122.844 106.358 122.868 105.943 123.088C105.602 123.259 105.358 123.552 105.065 123.796C103.821 124.993 102.309 125.921 100.65 126.483C98.6252 127.191 96.4298 127.313 94.3319 127.753C93.1122 128.021 91.8438 128.412 91.0632 129.364C90.0631 130.561 89.4532 133.321 89.3069 135.226C89.1117 136.887 89.1849 137.937 89.502 139.475Z" fill="#43457B"/>
<path d="M14.7362 227.03L16.9317 227.934L14.3459 233.112L12.3213 231.842L14.7362 227.03Z" fill="#F8AC9B"/>
<path d="M11.4673 233.575C11.4673 233.575 9.49147 233.551 8.56451 234.015C8.05225 234.259 6.88136 234.845 5.02746 237.092C3.53946 238.899 2.83205 242.66 2.14903 242.685C0.587851 242.758 0.490277 241.293 0.539064 241.195C0.563457 241.171 0.36831 237.8 1.24647 236.017C3.759 230.84 7.90589 222.902 8.07664 222.829C8.32058 222.756 15.0288 226.371 15.0288 226.371L11.4673 233.575Z" fill="url(#paint3_linear_4373_69659)"/>
<path d="M114.822 233.625C112.944 229.693 96.088 206.662 96.088 206.662L69.4015 202.095L63.6203 201.191L56.8389 198.383L49.0818 231.598C49.0574 231.964 48.911 232.33 48.7403 232.623C48.2768 233.38 47.3986 233.869 46.4473 233.747L45.0325 233.478L16.9556 227.959L14.0771 233.332L48.9842 253.309C53.2287 254.433 56.7169 251.966 59.7173 248.596L77.5733 227.788C78.1588 227.079 78.6955 226.591 79.1833 226.322C80.2566 225.736 81.1348 226.176 82.2081 227.372L91.6484 237.679L96.3807 242.856C96.9662 243.687 97.5516 244.078 97.4296 244.908L86.4038 307.308L92.5509 309.579C92.5509 309.555 123.579 251.942 114.822 233.625Z" fill="url(#paint4_linear_4373_69659)"/>
<path opacity="0.1" d="M49.0088 234.675C51.5945 232.819 52.5947 228.105 54.3022 222.537C56.0342 216.968 60.7421 208.347 60.7421 208.347L63.9864 199.091L56.8147 198.383L49.0576 231.598C49.0332 231.964 48.8869 232.33 48.7161 232.623C48.2526 233.38 47.3745 233.869 46.4231 233.747L45.0083 233.478C46.0328 234.626 47.5208 235.749 49.0088 234.675Z" fill="#221F1F"/>
<path d="M102.43 150.075L100.308 157.304L91.8193 154.349L93.1122 143.188L101.894 145.801L102.43 150.075Z" fill="#F8AC9B"/>
<path opacity="0.5" d="M94.0396 145.044C94.0396 145.044 94.7714 150.734 96.6496 151.687C98.5279 152.639 101.675 151.76 101.675 151.76L102.455 150.075C102.455 150.075 100.455 150.905 99.1378 150.515C97.8205 150.148 97.9669 150.197 97.8205 150.148C97.6742 150.075 97.6742 150.075 97.6742 150.075C97.6742 150.075 95.3568 149.318 94.0396 145.044Z" fill="#F8AC9B"/>
<path d="M108.163 135.666C108.821 133.687 107.919 133.077 106.601 132.906C105.382 132.735 103.821 132.93 102.796 132.735C101.723 132.515 100.674 132.442 99.5761 132.369C97.6978 132.246 96.8929 133.956 96.5757 135.128C96.5757 135.153 96.5757 135.177 96.5513 135.202C96.2586 136.325 95.9415 138.987 95.478 139.842C95.0146 140.721 94.3803 136.52 92.7947 136.13C92.4532 136.032 92.1361 135.983 91.7214 136.081C90.9652 136.276 90.3798 136.936 90.2334 137.741C90.0383 138.816 90.5018 139.891 91.1116 140.77C91.7214 141.625 92.4776 142.382 93.0631 143.261C94.2096 145.044 94.5755 147.364 95.9659 148.927C97.5271 150.685 100.235 151.076 102.406 150.124C104.577 149.171 106.162 147.046 106.87 144.702C107.772 141.674 107.187 138.572 108.163 135.666Z" fill="#F8AC9B"/>
<path opacity="0.5" d="M101.625 133.932C104.138 133.809 106.016 133.126 106.601 132.881C105.382 132.71 103.821 132.906 102.796 132.71C101.723 132.491 100.674 132.417 99.5761 132.344C97.6978 132.222 96.8928 133.932 96.5757 135.104C96.5757 135.128 96.5757 135.153 96.5513 135.177C97.3319 134.249 99.1614 134.054 101.625 133.932Z" fill="#F8AC9B"/>
<path opacity="0.1" d="M88.9166 212.45C87.9652 216.114 79.1836 226.322 79.1836 226.322C80.2569 225.736 81.1351 226.176 82.2084 227.372L95.8443 242.246C94.3807 240.17 88.8922 230.938 87.3066 228.74C84.7697 225.272 88.0628 219.85 88.9166 212.45Z" fill="#221F1F"/>
<path d="M105.383 151.515L119.848 148.096C122.385 147.486 124.775 146.338 126.824 144.726L149.023 127.166L153.34 130.756L131.654 154.983C130.288 156.498 128.678 157.792 126.873 158.769L108.237 168.904L97.3572 197.747C97.284 197.967 97.2108 198.187 97.1376 198.407C96.7229 199.774 96.7473 201.24 97.0889 202.632L98.1622 206.71C98.0158 208.786 94.2104 207.834 92.137 207.614C81.7698 206.979 72.0124 202.754 60.4011 203.365C57.791 203.023 56.1078 200.434 56.8396 197.894L67.3044 161.895L59.7912 155.569C56.6689 152.932 54.5467 149.268 53.7905 145.239L48.4971 116.786L53.8148 116.151L61.0841 136.715C62.8404 141.697 66.7434 145.654 71.7197 147.461L77.2326 149.488L91.7711 151.882C91.7711 151.882 97.0889 158.232 100.114 155.667C100.821 155.081 101.65 152.565 101.65 152.565L105.383 151.515Z" fill="#C460C0"/>
<path opacity="0.1" d="M67.3282 161.92L72.4508 165.608L59.0344 190.421L67.3282 161.92Z" fill="#221F1F"/>
<path opacity="0.1" d="M100.747 154.813C100.747 154.813 100.577 157.304 97.4055 157.719C94.2344 158.134 87.3311 151.125 87.3311 151.125L91.795 151.858C91.795 151.858 95.3565 156.181 98.4301 156.254C99.235 156.254 100.211 155.961 100.747 154.813Z" fill="#221F1F"/>
<path d="M141.712 54.9964L177.091 75.4524L212.47 54.9964L177.091 0L141.712 54.9964ZM180.612 12.0724L207.44 53.8227L180.612 69.4162V12.0724Z" fill="#305AA6"/>
<path d="M141.712 62.7109L177.091 111L212.47 62.7109L177.091 84.1729L141.712 62.7109ZM180.612 86.185L199.224 74.951L180.612 100.102V86.185Z" fill="#305AA6"/>
<path d="M74.9996 117.572C93.5406 117.572 108.571 102.541 108.571 84.0001C108.571 65.4592 93.5406 50.4287 74.9996 50.4287C56.4587 50.4287 41.4282 65.4592 41.4282 84.0001C41.4282 102.541 56.4587 117.572 74.9996 117.572Z" fill="white"/>
<path d="M85.0711 73.9287L64.9282 94.0716M64.9282 73.9287L85.0711 94.0716M108.571 84.0001C108.571 102.541 93.5406 117.572 74.9996 117.572C56.4587 117.572 41.4282 102.541 41.4282 84.0001C41.4282 65.4592 56.4587 50.4287 74.9996 50.4287C93.5406 50.4287 108.571 65.4592 108.571 84.0001Z" stroke="#C460C0" stroke-width="3.93681" stroke-linecap="round" stroke-linejoin="round"/>
<defs>
<linearGradient id="paint0_linear_4373_69659" x1="172.344" y1="242.127" x2="133.285" y2="242.127" gradientUnits="userSpaceOnUse">
<stop stop-color="#3393EB"/>
<stop offset="0.9985" stop-color="#37BEDF"/>
</linearGradient>
<linearGradient id="paint1_linear_4373_69659" x1="152.825" y1="191.604" x2="152.825" y2="292.693" gradientUnits="userSpaceOnUse">
<stop stop-color="#F7E9F6"/>
<stop offset="1" stop-color="#DAE7FF"/>
</linearGradient>
<linearGradient id="paint2_linear_4373_69659" x1="90.8404" y1="326.357" x2="95.4334" y2="311.549" gradientUnits="userSpaceOnUse">
<stop stop-color="#3A3C63"/>
<stop offset="1" stop-color="#40447B"/>
</linearGradient>
<linearGradient id="paint3_linear_4373_69659" x1="-2.4976" y1="229.297" x2="11.5366" y2="235.857" gradientUnits="userSpaceOnUse">
<stop stop-color="#3A3C63"/>
<stop offset="1" stop-color="#40447B"/>
</linearGradient>
<linearGradient id="paint4_linear_4373_69659" x1="53.8168" y1="281.049" x2="76.4803" y2="202.548" gradientUnits="userSpaceOnUse">
<stop stop-color="#3A3C63"/>
<stop offset="1" stop-color="#40447B"/>
</linearGradient>
</defs>
</svg>
