<svg width="289" height="206" viewBox="0 0 289 206" fill="none" xmlns="http://www.w3.org/2000/svg">
<path d="M235.543 0H58.9711C50.8446 0 44.2568 6.58781 44.2568 14.7143V191.286C44.2568 199.412 50.8446 206 58.9711 206H235.543C243.669 206 250.257 199.412 250.257 191.286V14.7143C250.257 6.58781 243.669 0 235.543 0Z" fill="url(#paint0_linear_2131_25187)"/>
<g filter="url(#filter0_d_2131_25187)">
<path d="M76.6286 79.4575H275.271C277.223 79.4575 279.094 80.2326 280.474 81.6124C281.854 82.9921 282.629 84.8634 282.629 86.8147V123.6C282.629 125.552 281.854 127.423 280.474 128.803C279.094 130.182 277.223 130.958 275.271 130.958H76.6286C74.6774 130.958 72.8061 130.182 71.4263 128.803C70.0466 127.423 69.2715 125.552 69.2715 123.6V86.8147C69.2715 84.8634 70.0466 82.9921 71.4263 81.6124C72.8061 80.2326 74.6774 79.4575 76.6286 79.4575V79.4575Z" fill="white"/>
</g>
<path d="M185.514 91.229H147.257C144.819 91.229 142.843 93.2053 142.843 95.6433C142.843 98.0812 144.819 100.058 147.257 100.058H185.514C187.952 100.058 189.928 98.0812 189.928 95.6433C189.928 93.2053 187.952 91.229 185.514 91.229Z" fill="#B4DAFF"/>
<path d="M212 110.357H147.257C144.819 110.357 142.843 112.334 142.843 114.772C142.843 117.21 144.819 119.186 147.257 119.186H212C214.438 119.186 216.414 117.21 216.414 114.772C216.414 112.334 214.438 110.357 212 110.357Z" fill="#DEE9FC"/>
<path d="M114.149 119.186C121.87 119.186 128.128 112.928 128.128 105.208C128.128 97.4874 121.87 91.229 114.149 91.229C106.429 91.229 100.171 97.4874 100.171 105.208C100.171 112.928 106.429 119.186 114.149 119.186Z" fill="#305AA6"/>
<path d="M111.48 107.38H107.98L107.29 109H105.95L109.1 102H110.38L113.54 109H112.18L111.48 107.38ZM111.05 106.36L109.73 103.3L108.42 106.36H111.05ZM117.31 102C117.917 102 118.444 102.1 118.89 102.3C119.344 102.5 119.69 102.787 119.93 103.16C120.17 103.533 120.29 103.977 120.29 104.49C120.29 104.997 120.17 105.44 119.93 105.82C119.69 106.193 119.344 106.48 118.89 106.68C118.444 106.88 117.917 106.98 117.31 106.98H115.73V109H114.43V102H117.31ZM117.25 105.88C117.817 105.88 118.247 105.76 118.54 105.52C118.834 105.28 118.98 104.937 118.98 104.49C118.98 104.043 118.834 103.7 118.54 103.46C118.247 103.22 117.817 103.1 117.25 103.1H115.73V105.88H117.25Z" fill="white"/>
<g filter="url(#filter1_d_2131_25187)">
<path d="M13.3571 142.728H212C213.951 142.728 215.823 143.503 217.202 144.883C218.582 146.263 219.357 148.134 219.357 150.085V186.871C219.357 188.822 218.582 190.693 217.202 192.073C215.823 193.453 213.951 194.228 212 194.228H13.3571C11.4059 194.228 9.53459 193.453 8.15486 192.073C6.77513 190.693 6 188.822 6 186.871V150.085C6 148.134 6.77513 146.263 8.15486 144.883C9.53459 143.503 11.4059 142.728 13.3571 142.728V142.728Z" fill="white"/>
</g>
<path d="M122.243 154.5H83.9856C81.5476 154.5 79.5713 156.476 79.5713 158.914C79.5713 161.352 81.5476 163.329 83.9856 163.329H122.243C124.681 163.329 126.657 161.352 126.657 158.914C126.657 156.476 124.681 154.5 122.243 154.5Z" fill="#B4DAFF"/>
<path d="M148.728 173.628H83.9856C81.5476 173.628 79.5713 175.605 79.5713 178.043C79.5713 180.481 81.5476 182.457 83.9856 182.457H148.728C151.166 182.457 153.143 180.481 153.143 178.043C153.143 175.605 151.166 173.628 148.728 173.628Z" fill="#DEE9FC"/>
<path d="M31.7491 182.458C39.4692 182.458 45.7277 176.199 45.7277 168.479C45.7277 160.759 39.4692 154.5 31.7491 154.5C24.0289 154.5 17.7705 160.759 17.7705 168.479C17.7705 176.199 24.0289 182.458 31.7491 182.458Z" fill="#305AA6"/>
<path d="M28.03 172.1C27.5833 172.1 27.17 172.013 26.79 171.84C26.4167 171.66 26.11 171.41 25.87 171.09L26.61 170.2C26.9967 170.733 27.46 171 28 171C28.7267 171 29.09 170.57 29.09 169.71V166.09H26.6V165H30.39V169.64C30.39 170.46 30.19 171.077 29.79 171.49C29.39 171.897 28.8033 172.1 28.03 172.1ZM34.3834 172.1C33.8434 172.1 33.3201 172.023 32.8134 171.87C32.3134 171.717 31.9168 171.513 31.6234 171.26L32.0734 170.25C32.3601 170.477 32.7101 170.663 33.1234 170.81C33.5434 170.95 33.9634 171.02 34.3834 171.02C34.9034 171.02 35.2901 170.937 35.5434 170.77C35.8034 170.603 35.9334 170.383 35.9334 170.11C35.9334 169.91 35.8601 169.747 35.7134 169.62C35.5734 169.487 35.3934 169.383 35.1734 169.31C34.9534 169.237 34.6534 169.153 34.2734 169.06C33.7401 168.933 33.3068 168.807 32.9734 168.68C32.6468 168.553 32.3634 168.357 32.1234 168.09C31.8901 167.817 31.7734 167.45 31.7734 166.99C31.7734 166.603 31.8768 166.253 32.0834 165.94C32.2968 165.62 32.6134 165.367 33.0334 165.18C33.4601 164.993 33.9801 164.9 34.5934 164.9C35.0201 164.9 35.4401 164.953 35.8534 165.06C36.2668 165.167 36.6234 165.32 36.9234 165.52L36.5134 166.53C36.2068 166.35 35.8868 166.213 35.5534 166.12C35.2201 166.027 34.8968 165.98 34.5834 165.98C34.0701 165.98 33.6868 166.067 33.4334 166.24C33.1868 166.413 33.0634 166.643 33.0634 166.93C33.0634 167.13 33.1334 167.293 33.2734 167.42C33.4201 167.547 33.6034 167.647 33.8234 167.72C34.0434 167.793 34.3434 167.877 34.7234 167.97C35.2434 168.09 35.6701 168.217 36.0034 168.35C36.3368 168.477 36.6201 168.673 36.8534 168.94C37.0934 169.207 37.2134 169.567 37.2134 170.02C37.2134 170.407 37.1068 170.757 36.8934 171.07C36.6868 171.383 36.3701 171.633 35.9434 171.82C35.5168 172.007 34.9968 172.1 34.3834 172.1Z" fill="white"/>
<g filter="url(#filter2_d_2131_25187)">
<path d="M212 16.1851H13.3571C9.29391 16.1851 6 19.479 6 23.5422V60.3279C6 64.3912 9.29391 67.6851 13.3571 67.6851H212C216.063 67.6851 219.357 64.3912 219.357 60.3279V23.5422C219.357 19.479 216.063 16.1851 212 16.1851Z" fill="white"/>
</g>
<path d="M119.301 27.9565H81.0442C78.6062 27.9565 76.6299 29.9329 76.6299 32.3708C76.6299 34.8088 78.6062 36.7851 81.0442 36.7851H119.301C121.739 36.7851 123.716 34.8088 123.716 32.3708C123.716 29.9329 121.739 27.9565 119.301 27.9565Z" fill="#B4DAFF"/>
<path d="M145.787 47.085H81.0442C78.6062 47.085 76.6299 49.0613 76.6299 51.4992C76.6299 53.9372 78.6062 55.9135 81.0442 55.9135H145.787C148.225 55.9135 150.201 53.9372 150.201 51.4992C150.201 49.0613 148.225 47.085 145.787 47.085Z" fill="#DEE9FC"/>
<path d="M50.879 55.9137C58.5991 55.9137 64.8575 49.6553 64.8575 41.9351C64.8575 34.215 58.5991 27.9565 50.879 27.9565C43.1588 27.9565 36.9004 34.215 36.9004 41.9351C36.9004 49.6553 43.1588 55.9137 50.879 55.9137Z" fill="#305AA6"/>
<path d="M45.9969 45.8652C45.4703 45.8652 44.9603 45.7852 44.4669 45.6252C43.9803 45.4585 43.5969 45.2452 43.3169 44.9852L43.6869 44.2052C43.9536 44.4452 44.2936 44.6418 44.7069 44.7952C45.1269 44.9418 45.5569 45.0152 45.9969 45.0152C46.5769 45.0152 47.0103 44.9185 47.2969 44.7252C47.5836 44.5252 47.7269 44.2618 47.7269 43.9352C47.7269 43.6952 47.6469 43.5018 47.4869 43.3552C47.3336 43.2018 47.1403 43.0852 46.9069 43.0052C46.6803 42.9252 46.3569 42.8352 45.9369 42.7352C45.4103 42.6085 44.9836 42.4818 44.6569 42.3552C44.3369 42.2285 44.0603 42.0352 43.8269 41.7752C43.6003 41.5085 43.4869 41.1518 43.4869 40.7052C43.4869 40.3318 43.5836 39.9952 43.7769 39.6952C43.9769 39.3952 44.2769 39.1552 44.6769 38.9752C45.0769 38.7952 45.5736 38.7052 46.1669 38.7052C46.5803 38.7052 46.9869 38.7585 47.3869 38.8652C47.7869 38.9718 48.1303 39.1252 48.4169 39.3252L48.0869 40.1252C47.7936 39.9385 47.4803 39.7985 47.1469 39.7052C46.8136 39.6052 46.4869 39.5552 46.1669 39.5552C45.6003 39.5552 45.1736 39.6585 44.8869 39.8652C44.6069 40.0718 44.4669 40.3385 44.4669 40.6652C44.4669 40.9052 44.5469 41.1018 44.7069 41.2552C44.8669 41.4018 45.0636 41.5185 45.2969 41.6052C45.5369 41.6852 45.8603 41.7718 46.2669 41.8652C46.7936 41.9918 47.2169 42.1185 47.5369 42.2452C47.8569 42.3718 48.1303 42.5652 48.3569 42.8252C48.5903 43.0852 48.7069 43.4352 48.7069 43.8752C48.7069 44.2418 48.6069 44.5785 48.4069 44.8852C48.2069 45.1852 47.9036 45.4252 47.4969 45.6052C47.0903 45.7785 46.5903 45.8652 45.9969 45.8652ZM50.1679 38.7852H53.1179C53.8579 38.7852 54.5146 38.9318 55.0879 39.2252C55.6612 39.5185 56.1046 39.9318 56.4179 40.4652C56.7379 40.9918 56.8979 41.5985 56.8979 42.2852C56.8979 42.9718 56.7379 43.5818 56.4179 44.1152C56.1046 44.6418 55.6612 45.0518 55.0879 45.3452C54.5146 45.6385 53.8579 45.7852 53.1179 45.7852H50.1679V38.7852ZM53.0579 44.9152C53.6246 44.9152 54.1212 44.8052 54.5479 44.5852C54.9812 44.3652 55.3146 44.0585 55.5479 43.6652C55.7812 43.2652 55.8979 42.8052 55.8979 42.2852C55.8979 41.7652 55.7812 41.3085 55.5479 40.9152C55.3146 40.5152 54.9812 40.2052 54.5479 39.9852C54.1212 39.7652 53.6246 39.6552 53.0579 39.6552H51.1679V44.9152H53.0579Z" fill="white"/>
<defs>
<filter id="filter0_d_2131_25187" x="63.2715" y="76.4575" width="225.357" height="63.5" filterUnits="userSpaceOnUse" color-interpolation-filters="sRGB">
<feFlood flood-opacity="0" result="BackgroundImageFix"/>
<feColorMatrix in="SourceAlpha" type="matrix" values="0 0 0 0 0 0 0 0 0 0 0 0 0 0 0 0 0 0 127 0" result="hardAlpha"/>
<feOffset dy="3"/>
<feGaussianBlur stdDeviation="3"/>
<feColorMatrix type="matrix" values="0 0 0 0 0 0 0 0 0 0 0 0 0 0 0 0 0 0 0.161 0"/>
<feBlend mode="normal" in2="BackgroundImageFix" result="effect1_dropShadow_2131_25187"/>
<feBlend mode="normal" in="SourceGraphic" in2="effect1_dropShadow_2131_25187" result="shape"/>
</filter>
<filter id="filter1_d_2131_25187" x="0" y="139.728" width="225.357" height="63.5" filterUnits="userSpaceOnUse" color-interpolation-filters="sRGB">
<feFlood flood-opacity="0" result="BackgroundImageFix"/>
<feColorMatrix in="SourceAlpha" type="matrix" values="0 0 0 0 0 0 0 0 0 0 0 0 0 0 0 0 0 0 127 0" result="hardAlpha"/>
<feOffset dy="3"/>
<feGaussianBlur stdDeviation="3"/>
<feColorMatrix type="matrix" values="0 0 0 0 0 0 0 0 0 0 0 0 0 0 0 0 0 0 0.161 0"/>
<feBlend mode="normal" in2="BackgroundImageFix" result="effect1_dropShadow_2131_25187"/>
<feBlend mode="normal" in="SourceGraphic" in2="effect1_dropShadow_2131_25187" result="shape"/>
</filter>
<filter id="filter2_d_2131_25187" x="0" y="13.1851" width="225.357" height="63.5" filterUnits="userSpaceOnUse" color-interpolation-filters="sRGB">
<feFlood flood-opacity="0" result="BackgroundImageFix"/>
<feColorMatrix in="SourceAlpha" type="matrix" values="0 0 0 0 0 0 0 0 0 0 0 0 0 0 0 0 0 0 127 0" result="hardAlpha"/>
<feOffset dy="3"/>
<feGaussianBlur stdDeviation="3"/>
<feColorMatrix type="matrix" values="0 0 0 0 0 0 0 0 0 0 0 0 0 0 0 0 0 0 0.161 0"/>
<feBlend mode="normal" in2="BackgroundImageFix" result="effect1_dropShadow_2131_25187"/>
<feBlend mode="normal" in="SourceGraphic" in2="effect1_dropShadow_2131_25187" result="shape"/>
</filter>
<linearGradient id="paint0_linear_2131_25187" x1="147.257" y1="0" x2="147.257" y2="206" gradientUnits="userSpaceOnUse">
<stop stop-color="#F7E9F6"/>
<stop offset="1" stop-color="#DAE7FF"/>
</linearGradient>
</defs>
</svg>
