<svg width="64" height="64" viewBox="0 0 64 64" fill="none" xmlns="http://www.w3.org/2000/svg">
<circle cx="32" cy="32" r="32" fill="#DD3A72"/>
<g clip-path="url(#clip0_2131_30072)">
<path d="M15.8971 43.7098C16.0165 43.5973 16.1107 43.4603 16.1735 43.3082C16.2363 43.156 16.2662 42.9921 16.2613 42.8273C16.2613 42.0183 15.6285 41.4618 14.7236 41.4618H13.5063C13.4391 41.4594 13.372 41.4709 13.3093 41.4958C13.2467 41.5206 13.1897 41.5582 13.1421 41.6061C13.0944 41.6541 13.0571 41.7115 13.0324 41.7746C13.0076 41.8378 12.996 41.9054 12.9983 41.9733V45.8449C12.996 45.9128 13.0076 45.9804 13.0323 46.0436C13.0571 46.1068 13.0944 46.1643 13.142 46.2123C13.1897 46.2604 13.2466 46.298 13.3093 46.323C13.3719 46.3479 13.439 46.3596 13.5063 46.3573H15.1615C16.1038 46.3573 16.7656 45.7631 16.7656 44.9174C16.7656 44.3333 16.4415 43.9036 15.8971 43.7098ZM13.9625 42.3223H14.6462C15.0368 42.3223 15.2835 42.5298 15.2835 42.8787C15.2835 43.2277 15.0413 43.4426 14.6507 43.4426H13.9625V42.3223ZM15.0923 45.4987H13.9625V44.2672H15.0923C15.5266 44.2672 15.7842 44.4968 15.7842 44.8825C15.7842 45.2682 15.522 45.4987 15.0923 45.4987Z" fill="white"/>
<path d="M18.0617 41.3731C17.9949 41.3714 17.9285 41.3835 17.8666 41.4087C17.8047 41.4339 17.7485 41.4716 17.7016 41.5196C17.6547 41.5675 17.618 41.6246 17.5938 41.6874C17.5696 41.7502 17.5584 41.8173 17.5609 41.8846V45.937C17.5559 46.0058 17.5649 46.0749 17.5875 46.14C17.6102 46.2051 17.6459 46.2648 17.6924 46.3153C17.7389 46.3659 17.7953 46.4062 17.858 46.4338C17.9206 46.4613 17.9883 46.4756 18.0567 46.4756C18.125 46.4756 18.1927 46.4613 18.2554 46.4338C18.318 46.4062 18.3744 46.3659 18.4209 46.3153C18.4675 46.2648 18.5032 46.2051 18.5258 46.14C18.5484 46.0749 18.5574 46.0058 18.5524 45.937V41.8846C18.5551 41.8181 18.5444 41.7517 18.5209 41.6895C18.4974 41.6273 18.4616 41.5705 18.4157 41.5227C18.3699 41.4749 18.3148 41.4369 18.2539 41.4112C18.1931 41.3855 18.1277 41.3725 18.0617 41.3731Z" fill="white"/>
<path d="M22.4764 44.3857C22.712 44.2507 22.907 44.0538 23.0405 43.8159C23.1741 43.5781 23.2412 43.3082 23.2348 43.0349C23.2348 42.1001 22.5283 41.4618 21.4904 41.4618H20.1658C20.0991 41.4593 20.0327 41.4706 19.9705 41.4949C19.9083 41.5193 19.8517 41.5562 19.8042 41.6034C19.7567 41.6506 19.7193 41.7072 19.6943 41.7695C19.6692 41.8319 19.6571 41.8987 19.6587 41.966V45.9367C19.6558 46.0043 19.6665 46.0718 19.6902 46.1351C19.7138 46.1984 19.75 46.2562 19.7964 46.305C19.8428 46.3539 19.8985 46.3928 19.9602 46.4193C20.0218 46.4459 20.0882 46.4596 20.1553 46.4596C20.2224 46.4596 20.2887 46.4459 20.3504 46.4193C20.4121 46.3928 20.4678 46.3539 20.5142 46.305C20.5606 46.2562 20.5967 46.1984 20.6204 46.1351C20.6441 46.0718 20.6548 46.0043 20.6519 45.9367V44.6309H21.4977L22.5902 46.192C22.636 46.2695 22.7005 46.334 22.7777 46.3794C22.855 46.4249 22.9424 46.4498 23.0318 46.4519C23.1532 46.4514 23.2697 46.4032 23.3564 46.3174C23.4431 46.2317 23.4932 46.1152 23.4961 45.9927C23.4871 45.8555 23.4384 45.7239 23.3559 45.6144L22.4764 44.3857ZM21.4831 43.7475H20.6519V42.3443H21.4831C21.932 42.3443 22.2188 42.6198 22.2188 43.0422C22.2188 43.4646 21.9393 43.7475 21.4831 43.7475Z" fill="white"/>
<path d="M28.3936 43.6733H26.9806C26.9217 43.6694 26.8627 43.6778 26.8071 43.6978C26.7515 43.7179 26.7006 43.7493 26.6575 43.79C26.6145 43.8307 26.5801 43.8799 26.5567 43.9345C26.5332 43.9892 26.5211 44.0481 26.5211 44.1076C26.5211 44.1672 26.5332 44.2261 26.5567 44.2807C26.5801 44.3353 26.6145 44.3845 26.6575 44.4252C26.7006 44.466 26.7515 44.4973 26.8071 44.5174C26.8627 44.5375 26.9217 44.5458 26.9806 44.542H27.9074V44.9644C27.6279 45.3317 27.1645 45.5512 26.6274 45.5512C25.6705 45.5512 25.0087 44.8827 25.0087 43.9111C25.0087 42.9395 25.646 42.3004 26.5682 42.3004C26.788 42.2951 27.0063 42.339 27.2073 42.4288C27.4083 42.5187 27.5871 42.6523 27.7308 42.8202C27.8783 42.9827 27.9957 43.0424 28.1505 43.0424C28.2702 43.0424 28.385 42.9949 28.4702 42.9102C28.5554 42.8255 28.6041 42.7103 28.6057 42.5897C28.6057 42.4189 28.5147 42.2628 28.3044 42.0626C27.9065 41.6402 27.2447 41.3729 26.5819 41.3729C25.1179 41.3729 23.9854 42.4749 23.9854 43.9111C23.9854 45.3473 25.1179 46.4493 26.5819 46.4493C27.4431 46.4493 28.3044 46.026 28.7459 45.373C28.8537 45.2083 28.9075 45.0137 28.8998 44.8166V44.1857C28.9022 44.1179 28.8908 44.0503 28.8662 43.9872C28.8416 43.924 28.8045 43.8667 28.757 43.8186C28.7095 43.7706 28.6528 43.7329 28.5903 43.7079C28.5278 43.6829 28.4608 43.6711 28.3936 43.6733Z" fill="white"/>
<path d="M32.7113 45.4545H30.7512V44.2148H32.0349C32.092 44.2175 32.1492 44.2085 32.2028 44.1882C32.2564 44.168 32.3054 44.137 32.3468 44.0971C32.3882 44.0573 32.4212 44.0093 32.4437 43.9563C32.4662 43.9032 32.4778 43.846 32.4778 43.7883C32.4778 43.7305 32.4662 43.6734 32.4437 43.6203C32.4212 43.5672 32.3882 43.5193 32.3468 43.4794C32.3054 43.4395 32.2564 43.4086 32.2028 43.3883C32.1492 43.3681 32.092 43.3591 32.0349 43.3617H30.7512V42.3672H32.6275C32.687 42.3681 32.7461 42.357 32.8013 42.3346C32.8565 42.3122 32.9067 42.279 32.949 42.2369C32.9914 42.1948 33.025 42.1446 33.048 42.0892C33.0709 42.0339 33.0828 41.9745 33.0827 41.9145C33.084 41.8541 33.0731 41.7942 33.0506 41.7382C33.0281 41.6823 32.9945 41.6316 32.9519 41.5892C32.9092 41.5468 32.8585 41.5136 32.8027 41.4917C32.747 41.4698 32.6873 41.4596 32.6275 41.4618H30.2513C30.1863 41.4605 30.1216 41.4725 30.0613 41.497C30.0009 41.5215 29.9461 41.5581 29.9 41.6044C29.854 41.6508 29.8176 41.7061 29.7932 41.7669C29.7688 41.8278 29.7568 41.8929 29.7579 41.9586V45.8623C29.7567 45.928 29.7686 45.9932 29.7929 46.0542C29.8173 46.1151 29.8536 46.1705 29.8997 46.217C29.9457 46.2634 30.0006 46.3001 30.0611 46.3246C30.1215 46.3492 30.1862 46.3612 30.2513 46.36H32.7158C32.8349 46.36 32.9491 46.3123 33.0332 46.2274C33.1174 46.1425 33.1647 46.0273 33.1647 45.9073C33.1647 45.7872 33.1174 45.672 33.0332 45.5871C32.9491 45.5022 32.8349 45.4545 32.7158 45.4545H32.7113Z" fill="white"/>
<path d="M38.3275 41.3729C36.8845 41.3729 35.752 42.4859 35.752 43.9111C35.752 45.3363 36.8772 46.4493 38.3275 46.4493C39.7778 46.4493 40.9168 45.328 40.9168 43.9111C40.9168 42.4942 39.7769 41.3729 38.3275 41.3729ZM38.3348 45.5209C37.4244 45.5209 36.7744 44.8533 36.7744 43.9111C36.7744 42.9689 37.4217 42.3004 38.3348 42.3004C39.248 42.3004 39.8944 42.9754 39.8944 43.9111C39.8944 44.8469 39.2398 45.5209 38.3348 45.5209Z" fill="white"/>
<path d="M48.6285 47.131C48.5548 47.131 48.4301 47.1457 48.2644 47.1457C47.161 47.1457 46.3525 46.7527 45.6888 45.8849C45.9856 45.6504 46.2254 45.3506 46.39 45.0085C46.5545 44.6664 46.6395 44.2908 46.6384 43.9106C46.6384 42.4927 45.4976 41.3724 44.0482 41.3724C42.5988 41.3724 41.4727 42.4854 41.4727 43.9106C41.4727 45.3358 42.5988 46.4487 44.0482 46.4487C44.3262 46.4492 44.6025 46.4064 44.8676 46.322C45.2269 46.8488 45.71 47.2777 46.2736 47.5705C46.8372 47.8632 47.4639 48.0107 48.0978 47.9997C48.3304 48.0088 48.5627 47.9736 48.7824 47.896C48.8601 47.8721 48.928 47.8233 48.9758 47.757C49.0236 47.6908 49.0487 47.6106 49.0473 47.5287C49.051 47.2807 48.8862 47.131 48.6285 47.131ZM44.0592 45.5203C43.1487 45.5203 42.4996 44.8454 42.4996 43.9106C42.4996 42.9757 43.1469 42.2999 44.0473 42.2999C44.9477 42.2999 45.6142 42.9748 45.6142 43.9106C45.6142 44.8463 44.9641 45.5213 44.0592 45.5213V45.5203Z" fill="white"/>
<path d="M50.5134 41.3731C50.2995 41.3731 50.1602 41.4695 50.0491 41.6697L49.0049 43.4953L47.9588 41.6697C47.8414 41.4622 47.7012 41.3731 47.4881 41.3731C47.4251 41.3714 47.3624 41.3824 47.3037 41.4054C47.2449 41.4285 47.1913 41.4632 47.1461 41.5074C47.1008 41.5516 47.0647 41.6045 47.04 41.663C47.0152 41.7214 47.0023 41.7843 47.002 41.8479C47.0027 41.9684 47.0416 42.0855 47.113 42.1821L48.5051 44.4972V45.9371C48.5022 46.0046 48.5129 46.0721 48.5366 46.1354C48.5602 46.1987 48.5964 46.2565 48.6428 46.3054C48.6891 46.3542 48.7449 46.3931 48.8066 46.4197C48.8682 46.4462 48.9346 46.4599 49.0017 46.4599C49.0688 46.4599 49.1351 46.4462 49.1968 46.4197C49.2585 46.3931 49.3142 46.3542 49.3606 46.3054C49.407 46.2565 49.4431 46.1987 49.4668 46.1354C49.4905 46.0721 49.5012 46.0046 49.4983 45.9371V44.4972L50.8967 42.1821C50.9636 42.0865 50.9995 41.9723 50.9996 41.8552C51.0001 41.7911 50.9878 41.7274 50.9635 41.6682C50.9391 41.6089 50.9032 41.5552 50.8578 41.5102C50.8125 41.4652 50.7586 41.4299 50.6994 41.4064C50.6403 41.3828 50.577 41.3715 50.5134 41.3731Z" fill="white"/>
<path d="M48.611 40.61C48.6992 40.5832 48.7793 40.5343 48.8438 40.4678C48.9083 40.4013 48.955 40.3195 48.9797 40.2298L49.2628 39.2326C49.2957 39.1228 49.2988 39.0061 49.2719 38.8946C49.2536 38.8203 49.2207 38.7503 49.1752 38.6889C49.1297 38.6276 49.0725 38.576 49.0069 38.5373C48.9413 38.4987 48.8686 38.4736 48.7933 38.4637C48.718 38.4538 48.6414 38.4592 48.5682 38.4796C48.4603 38.5088 48.3628 38.5682 48.2869 38.6509C48.211 38.7336 48.1599 38.8362 48.1394 38.947L47.9855 39.9415C47.9723 40.0304 47.9723 40.1208 47.9855 40.2096C47.9979 40.2787 48.0243 40.3445 48.0631 40.4028C48.102 40.461 48.1524 40.5106 48.2112 40.5482C48.2699 40.5858 48.3358 40.6107 48.4046 40.6214C48.4734 40.632 48.5437 40.6282 48.611 40.61Z" fill="white"/>
<path d="M28.703 31.443C28.5746 31.4428 28.4514 31.3913 28.3605 31.2997C28.2696 31.2082 28.2183 31.0841 28.2178 30.9545V22.7109C28.218 22.6237 28.2413 22.5381 28.2853 22.463C28.3293 22.3879 28.3924 22.3261 28.4681 22.2839C28.5437 22.2416 28.6292 22.2206 28.7157 22.2228C28.8021 22.2251 28.8864 22.2506 28.9598 22.2968L35.4975 26.4181C35.5667 26.4621 35.6237 26.5231 35.6632 26.5954C35.7028 26.6676 35.7235 26.7488 35.7235 26.8313C35.7235 26.9139 35.7028 26.995 35.6632 27.0673C35.6237 27.1396 35.5667 27.2006 35.4975 27.2446L28.9598 31.3659C28.8831 31.4155 28.7941 31.4423 28.703 31.443ZM29.1874 23.5925V30.0729L34.3267 26.8359L29.1874 23.5925Z" fill="white"/>
<path d="M43.9941 35.7643C43.9003 35.8652 43.7736 35.9285 43.6372 35.9425C43.5791 35.9482 43.5204 35.9422 43.4647 35.9248C43.4089 35.9075 43.357 35.8792 43.3122 35.8415L41.3739 34.049L40.5099 35.6845C40.4844 35.743 40.4426 35.7927 40.3896 35.8278C40.3366 35.8628 40.2746 35.8816 40.2113 35.8819C40.1643 35.8763 40.1201 35.8566 40.0844 35.8253C40.0486 35.794 40.0231 35.7526 40.011 35.7065L38.1346 29.8551C38.1304 29.8416 38.1297 29.8273 38.1326 29.8134C38.1355 29.7996 38.1418 29.7868 38.151 29.7761L38.1719 29.7522C38.1819 29.741 38.1947 29.7327 38.209 29.7283C38.2233 29.7239 38.2385 29.7236 38.253 29.7274L44.1516 31.2886C44.1974 31.2983 44.2392 31.3218 44.2717 31.3558C44.3042 31.3899 44.3258 31.433 44.3337 31.4796C44.3369 31.544 44.3214 31.608 44.2891 31.6636C44.2567 31.7192 44.2089 31.7641 44.1516 31.7927L42.5866 32.7542L44.4675 34.6036C44.5084 34.6462 44.5402 34.6968 44.5612 34.7522C44.5822 34.8076 44.5918 34.8667 44.5895 34.9259C44.5867 35.0013 44.5691 35.0754 44.5379 35.144C44.5066 35.2125 44.4623 35.2742 44.4074 35.3254L44.0214 35.7368C44.0128 35.7465 44.0037 35.7557 43.9941 35.7643Z" fill="white"/>
<path fill-rule="evenodd" clip-rule="evenodd" d="M38.4103 19.1599C36.9144 17.651 35.0084 16.6235 32.9335 16.2073C30.8586 15.791 28.7079 16.0047 26.7534 16.8213C24.7989 17.6379 23.1284 19.0208 21.953 20.7951C20.7777 22.5693 20.1504 24.6552 20.1504 26.7891C20.1504 28.923 20.7777 31.0089 21.953 32.7832C23.1284 34.5574 24.7989 35.9403 26.7534 36.7569C28.7079 37.5735 30.8586 37.7872 32.9335 37.3709C35.0084 36.9547 36.9144 35.9272 38.4103 34.4183L38.4613 34.366L38.1326 33.3559C38.0112 33.493 37.8862 33.6265 37.7575 33.7563C36.0886 35.4365 33.8727 36.4501 31.52 36.6095C29.1672 36.7688 26.8369 36.063 24.9602 34.6228C23.0836 33.1826 21.7878 31.1055 21.3125 28.7758C20.8373 26.4462 21.2148 24.0217 22.3752 21.9512C23.5356 19.8807 25.4004 18.3042 27.6244 17.5136C29.8483 16.723 32.281 16.7718 34.472 17.651C36.6631 18.5301 38.4642 20.1801 39.5421 22.2955C40.62 24.411 40.9016 26.8486 40.3349 29.1574L41.2281 29.3943C41.6716 27.5881 41.6452 25.6969 41.1516 23.9039C40.6579 22.1109 39.7137 20.4768 38.4103 19.1599Z" fill="white"/>
</g>
<defs>
<clipPath id="clip0_2131_30072">
<rect width="38" height="32" fill="white" transform="translate(13 16)"/>
</clipPath>
</defs>
</svg>
