<svg width="24" height="24" viewBox="0 0 24 24" fill="none" xmlns="http://www.w3.org/2000/svg">
<path d="M12 17.2501C14.8995 17.2501 17.25 14.8996 17.25 12.0001C17.25 9.10063 14.8995 6.75012 12 6.75012C9.10051 6.75012 6.75 9.10063 6.75 12.0001C6.75 14.8996 9.10051 17.2501 12 17.2501Z" stroke="#305AA6" stroke-width="2" stroke-linecap="round" stroke-linejoin="round"/>
<path d="M5.23022 16.7751L5.11801 18.5155C5.10996 18.6271 5.12659 18.739 5.16673 18.8434C5.20687 18.9478 5.26953 19.042 5.35024 19.1194C6.42896 20.1426 7.73431 20.8962 9.15978 21.3188C9.26716 21.35 9.3801 21.3572 9.49056 21.3397C9.60102 21.3223 9.70628 21.2808 9.79885 21.218L11.25 20.2507H12.75L14.2012 21.2181C14.2937 21.2808 14.399 21.3224 14.5094 21.3398C14.6199 21.3572 14.7328 21.3501 14.8402 21.3189C16.2657 20.8963 17.571 20.1426 18.6497 19.1194C18.7305 19.042 18.7931 18.9478 18.8333 18.8434C18.8734 18.7391 18.8901 18.6271 18.882 18.5156L18.7698 16.7752L19.5198 15.4761L21.0832 14.7031C21.1838 14.6543 21.2724 14.5839 21.3428 14.497C21.4131 14.41 21.4634 14.3086 21.49 14.2C21.8368 12.7542 21.8368 11.247 21.49 9.80117C21.4633 9.69257 21.4131 9.59119 21.3427 9.50424C21.2724 9.41729 21.1838 9.34691 21.0832 9.29812L19.5199 8.52508L18.7699 7.22604L18.8821 5.48558C18.8901 5.37404 18.8735 5.2621 18.8333 5.15773C18.7932 5.05336 18.7305 4.95912 18.6498 4.88172C17.5711 3.85854 16.2658 3.1049 14.8403 2.68231C14.7329 2.65111 14.62 2.64396 14.5095 2.66138C14.3991 2.6788 14.2938 2.72036 14.2012 2.7831L12.7501 3.75047H11.2501L9.79892 2.78306C9.70636 2.72032 9.6011 2.67875 9.49064 2.66133C9.38018 2.64391 9.26724 2.65105 9.15986 2.68225C7.73439 3.10485 6.42904 3.8585 5.35033 4.8817C5.26962 4.95909 5.20695 5.05333 5.16681 5.1577C5.12667 5.26207 5.11003 5.37401 5.11809 5.48555L5.23028 7.22595L4.48028 8.52499L2.91689 9.29804C2.81627 9.34684 2.72765 9.41721 2.65733 9.50416C2.58701 9.59111 2.53673 9.69249 2.51006 9.80109C2.16331 11.2469 2.16331 12.7542 2.51008 14.2C2.53674 14.3086 2.58702 14.4099 2.65734 14.4969C2.72765 14.5838 2.81628 14.6542 2.91689 14.703L4.48022 15.476L5.23022 16.7751Z" stroke="#305AA6" stroke-width="2" stroke-miterlimit="10"/>
</svg>
