<svg width="289" height="206" viewBox="0 0 289 206" fill="none" xmlns="http://www.w3.org/2000/svg">
<path d="M235.544 0H58.9721C50.8456 0 44.2578 6.58781 44.2578 14.7143V191.286C44.2578 199.412 50.8456 206 58.9721 206H235.544C243.67 206 250.258 199.412 250.258 191.286V14.7143C250.258 6.58781 243.67 0 235.544 0Z" fill="url(#paint0_linear_2131_32313)"/>
<g filter="url(#filter0_d_2131_32313)">
<path d="M76.6286 79.4575H275.271C277.223 79.4575 279.094 80.2326 280.474 81.6124C281.854 82.9921 282.629 84.8634 282.629 86.8147V123.6C282.629 125.552 281.854 127.423 280.474 128.803C279.094 130.182 277.223 130.958 275.271 130.958H76.6286C74.6774 130.958 72.8061 130.182 71.4263 128.803C70.0466 127.423 69.2715 125.552 69.2715 123.6V86.8147C69.2715 84.8634 70.0466 82.9921 71.4263 81.6124C72.8061 80.2326 74.6774 79.4575 76.6286 79.4575V79.4575Z" fill="white"/>
</g>
<path d="M185.515 91.2289H147.258C144.82 91.2289 142.844 93.2052 142.844 95.6432C142.844 98.0811 144.82 100.057 147.258 100.057H185.515C187.953 100.057 189.929 98.0811 189.929 95.6432C189.929 93.2052 187.953 91.2289 185.515 91.2289Z" fill="#B4DAFF"/>
<path d="M212.001 110.358H147.258C144.82 110.358 142.844 112.334 142.844 114.772C142.844 117.21 144.82 119.186 147.258 119.186H212.001C214.439 119.186 216.415 117.21 216.415 114.772C216.415 112.334 214.439 110.358 212.001 110.358Z" fill="#DEE9FC"/>
<path d="M114.15 119.186C121.871 119.186 128.129 112.928 128.129 105.207C128.129 97.4873 121.871 91.2289 114.15 91.2289C106.43 91.2289 100.172 97.4873 100.172 105.207C100.172 112.928 106.43 119.186 114.15 119.186Z" fill="#305AA6"/>
<path d="M111.48 107.38H107.98L107.29 109H105.95L109.1 102H110.38L113.54 109H112.18L111.48 107.38ZM111.05 106.36L109.73 103.3L108.42 106.36H111.05ZM117.31 102C117.917 102 118.444 102.1 118.89 102.3C119.344 102.5 119.69 102.787 119.93 103.16C120.17 103.533 120.29 103.977 120.29 104.49C120.29 104.997 120.17 105.44 119.93 105.82C119.69 106.193 119.344 106.48 118.89 106.68C118.444 106.88 117.917 106.98 117.31 106.98H115.73V109H114.43V102H117.31ZM117.25 105.88C117.817 105.88 118.247 105.76 118.54 105.52C118.834 105.28 118.98 104.937 118.98 104.49C118.98 104.043 118.834 103.7 118.54 103.46C118.247 103.22 117.817 103.1 117.25 103.1H115.73V105.88H117.25Z" fill="white"/>
<g filter="url(#filter1_d_2131_32313)">
<path d="M13.3571 142.728H212C213.951 142.728 215.823 143.503 217.202 144.883C218.582 146.263 219.357 148.134 219.357 150.085V186.871C219.357 188.822 218.582 190.693 217.202 192.073C215.823 193.453 213.951 194.228 212 194.228H13.3571C11.4059 194.228 9.53459 193.453 8.15486 192.073C6.77513 190.693 6 188.822 6 186.871V150.085C6 148.134 6.77513 146.263 8.15486 144.883C9.53459 143.503 11.4059 142.728 13.3571 142.728V142.728Z" fill="white"/>
</g>
<path d="M122.244 154.5H83.9866C81.5486 154.5 79.5723 156.476 79.5723 158.914C79.5723 161.352 81.5486 163.328 83.9866 163.328H122.244C124.682 163.328 126.658 161.352 126.658 158.914C126.658 156.476 124.682 154.5 122.244 154.5Z" fill="#B4DAFF"/>
<path d="M148.729 173.629H83.9866C81.5486 173.629 79.5723 175.605 79.5723 178.043C79.5723 180.481 81.5486 182.457 83.9866 182.457H148.729C151.167 182.457 153.144 180.481 153.144 178.043C153.144 175.605 151.167 173.629 148.729 173.629Z" fill="#DEE9FC"/>
<path d="M31.7501 182.457C39.4702 182.457 45.7286 176.199 45.7286 168.479C45.7286 160.759 39.4702 154.5 31.7501 154.5C24.0299 154.5 17.7715 160.759 17.7715 168.479C17.7715 176.199 24.0299 182.457 31.7501 182.457Z" fill="#305AA6"/>
<path d="M28.03 172.1C27.5833 172.1 27.17 172.013 26.79 171.84C26.4167 171.66 26.11 171.41 25.87 171.09L26.61 170.2C26.9967 170.733 27.46 171 28 171C28.7267 171 29.09 170.57 29.09 169.71V166.09H26.6V165H30.39V169.64C30.39 170.46 30.19 171.076 29.79 171.49C29.39 171.896 28.8033 172.1 28.03 172.1ZM34.3834 172.1C33.8434 172.1 33.3201 172.023 32.8134 171.87C32.3134 171.716 31.9168 171.513 31.6234 171.26L32.0734 170.25C32.3601 170.476 32.7101 170.663 33.1234 170.81C33.5434 170.95 33.9634 171.02 34.3834 171.02C34.9034 171.02 35.2901 170.936 35.5434 170.77C35.8034 170.603 35.9334 170.383 35.9334 170.11C35.9334 169.91 35.8601 169.746 35.7134 169.62C35.5734 169.486 35.3934 169.383 35.1734 169.31C34.9534 169.236 34.6534 169.153 34.2734 169.06C33.7401 168.933 33.3068 168.806 32.9734 168.68C32.6468 168.553 32.3634 168.356 32.1234 168.09C31.8901 167.816 31.7734 167.45 31.7734 166.99C31.7734 166.603 31.8768 166.253 32.0834 165.94C32.2968 165.62 32.6134 165.366 33.0334 165.18C33.4601 164.993 33.9801 164.9 34.5934 164.9C35.0201 164.9 35.4401 164.953 35.8534 165.06C36.2668 165.166 36.6234 165.32 36.9234 165.52L36.5134 166.53C36.2068 166.35 35.8868 166.213 35.5534 166.12C35.2201 166.026 34.8968 165.98 34.5834 165.98C34.0701 165.98 33.6868 166.066 33.4334 166.24C33.1868 166.413 33.0634 166.643 33.0634 166.93C33.0634 167.13 33.1334 167.293 33.2734 167.42C33.4201 167.546 33.6034 167.646 33.8234 167.72C34.0434 167.793 34.3434 167.876 34.7234 167.97C35.2434 168.09 35.6701 168.216 36.0034 168.35C36.3368 168.476 36.6201 168.673 36.8534 168.94C37.0934 169.206 37.2134 169.566 37.2134 170.02C37.2134 170.406 37.1068 170.756 36.8934 171.07C36.6868 171.383 36.3701 171.633 35.9434 171.82C35.5168 172.006 34.9968 172.1 34.3834 172.1Z" fill="white"/>
<g filter="url(#filter2_d_2131_32313)">
<path d="M212 16.1852H13.3571C9.29391 16.1852 6 19.4791 6 23.5424V60.3281C6 64.3913 9.29391 67.6852 13.3571 67.6852H212C216.063 67.6852 219.357 64.3913 219.357 60.3281V23.5424C219.357 19.4791 216.063 16.1852 212 16.1852Z" fill="white"/>
</g>
<path d="M119.3 27.9566H81.0432C78.6052 27.9566 76.6289 29.9329 76.6289 32.3709C76.6289 34.8088 78.6052 36.7852 81.0432 36.7852H119.3C121.738 36.7852 123.715 34.8088 123.715 32.3709C123.715 29.9329 121.738 27.9566 119.3 27.9566Z" fill="#B4DAFF"/>
<path d="M145.786 47.0853H81.0432C78.6052 47.0853 76.6289 49.0616 76.6289 51.4996C76.6289 53.9375 78.6052 55.9138 81.0432 55.9138H145.786C148.224 55.9138 150.2 53.9375 150.2 51.4996C150.2 49.0616 148.224 47.0853 145.786 47.0853Z" fill="#DEE9FC"/>
<path d="M50.879 55.9138C58.5991 55.9138 64.8575 49.6554 64.8575 41.9352C64.8575 34.2151 58.5991 27.9567 50.879 27.9567C43.1588 27.9567 36.9004 34.2151 36.9004 41.9352C36.9004 49.6554 43.1588 55.9138 50.879 55.9138Z" fill="#305AA6"/>
<path d="M45.996 45.8652C45.4693 45.8652 44.9593 45.7852 44.466 45.6252C43.9793 45.4586 43.596 45.2452 43.316 44.9852L43.686 44.2052C43.9526 44.4452 44.2926 44.6419 44.706 44.7952C45.126 44.9419 45.556 45.0152 45.996 45.0152C46.576 45.0152 47.0093 44.9186 47.296 44.7252C47.5826 44.5252 47.726 44.2619 47.726 43.9352C47.726 43.6952 47.646 43.5019 47.486 43.3552C47.3326 43.2019 47.1393 43.0852 46.906 43.0052C46.6793 42.9252 46.356 42.8352 45.936 42.7352C45.4093 42.6086 44.9826 42.4819 44.656 42.3552C44.336 42.2286 44.0593 42.0352 43.826 41.7752C43.5993 41.5086 43.486 41.1519 43.486 40.7052C43.486 40.3319 43.5826 39.9952 43.776 39.6952C43.976 39.3952 44.276 39.1552 44.676 38.9752C45.076 38.7952 45.5726 38.7052 46.166 38.7052C46.5793 38.7052 46.986 38.7586 47.386 38.8652C47.786 38.9719 48.1293 39.1252 48.416 39.3252L48.086 40.1252C47.7926 39.9386 47.4793 39.7986 47.146 39.7052C46.8126 39.6052 46.486 39.5552 46.166 39.5552C45.5993 39.5552 45.1726 39.6586 44.886 39.8652C44.606 40.0719 44.466 40.3386 44.466 40.6652C44.466 40.9052 44.546 41.1019 44.706 41.2552C44.866 41.4019 45.0626 41.5186 45.296 41.6052C45.536 41.6852 45.8593 41.7719 46.266 41.8652C46.7926 41.9919 47.216 42.1186 47.536 42.2452C47.856 42.3719 48.1293 42.5652 48.356 42.8252C48.5893 43.0852 48.706 43.4352 48.706 43.8752C48.706 44.2419 48.606 44.5786 48.406 44.8852C48.206 45.1852 47.9026 45.4252 47.496 45.6052C47.0893 45.7786 46.5893 45.8652 45.996 45.8652ZM50.1669 38.7852H53.1169C53.8569 38.7852 54.5136 38.9319 55.0869 39.2252C55.6602 39.5186 56.1036 39.9319 56.4169 40.4652C56.7369 40.9919 56.8969 41.5986 56.8969 42.2852C56.8969 42.9719 56.7369 43.5819 56.4169 44.1152C56.1036 44.6419 55.6602 45.0519 55.0869 45.3452C54.5136 45.6386 53.8569 45.7852 53.1169 45.7852H50.1669V38.7852ZM53.0569 44.9152C53.6236 44.9152 54.1202 44.8052 54.5469 44.5852C54.9802 44.3652 55.3136 44.0586 55.5469 43.6652C55.7802 43.2652 55.8969 42.8052 55.8969 42.2852C55.8969 41.7652 55.7802 41.3086 55.5469 40.9152C55.3136 40.5152 54.9802 40.2052 54.5469 39.9852C54.1202 39.7652 53.6236 39.6552 53.0569 39.6552H51.1669V44.9152H53.0569Z" fill="white"/>
<defs>
<filter id="filter0_d_2131_32313" x="63.2715" y="76.4575" width="225.357" height="63.5" filterUnits="userSpaceOnUse" color-interpolation-filters="sRGB">
<feFlood flood-opacity="0" result="BackgroundImageFix"/>
<feColorMatrix in="SourceAlpha" type="matrix" values="0 0 0 0 0 0 0 0 0 0 0 0 0 0 0 0 0 0 127 0" result="hardAlpha"/>
<feOffset dy="3"/>
<feGaussianBlur stdDeviation="3"/>
<feColorMatrix type="matrix" values="0 0 0 0 0 0 0 0 0 0 0 0 0 0 0 0 0 0 0.161 0"/>
<feBlend mode="normal" in2="BackgroundImageFix" result="effect1_dropShadow_2131_32313"/>
<feBlend mode="normal" in="SourceGraphic" in2="effect1_dropShadow_2131_32313" result="shape"/>
</filter>
<filter id="filter1_d_2131_32313" x="0" y="139.728" width="225.357" height="63.4999" filterUnits="userSpaceOnUse" color-interpolation-filters="sRGB">
<feFlood flood-opacity="0" result="BackgroundImageFix"/>
<feColorMatrix in="SourceAlpha" type="matrix" values="0 0 0 0 0 0 0 0 0 0 0 0 0 0 0 0 0 0 127 0" result="hardAlpha"/>
<feOffset dy="3"/>
<feGaussianBlur stdDeviation="3"/>
<feColorMatrix type="matrix" values="0 0 0 0 0 0 0 0 0 0 0 0 0 0 0 0 0 0 0.161 0"/>
<feBlend mode="normal" in2="BackgroundImageFix" result="effect1_dropShadow_2131_32313"/>
<feBlend mode="normal" in="SourceGraphic" in2="effect1_dropShadow_2131_32313" result="shape"/>
</filter>
<filter id="filter2_d_2131_32313" x="0" y="13.1852" width="225.357" height="63.5" filterUnits="userSpaceOnUse" color-interpolation-filters="sRGB">
<feFlood flood-opacity="0" result="BackgroundImageFix"/>
<feColorMatrix in="SourceAlpha" type="matrix" values="0 0 0 0 0 0 0 0 0 0 0 0 0 0 0 0 0 0 127 0" result="hardAlpha"/>
<feOffset dy="3"/>
<feGaussianBlur stdDeviation="3"/>
<feColorMatrix type="matrix" values="0 0 0 0 0 0 0 0 0 0 0 0 0 0 0 0 0 0 0.161 0"/>
<feBlend mode="normal" in2="BackgroundImageFix" result="effect1_dropShadow_2131_32313"/>
<feBlend mode="normal" in="SourceGraphic" in2="effect1_dropShadow_2131_32313" result="shape"/>
</filter>
<linearGradient id="paint0_linear_2131_32313" x1="147.258" y1="0" x2="147.258" y2="206" gradientUnits="userSpaceOnUse">
<stop stop-color="#F7E9F6"/>
<stop offset="1" stop-color="#DAE7FF"/>
</linearGradient>
</defs>
</svg>
