<svg width="504" height="177" viewBox="0 0 504 177" fill="none" xmlns="http://www.w3.org/2000/svg">
<path fill-rule="evenodd" clip-rule="evenodd" d="M103.17 115.647C94.1259 112.141 90.1204 109.122 90.1204 102.984C90.1204 98.5052 93.5272 93.1474 102.49 93.1474C106.848 93.1284 111.142 94.2003 114.98 96.2656L117.319 89.3487C114.394 87.6906 109.523 86.1357 102.804 86.1357C90.0429 86.1357 81.5669 93.7332 81.5669 103.958C81.5669 113.213 88.1909 118.765 98.9065 122.564C107.77 125.975 111.276 129.481 111.276 135.618C111.276 142.242 106.211 146.816 97.5412 146.816C63.6544 143.06 48.0117 116.142 48.0117 116.142C36.3486 99.3838 24.2074 47.352 65.782 19.0814C107.357 -9.18921 145.779 17.6558 145.779 17.6558C109.932 -14.1422 54.0414 8.77063 54.0414 8.77063C8.43977 30.6885 17.2302 72.8834 17.4283 74.5458C17.6264 76.2083 17.5231 77.4745 17.0708 78.4565C16.6186 79.4385 15.4256 82.0614 14.2283 84.4862C13.0309 86.911 11.9284 87.8585 9.60694 90.5159C7.28551 93.1733 -0.156836 100.172 0.0025203 105.121C0.161876 110.069 10.6708 111.15 11.7346 111.15C12.0127 111.136 12.2898 111.194 12.5389 111.318C12.788 111.443 13.0006 111.63 13.1558 111.861C13.5406 112.44 13.8943 113.04 14.2153 113.657C14.5513 114.35 13.7847 115.216 13.5047 115.431C13.2248 115.647 10.2573 117.783 10.3047 120.057C10.352 122.331 12.5313 125.738 13.5047 126.81C14.4781 127.883 13.5047 128.589 13.5047 128.589C11.1101 130.721 11.3512 132.5 11.3512 132.5C11.446 134.683 15.0121 137.965 15.9726 138.9C16.2451 139.175 16.4258 139.527 16.4898 139.909C16.5538 140.291 16.498 140.683 16.33 141.032C13.5004 147.432 15.038 152.075 16.6875 155.964C18.3371 159.853 22.3985 160.572 22.3985 160.572C30.3189 161.356 43.0243 159.504 43.0243 159.504C87.2089 155.404 109.863 176.215 109.863 176.215C110.092 159.345 106.633 154.835 105.953 153.819C105.272 152.803 105.612 152.734 105.612 152.734C115.23 150.089 119.92 142.931 119.92 134.92C119.924 125.29 114.274 119.932 103.17 115.647ZM179.14 104.643C174.657 104.643 171.543 105.81 168.717 107.955C166.553 109.608 164.76 111.697 163.454 114.088H163.26C161.215 108.536 156.344 104.643 149.909 104.643C142.114 104.643 137.733 108.829 135.102 113.312H134.809L134.421 105.711H126.927C127.22 109.587 127.319 113.601 127.319 118.472V152.858H135.696V124.433C135.669 123.006 135.899 121.587 136.377 120.242C137.742 115.957 141.635 111.671 146.993 111.671C153.523 111.671 156.83 117.128 156.83 124.627V152.876H165.207V123.731C165.212 122.276 165.443 120.83 165.892 119.445C167.352 115.259 171.151 111.654 176.022 111.654C182.939 111.654 186.251 117.111 186.251 126.169V152.871H194.628V125.096C194.628 108.734 185.372 104.643 179.14 104.643ZM237.744 123.929C237.744 114.48 234.234 104.643 219.819 104.643C213.88 104.643 208.229 106.296 204.314 108.829L206.304 114.488C209.991 112.208 214.239 110.995 218.574 110.982C228.217 110.982 229.29 117.994 229.29 121.892V122.865C211.076 122.766 200.946 129.002 200.946 140.399C200.946 147.216 205.817 153.935 215.361 153.935C222.08 153.935 227.145 150.628 229.776 146.924H230.069L230.75 152.867H238.545C237.96 149.65 237.766 145.657 237.766 141.566L237.744 123.929ZM229.462 136.979C229.443 137.909 229.279 138.83 228.975 139.709C227.614 143.702 223.717 147.595 217.579 147.595C213.195 147.595 209.495 144.968 209.495 139.412C209.495 130.256 220.112 128.598 229.462 128.791V136.979ZM255.459 114.966H255.071L254.778 105.711H247.297C247.59 110.095 247.685 114.867 247.685 120.419V152.858H256.161V127.728C256.179 126.387 256.309 125.05 256.548 123.731C257.72 117.305 262.005 112.727 268.043 112.727C269.025 112.711 270.005 112.809 270.964 113.02V104.935C270.169 104.729 269.351 104.63 268.53 104.643C262.785 104.643 257.621 108.635 255.476 114.966H255.459ZM300.552 112.24V105.711H288.277V92.174L279.9 94.4136V105.711H272.63V112.24H279.952V137.952C279.952 143.508 280.813 147.695 283.264 150.227C285.31 152.566 288.523 153.832 292.52 153.832C295.832 153.832 298.459 153.345 300.117 152.66L299.725 146.234C298.103 146.648 296.433 146.845 294.759 146.82C289.987 146.82 288.329 143.508 288.329 137.664V112.253L300.552 112.24Z" fill="#003466"/>
<path fill-rule="evenodd" clip-rule="evenodd" d="M346.527 126.061C346.527 140.575 340.295 147.005 330.552 147.005C321.788 147.005 315.263 140.769 315.263 126.061V87.1952H306.688V125.867C306.688 146.226 316.818 153.918 330.259 153.918C344.472 153.918 355.102 145.64 355.102 125.492V87.1952H346.527V126.061ZM380.215 125.479C374.082 123.141 371.266 121.371 371.266 117.494C371.266 113.989 374.091 111.064 379.156 111.064C382.562 111.061 385.901 112.007 388.799 113.795L390.953 107.558C388.325 105.999 384.135 104.638 379.363 104.638C369.233 104.638 363.095 110.87 363.095 118.468C363.095 124.118 367.088 128.804 375.564 131.819C381.895 134.153 384.329 136.397 384.329 140.485C384.329 144.382 381.408 147.501 375.172 147.501C370.887 147.501 366.407 145.748 363.875 144.09L361.722 150.619C365.034 152.566 369.81 153.832 374.97 153.832C386.168 153.832 392.602 147.987 392.602 139.709C392.589 132.685 388.399 128.593 380.215 125.479ZM410.028 92.1654L401.651 94.405V105.702H394.329V112.231H401.651V137.944C401.651 143.5 402.512 147.686 404.963 150.218C407.009 152.557 410.222 153.823 414.219 153.823C417.531 153.823 420.158 153.336 421.816 152.652L421.424 146.226C419.802 146.639 418.132 146.836 416.458 146.812C411.686 146.812 410.028 143.499 410.028 137.655V112.244H422.303V105.702H410.028V92.1654ZM461.16 123.92C461.16 114.471 457.654 104.634 443.239 104.634C437.295 104.634 431.644 106.288 427.734 108.82L429.685 114.48C433.374 112.199 437.622 110.986 441.959 110.974C451.603 110.974 452.675 117.985 452.675 121.883V122.856C434.457 122.757 424.327 128.994 424.327 140.39C424.327 147.208 429.198 153.927 438.742 153.927C445.465 153.927 450.53 150.619 453.162 146.915H453.45L454.135 152.858H461.926C461.34 149.641 461.147 145.649 461.147 141.557L461.16 123.92ZM452.882 136.97C452.862 137.9 452.698 138.821 452.395 139.701C451.03 143.693 447.132 147.587 440.999 147.587C436.614 147.587 432.911 144.96 432.911 139.404C432.911 130.247 443.531 128.589 452.882 128.783V136.97ZM476.445 146.015V145.817C478.598 143.383 480.532 141.045 482.475 138.417L503.514 111.043L503.609 105.685H467.667V112.602H493.19V112.795C491.037 115.328 489.099 117.572 487.053 120.117L465.721 147.875V152.845H504V146.032L476.445 146.015Z" fill="#32BAE4"/>
<path fill-rule="evenodd" clip-rule="evenodd" d="M122.078 34.8692C119.747 34.8692 117.469 35.5603 115.531 36.8552C113.593 38.15 112.083 39.9903 111.191 42.1435C110.299 44.2967 110.066 46.666 110.521 48.9519C110.975 51.2377 112.098 53.3373 113.745 54.9853C115.393 56.6333 117.493 57.7556 119.779 58.2103C122.065 58.6649 124.434 58.4316 126.587 57.5397C128.74 56.6478 130.581 55.1375 131.876 53.1996C133.17 51.2618 133.862 48.9836 133.862 46.653C133.862 45.1053 133.558 43.5728 132.966 42.1429C132.374 40.7129 131.506 39.4137 130.411 38.3193C129.317 37.225 128.018 36.3571 126.588 35.7651C125.158 35.1731 123.625 34.8687 122.078 34.8692ZM122.078 56.6795C120.095 56.6795 118.156 56.0914 116.507 54.9897C114.859 53.888 113.573 52.322 112.815 50.4899C112.056 48.6578 111.857 46.6418 112.244 44.6969C112.631 42.7519 113.586 40.9654 114.988 39.5632C116.39 38.1609 118.177 37.206 120.122 36.8191C122.067 36.4322 124.083 36.6308 125.915 37.3897C127.747 38.1486 129.313 39.4337 130.415 41.0825C131.516 42.7314 132.104 44.6699 132.104 46.653C132.104 49.3122 131.048 51.8624 129.168 53.7428C127.287 55.6231 124.737 56.6795 122.078 56.6795ZM152.467 49.698L152.597 45.4944L146.825 42.7164C146.632 41.5076 146.351 40.3143 145.986 39.146L149.883 34.0854L147.893 30.3814L141.498 30.8638C140.729 29.9162 139.891 29.0266 138.991 28.2021L139.852 21.8494L136.273 19.6357L130.985 23.2449C129.846 22.8091 128.677 22.4564 127.487 22.1897L125.063 16.2634L120.859 16.1342L118.09 21.8882C116.882 22.088 115.69 22.3759 114.523 22.7496L109.459 18.826L105.755 20.8201L106.237 27.2115C105.291 27.9828 104.402 28.8205 103.575 29.7182L97.2226 28.8568L95.0089 32.4315L98.631 37.7118C98.1926 38.8555 97.8399 40.0302 97.5758 41.2262L91.6495 43.651L91.5203 47.8546L97.2915 50.6282C97.4843 51.8372 97.765 53.0305 98.1314 54.1987L94.2078 59.2593L96.2019 62.9632L102.593 62.4852C103.363 63.4318 104.201 64.3214 105.1 65.1469L104.239 71.4996L107.813 73.709L113.089 70.1257C114.232 70.5606 115.405 70.9119 116.599 71.1765L119.02 77.1072L123.223 77.2364L126.001 71.4651C127.211 71.2673 128.405 70.9794 129.572 70.6037L134.632 74.5273L138.336 72.5375L137.858 66.1418C138.805 65.3717 139.695 64.534 140.52 63.6351L146.873 64.4965L149.082 60.9175L145.473 55.6286C145.911 54.4863 146.264 53.3131 146.528 52.1184L152.467 49.698ZM135.722 47.0147C135.64 49.7223 134.757 52.3447 133.184 54.5503C131.612 56.756 129.42 58.4457 126.887 59.4059C124.354 60.3661 121.594 60.5537 118.954 59.9448C116.315 59.336 113.915 57.9581 112.058 55.9855C110.202 54.0128 108.972 51.5339 108.525 48.8623C108.077 46.1907 108.432 43.4464 109.544 40.9764C110.656 38.5064 112.476 36.4216 114.773 34.9857C117.069 33.5499 119.741 32.8274 122.448 32.9096C126.077 33.0221 129.513 34.5711 132.001 37.2161C134.488 39.861 135.824 43.3855 135.714 47.0147H135.722Z" fill="#FFD101"/>
<path fill-rule="evenodd" clip-rule="evenodd" d="M65.3055 66.087C63.7867 66.087 62.302 66.5374 61.0392 67.3812C59.7763 68.225 58.7921 69.4243 58.2109 70.8275C57.6296 72.2307 57.4776 73.7748 57.7739 75.2644C58.0702 76.754 58.8015 78.1223 59.8755 79.1963C60.9495 80.2702 62.3178 81.0016 63.8074 81.2979C65.297 81.5942 66.8411 81.4422 68.2443 80.8609C69.6475 80.2797 70.8468 79.2954 71.6906 78.0326C72.5344 76.7698 72.9848 75.2851 72.9848 73.7663C72.9848 71.7296 72.1757 69.7763 70.7356 68.3362C69.2954 66.8961 67.3422 66.087 65.3055 66.087ZM65.3055 80.2998C64.0133 80.2998 62.7501 79.9167 61.6757 79.1987C60.6012 78.4808 59.7638 77.4604 59.2693 76.2665C58.7748 75.0727 58.6454 73.759 58.8975 72.4916C59.1496 71.2242 59.7719 70.06 60.6856 69.1463C61.5993 68.2326 62.7635 67.6103 64.0309 67.3582C65.2983 67.1061 66.612 67.2355 67.8058 67.73C68.9997 68.2245 70.0201 69.0619 70.738 70.1364C71.4559 71.2108 71.8391 72.474 71.8391 73.7663C71.8391 75.4991 71.1508 77.1609 69.9255 78.3862C68.7002 79.6115 67.0384 80.2998 65.3055 80.2998ZM85.1174 75.7517L85.2035 73.0125L81.4436 71.2036C81.3173 70.4163 81.1345 69.639 80.8966 68.8779L83.4506 65.5788L82.1585 63.1669L77.9894 63.4813C77.4877 62.8683 76.9422 62.2926 76.3571 61.7586L76.9213 57.6196L74.5913 56.1768L71.1457 58.5284C70.4012 58.2445 69.6368 58.0156 68.8587 57.8436L67.2781 53.9674L64.5389 53.8812L62.73 57.6455C61.9423 57.7702 61.165 57.953 60.4043 58.1924L57.1095 55.6341L54.6933 56.9262L55.0077 61.091C54.3947 61.5927 53.8189 62.1382 53.2849 62.7233L49.1115 62.1677L47.673 64.4978L50.0203 67.9433C49.7364 68.6879 49.5075 69.4522 49.3355 70.2303L45.4593 71.8109L45.3774 74.5501L49.1374 76.359C49.2616 77.1468 49.4444 77.9242 49.6844 78.6848L47.1304 81.9838L48.4224 84.3957L52.5872 84.0813C53.0877 84.6953 53.6334 85.2712 54.2195 85.8041L53.6553 89.943L56.0026 91.3988L59.4481 89.0472C60.1935 89.333 60.9595 89.5619 61.7394 89.732L63.3157 93.6082L66.0549 93.6943L67.8638 89.9344C68.6512 89.8081 69.4285 89.6253 70.1896 89.3874L73.4887 91.9414L75.9006 90.6494L75.5861 86.4803C76.2002 85.9797 76.776 85.4341 77.3089 84.8479L81.4479 85.4122L82.8907 83.0821L80.5391 79.6366C80.8224 78.8915 81.0527 78.1272 81.2282 77.3496L85.1174 75.7517ZM65.0213 82.6428C63.2559 82.5934 61.5448 82.0212 60.1047 80.9987C58.6647 79.9763 57.5604 78.5495 56.9317 76.8991C56.303 75.2486 56.1782 73.4488 56.573 71.7274C56.9678 70.0059 57.8646 68.4404 59.1497 67.2289C60.4348 66.0174 62.0505 65.2145 63.7922 64.9218C65.5339 64.6292 67.3233 64.8599 68.9338 65.5847C70.5443 66.3096 71.9035 67.4961 72.8393 68.9939C73.7751 70.4917 74.2454 72.2336 74.1907 73.9988C74.1562 75.1703 73.8911 76.3235 73.4106 77.3925C72.9301 78.4615 72.2437 79.4254 71.3905 80.2289C70.5374 81.0325 69.5342 81.6601 68.4384 82.0757C67.3425 82.4914 66.1755 82.687 65.0041 82.6514L65.0213 82.6428Z" fill="#32BAE4"/>
</svg>
