<svg width="20" height="20" viewBox="0 0 20 20" fill="none" xmlns="http://www.w3.org/2000/svg">
<path d="M7.24112 16.8749H3.75C3.58424 16.8749 3.42527 16.8091 3.30806 16.6918C3.19085 16.5746 3.125 16.4157 3.125 16.2499V12.7588C3.125 12.6767 3.14117 12.5954 3.17258 12.5196C3.20398 12.4438 3.25002 12.3749 3.30806 12.3168L12.6831 2.94185C12.8003 2.82464 12.9592 2.75879 13.125 2.75879C13.2908 2.75879 13.4497 2.82464 13.5669 2.94185L17.0581 6.43296C17.1753 6.55017 17.2411 6.70915 17.2411 6.87491C17.2411 7.04067 17.1753 7.19964 17.0581 7.31685L7.68306 16.6918C7.62502 16.7499 7.55612 16.7959 7.48029 16.8273C7.40447 16.8587 7.32319 16.8749 7.24112 16.8749Z" fill="#2B2D33"/>
<path d="M3.16504 12.54L7.46063 16.8356" stroke="white" stroke-width="1.5" stroke-linecap="round" stroke-linejoin="round"/>
<path d="M10.625 5L15 9.375" stroke="white" stroke-width="1.5" stroke-linecap="round" stroke-linejoin="round"/>
<path d="M7.24112 16.8759H3.75C3.58424 16.8759 3.42527 16.81 3.30806 16.6928C3.19085 16.5756 3.125 16.4166 3.125 16.2509V12.7598C3.125 12.6777 3.14117 12.5964 3.17258 12.5206C3.20398 12.4448 3.25002 12.3759 3.30806 12.3178L12.6831 2.94282C12.8003 2.82561 12.9592 2.75977 13.125 2.75977C13.2908 2.75977 13.4497 2.82561 13.5669 2.94282L17.0581 6.43394C17.1753 6.55115 17.2411 6.71012 17.2411 6.87588C17.2411 7.04164 17.1753 7.20061 17.0581 7.31782L7.68306 16.6928C7.62502 16.7509 7.55612 16.7969 7.48029 16.8283C7.40447 16.8597 7.32319 16.8759 7.24112 16.8759Z" stroke="#2B2D33" stroke-width="1.5" stroke-linecap="round" stroke-linejoin="round"/>
</svg>
