<svg width="1920" height="1080" viewBox="0 0 1920 1080" fill="none" xmlns="http://www.w3.org/2000/svg">
<g clip-path="url(#clip0_1921_22567)">
<rect width="1920" height="1080" fill="white"/>
<path d="M0 0H1240L928.085 1080H0V0Z" fill="url(#paint0_linear_1921_22567)"/>
<g filter="url(#filter0_dd_1921_22567)">
<circle cx="933.677" cy="344.654" r="15.1841" fill="url(#paint1_linear_1921_22567)" shape-rendering="crispEdges"/>
</g>
<g filter="url(#filter1_dd_1921_22567)">
<circle cx="979.982" cy="296.192" r="11.2334" fill="url(#paint2_linear_1921_22567)" shape-rendering="crispEdges"/>
</g>
<circle cx="910" cy="206" r="114" fill="url(#paint3_radial_1921_22567)" fill-opacity="0.6"/>
<g filter="url(#filter2_d_1921_22567)">
<ellipse cx="933.45" cy="231.573" rx="68.3032" ry="42.7901" fill="url(#paint4_linear_1921_22567)" fill-opacity="0.5" shape-rendering="crispEdges"/>
<path d="M1001.28 231.573C1001.28 243.169 993.778 253.738 981.497 261.432C969.223 269.121 952.237 273.893 933.45 273.893C914.663 273.893 897.676 269.121 885.402 261.432C873.121 253.738 865.617 243.169 865.617 231.573C865.617 219.977 873.121 209.409 885.402 201.715C897.676 194.025 914.663 189.254 933.45 189.254C952.237 189.254 969.223 194.025 981.497 201.715C993.778 209.409 1001.28 219.977 1001.28 231.573Z" stroke="url(#paint5_linear_1921_22567)" stroke-opacity="0.6" stroke-width="0.941174" shape-rendering="crispEdges"/>
</g>
<circle cx="933.448" cy="191.673" r="86.6534" fill="url(#paint6_radial_1921_22567)"/>
<ellipse cx="933.448" cy="206" rx="84.7183" ry="49.5618" fill="url(#paint7_linear_1921_22567)" fill-opacity="0.5"/>
<path d="M1017.7 206C1017.7 219.45 1008.37 231.713 993.115 240.64C977.868 249.559 956.773 255.092 933.448 255.092C910.122 255.092 889.028 249.559 873.781 240.64C858.522 231.713 849.2 219.45 849.2 206C849.2 192.55 858.522 180.287 873.781 171.361C889.028 162.441 910.122 156.909 933.448 156.909C956.773 156.909 977.868 162.441 993.115 171.361C1008.37 180.287 1017.7 192.55 1017.7 206Z" stroke="url(#paint8_linear_1921_22567)" stroke-opacity="0.6" stroke-width="0.941174"/>
<circle cx="933.448" cy="191.673" r="64.1859" fill="url(#paint9_radial_1921_22567)"/>
<circle cx="933.448" cy="191.673" r="64.1859" fill="url(#paint10_radial_1921_22567)"/>
<g filter="url(#filter3_d_1921_22567)">
<ellipse cx="933.449" cy="175.23" rx="83.8566" ry="48.4157" fill="url(#paint11_linear_1921_22567)" fill-opacity="0.5" shape-rendering="crispEdges"/>
<path d="M1016.83 175.23C1016.83 188.36 1007.61 200.337 992.509 209.058C977.418 217.771 956.538 223.175 933.449 223.175C910.36 223.175 889.48 217.771 874.389 209.058C859.285 200.337 850.063 188.36 850.063 175.23C850.063 162.1 859.285 150.123 874.389 141.403C889.48 132.689 910.36 127.285 933.449 127.285C956.538 127.285 977.418 132.689 992.509 141.403C1007.61 150.123 1016.83 162.1 1016.83 175.23Z" stroke="url(#paint12_linear_1921_22567)" stroke-opacity="0.6" stroke-width="0.941174" shape-rendering="crispEdges"/>
</g>
<g filter="url(#filter4_d_1921_22567)">
<ellipse cx="933.448" cy="150.229" rx="65.0703" ry="42.0597" fill="url(#paint13_linear_1921_22567)" fill-opacity="0.5" shape-rendering="crispEdges"/>
<path d="M998.048 150.229C998.048 161.631 990.898 172.017 979.204 179.575C967.516 187.13 951.34 191.818 933.448 191.818C915.557 191.818 899.381 187.13 887.692 179.575C875.999 172.017 868.849 161.631 868.849 150.229C868.849 138.828 875.999 128.442 887.692 120.884C899.381 113.329 915.557 108.64 933.448 108.64C951.34 108.64 967.516 113.329 979.204 120.884C990.898 128.442 998.048 138.828 998.048 150.229Z" stroke="url(#paint14_linear_1921_22567)" stroke-opacity="0.6" stroke-width="0.941174" shape-rendering="crispEdges"/>
</g>
<ellipse cx="933.449" cy="135.621" rx="40.5014" ry="27.4511" fill="url(#paint15_linear_1921_22567)" fill-opacity="0.5"/>
<path d="M973.479 135.621C973.479 142.998 969.068 149.732 961.823 154.642C954.582 159.55 944.551 162.601 933.449 162.601C922.346 162.601 912.315 159.55 905.074 154.642C897.83 149.732 893.418 142.998 893.418 135.621C893.418 128.243 897.83 121.509 905.074 116.599C912.315 111.691 922.346 108.64 933.449 108.64C944.551 108.64 954.582 111.691 961.823 116.599C969.068 121.509 973.479 128.243 973.479 135.621Z" stroke="url(#paint16_linear_1921_22567)" stroke-opacity="0.6" stroke-width="0.941174"/>
<ellipse cx="933.448" cy="126.249" rx="23.4483" ry="16.1339" fill="url(#paint17_linear_1921_22567)" fill-opacity="0.5"/>
<path d="M956.426 126.249C956.426 130.505 953.919 134.409 949.762 137.27C945.607 140.129 939.84 141.912 933.448 141.912C927.056 141.912 921.29 140.129 917.135 137.27C912.977 134.409 910.471 130.505 910.471 126.249C910.471 121.993 912.977 118.089 917.135 115.228C921.29 112.369 927.056 110.586 933.448 110.586C939.84 110.586 945.607 112.369 949.762 115.228C953.919 118.089 956.426 121.993 956.426 126.249Z" stroke="url(#paint18_linear_1921_22567)" stroke-opacity="0.6" stroke-width="0.941174"/>
<circle cx="933.448" cy="191.673" r="86.6534" fill="url(#paint19_radial_1921_22567)" fill-opacity="0.3"/>
<g clip-path="url(#clip1_1921_22567)">
<path d="M1264.17 680.516C1265.62 679.166 1266.76 677.523 1267.52 675.697C1268.28 673.871 1268.64 671.904 1268.58 669.927C1268.58 660.218 1260.91 653.54 1249.93 653.54H1235.16C1234.35 653.511 1233.53 653.65 1232.77 653.948C1232.01 654.246 1231.32 654.697 1230.74 655.273C1230.17 655.848 1229.71 656.537 1229.41 657.295C1229.11 658.053 1228.97 658.864 1229 659.678V706.137C1228.97 706.952 1229.11 707.764 1229.41 708.522C1229.71 709.281 1230.17 709.97 1230.74 710.547C1231.32 711.123 1232.01 711.575 1232.77 711.874C1233.53 712.174 1234.35 712.314 1235.16 712.286H1255.24C1266.67 712.286 1274.7 705.156 1274.7 695.007C1274.7 687.999 1270.77 682.842 1264.17 680.516ZM1240.7 663.866H1248.99C1253.73 663.866 1256.72 666.356 1256.72 670.544C1256.72 674.731 1253.78 677.31 1249.05 677.31H1240.7V663.866ZM1254.4 701.983H1240.7V687.205H1254.4C1259.67 687.205 1262.8 689.96 1262.8 694.588C1262.8 699.217 1259.62 701.983 1254.4 701.983Z" fill="#305AA6"/>
<path d="M1290.42 652.472C1289.61 652.451 1288.81 652.597 1288.05 652.899C1287.3 653.202 1286.62 653.654 1286.05 654.229C1285.48 654.805 1285.04 655.49 1284.74 656.243C1284.45 656.997 1284.32 657.802 1284.35 658.609V707.239C1284.28 708.064 1284.39 708.894 1284.67 709.675C1284.94 710.456 1285.38 711.172 1285.94 711.779C1286.5 712.385 1287.19 712.869 1287.95 713.2C1288.71 713.531 1289.53 713.701 1290.36 713.701C1291.19 713.701 1292.01 713.531 1292.77 713.2C1293.53 712.869 1294.21 712.385 1294.78 711.779C1295.34 711.172 1295.78 710.456 1296.05 709.675C1296.33 708.894 1296.43 708.064 1296.37 707.239V658.609C1296.41 657.811 1296.28 657.015 1295.99 656.268C1295.71 655.522 1295.27 654.841 1294.72 654.267C1294.16 653.693 1293.49 653.238 1292.75 652.929C1292.01 652.621 1291.22 652.465 1290.42 652.472Z" fill="#305AA6"/>
<path d="M1343.98 688.627C1346.84 687.007 1349.2 684.644 1350.82 681.789C1352.44 678.935 1353.25 675.696 1353.18 672.417C1353.18 661.199 1344.61 653.54 1332.02 653.54H1315.95C1315.14 653.51 1314.33 653.645 1313.58 653.937C1312.82 654.23 1312.14 654.673 1311.56 655.239C1310.98 655.806 1310.53 656.484 1310.23 657.233C1309.92 657.981 1309.77 658.783 1309.79 659.59V707.239C1309.76 708.05 1309.89 708.86 1310.18 709.619C1310.46 710.379 1310.9 711.073 1311.46 711.659C1312.03 712.245 1312.7 712.711 1313.45 713.03C1314.2 713.349 1315 713.513 1315.82 713.513C1316.63 713.513 1317.44 713.349 1318.19 713.03C1318.93 712.711 1319.61 712.245 1320.17 711.659C1320.74 711.073 1321.17 710.379 1321.46 709.619C1321.75 708.86 1321.88 708.05 1321.84 707.239V691.569H1332.1L1345.36 710.302C1345.91 711.232 1346.7 712.006 1347.63 712.552C1348.57 713.097 1349.63 713.396 1350.71 713.421C1352.19 713.416 1353.6 712.837 1354.65 711.808C1355.7 710.779 1356.31 709.381 1356.35 707.911C1356.24 706.264 1355.65 704.685 1354.65 703.371L1343.98 688.627ZM1331.93 680.968H1321.84V664.13H1331.93C1337.37 664.13 1340.85 667.436 1340.85 672.505C1340.85 677.574 1337.46 680.968 1331.93 680.968Z" fill="#305AA6"/>
<path d="M1415.76 680.076H1398.62C1397.9 680.029 1397.18 680.13 1396.51 680.371C1395.84 680.612 1395.22 680.988 1394.7 681.477C1394.17 681.965 1393.76 682.555 1393.47 683.211C1393.19 683.867 1393.04 684.573 1393.04 685.288C1393.04 686.002 1393.19 686.709 1393.47 687.365C1393.76 688.021 1394.17 688.611 1394.7 689.099C1395.22 689.588 1395.84 689.964 1396.51 690.205C1397.18 690.446 1397.9 690.547 1398.62 690.5H1409.86V695.569C1406.47 699.977 1400.85 702.611 1394.33 702.611C1382.72 702.611 1374.69 694.589 1374.69 682.93C1374.69 671.271 1382.42 663.601 1393.61 663.601C1396.28 663.538 1398.93 664.064 1401.36 665.143C1403.8 666.221 1405.97 667.825 1407.72 669.838C1409.51 671.789 1410.93 672.505 1412.81 672.505C1414.26 672.505 1415.65 671.935 1416.69 670.919C1417.72 669.902 1418.31 668.52 1418.33 667.073C1418.33 665.023 1417.23 663.15 1414.67 660.747C1409.85 655.678 1401.82 652.472 1393.78 652.472C1376.02 652.472 1362.28 665.695 1362.28 682.93C1362.28 700.164 1376.02 713.388 1393.78 713.388C1404.23 713.388 1414.67 708.308 1420.03 700.473C1421.34 698.497 1421.99 696.161 1421.9 693.795V686.225C1421.93 685.411 1421.79 684.6 1421.49 683.843C1421.19 683.085 1420.74 682.396 1420.17 681.82C1419.59 681.243 1418.9 680.791 1418.14 680.491C1417.38 680.191 1416.57 680.049 1415.76 680.076Z" fill="#305AA6"/>
<path d="M1468.15 701.454H1444.37V686.577H1459.95C1460.64 686.609 1461.33 686.501 1461.98 686.258C1462.64 686.015 1463.23 685.643 1463.73 685.165C1464.23 684.687 1464.63 684.111 1464.91 683.474C1465.18 682.837 1465.32 682.152 1465.32 681.459C1465.32 680.766 1465.18 680.08 1464.91 679.443C1464.63 678.806 1464.23 678.231 1463.73 677.752C1463.23 677.274 1462.64 676.902 1461.98 676.659C1461.33 676.417 1460.64 676.308 1459.95 676.34H1444.37V664.406H1467.14C1467.86 664.416 1468.58 664.283 1469.25 664.015C1469.91 663.746 1470.52 663.348 1471.04 662.842C1471.55 662.337 1471.96 661.734 1472.24 661.07C1472.52 660.406 1472.66 659.693 1472.66 658.973C1472.68 658.249 1472.54 657.529 1472.27 656.858C1472 656.187 1471.59 655.578 1471.07 655.07C1470.56 654.561 1469.94 654.163 1469.26 653.9C1468.59 653.637 1467.86 653.515 1467.14 653.541H1438.31C1437.52 653.526 1436.74 653.67 1436 653.964C1435.27 654.258 1434.61 654.696 1434.05 655.253C1433.49 655.809 1433.05 656.472 1432.75 657.202C1432.46 657.932 1432.31 658.715 1432.32 659.502V706.346C1432.31 707.135 1432.45 707.918 1432.75 708.65C1433.04 709.381 1433.49 710.045 1434.04 710.603C1434.6 711.161 1435.27 711.6 1436 711.895C1436.74 712.19 1437.52 712.334 1438.31 712.319H1468.21C1469.65 712.319 1471.04 711.747 1472.06 710.728C1473.08 709.709 1473.65 708.327 1473.65 706.886C1473.65 705.446 1473.08 704.064 1472.06 703.045C1471.04 702.026 1469.65 701.454 1468.21 701.454H1468.15Z" fill="#305AA6"/>
<path d="M1536.28 652.472C1518.77 652.472 1505.03 665.827 1505.03 682.93C1505.03 700.032 1518.68 713.388 1536.28 713.388C1553.87 713.388 1567.69 699.933 1567.69 682.93C1567.69 665.927 1553.86 652.472 1536.28 652.472ZM1536.37 702.247C1525.32 702.247 1517.44 694.236 1517.44 682.93C1517.44 671.624 1525.29 663.601 1536.37 663.601C1547.44 663.601 1555.29 671.701 1555.29 682.93C1555.29 694.159 1547.34 702.247 1536.37 702.247Z" fill="#305AA6"/>
<path d="M1661.25 721.564C1660.36 721.564 1658.84 721.741 1656.83 721.741C1643.45 721.741 1633.64 717.024 1625.59 706.611C1629.19 703.797 1632.1 700.2 1634.09 696.094C1636.09 691.988 1637.12 687.482 1637.11 682.919C1637.11 665.904 1623.27 652.461 1605.68 652.461C1588.1 652.461 1574.44 665.816 1574.44 682.919C1574.44 700.021 1588.1 713.377 1605.68 713.377C1609.06 713.382 1612.41 712.869 1615.62 711.856C1619.98 718.178 1625.84 723.325 1632.68 726.838C1639.52 730.351 1647.12 732.12 1654.81 731.989C1657.63 732.097 1660.45 731.675 1663.12 730.744C1664.06 730.457 1664.88 729.871 1665.46 729.076C1666.04 728.281 1666.35 727.319 1666.33 726.336C1666.38 723.361 1664.38 721.564 1661.25 721.564ZM1605.82 702.236C1594.77 702.236 1586.9 694.137 1586.9 682.919C1586.9 671.701 1594.75 663.59 1605.67 663.59C1616.6 663.59 1624.68 671.69 1624.68 682.919C1624.68 694.148 1616.79 702.247 1605.82 702.247V702.236Z" fill="#305AA6"/>
<path d="M1684.11 652.472C1681.52 652.472 1679.83 653.629 1678.48 656.031L1665.81 677.938L1653.12 656.031C1651.7 653.54 1650 652.472 1647.41 652.472C1646.65 652.451 1645.89 652.583 1645.17 652.86C1644.46 653.136 1643.81 653.552 1643.26 654.083C1642.71 654.613 1642.27 655.248 1641.97 655.95C1641.67 656.651 1641.52 657.406 1641.51 658.169C1641.52 659.615 1641.99 661.02 1642.86 662.18L1659.75 689.96V707.239C1659.71 708.05 1659.84 708.86 1660.13 709.619C1660.42 710.379 1660.86 711.073 1661.42 711.659C1661.98 712.245 1662.66 712.711 1663.41 713.03C1664.15 713.349 1664.96 713.513 1665.77 713.513C1666.59 713.513 1667.39 713.349 1668.14 713.03C1668.89 712.711 1669.56 712.245 1670.13 711.659C1670.69 711.073 1671.13 710.379 1671.42 709.619C1671.7 708.86 1671.83 708.05 1671.8 707.239V689.96L1688.76 662.18C1689.57 661.032 1690.01 659.662 1690.01 658.257C1690.02 657.487 1689.87 656.724 1689.57 656.013C1689.28 655.301 1688.84 654.657 1688.29 654.117C1687.74 653.577 1687.09 653.153 1686.37 652.871C1685.65 652.588 1684.88 652.452 1684.11 652.472Z" fill="#305AA6"/>
<path d="M1661.04 643.325C1662.11 643.003 1663.08 642.416 1663.87 641.618C1664.65 640.821 1665.21 639.838 1665.51 638.763L1668.95 626.796C1669.35 625.478 1669.39 624.078 1669.06 622.741C1668.84 621.848 1668.44 621.009 1667.89 620.272C1667.33 619.536 1666.64 618.917 1665.84 618.453C1665.05 617.989 1664.17 617.688 1663.25 617.569C1662.34 617.45 1661.41 617.515 1660.52 617.76C1659.21 618.111 1658.03 618.823 1657.11 619.816C1656.19 620.808 1655.57 622.04 1655.32 623.369L1653.45 635.303C1653.29 636.37 1653.29 637.454 1653.45 638.521C1653.6 639.35 1653.92 640.139 1654.39 640.838C1654.87 641.538 1655.48 642.132 1656.19 642.583C1656.9 643.035 1657.7 643.334 1658.54 643.462C1659.37 643.589 1660.22 643.543 1661.04 643.325Z" fill="#305AA6"/>
<path d="M1419.51 533.317C1417.95 533.314 1416.46 532.695 1415.36 531.597C1414.25 530.499 1413.63 529.009 1413.63 527.454V428.531C1413.63 427.485 1413.91 426.458 1414.44 425.557C1414.98 424.655 1415.74 423.913 1416.66 423.406C1417.58 422.9 1418.62 422.647 1419.67 422.674C1420.71 422.701 1421.74 423.008 1422.63 423.561L1501.94 473.017C1502.78 473.546 1503.47 474.277 1503.95 475.145C1504.43 476.012 1504.68 476.986 1504.68 477.976C1504.68 478.967 1504.43 479.941 1503.95 480.808C1503.47 481.675 1502.78 482.407 1501.94 482.935L1422.63 532.391C1421.7 532.987 1420.62 533.308 1419.51 533.317ZM1425.39 439.11V516.875L1487.74 478.031L1425.39 439.11Z" fill="#305AA6"/>
<path d="M1605.03 585.175C1603.89 586.385 1602.36 587.145 1600.7 587.313C1600 587.381 1599.29 587.309 1598.61 587.101C1597.93 586.892 1597.3 586.553 1596.76 586.1L1573.25 564.59L1562.76 584.216C1562.45 584.918 1561.95 585.516 1561.3 585.936C1560.66 586.357 1559.91 586.582 1559.14 586.585C1558.57 586.518 1558.03 586.282 1557.6 585.906C1557.17 585.531 1556.86 585.034 1556.71 584.481L1533.95 514.264C1533.9 514.102 1533.89 513.93 1533.92 513.764C1533.96 513.598 1534.04 513.444 1534.15 513.316L1534.4 513.029C1534.52 512.894 1534.68 512.795 1534.85 512.742C1535.02 512.69 1535.21 512.686 1535.38 512.732L1606.94 531.465C1607.5 531.583 1608.01 531.864 1608.4 532.273C1608.79 532.681 1609.06 533.199 1609.15 533.757C1609.19 534.53 1609 535.298 1608.61 535.966C1608.22 536.633 1607.64 537.172 1606.94 537.515L1587.96 549.053L1610.78 571.246C1611.27 571.758 1611.66 572.364 1611.91 573.029C1612.17 573.694 1612.28 574.403 1612.26 575.114C1612.22 576.019 1612.01 576.908 1611.63 577.73C1611.25 578.553 1610.71 579.293 1610.05 579.907L1605.36 584.844C1605.26 584.961 1605.15 585.071 1605.03 585.175Z" fill="#D33168"/>
<path fill-rule="evenodd" clip-rule="evenodd" d="M1537.28 385.918C1519.14 367.812 1496.01 355.482 1470.84 350.487C1445.67 345.492 1419.58 348.056 1395.87 357.856C1372.16 367.655 1351.89 384.25 1337.63 405.541C1323.37 426.832 1315.76 451.863 1315.76 477.469C1315.76 503.076 1323.37 528.107 1337.63 549.398C1351.89 570.689 1372.16 587.283 1395.87 597.083C1419.58 606.882 1445.67 609.446 1470.84 604.451C1496.01 599.456 1519.14 587.126 1537.28 569.02L1537.9 568.392L1533.91 556.27C1532.44 557.916 1530.93 559.518 1529.36 561.075C1509.12 581.238 1482.24 593.402 1453.69 595.313C1425.15 597.225 1396.88 588.756 1374.11 571.474C1351.35 554.191 1335.63 529.266 1329.86 501.31C1324.09 473.354 1328.67 444.261 1342.75 419.414C1356.83 394.568 1379.45 375.651 1406.43 366.164C1433.41 356.677 1462.92 357.262 1489.51 367.812C1516.09 378.362 1537.94 398.161 1551.01 423.546C1564.09 448.932 1567.51 478.184 1560.63 505.889L1571.47 508.732C1576.85 487.057 1576.53 464.362 1570.54 442.847C1564.55 421.331 1553.1 401.722 1537.28 385.918Z" fill="#305AA6"/>
</g>
<rect width="3.01585" height="3.01585" transform="matrix(-0.673634 -0.739065 -0.739065 0.673634 426.334 955.433)" fill="white"/>
<rect x="368.676" y="809.128" width="2.83422" height="2.83422" transform="rotate(47.6518 368.676 809.128)" fill="white"/>
<rect width="3.01585" height="3.01585" transform="matrix(-0.673668 -0.739034 -0.739096 0.6736 312.906 853.377)" fill="white"/>
<rect width="3.01585" height="3.01585" transform="matrix(-0.673634 -0.739065 -0.739065 0.673634 430.399 1022.11)" fill="white"/>
<rect width="3.01585" height="3.01585" transform="matrix(-0.673634 -0.739065 -0.739065 0.673634 532.547 1010.74)" fill="#0500FF" fill-opacity="0.5"/>
<rect width="2.10503" height="2.10503" transform="matrix(-0.67361 -0.739087 -0.739043 0.673658 475.483 961.981)" fill="#0500FF" fill-opacity="0.5"/>
<rect width="3.92731" height="3.92731" transform="matrix(-0.673647 -0.739053 -0.739077 0.673621 484.812 988.117)" fill="#0500FF" fill-opacity="0.5"/>
<rect width="6.09089" height="6.09089" transform="matrix(-0.996097 -0.08827 -0.0882698 0.996097 611.762 906.151)" fill="white"/>
<rect x="536.906" y="823.45" width="2.83422" height="2.83422" transform="rotate(5.06408 536.906 823.45)" fill="white"/>
<rect width="3.01585" height="3.01585" transform="matrix(-0.996097 -0.08827 -0.0882698 0.996097 525.79 893.769)" fill="white"/>
<rect width="3.01585" height="3.01585" transform="matrix(-0.996097 -0.08827 -0.0882698 0.996097 726.481 938.489)" fill="white"/>
<rect width="3.01585" height="3.01585" transform="matrix(-0.996097 -0.08827 -0.0882698 0.996097 793.989 860.99)" fill="#0500FF" fill-opacity="0.5"/>
<rect width="2.10503" height="2.10503" transform="matrix(-0.996095 -0.0882841 -0.0882556 0.996098 718.983 863.708)" fill="#0500FF" fill-opacity="0.5"/>
<rect width="3.92731" height="3.92731" transform="matrix(-0.996097 -0.08827 -0.0882698 0.996097 743.534 876.638)" fill="#0500FF" fill-opacity="0.5"/>
<rect x="82.4197" y="913.802" width="2.43277" height="2.43277" transform="rotate(46.2387 82.4197 913.802)" fill="white"/>
<rect x="107.195" y="962.797" width="4.91329" height="4.91329" transform="rotate(46.2387 107.195 962.797)" fill="white"/>
<rect width="2.28626" height="2.28626" transform="matrix(-0.691656 -0.722227 -0.722227 0.691656 197.011 968.213)" fill="white"/>
<rect width="2.43277" height="2.43277" transform="matrix(0.691623 0.722259 -0.722195 0.691689 158.347 1010.67)" fill="white"/>
<rect x="28.9773" y="906.881" width="2.43277" height="2.43277" transform="rotate(46.2387 28.9773 906.881)" fill="white"/>
<rect x="43.7234" y="825.295" width="2.43277" height="2.43277" transform="rotate(46.2387 43.7234 825.295)" fill="#0500FF" fill-opacity="0.5"/>
<rect width="1.69804" height="1.69804" transform="matrix(0.69168 0.722205 -0.72225 0.691632 79.8401 873.889)" fill="#0500FF" fill-opacity="0.5"/>
<rect width="3.16801" height="3.16801" transform="matrix(0.691643 0.722239 -0.722215 0.691669 59.3167 864.951)" fill="#0500FF" fill-opacity="0.5"/>
<rect x="132.231" y="767.267" width="4.91328" height="4.91329" transform="rotate(88.8264 132.231 767.267)" fill="white"/>
<rect width="2.28626" height="2.28626" transform="matrix(-0.0204814 -0.99979 -0.99979 0.0204813 194.692 832.038)" fill="white"/>
<rect x="137.49" y="837.135" width="2.43277" height="2.43277" transform="rotate(88.8264 137.49 837.135)" fill="white"/>
<rect x="112.483" y="673.17" width="2.43277" height="2.43277" transform="rotate(88.8264 112.483 673.17)" fill="white"/>
<rect x="178.55" y="623.081" width="2.43277" height="2.43277" transform="rotate(88.8264 178.55 623.081)" fill="#0500FF" fill-opacity="0.5"/>
<rect width="1.69804" height="1.69804" transform="matrix(0.0204957 0.99979 -0.99979 0.020467 172.257 683.298)" fill="#0500FF" fill-opacity="0.5"/>
<rect x="163.195" y="662.831" width="3.16801" height="3.16801" transform="rotate(88.8264 163.195 662.831)" fill="#0500FF" fill-opacity="0.5"/>
<rect width="2.53427" height="2.53427" transform="matrix(-0.872784 -0.488106 -0.488106 0.872784 169.165 566.775)" fill="white"/>
<rect width="5.11827" height="5.11827" transform="matrix(-0.872784 -0.488106 -0.488106 0.872784 113.279 554.61)" fill="white"/>
<rect width="2.38164" height="2.38164" transform="matrix(0.872769 0.488133 -0.488079 0.872799 84.3184 465.461)" fill="white"/>
<rect width="2.53427" height="2.53427" transform="matrix(-0.872784 -0.488106 -0.488106 0.872784 51.6194 515.557)" fill="white"/>
<rect width="2.53427" height="2.53427" transform="matrix(-0.872784 -0.488106 -0.488106 0.872784 190.125 618.85)" fill="white"/>
<rect width="2.53427" height="2.53427" transform="matrix(-0.872784 -0.488106 -0.488106 0.872784 268.533 582.636)" fill="#0500FF" fill-opacity="0.5"/>
<rect width="1.76889" height="1.76889" transform="matrix(-0.872805 -0.48807 -0.488143 0.872764 210.085 558.931)" fill="#0500FF" fill-opacity="0.5"/>
<rect width="3.30018" height="3.30018" transform="matrix(-0.872784 -0.488106 -0.488106 0.872784 224.467 577.287)" fill="#0500FF" fill-opacity="0.5"/>
<rect width="3.52362" height="3.52362" transform="matrix(-0.707107 0.707107 0.707107 0.707107 992.64 437.952)" fill="white"/>
<rect width="7.11639" height="7.11639" transform="matrix(-0.707114 0.707099 0.707114 0.707099 955.229 508.124)" fill="white"/>
<rect x="825" y="513.156" width="3.31141" height="3.31141" transform="rotate(-45 825 513.156)" fill="white"/>
<rect width="3.52362" height="3.52362" transform="matrix(-0.707122 0.707092 0.707122 0.707092 879.658 575.855)" fill="white"/>
<rect width="3.52362" height="3.52362" transform="matrix(-0.707122 0.707092 0.707122 0.707092 1070.24 429.603)" fill="white"/>
<rect width="3.52362" height="3.52362" transform="matrix(-0.707107 0.707107 0.707107 0.707107 1051.44 311)" fill="#0500FF" fill-opacity="0.5"/>
<rect width="2.46265" height="2.46265" transform="matrix(-0.707107 0.707107 0.707107 0.707107 997.622 380.235)" fill="#0500FF" fill-opacity="0.5"/>
<rect width="4.58854" height="4.58854" transform="matrix(-0.707118 0.707095 0.707118 0.707095 1027.62 367.937)" fill="#0500FF" fill-opacity="0.5"/>
<rect width="3.01585" height="3.01585" transform="matrix(-0.839642 -0.54314 -0.54314 0.839642 178.838 254.069)" fill="white"/>
<rect width="6.09089" height="6.09089" transform="matrix(-0.839642 -0.54314 -0.54314 0.839642 113.401 235.353)" fill="white"/>
<rect x="85.8213" y="127.271" width="2.83422" height="2.83422" transform="rotate(32.8977 85.8213 127.271)" fill="white"/>
<rect width="3.01585" height="3.01585" transform="matrix(-0.839667 -0.543102 -0.543179 0.839617 43.1594 184.264)" fill="white"/>
<rect width="3.01585" height="3.01585" transform="matrix(-0.839642 -0.54314 -0.54314 0.839642 199.751 317.516)" fill="white"/>
<rect width="3.01585" height="3.01585" transform="matrix(-0.839642 -0.54314 -0.54314 0.839642 295.634 280.501)" fill="#0500FF" fill-opacity="0.5"/>
<rect width="2.10503" height="2.10503" transform="matrix(-0.839624 -0.543168 -0.543113 0.83966 228.034 247.884)" fill="#0500FF" fill-opacity="0.5"/>
<rect width="3.92731" height="3.92731" transform="matrix(-0.839652 -0.543126 -0.543155 0.839632 243.711 270.782)" fill="#0500FF" fill-opacity="0.5"/>
<rect width="6.09089" height="6.09089" transform="matrix(-0.985732 0.168319 0.168319 0.985733 345.601 159.188)" fill="white"/>
<rect x="252.151" y="98.2776" width="2.83422" height="2.83422" transform="rotate(-9.6901 252.151 98.2776)" fill="white"/>
<rect width="3.01585" height="3.01585" transform="matrix(-0.985732 0.168319 0.168319 0.985733 259.31 169.109)" fill="white"/>
<rect width="3.01585" height="3.01585" transform="matrix(-0.985732 0.168319 0.168319 0.985733 464.773 161.244)" fill="white"/>
<rect width="3.01585" height="3.01585" transform="matrix(-0.985732 0.168319 0.168319 0.985733 510.319 69.1082)" fill="#0500FF" fill-opacity="0.5"/>
<rect width="2.10503" height="2.10503" transform="matrix(-0.985735 0.168305 0.168333 0.98573 438.477 90.8386)" fill="#0500FF" fill-opacity="0.5"/>
<rect width="3.92731" height="3.92731" transform="matrix(-0.985732 0.168319 0.168319 0.985733 465.513 97.0899)" fill="#0500FF" fill-opacity="0.5"/>
</g>
<defs>
<filter id="filter0_dd_1921_22567" x="885.552" y="294.647" width="96.2503" height="96.2504" filterUnits="userSpaceOnUse" color-interpolation-filters="sRGB">
<feFlood flood-opacity="0" result="BackgroundImageFix"/>
<feColorMatrix in="SourceAlpha" type="matrix" values="0 0 0 0 0 0 0 0 0 0 0 0 0 0 0 0 0 0 127 0" result="hardAlpha"/>
<feOffset dy="-1.88235"/>
<feGaussianBlur stdDeviation="16.4705"/>
<feComposite in2="hardAlpha" operator="out"/>
<feColorMatrix type="matrix" values="0 0 0 0 0.371081 0 0 0 0 0.235903 0 0 0 0 0.658333 0 0 0 1 0"/>
<feBlend mode="normal" in2="BackgroundImageFix" result="effect1_dropShadow_1921_22567"/>
<feColorMatrix in="SourceAlpha" type="matrix" values="0 0 0 0 0 0 0 0 0 0 0 0 0 0 0 0 0 0 127 0" result="hardAlpha"/>
<feOffset dy="-1.88235"/>
<feGaussianBlur stdDeviation="9.41174"/>
<feComposite in2="hardAlpha" operator="out"/>
<feColorMatrix type="matrix" values="0 0 0 0 0.48825 0 0 0 0 0.372778 0 0 0 0 0.733333 0 0 0 1 0"/>
<feBlend mode="normal" in2="effect1_dropShadow_1921_22567" result="effect2_dropShadow_1921_22567"/>
<feBlend mode="normal" in="SourceGraphic" in2="effect2_dropShadow_1921_22567" result="shape"/>
</filter>
<filter id="filter1_dd_1921_22567" x="935.808" y="250.135" width="88.349" height="88.3489" filterUnits="userSpaceOnUse" color-interpolation-filters="sRGB">
<feFlood flood-opacity="0" result="BackgroundImageFix"/>
<feColorMatrix in="SourceAlpha" type="matrix" values="0 0 0 0 0 0 0 0 0 0 0 0 0 0 0 0 0 0 127 0" result="hardAlpha"/>
<feOffset dy="-1.88235"/>
<feGaussianBlur stdDeviation="16.4705"/>
<feComposite in2="hardAlpha" operator="out"/>
<feColorMatrix type="matrix" values="0 0 0 0 0.371081 0 0 0 0 0.235903 0 0 0 0 0.658333 0 0 0 1 0"/>
<feBlend mode="normal" in2="BackgroundImageFix" result="effect1_dropShadow_1921_22567"/>
<feColorMatrix in="SourceAlpha" type="matrix" values="0 0 0 0 0 0 0 0 0 0 0 0 0 0 0 0 0 0 127 0" result="hardAlpha"/>
<feOffset dy="-1.88235"/>
<feGaussianBlur stdDeviation="9.41174"/>
<feComposite in2="hardAlpha" operator="out"/>
<feColorMatrix type="matrix" values="0 0 0 0 0.48825 0 0 0 0 0.372778 0 0 0 0 0.733333 0 0 0 1 0"/>
<feBlend mode="normal" in2="effect1_dropShadow_1921_22567" result="effect2_dropShadow_1921_22567"/>
<feBlend mode="normal" in="SourceGraphic" in2="effect2_dropShadow_1921_22567" result="shape"/>
</filter>
<filter id="filter2_d_1921_22567" x="855.735" y="180.313" width="155.43" height="104.404" filterUnits="userSpaceOnUse" color-interpolation-filters="sRGB">
<feFlood flood-opacity="0" result="BackgroundImageFix"/>
<feColorMatrix in="SourceAlpha" type="matrix" values="0 0 0 0 0 0 0 0 0 0 0 0 0 0 0 0 0 0 127 0" result="hardAlpha"/>
<feOffset dy="0.941174"/>
<feGaussianBlur stdDeviation="4.70587"/>
<feComposite in2="hardAlpha" operator="out"/>
<feColorMatrix type="matrix" values="0 0 0 0 0.440043 0 0 0 0 0.20092 0 0 0 0 0.679167 0 0 0 0.3 0"/>
<feBlend mode="normal" in2="BackgroundImageFix" result="effect1_dropShadow_1921_22567"/>
<feBlend mode="normal" in="SourceGraphic" in2="effect1_dropShadow_1921_22567" result="shape"/>
</filter>
<filter id="filter3_d_1921_22567" x="844.886" y="123.05" width="177.125" height="106.243" filterUnits="userSpaceOnUse" color-interpolation-filters="sRGB">
<feFlood flood-opacity="0" result="BackgroundImageFix"/>
<feColorMatrix in="SourceAlpha" type="matrix" values="0 0 0 0 0 0 0 0 0 0 0 0 0 0 0 0 0 0 127 0" result="hardAlpha"/>
<feOffset dy="0.941174"/>
<feGaussianBlur stdDeviation="2.35293"/>
<feComposite in2="hardAlpha" operator="out"/>
<feColorMatrix type="matrix" values="0 0 0 0 0.369333 0 0 0 0 0.0916667 0 0 0 0 0.5 0 0 0 0.15 0"/>
<feBlend mode="normal" in2="BackgroundImageFix" result="effect1_dropShadow_1921_22567"/>
<feBlend mode="normal" in="SourceGraphic" in2="effect1_dropShadow_1921_22567" result="shape"/>
</filter>
<filter id="filter4_d_1921_22567" x="862.26" y="102.052" width="144.258" height="98.237" filterUnits="userSpaceOnUse" color-interpolation-filters="sRGB">
<feFlood flood-opacity="0" result="BackgroundImageFix"/>
<feColorMatrix in="SourceAlpha" type="matrix" values="0 0 0 0 0 0 0 0 0 0 0 0 0 0 0 0 0 0 127 0" result="hardAlpha"/>
<feOffset dx="0.941174" dy="0.941174"/>
<feGaussianBlur stdDeviation="3.5294"/>
<feComposite in2="hardAlpha" operator="out"/>
<feColorMatrix type="matrix" values="0 0 0 0 0.440043 0 0 0 0 0.20092 0 0 0 0 0.679167 0 0 0 0.2 0"/>
<feBlend mode="normal" in2="BackgroundImageFix" result="effect1_dropShadow_1921_22567"/>
<feBlend mode="normal" in="SourceGraphic" in2="effect1_dropShadow_1921_22567" result="shape"/>
</filter>
<linearGradient id="paint0_linear_1921_22567" x1="688.458" y1="128.262" x2="9.59549" y2="313.736" gradientUnits="userSpaceOnUse">
<stop stop-color="#262253"/>
<stop offset="1" stop-color="#663282"/>
</linearGradient>
<linearGradient id="paint1_linear_1921_22567" x1="933.677" y1="322.868" x2="933.677" y2="376.123" gradientUnits="userSpaceOnUse">
<stop stop-color="white"/>
<stop offset="0.223958" stop-color="#6BE4FF"/>
<stop offset="0.623188" stop-color="#371B73" stop-opacity="0.6"/>
<stop offset="1" stop-color="#0A1153" stop-opacity="0.4"/>
</linearGradient>
<linearGradient id="paint2_linear_1921_22567" x1="979.982" y1="280.075" x2="979.982" y2="319.473" gradientUnits="userSpaceOnUse">
<stop stop-color="white"/>
<stop offset="0.223958" stop-color="#6BE4FF"/>
<stop offset="0.623188" stop-color="#371B73" stop-opacity="0.6"/>
<stop offset="1" stop-color="#0A1153" stop-opacity="0.4"/>
</linearGradient>
<radialGradient id="paint3_radial_1921_22567" cx="0" cy="0" r="1" gradientUnits="userSpaceOnUse" gradientTransform="translate(910 206) rotate(90) scale(114)">
<stop stop-color="#FF65C1"/>
<stop offset="1" stop-color="#FF65C1" stop-opacity="0"/>
</radialGradient>
<linearGradient id="paint4_linear_1921_22567" x1="933.45" y1="188.783" x2="933.45" y2="274.363" gradientUnits="userSpaceOnUse">
<stop stop-color="#13154D"/>
<stop offset="1" stop-color="#8E92EE" stop-opacity="0"/>
</linearGradient>
<linearGradient id="paint5_linear_1921_22567" x1="967.373" y1="236.968" x2="971.239" y2="280.136" gradientUnits="userSpaceOnUse">
<stop stop-color="white" stop-opacity="0"/>
<stop offset="1" stop-color="white"/>
</linearGradient>
<radialGradient id="paint6_radial_1921_22567" cx="0" cy="0" r="1" gradientUnits="userSpaceOnUse" gradientTransform="translate(846.795 223.195) rotate(-19.6638) scale(184.039)">
<stop offset="0.249306" stop-color="white"/>
<stop offset="0.48315" stop-color="#FF8FED" stop-opacity="0.5"/>
<stop offset="0.627037" stop-color="#220C7A" stop-opacity="0.5"/>
</radialGradient>
<linearGradient id="paint7_linear_1921_22567" x1="855.643" y1="216.534" x2="1016.22" y2="198.41" gradientUnits="userSpaceOnUse">
<stop stop-color="white"/>
<stop offset="1" stop-color="#12178E" stop-opacity="0.4"/>
</linearGradient>
<linearGradient id="paint8_linear_1921_22567" x1="946.899" y1="276.567" x2="921.266" y2="215.413" gradientUnits="userSpaceOnUse">
<stop offset="0.0011346" stop-color="white"/>
<stop offset="1" stop-color="white" stop-opacity="0"/>
</linearGradient>
<radialGradient id="paint9_radial_1921_22567" cx="0" cy="0" r="1" gradientUnits="userSpaceOnUse" gradientTransform="translate(884.901 224.266) rotate(-14.8494) scale(127.18)">
<stop offset="0.239373" stop-color="white"/>
<stop offset="0.410099" stop-color="#FFCEF1"/>
<stop offset="0.67492" stop-color="#B6B9FF"/>
<stop offset="0.861176" stop-color="#FFA8E7"/>
<stop offset="1" stop-color="white"/>
</radialGradient>
<radialGradient id="paint10_radial_1921_22567" cx="0" cy="0" r="1" gradientUnits="userSpaceOnUse" gradientTransform="translate(994.257 241.285) rotate(-121.724) scale(73.129)">
<stop stop-color="#3F52FF"/>
<stop offset="1" stop-color="#3F52FF" stop-opacity="0"/>
</radialGradient>
<linearGradient id="paint11_linear_1921_22567" x1="851.398" y1="171.893" x2="1017.31" y2="177.047" gradientUnits="userSpaceOnUse">
<stop stop-color="white"/>
<stop offset="1" stop-color="#5653FF" stop-opacity="0.2"/>
</linearGradient>
<linearGradient id="paint12_linear_1921_22567" x1="922.406" y1="257.829" x2="917.193" y2="178.854" gradientUnits="userSpaceOnUse">
<stop stop-color="white"/>
<stop offset="1" stop-color="white" stop-opacity="0"/>
</linearGradient>
<linearGradient id="paint13_linear_1921_22567" x1="933.448" y1="108.17" x2="933.448" y2="192.289" gradientUnits="userSpaceOnUse">
<stop stop-color="#13154D" stop-opacity="0.5"/>
<stop offset="1" stop-color="#8E92EE" stop-opacity="0"/>
</linearGradient>
<linearGradient id="paint14_linear_1921_22567" x1="944.821" y1="210.552" x2="953.452" y2="117.534" gradientUnits="userSpaceOnUse">
<stop stop-color="white"/>
<stop offset="1" stop-color="white" stop-opacity="0"/>
</linearGradient>
<linearGradient id="paint15_linear_1921_22567" x1="933.449" y1="108.17" x2="933.449" y2="163.072" gradientUnits="userSpaceOnUse">
<stop stop-color="#13154D"/>
<stop offset="1" stop-color="#8E92EE" stop-opacity="0"/>
</linearGradient>
<linearGradient id="paint16_linear_1921_22567" x1="949.653" y1="203.464" x2="933.449" y2="108.17" gradientUnits="userSpaceOnUse">
<stop stop-color="white"/>
<stop offset="1" stop-color="white" stop-opacity="0"/>
</linearGradient>
<linearGradient id="paint17_linear_1921_22567" x1="933.448" y1="110.115" x2="933.448" y2="142.383" gradientUnits="userSpaceOnUse">
<stop stop-color="#13154D"/>
<stop offset="1" stop-color="#8E92EE" stop-opacity="0"/>
</linearGradient>
<linearGradient id="paint18_linear_1921_22567" x1="946.11" y1="176.403" x2="933.448" y2="110.115" gradientUnits="userSpaceOnUse">
<stop stop-color="white"/>
<stop offset="1" stop-color="white" stop-opacity="0"/>
</linearGradient>
<radialGradient id="paint19_radial_1921_22567" cx="0" cy="0" r="1" gradientUnits="userSpaceOnUse" gradientTransform="translate(846.795 223.195) rotate(-19.6638) scale(184.039)">
<stop offset="0.249306" stop-color="white"/>
<stop offset="0.48315" stop-color="#FF8FED" stop-opacity="0.5"/>
<stop offset="0.627037" stop-color="#220C7A" stop-opacity="0"/>
</radialGradient>
<clipPath id="clip0_1921_22567">
<rect width="1920" height="1080" fill="white"/>
</clipPath>
<clipPath id="clip1_1921_22567">
<rect width="461" height="384" fill="white" transform="translate(1229 348)"/>
</clipPath>
</defs>
</svg>
