<svg width="147" height="60" viewBox="0 0 147 60" fill="none" xmlns="http://www.w3.org/2000/svg">
<rect y="7.55811" width="144.413" height="52.0684" rx="26.0342" transform="rotate(-3 0 7.55811)" fill="#16C95D"/>
<path d="M16.8878 25.5188L17.0266 28.1676L19.4606 28.0401L20.0134 38.5876L22.9725 38.4325L22.2809 25.2362L16.8878 25.5188ZM28.1823 32.5123C29.2097 32.0277 30.3439 31.7529 31.4894 31.6929C33.637 31.5804 34.6668 32.0528 34.7368 33.3892C34.8044 34.6778 33.8421 35.4939 31.432 35.6202C29.1888 35.7378 27.8551 35.4009 25.935 34.3769L24.6961 36.7629C26.7731 38.0419 28.6846 38.4443 31.3334 38.3054C35.2231 38.1016 37.8961 36.5976 37.7198 33.2328C37.5722 30.417 35.4575 28.8767 31.878 29.0643C30.494 29.1368 29.5947 29.3275 28.5848 29.6915L28.6179 27.5841L36.4451 27.1739L36.305 24.5012L25.6858 25.0577L25.7156 32.4741L28.1823 32.5123ZM42.2421 30.8183C42.0996 28.0979 43.4689 26.375 46.2609 26.2287C49.0529 26.0824 50.5949 27.6527 50.7375 30.3731C50.88 33.0935 49.5107 34.8164 46.7187 34.9627C43.9267 35.109 42.3847 33.5387 42.2421 30.8183ZM53.6965 30.218C53.4651 25.8033 50.1123 23.4665 46.1271 23.6754C42.1419 23.8842 39.0517 26.5587 39.2831 30.9734C39.5145 35.3881 42.8673 37.7249 46.8525 37.516C50.8376 37.3072 53.9279 34.6327 53.6965 30.218ZM65.1965 29.6153C65.054 26.8949 66.4233 25.1721 69.2153 25.0257C72.0073 24.8794 73.5493 26.4497 73.6919 29.1701C73.8344 31.8905 72.4651 33.6134 69.6731 33.7597C66.8811 33.906 65.3391 32.3357 65.1965 29.6153ZM76.6509 29.015C76.4195 24.6003 73.0667 22.2635 69.0815 22.4724C65.0963 22.6812 62.0061 25.3557 62.2375 29.7704C62.4689 34.1851 65.8217 36.5219 69.8069 36.3131C73.792 36.1042 76.8823 33.4297 76.6509 29.015ZM81.2763 28.7726C81.1337 26.0522 82.5031 24.3294 85.2951 24.183C88.0871 24.0367 89.629 25.607 89.7716 28.3274C89.9142 31.0478 88.5448 32.7707 85.7528 32.917C82.9608 33.0633 81.4188 31.493 81.2763 28.7726ZM92.7306 28.1723C92.4993 23.7576 89.1464 21.4208 85.1612 21.6297C81.1761 21.8385 78.0859 24.513 78.3172 28.9277C78.5486 33.3424 81.9014 35.6792 85.8866 35.4703C89.8718 35.2615 92.962 32.587 92.7306 28.1723ZM97.356 27.9299C97.2134 25.2095 98.5828 23.4866 101.375 23.3403C104.167 23.194 105.709 24.7643 105.851 27.4847C105.994 30.2051 104.625 31.928 101.833 32.0743C99.0405 32.2206 97.4986 30.6503 97.356 27.9299ZM108.81 27.3296C108.579 22.9149 105.226 20.5781 101.241 20.787C97.2558 20.9958 94.1656 23.6703 94.3969 28.085C94.6283 32.4997 97.9812 34.8365 101.966 34.6276C105.951 34.4188 109.042 31.7443 108.81 27.3296ZM125.571 33.0556L121.968 33.2444L121.478 23.89L116.848 24.1326L116.691 21.1259L129.553 20.4518L129.711 23.4585L125.081 23.7012L125.571 33.0556ZM116.446 16.4487L129.308 15.7746L129.466 18.7813L116.603 19.4554L116.446 16.4487Z" fill="white"/>
</svg>
