<svg width="32" height="33" viewBox="0 0 32 33" fill="none" xmlns="http://www.w3.org/2000/svg">
  <path
    d="M16 28.9417C22.6274 28.9417 28 23.5691 28 16.9417C28 10.3142 22.6274 4.94165 16 4.94165C9.37258 4.94165 4 10.3142 4 16.9417C4 23.5691 9.37258 28.9417 16 28.9417Z"
    stroke="#EAECEE" stroke-width="2" stroke-miterlimit="10" />
  <path d="M23 12.9417L19 16.9417" stroke="#EAECEE" stroke-width="2" stroke-linecap="round" stroke-linejoin="round" />
  <path d="M23 16.9417L19 12.9417" stroke="#EAECEE" stroke-width="2" stroke-linecap="round" stroke-linejoin="round" />
  <path d="M13 12.9417L9 16.9417" stroke="#EAECEE" stroke-width="2" stroke-linecap="round" stroke-linejoin="round" />
  <path d="M13 16.9417L9 12.9417" stroke="#EAECEE" stroke-width="2" stroke-linecap="round" stroke-linejoin="round" />
  <path
    d="M16 24.9417C16.8284 24.9417 17.5 24.2701 17.5 23.4417C17.5 22.6132 16.8284 21.9417 16 21.9417C15.1716 21.9417 14.5 22.6132 14.5 23.4417C14.5 24.2701 15.1716 24.9417 16 24.9417Z"
    fill="#EAECEE" />
</svg>
