<svg width="24" height="25" viewBox="0 0 24 25" fill="none" xmlns="http://www.w3.org/2000/svg">
<path d="M12 21.5C16.9706 21.5 21 17.4706 21 12.5C21 7.52944 16.9706 3.5 12 3.5C7.02944 3.5 3 7.52944 3 12.5C3 17.4706 7.02944 21.5 12 21.5Z" stroke="#305AA6" stroke-width="1.5" stroke-linecap="round" stroke-linejoin="round"/>
<path d="M15.8979 14.7498C15.5026 15.4336 14.9343 16.0014 14.2501 16.3961C13.5659 16.7909 12.7899 16.9987 12 16.9987C11.2101 16.9987 10.4341 16.7909 9.74993 16.3962C9.06574 16.0014 8.49742 15.4336 8.10205 14.7498" stroke="#305AA6" stroke-width="1.5" stroke-linecap="round" stroke-linejoin="round"/>
<path d="M8.625 11.75C9.24632 11.75 9.75 11.2463 9.75 10.625C9.75 10.0037 9.24632 9.5 8.625 9.5C8.00368 9.5 7.5 10.0037 7.5 10.625C7.5 11.2463 8.00368 11.75 8.625 11.75Z" fill="#305AA6"/>
<path d="M15.375 11.75C15.9963 11.75 16.5 11.2463 16.5 10.625C16.5 10.0037 15.9963 9.5 15.375 9.5C14.7537 9.5 14.25 10.0037 14.25 10.625C14.25 11.2463 14.7537 11.75 15.375 11.75Z" fill="#305AA6"/>
</svg>
