<svg width="257" height="210" viewBox="0 0 257 210" fill="none" xmlns="http://www.w3.org/2000/svg">
  <path fill-rule="evenodd" clip-rule="evenodd"
    d="M101.327 1.25082C91.7901 2.35276 79.2011 7.07118 70.388 12.8473C58.4292 20.6852 48.5201 32.4092 43.0544 45.1883C35.8235 62.0944 34.932 80.7523 40.5413 97.7997C41.3225 100.174 41.9617 102.171 41.9617 102.238C41.9617 102.304 33.9005 102.359 24.0477 102.359C9.72805 102.359 5.93085 102.444 5.12297 102.782C3.54084 103.445 2.10884 104.817 1.26987 106.473L0.5 107.992V156.004V204.017L1.2683 205.609C2.15407 207.446 3.9231 209.039 5.56932 209.485C6.30746 209.684 31.5243 209.765 76.7138 209.713L146.715 209.631L147.842 208.93L148.969 208.229L150.826 208.93C152.62 209.607 153.062 209.631 163.834 209.631C176.07 209.631 175.926 209.649 180.305 207.542C181.331 207.048 182.249 206.766 182.346 206.916C182.751 207.539 184.643 208.22 186.808 208.52C194.168 209.543 203.219 209.835 222.1 209.661C239.94 209.497 242.918 209.373 249.237 208.536C251.781 208.199 253.573 207.567 254.055 206.839C254.182 206.647 254.288 202.943 254.291 198.607C254.295 191.437 254.245 190.678 253.735 190.217C253.255 189.782 250.627 189.222 245.893 188.545L244.873 188.399V183.545V178.69H246.194C247.295 178.69 252.072 178.05 254.459 177.582C254.808 177.514 255.408 177.164 255.794 176.805C256.483 176.163 256.494 176.023 256.494 168.162C256.494 158.853 256.818 159.629 252.568 158.758C250.578 158.35 237.938 157.349 234.586 157.333C233.886 157.33 233.879 157.287 233.879 152.818V148.307L236.47 148.091C240.009 147.795 243.962 146.833 244.465 146.144C244.773 145.723 244.873 143.652 244.873 137.644V129.7L243.629 129.065C242.945 128.716 242.061 128.429 241.666 128.426C241.27 128.424 240.625 128.336 240.232 128.231C239.52 128.04 239.519 128.021 239.604 122.681L239.69 117.322L241.862 116.792C243.116 116.487 244.212 116.021 244.454 115.69C244.771 115.256 244.873 113.514 244.873 108.467V101.816L246.276 101.28L247.679 100.744L247.768 92.8055C247.817 88.4395 247.813 84.6452 247.76 84.3738C247.526 83.171 244.394 82.4818 236.706 81.9409C234.201 81.7647 230.661 81.4804 228.839 81.3092C224.653 80.9163 198.576 80.9005 195.502 81.2891C194.237 81.449 191.294 81.6632 188.962 81.7647L184.722 81.9494L184.817 75.5771C184.884 71.1314 184.768 68.1152 184.432 65.5997C183.788 60.7747 182.542 54.7782 182.052 54.1408C181.919 53.968 181.706 53.3414 181.579 52.7483C180.552 47.9504 175.344 37.3635 171.525 32.3093C170.807 31.3591 170.084 30.3335 169.919 30.0304C169.368 29.0205 164.966 24.041 162.42 21.5484C159.56 18.7477 154.676 14.851 151.405 12.7596C148.761 11.069 142.888 7.86686 140.904 7.03381C140.127 6.70743 138.855 6.17468 138.077 5.85019C137.3 5.52602 136.381 5.134 136.036 4.97945C133.644 3.90923 126.232 2.1335 120.959 1.36704C117.466 0.859737 105.335 0.787802 101.327 1.25082ZM123.472 3.69908C127.965 4.59999 133.954 6.31384 137.248 7.64163C140.142 8.8086 147.138 12.2536 148.414 13.14C148.862 13.451 150.076 14.2495 151.113 14.9145C156.981 18.678 164.215 25.4926 168.317 31.1226C169.652 32.9542 170.741 34.5713 170.737 34.7161C170.734 34.8609 169.85 35.5376 168.774 36.2195C167.698 36.9018 165.051 38.6103 162.891 40.0166C157.09 43.7949 152.977 46.464 150.327 48.1712C147.364 50.0808 143.533 52.5589 139.491 55.1818C137.763 56.3029 135.643 57.6747 134.779 58.2304C132.699 59.5688 126.19 63.78 123.629 65.4451C122.506 66.1751 120.527 67.4498 119.231 68.2782C117.935 69.1062 115.695 70.5543 114.253 71.496C112.81 72.4378 111.512 73.088 111.368 72.941C111.225 72.7943 110.682 71.4018 110.161 69.8469C109.641 68.292 108.21 64.122 106.981 60.5803C105.752 57.0386 104.337 52.9393 103.835 51.4708C102.841 48.5592 100.002 40.3848 95.9802 28.854C94.5639 24.794 93.2199 20.9067 92.9931 20.2156C92.7666 19.5246 91.5881 16.1057 90.3744 12.618L88.1679 6.27677L89.6435 5.80559C93.0823 4.70805 98.6963 3.50119 102.209 3.10414C103.538 2.9543 108.088 2.87074 112.321 2.91881C118.757 2.992 120.581 3.11953 123.472 3.69908ZM87.2736 9.614C87.7297 10.9528 89.1111 14.9462 90.343 18.488C93.8104 28.456 94.6905 30.9991 95.6712 33.8799C96.1709 35.3485 97.5897 39.4477 98.8238 42.9895C100.058 46.5312 101.253 49.9944 101.48 50.6855C101.707 51.3765 102.907 54.8397 104.146 58.3815C105.385 61.9232 106.585 65.3864 106.812 66.0774C107.445 68.0084 110.115 75.4433 110.202 75.5181C110.285 75.5887 118.727 79.215 131.01 84.4558C139.152 87.9293 141.032 88.7344 142.004 89.1623C142.349 89.3143 145.176 90.5143 148.286 91.8285C151.395 93.1428 154.222 94.3459 154.568 94.5017C154.913 94.6578 155.903 95.0835 156.766 95.4479C157.63 95.8122 158.62 96.2357 158.965 96.389C159.311 96.5423 162.138 97.7475 165.247 99.0681C168.357 100.388 171.37 101.68 171.944 101.939L172.986 102.409L172.886 107.281C172.79 111.964 172.757 112.176 172.044 112.753C171.636 113.083 170.951 113.353 170.521 113.353C170.091 113.353 169.259 113.581 168.671 113.86L167.603 114.367V117.046V119.724L166.133 121.486C163.968 124.08 159.626 128.349 156.811 130.652C153.762 133.146 152.127 134.369 151.819 134.386C151.69 134.393 151.584 128.458 151.584 121.196C151.584 106.643 151.588 106.677 149.605 104.609C147.461 102.374 149.455 102.533 121.273 102.359L95.8304 102.201L95.6734 96.5473C95.5188 90.9807 95.5031 90.8758 94.6579 89.771C93.0518 87.6718 93.7966 87.7519 75.9081 87.7519C59.6985 87.7519 59.6928 87.7522 58.8183 88.4401C56.6275 90.1637 56.5797 90.3286 56.4553 96.6173L56.3416 102.359H50.2898H44.2377L43.6054 100.866C42.4633 98.1729 41.0071 93.1607 40.2209 89.2179C39.0929 83.5599 38.7129 78.533 38.923 72.0458C39.419 56.7408 44.6271 42.4181 54.1715 30.1114C59.5939 23.1197 69.1583 15.0998 76.8271 11.1143C79.4044 9.77483 85.3943 7.19841 85.9547 7.18835C86.287 7.18238 86.7101 7.96015 87.2736 9.614ZM128.026 76.9247C131.395 77.0997 134.575 77.3139 135.093 77.4012C135.978 77.5498 140.922 77.8872 157.866 78.9552C161.753 79.2002 165.569 79.4766 166.347 79.5693C167.124 79.662 170.375 79.8793 173.571 80.0521C182.365 80.5274 182.68 80.577 182.68 81.492C182.68 82.1272 182.525 82.2547 181.753 82.2547C180.477 82.2547 177.401 83.0849 176.507 83.6708C175.771 84.1533 175.77 84.1646 175.768 90.9788L175.768 97.8038L174.355 98.3846C173.578 98.704 172.943 99.1636 172.943 99.4055C172.943 99.6477 172.736 99.8456 172.483 99.8456C172.23 99.8456 168.379 98.2828 163.924 96.3729C159.469 94.4628 152.997 91.6969 149.542 90.2262C146.087 88.7555 142.977 87.4299 142.632 87.2807C142.286 87.1312 141.509 86.7954 140.904 86.534C140.3 86.2727 136.13 84.4922 131.638 82.5776C127.147 80.6628 123.189 78.9652 122.843 78.8047C122.498 78.6445 121.296 78.1407 120.173 77.6849C117.205 76.4802 117.092 76.1746 119.702 76.4092C120.912 76.5176 124.657 76.7497 128.026 76.9247ZM184.321 87.1296C187.133 87.4038 190.034 87.7 190.768 87.7877L192.103 87.9476V94.5247V101.102L190.14 101.094C187.656 101.084 182.533 100.601 179.775 100.117L177.654 99.745V92.8925V86.0399L178.432 86.3355C178.86 86.4979 181.51 86.8554 184.321 87.1296ZM246.057 93.0062L245.972 99.674L244.276 100.051C242.252 100.5 235.952 101.102 233.275 101.102H231.366V94.5447V87.9874L232.348 87.7911C232.888 87.6831 233.928 87.5948 234.66 87.5948C236.185 87.5948 244.649 86.6562 244.846 86.4652C244.918 86.3955 245.239 86.3383 245.559 86.3383C246.11 86.3383 246.137 86.6933 246.057 93.0062ZM205.187 88.223H210.949V95.0188V101.814L202.685 101.67C198.139 101.591 194.252 101.422 194.047 101.296C193.778 101.129 193.674 99.2154 193.674 94.4398V87.815L196.549 88.0189C198.13 88.1313 202.017 88.223 205.187 88.223ZM229.481 94.6164V101.324L227.078 101.527C225.756 101.639 222.011 101.73 218.754 101.73H212.834V94.9829V88.2353L219.666 88.1442C223.423 88.0939 227.169 88.0208 227.989 87.9809L229.481 87.9089V94.6164ZM91.3403 89.4921C91.9801 89.6699 92.7927 90.1829 93.1464 90.632C93.7375 91.3841 93.7887 91.8841 93.7887 96.9183V102.387L91.6685 102.294L89.5483 102.201L89.4598 98.6899C89.3746 95.3134 89.3366 95.1416 88.47 94.2137L87.5689 93.249L76.1515 93.2506L64.7342 93.2521L63.7919 94.0051C62.8599 94.7496 62.8477 94.7992 62.6925 98.4798L62.5354 102.201L60.4152 102.294L58.295 102.387V97.1485C58.295 92.394 58.3554 91.8122 58.9471 90.8544C59.3435 90.213 59.9903 89.6859 60.5962 89.5106C62.0065 89.1026 89.8769 89.0856 91.3403 89.4921ZM87.3129 95.407C87.7517 95.892 87.8286 96.5369 87.7542 99.0979L87.6637 102.201H76.0419H64.4201V99.0288C64.4201 96.8014 64.5485 95.702 64.851 95.3379C65.2364 94.8746 66.4247 94.8196 76.0315 94.8196C86.134 94.8196 86.8131 94.8551 87.3129 95.407ZM179.856 102.165C182.359 102.446 185.468 102.782 186.763 102.91L189.119 103.144L189.204 109.669C189.275 115.126 189.215 116.223 188.835 116.369C188.163 116.627 177.095 115.543 175.791 115.091L174.67 114.704L174.586 108.024C174.518 102.699 174.582 101.375 174.903 101.498C175.124 101.583 177.353 101.883 179.856 102.165ZM242.988 108.443V114.842L241.653 115.193C240.457 115.507 238.795 115.691 230.816 116.387L228.539 116.586V109.83V103.074L233.172 102.851C235.72 102.729 238.583 102.515 239.533 102.375C240.483 102.237 241.649 102.105 242.124 102.084L242.988 102.044V108.443ZM200.505 103.504L207.808 103.704V110.256V116.808L200.191 116.777C196.002 116.759 192.221 116.647 191.789 116.527L191.004 116.309L190.918 110.049C190.872 106.607 190.908 103.593 191.001 103.353C191.119 103.045 191.467 102.974 192.185 103.111C192.745 103.217 196.489 103.395 200.505 103.504ZM226.655 109.858V116.415L225.673 116.612C225.133 116.72 221.317 116.808 217.192 116.808H209.693V110.217V103.626L217.153 103.536C221.256 103.487 225.072 103.413 225.634 103.373L226.655 103.301V109.858ZM14.7697 104.208C14.8643 104.361 14.7091 104.679 14.4245 104.915C14.1396 105.15 13.6496 105.908 13.3352 106.599C12.7912 107.796 12.7635 110.054 12.7569 153.837C12.75 198.873 12.7375 199.84 12.1375 200.81C11.8005 201.356 11.466 202.362 11.3941 203.046L11.2631 204.291L9.57225 204.185C6.83798 204.014 2.3931 202.376 2.37771 201.534C2.37363 201.323 2.37677 180.181 2.38462 154.552C2.3997 103.649 2.27217 107.131 4.18538 105.357C4.65433 104.922 5.60732 104.438 6.30275 104.282C7.9631 103.907 14.5486 103.85 14.7697 104.208ZM22.8013 104.091C22.8013 104.18 22.3418 105.063 21.7805 106.054L20.7597 107.856L20.6026 150.643L20.4456 193.432L17.4616 195.918L14.4776 198.404L14.3859 153.758C14.3243 123.703 14.4003 108.744 14.619 107.985C15.054 106.475 16.8328 104.702 18.3056 104.312C19.573 103.976 22.8013 103.817 22.8013 104.091ZM145.539 104.256C147.155 104.603 148.461 105.587 149.2 107.017C149.812 108.199 149.848 109.563 149.769 127.973L149.699 144.006L147.893 144.888C136.881 150.263 129.967 162.3 129.921 176.177C129.89 185.694 133.213 194.835 138.96 201.044C140.089 202.263 140.512 202.921 140.229 203.016C138.622 203.556 122.882 204.22 107.381 204.4C89.9554 204.602 60.8123 204.387 55.3111 204.016C53.7562 203.91 48.4557 203.67 43.5322 203.482C38.6086 203.293 32.608 202.974 30.1975 202.772L25.8149 202.406L30.1975 198.773C41.9858 189.002 52.6057 181.787 64.6911 175.341C68.8521 173.122 70.0921 172.054 70.3965 170.431C70.6434 169.115 69.9367 167.301 68.9177 166.633C68.5119 166.367 62.5989 164.365 55.7775 162.184C48.9561 160.002 43.2718 158.12 43.1455 158C42.7962 157.668 53.9039 151.453 60.8079 148.117C69.1037 144.108 76.4216 141.182 85.3079 138.321C88.8686 137.174 93.2507 135.932 93.3116 136.053C93.332 136.093 93.8902 137.364 94.5517 138.875C95.2132 140.387 95.8593 141.624 95.9871 141.624C96.3612 141.624 106.51 131.255 106.51 130.872C106.51 130.445 105.704 130.188 97.3017 127.939C92.9494 126.775 90.4991 126.255 90.2997 126.454C90.1005 126.653 90.2727 127.616 90.7916 129.206C91.2307 130.552 91.59 131.824 91.59 132.033C91.59 132.243 90.7777 132.588 89.7839 132.801C80.7208 134.742 65.9896 139.739 55.4681 144.441C47.4578 148.022 33.7793 155.471 32.3831 157.014C32.0938 157.334 31.7825 158.152 31.6914 158.832C31.421 160.848 32.4933 161.709 37.5642 163.547C39.8964 164.393 45.0169 166.267 48.9429 167.711L56.0816 170.338L53.1833 171.882C43.3585 177.115 32.3787 184.152 24.7513 190.105C23.6642 190.953 22.7121 191.585 22.6358 191.508C22.5592 191.432 22.4879 172.622 22.4769 149.708L22.4574 108.048L23.2147 106.848C23.6315 106.188 24.1991 105.459 24.4761 105.229C26.0127 103.954 25.1499 103.972 85.8422 103.95C125.04 103.936 144.512 104.036 145.539 104.256ZM172.082 117.125C173.16 117.309 176.233 117.631 178.911 117.841L183.779 118.222L183.992 119.635C184.109 120.413 184.214 123.438 184.227 126.359L184.251 131.668L179.932 131.453C177.556 131.335 174.199 130.995 172.472 130.698L169.331 130.158L169.246 123.29C169.171 117.232 169.218 116.444 169.642 116.606C169.906 116.708 171.004 116.941 172.082 117.125ZM237.648 123.7C237.648 127.146 237.531 130.036 237.389 130.125C236.822 130.475 230.39 131.335 226.899 131.527L223.199 131.73V125.054V118.379L225.634 118.353C226.973 118.339 229.976 118.146 232.308 117.925C234.641 117.703 236.796 117.502 237.098 117.479C237.605 117.44 237.648 117.928 237.648 123.7ZM197.026 118.693H202.795L202.71 125.368L202.626 132.043L194.395 132.032C189.869 132.025 186.1 131.955 186.021 131.875C185.941 131.795 185.829 128.706 185.77 125.012L185.664 118.296L188.461 118.494C189.999 118.603 193.853 118.693 197.026 118.693ZM221.315 125.243V131.794L218.912 131.997C217.59 132.109 213.773 132.2 210.431 132.2H204.353V125.447V118.693H212.834H221.315V125.243ZM168.947 131.584C169.676 131.916 170.634 132.189 171.077 132.193C172.864 132.209 172.968 132.535 172.873 137.842L172.786 142.694L165.561 142.608C159.255 142.532 153.926 142.84 152.133 143.384C151.633 143.536 151.584 143.242 151.584 140.115V136.68L153.592 135.304C156.992 132.974 161.096 129.432 164.344 126.026L167.446 122.771L167.534 126.877L167.622 130.983L168.947 131.584ZM242.988 138.59V145.293L241.339 145.661C239.823 145.999 230.887 146.961 229.246 146.963L228.539 146.964V140.235V133.507L230.502 133.343C236.292 132.859 240.124 132.452 241.103 132.216C241.708 132.07 242.379 131.936 242.595 131.918C242.898 131.893 242.988 133.419 242.988 138.59ZM182.523 133.303C185.114 133.404 187.697 133.558 188.262 133.644L189.289 133.802L189.204 140.304L189.119 146.807L186.292 146.701C183.774 146.607 183.207 146.468 181.099 145.425C179.798 144.781 177.784 143.982 176.623 143.65L174.513 143.045V138.146C174.513 135.452 174.619 133.14 174.749 133.009C174.879 132.878 175.621 132.849 176.398 132.946C177.175 133.041 179.932 133.202 182.523 133.303ZM226.655 140.192C226.655 143.896 226.549 146.99 226.419 147.066C226.289 147.143 222.508 147.257 218.017 147.32L209.85 147.435L209.765 140.798L209.681 134.161L216.99 133.861C221.01 133.697 224.829 133.538 225.477 133.509L226.655 133.457V140.192ZM203.303 134.085H207.808V140.794V147.503L199.563 147.348C194.008 147.243 191.242 147.079 191.087 146.843C190.783 146.381 190.778 134.262 191.082 133.942C191.212 133.806 193.001 133.782 195.058 133.89C197.115 133.997 200.825 134.085 203.303 134.085ZM164.462 145.397C172.342 148.145 178.055 153.915 181.718 162.827C182.738 165.312 183.535 168.851 183.974 172.86C185.299 184.938 179.77 198.04 170.787 204.111C164.072 208.65 155.838 209.496 148.918 206.357C141.379 202.939 135.861 196.212 133.052 187.014C132.243 184.363 131.481 179.115 131.481 176.185C131.481 173.062 132.443 167.36 133.523 164.084C136.724 154.366 144.74 146.622 153.516 144.768C156 144.244 162.17 144.598 164.462 145.397ZM177.026 145.547C180.304 146.73 182.795 148.174 185.25 150.316C187.398 152.189 189.904 155.103 189.904 155.726C189.904 156.243 180.757 156.202 180.123 155.681C179.86 155.465 179.136 154.581 178.514 153.717C176.442 150.839 172.752 147.597 169.409 145.719C168.416 145.161 167.603 144.628 167.603 144.534C167.603 144.44 169.193 144.438 171.137 144.53C173.891 144.66 175.19 144.885 177.026 145.547ZM231.994 154.469C231.994 159.742 231.935 160.427 231.465 160.607C230.449 160.997 221.766 162.037 219.509 162.04L217.231 162.042V155.647V149.252L222.179 148.947C224.9 148.779 228.221 148.617 229.56 148.588L231.994 148.534V154.469ZM196.815 155.916C196.815 163.874 196.643 164.193 194.58 160.078C192.693 156.316 190.725 153.393 188.564 151.141L186.664 149.163H191.739H196.815V155.916ZM215.661 155.584C215.661 159.115 215.551 162.073 215.416 162.156C215.282 162.239 211.465 162.41 206.935 162.535L198.699 162.763V155.963V149.163H207.18H215.661V155.584ZM154.882 151.591C154.364 151.666 152.743 152.286 151.279 152.969C149.039 154.017 148.194 154.648 145.915 156.98C143.714 159.232 142.94 160.298 141.761 162.701C139.864 166.569 139.077 169.333 138.75 173.289C137.983 182.544 140.794 190.961 146.435 196.306C148.682 198.435 150.204 199.407 152.683 200.298C162.331 203.765 172.537 196.938 176.064 184.659C176.932 181.637 177.257 175.236 176.739 171.365C176.003 165.86 173.418 160.606 169.506 156.666C165.289 152.418 160.556 150.776 154.882 151.591ZM160.311 153.389C163.875 153.872 168.541 157.317 171.248 161.463C172.007 162.627 172.629 163.665 172.629 163.77C172.629 163.875 172.904 164.566 173.242 165.306C174.653 168.406 175.253 171.706 175.245 176.334C175.236 181.167 174.824 183.465 173.273 187.339C171.418 191.973 167.592 196.274 163.624 198.189C161.609 199.162 161.267 199.226 158.023 199.245C153.174 199.273 151.438 198.565 147.708 195.033C144.438 191.939 142.435 188.435 141.147 183.559C140.2 179.972 140.208 172.723 141.164 169.087C143.477 160.296 149.194 154.231 156.092 153.255C156.981 153.129 157.991 153.067 158.337 153.117C158.683 153.166 159.571 153.289 160.311 153.389ZM192.425 159.544C194.5 163.654 195.807 168.325 196.09 172.643L196.281 175.549H191.198C187.414 175.549 186.081 175.449 185.98 175.156C185.906 174.941 185.695 173.36 185.511 171.644C185.05 167.33 183.867 163.23 181.995 159.45L181.1 157.644H186.283H191.466L192.425 159.544ZM254.844 168.799C254.887 172.253 254.803 175.262 254.659 175.486C254.338 175.986 250.124 176.694 245.936 176.953C244.228 177.059 242.23 177.219 241.496 177.309L240.161 177.472V170.719V163.965L241.496 163.802C242.23 163.712 244.739 163.483 247.071 163.292C249.403 163.102 251.877 162.828 252.568 162.684C254.893 162.198 254.758 161.836 254.844 168.799ZM238.59 170.531V177.135L237.856 177.415C237.452 177.568 233.6 177.733 229.296 177.782L221.472 177.869L221.387 171.061L221.303 164.253L228.298 164.162C232.145 164.112 236.034 164.038 236.941 163.999L238.59 163.926V170.531ZM200.898 169.486C200.898 172.707 200.786 174.617 200.607 174.434C200.33 174.149 197.127 166.423 196.675 164.947C196.464 164.261 196.521 164.241 198.678 164.241H200.898V169.486ZM219.587 171.132V177.867L211.613 177.781C207.227 177.733 203.446 177.621 203.21 177.531C202.868 177.399 202.783 176.051 202.783 170.799V164.23L211.185 164.314L219.587 164.398V171.132ZM196.084 180.122C195.841 183.821 194.474 188.728 192.644 192.469L191.318 195.182L186.214 195.268C183.407 195.315 181.109 195.275 181.109 195.179C181.109 195.083 181.458 194.316 181.884 193.475C183.778 189.738 185.085 185.148 185.552 180.596C185.719 178.966 185.927 177.517 186.014 177.376C186.101 177.235 188.447 177.12 191.227 177.12H196.281L196.084 180.122ZM242.988 184.782C242.988 190.294 242.935 190.894 242.438 191.085C241.504 191.444 232.577 192.511 230.502 192.511L228.539 192.512V186.072C228.539 181.145 228.631 179.626 228.932 179.603C229.148 179.587 232.363 179.396 236.078 179.179C239.792 178.962 242.866 178.763 242.909 178.737C242.953 178.712 242.988 181.432 242.988 184.782ZM207.783 185.994C207.77 189.492 207.682 192.142 207.588 191.883C207.495 191.624 207.23 190.988 207 190.47C206.77 189.951 205.8 187.58 204.845 185.199C203.891 182.819 202.96 180.593 202.778 180.252C202.46 179.658 202.557 179.633 205.127 179.633H207.808L207.783 185.994ZM226.655 186.229V192.826H221.049C217.966 192.826 214.149 192.917 212.568 193.03L209.693 193.234V186.433V179.633H218.174H226.655V186.229ZM252.339 199.475L252.254 206.124L251.469 206.348C250.166 206.721 244.929 207.343 241.339 207.551L237.962 207.748V201.072C237.962 195.941 238.053 194.396 238.355 194.395C239.575 194.392 248.83 193.4 249.821 193.166C250.468 193.014 251.318 192.875 251.711 192.857L252.424 192.826L252.339 199.475ZM236.078 201.104V207.811L233.674 208.014C232.353 208.126 228.536 208.218 225.194 208.218H219.116V201.47V194.723L225.948 194.632C229.705 194.581 233.521 194.508 234.429 194.468L236.078 194.396V201.104ZM217.491 200.928C217.555 204.261 217.518 207.343 217.409 207.777C217.228 208.497 217.084 208.557 215.742 208.47L214.273 208.375L211.643 201.935C210.196 198.393 208.937 195.315 208.845 195.094C208.712 194.777 209.59 194.711 213.026 194.78L217.376 194.867L217.491 200.928ZM189.59 197.436C189.59 197.726 188.142 199.393 186.371 201.141C183.724 203.753 182.677 204.552 180.481 205.632C177.294 207.201 173.848 208.096 169.834 208.398C166.675 208.636 166.255 208.344 168.443 207.43C171.623 206.101 176.868 201.546 179.097 198.178L179.937 196.909H184.763C189.072 196.909 189.59 196.966 189.59 197.436Z"
    fill="white" />
</svg>
