<svg width="30" height="31" viewBox="0 0 30 31" fill="none" xmlns="http://www.w3.org/2000/svg">
<path d="M4.62855 8.98465L15 14.1704M15 14.1704L25.3714 8.98465M15 14.1704L15 26.7704M9.64284 6.13465L20.3571 11.4918M15.9536 3.93822L24.525 8.22393C24.882 8.40134 25.1824 8.67482 25.3925 9.01362C25.6026 9.35243 25.7141 9.74313 25.7143 10.1418V20.3525C25.7141 20.7512 25.6026 21.1419 25.3925 21.4807C25.1824 21.8195 24.882 22.093 24.525 22.2704L15.9536 26.5561C15.6558 26.705 15.3275 26.7826 14.9946 26.7826C14.6617 26.7826 14.3334 26.705 14.0357 26.5561L5.46427 22.2704C5.10762 22.0907 4.80829 21.8149 4.60004 21.4741C4.39179 21.1333 4.28292 20.7411 4.2857 20.3418V10.1418C4.28591 9.74313 4.39733 9.35243 4.60742 9.01362C4.81752 8.67482 5.11797 8.40134 5.47498 8.22393L14.0464 3.93822C14.3427 3.79098 14.6691 3.71436 15 3.71436C15.3309 3.71436 15.6572 3.79098 15.9536 3.93822Z" stroke="#C460C0" stroke-width="2" stroke-linecap="round" stroke-linejoin="round"/>
</svg>
