<svg width="32" height="32" viewBox="0 0 32 32" fill="none" xmlns="http://www.w3.org/2000/svg">
<path d="M10.9998 16.8588L22.2395 26.7497C22.3695 26.8641 22.5271 26.9428 22.6967 26.9781C22.8663 27.0133 23.0421 27.0039 23.207 26.9507C23.3719 26.8976 23.5201 26.8025 23.6372 26.6748C23.7543 26.5471 23.8362 26.3912 23.8748 26.2224L28.5766 5.7058C28.6172 5.52841 28.6087 5.34329 28.5519 5.17039C28.4951 4.9975 28.3922 4.84337 28.2543 4.72463C28.1164 4.60588 27.9487 4.52702 27.7693 4.49655C27.5899 4.46607 27.4056 4.48513 27.2362 4.55167L4.16657 13.6147C3.96552 13.6937 3.79544 13.8357 3.6818 14.0194C3.56815 14.2031 3.51705 14.4187 3.53614 14.6338C3.55522 14.849 3.64347 15.0522 3.78768 15.213C3.93188 15.3739 4.12429 15.4837 4.33611 15.5261L10.9998 16.8588Z" stroke="white" stroke-width="2" stroke-linecap="round" stroke-linejoin="round"/>
<path d="M11 16.8592L28.014 4.57129" stroke="white" stroke-width="2" stroke-linecap="round" stroke-linejoin="round"/>
<path d="M16.6134 21.7987L12.7071 25.7049C12.5673 25.8448 12.3891 25.94 12.1951 25.9786C12.0011 26.0172 11.8 25.9974 11.6173 25.9217C11.4346 25.846 11.2784 25.7179 11.1685 25.5534C11.0587 25.389 11 25.1956 11 24.9978V16.8589" stroke="white" stroke-width="2" stroke-linecap="round" stroke-linejoin="round"/>
</svg>
