<svg width="21" height="20" viewBox="0 0 21 20" fill="none" xmlns="http://www.w3.org/2000/svg">
<path d="M8 16.875H4.25C4.08424 16.875 3.92527 16.8092 3.80806 16.692C3.69085 16.5748 3.625 16.4158 3.625 16.25V12.7589C3.625 12.6768 3.64117 12.5956 3.67258 12.5197C3.70398 12.4439 3.75002 12.375 3.80806 12.317L13.1831 2.94197C13.3003 2.82476 13.4592 2.75891 13.625 2.75891C13.7908 2.75891 13.9497 2.82476 14.0669 2.94197L17.5581 6.43309C17.6753 6.5503 17.7411 6.70927 17.7411 6.87503C17.7411 7.04079 17.6753 7.19976 17.5581 7.31697L8 16.875Z" stroke="#ffffff" stroke-width="1.5" stroke-linecap="round" stroke-linejoin="round"/>
<path d="M11.125 5L15.5 9.375" stroke="#ffffff" stroke-width="1.5" stroke-linecap="round" stroke-linejoin="round"/>
</svg>
