<svg width="23" height="23" viewBox="0 0 23 23" fill="none" xmlns="http://www.w3.org/2000/svg">
<path d="M7.90625 14.375C10.4865 14.375 12.5781 12.2833 12.5781 9.70312C12.5781 7.12292 10.4865 5.03125 7.90625 5.03125C5.32604 5.03125 3.23438 7.12292 3.23438 9.70312C3.23438 12.2833 5.32604 14.375 7.90625 14.375Z" stroke="#007BFC" stroke-width="1.3" stroke-miterlimit="10"/>
<path d="M13.9629 5.20525C14.6055 5.0242 15.2794 4.98296 15.9393 5.08429C16.5991 5.18563 17.2296 5.4272 17.7882 5.79272C18.3469 6.15824 18.8207 6.63924 19.1778 7.2033C19.5349 7.76737 19.767 8.40141 19.8584 9.06271C19.9498 9.72402 19.8985 10.3972 19.7078 11.037C19.5171 11.6768 19.1916 12.2683 18.753 12.7717C18.3145 13.2751 17.7732 13.6786 17.1656 13.9552C16.558 14.2318 15.8981 14.3749 15.2305 14.375" stroke="#007BFC" stroke-width="1.3" stroke-linecap="round" stroke-linejoin="round"/>
<path d="M1.4375 17.7349C2.16715 16.697 3.13581 15.8499 4.26169 15.2651C5.38758 14.6803 6.63763 14.375 7.90632 14.375C9.17502 14.375 10.4251 14.6802 11.551 15.2648C12.677 15.8495 13.6457 16.6965 14.3754 17.7344" stroke="#007BFC" stroke-width="1.3" stroke-linecap="round" stroke-linejoin="round"/>
<path d="M15.2305 14.375C16.4993 14.3741 17.7496 14.6789 18.8756 15.2637C20.0017 15.8484 20.9702 16.6959 21.6993 17.7344" stroke="#007BFC" stroke-width="1.3" stroke-linecap="round" stroke-linejoin="round"/>
</svg>
