<svg width="19" height="19" viewBox="0 0 19 19" fill="none" xmlns="http://www.w3.org/2000/svg">
  <path
    d="M9.5 12.1635C11.2086 12.1635 12.5938 10.7784 12.5938 9.06976C12.5938 7.36113 11.2086 5.97601 9.5 5.97601C7.79137 5.97601 6.40625 7.36113 6.40625 9.06976C6.40625 10.7784 7.79137 12.1635 9.5 12.1635Z"
    fill="white" />
  <path
    d="M9.5 2.31976C8.05373 2.31976 6.63993 2.74863 5.4374 3.55214C4.23486 4.35565 3.2976 5.49771 2.74413 6.83389C2.19067 8.17008 2.04586 9.64038 2.32801 11.0589C2.61017 12.4773 3.30661 13.7803 4.32928 14.803C5.35196 15.8257 6.65492 16.5221 8.07341 16.8043C9.49189 17.0864 10.9622 16.9416 12.2984 16.3881C13.6346 15.8347 14.7766 14.8974 15.5801 13.6949C16.3836 12.4923 16.8125 11.0785 16.8125 9.63226C16.8103 7.69354 16.0392 5.83485 14.6683 4.46397C13.2974 3.09308 11.4387 2.32196 9.5 2.31976V2.31976ZM14.1236 13.7392C13.6721 13.085 13.0865 12.5344 12.4058 12.1238C11.6231 12.8714 10.5824 13.2885 9.5 13.2885C8.41764 13.2885 7.37692 12.8714 6.59419 12.1238C5.9135 12.5344 5.32793 13.085 4.87637 13.7392C4.0836 12.8478 3.56543 11.7462 3.38426 10.5671C3.20308 9.38796 3.36663 8.18161 3.8552 7.09329C4.34377 6.00497 5.13653 5.08109 6.13803 4.4329C7.13952 3.78471 8.30704 3.43986 9.49999 3.43986C10.6929 3.43986 11.8605 3.78471 12.862 4.4329C13.8635 5.08109 14.6562 6.00497 15.1448 7.09329C15.6334 8.18161 15.7969 9.38796 15.6157 10.5671C15.4346 11.7462 14.9164 12.8478 14.1236 13.7392V13.7392Z"
    fill="white" />
</svg>
