<svg width="401" height="239" viewBox="0 0 401 239" fill="none" xmlns="http://www.w3.org/2000/svg">
  <path fill-rule="evenodd" clip-rule="evenodd"
    d="M105.726 1.50851C103.148 2.83164 103.342 -0.362527 103.333 40.7781L103.325 77.8575L99.3543 78.8616C94.104 80.1891 91.1523 80.7787 85.595 81.6103L80.9778 82.3011L79.1309 80.9154C72.9801 76.3004 64.4475 72.8693 55.6756 71.4843C50.5069 70.6682 41.5742 70.6741 36.468 71.4968C17.9571 74.4799 3.74385 85.244 0.782188 98.5221C-0.102838 102.491 0.237357 108.461 1.56748 112.309C5.58777 123.937 18.6596 133.304 35.1752 136.392C39.5357 137.207 48.6696 137.463 53.2554 136.898L57.0954 136.426L59.6175 138.319C65.9922 143.103 75.7851 146.749 87.9036 148.848C90.138 149.236 89.633 148.183 86.9802 146.922C84.1504 145.578 80.2472 142.377 77.9984 139.557C76.3747 137.521 72.5143 131.379 72.7407 131.192C72.8017 131.142 73.2671 130.89 73.775 130.634C76.1519 129.432 80.1205 126.532 82.5938 124.189C87.282 119.748 89.7815 115.659 91.3277 109.903C92.6837 104.854 92.4362 100.412 90.517 95.3442C90.1893 94.4783 89.9865 93.7046 90.0671 93.6242C90.1472 93.5443 92.2903 93.2978 94.8298 93.0771C97.3689 92.856 100.319 92.5922 101.386 92.4909L103.325 92.3063V145.707V199.109L104.459 200.24L105.593 201.371L132.214 201.466L158.835 201.56L163.418 208.008C165.938 211.555 169.669 216.819 171.708 219.707C173.747 222.595 175.53 224.958 175.67 224.958C175.917 224.958 179.041 222.505 195.843 209.114C200.294 205.567 204.361 202.377 204.881 202.024C205.77 201.42 209.122 201.381 260.552 201.379L315.277 201.376L316.244 203.023C320.092 209.573 328.629 214.826 338.71 216.846C340.006 217.106 340.834 217.462 340.834 217.758C340.834 218.025 340.576 219.601 340.261 221.259C339.131 227.198 336.11 233.338 332.641 236.744C330.694 238.656 330.543 239.211 332.075 238.827C333.115 238.567 340.563 233.865 343.868 231.383C347.608 228.574 353.332 222.783 355.3 219.816L357.123 217.07L361.876 215.879C367.135 214.562 370.088 213.484 374.899 211.123C391.484 202.985 401.886 188.318 400.912 174.446C400.14 163.457 392.088 154.507 379.616 150.774C375.621 149.578 373.222 149.157 368.575 148.838C365.308 148.613 364.843 148.498 364.843 147.911C364.843 147.443 364.427 147.14 363.458 146.903C362.697 146.717 361.159 146.336 360.042 146.056L358.01 145.548L357.917 74.7009C357.83 8.70487 357.78 3.78816 357.195 2.89649C355.827 0.813593 364.351 0.945135 230.507 0.942556C119.753 0.939977 106.719 0.999297 105.726 1.50851ZM354.721 2.95249C356.457 3.67578 356.757 4.74025 356.636 9.73913L356.532 14.0151H230.575H104.618L104.514 9.73913C104.394 4.79515 104.7 3.68167 106.369 2.96355C108.196 2.17836 352.838 2.16768 354.721 2.95249ZM338.732 5.16546C337.817 5.55787 337.497 5.9687 337.303 7.00038C336.978 8.72771 337.346 10.4934 338.157 11.108C339.203 11.9001 342.543 11.7575 343.42 10.8832C344.393 9.91268 344.448 6.87437 343.512 5.80437C342.666 4.83753 340.249 4.51439 338.732 5.16546ZM347.729 5.23362C347.324 5.63708 347.431 5.87253 348.593 7.14224L349.705 8.3552L348.593 9.46353C347.4 10.654 347.253 11.0667 347.884 11.4554C348.105 11.5917 348.823 11.1828 349.481 10.5472L350.676 9.39131L351.384 10.1713C352.441 11.3368 353.396 11.7642 353.875 11.2867C354.166 10.9963 353.93 10.5262 353.024 9.59433L351.77 8.30399L352.992 7.04607C354.115 5.89095 354.269 4.98786 353.343 4.98786C353.136 4.98786 352.458 5.49559 351.835 6.11608L350.705 7.2443L349.538 6.11608C348.308 4.92706 348.125 4.8379 347.729 5.23362ZM342.496 8.30399V9.96205L340.753 10.0737C339.152 10.1765 338.992 10.1094 338.774 9.24466C338.644 8.72735 338.644 7.88063 338.774 7.36331C338.992 6.49854 339.152 6.43148 340.753 6.53428L342.496 6.64592V8.30399ZM327.361 10.5004C326.846 11.3316 327.712 11.6201 330.725 11.6201C333.521 11.6201 333.856 11.5486 333.746 10.9753C333.643 10.4348 333.135 10.3132 330.61 10.224C328.808 10.1603 327.502 10.2712 327.361 10.5004ZM356.717 27.4638V39.2545L300.295 39.2586C205.399 39.2652 123.196 39.2656 113.575 39.26L104.433 39.2545V27.4638V15.6732H230.575H356.717V27.4638ZM150.975 21.2C150.975 21.8246 150.728 21.937 149.36 21.937C148.014 21.937 147.482 22.1702 146.165 23.3364C144.721 24.6138 144.569 24.9185 144.409 26.8349C144.191 29.4627 144.735 30.8242 146.483 32.0172C148.544 33.4233 150.248 33.5976 152.291 32.6108C154.235 31.6724 155.404 30.0515 155.406 28.2929C155.408 26.5795 154.427 26.7258 153.946 28.5106C153.493 30.1856 152.641 31.0401 150.937 31.5276C149.342 31.9841 147.55 31.4222 146.548 30.151C145.795 29.1959 145.506 26.2394 146.086 25.4248C146.784 24.445 148.597 23.4108 149.618 23.4108C150.604 23.4108 150.668 23.469 150.129 23.8714C149.708 24.1853 149.617 24.5003 149.845 24.8607C150.133 25.3161 150.395 25.3187 151.724 24.8809C153.628 24.2542 153.835 23.7711 152.997 21.9171C152.28 20.3316 150.975 19.8684 150.975 21.2ZM167.042 20.7291C165.157 21.1849 165.011 21.6757 165.011 27.5541C165.011 32.8102 165.048 33.088 165.842 33.7483C166.649 34.4203 168.993 34.4402 247.675 34.4524L328.678 34.4645L329.585 33.56C330.455 32.6926 330.491 32.4601 330.491 27.8666C330.491 22.525 330.187 21.4233 328.555 20.8555C327.452 20.472 168.62 20.3478 167.042 20.7291ZM339.759 21.906C337.602 23.9163 337.229 25.9811 338.573 28.4848C339.588 30.378 342.915 31.3293 345.078 30.3459C345.969 29.9413 346.17 30.0467 348.048 31.8964C349.514 33.3404 350.173 33.7704 350.469 33.4752C351.017 32.9292 350.511 32.0615 348.6 30.2693C347.513 29.2501 347.151 28.6661 347.346 28.2427C347.496 27.9156 347.687 26.7671 347.771 25.6904C347.918 23.7973 347.873 23.6845 346.395 22.2822C345.006 20.9642 344.685 20.8316 342.889 20.8316C341.215 20.8316 340.735 20.9963 339.759 21.906ZM114.555 24.0353C111.476 26.6374 111.097 27.036 111.088 27.6794C111.08 28.2483 116.907 33.1514 117.76 33.2928C119.571 33.5931 117.979 31.7018 112.994 27.63C112.928 27.5762 114.133 26.4841 115.672 25.2033C118.255 23.053 119.195 21.5685 117.972 21.5685C117.698 21.5685 116.161 22.6787 114.555 24.0353ZM127.845 22.1002C127.682 22.5257 128.097 23.1186 129.226 24.0729C130.114 24.8235 131.38 25.9347 132.04 26.5427L133.239 27.6481L130.471 29.9955C128.949 31.2866 127.704 32.5718 127.704 32.8511C127.704 33.826 129.01 33.34 130.844 31.6834C131.859 30.7656 133.231 29.5869 133.891 29.064C134.551 28.5412 135.091 27.843 135.09 27.5121C135.09 26.9377 129.728 22.123 128.614 21.6967C128.314 21.5818 127.977 21.759 127.845 22.1002ZM328.438 22.5202C328.897 22.9782 329.014 24.0103 329.014 27.6005C329.014 30.6138 328.867 32.2531 328.571 32.5486C328.229 32.8897 309.805 32.9907 247.892 32.9907C203.763 32.9907 167.394 32.8901 167.073 32.7671C166.58 32.5784 166.488 31.7704 166.488 27.6271C166.488 23.3323 166.57 22.6632 167.135 22.3371C167.566 22.088 194.449 21.9609 247.821 21.9546C319.841 21.9465 327.919 22.0033 328.438 22.5202ZM345.238 23.2593C347.632 25.2689 346.048 29.3061 342.866 29.3061C340.989 29.3061 339.356 27.6779 339.356 25.8058C339.356 24.8091 339.637 24.1798 340.436 23.3824C341.851 21.9708 343.648 21.9248 345.238 23.2593ZM186.065 41.3282C186.065 41.861 185.586 43.1458 184.999 44.1837C184.156 45.6771 183.898 46.6646 183.763 48.9155C183.5 53.2858 182.151 55.6715 176.875 61.0916C174.519 63.5116 171.556 66.3137 170.29 67.3185C166.51 70.3185 159.164 73.1247 153.158 73.8627L150.421 74.1991L148.204 76.5889C145.911 79.062 144.471 79.9585 141.001 81.0742C139.884 81.4334 136.393 82.9257 133.245 84.3903C124.163 88.6143 122.379 89.0867 112.347 89.9194C108.502 90.2385 102.78 90.7333 99.6313 91.0189C96.4824 91.3044 92.8363 91.5881 91.5287 91.6489C89.1588 91.7595 89.151 91.7565 88.8888 90.6545C88.744 90.0465 88.5378 88.0402 88.4307 86.1957L88.2357 82.8424L91.8098 82.2079C95.5789 81.5384 97.5661 81.0237 106.366 78.4382C113.885 76.2293 118.765 74.3384 125.672 70.9581C131.76 67.9788 137.309 64.6973 141.186 61.7835C142.405 60.8672 144.732 59.5945 146.357 58.9556C150.75 57.2279 152.14 56.4342 154.433 54.3436C156.376 52.5721 156.587 52.2091 157.69 48.7379C159.01 44.5839 160.406 42.452 162.627 41.197C164.048 40.3941 164.383 40.3717 175.076 40.3658L186.065 40.3599V41.3282ZM274.685 40.5003C274.6 40.5773 272.121 42.4295 269.175 44.6163C266.229 46.8027 261.824 50.2482 259.387 52.2725C253.752 56.9505 243.097 67.6041 238.318 73.3369C223.177 91.5001 213.656 111.499 211.016 130.685C210.829 132.043 210.65 132.368 210.151 132.257C209.804 132.18 205.12 131.774 199.742 131.354C194.364 130.934 189.885 130.512 189.788 130.415C189.474 130.102 190.471 117.281 191.072 113.886C192.333 106.775 195.673 99.4157 199.482 95.3586C200.331 94.4544 202.543 92.6585 204.399 91.3674C211.218 86.6224 211.227 84.8155 204.428 85.0259C200.738 85.1401 200.337 84.8958 200.598 82.6928C200.982 79.4596 203.353 76.5056 208.782 72.4961C216.665 66.6744 221.895 61.7843 221.895 60.2338C221.895 58.9243 220.334 58.6933 217.028 59.5138C213.026 60.5076 210.809 61.7728 207.337 65.0466L204.405 67.81L206.963 62.9095C208.37 60.2139 210.767 56.1516 212.291 53.8823C214.915 49.9741 215.198 49.6837 217.647 48.396C220.151 47.0791 223.993 45.9619 228.873 45.1318C231.833 44.6281 232.718 44.0515 233.687 41.9951L234.457 40.3599H254.648C265.753 40.3599 274.77 40.4229 274.685 40.5003ZM157.623 41.2994C157.623 41.8834 156.113 44.2394 153.737 47.3606C145.782 57.8115 132.251 67.2124 116.253 73.4036C112.752 74.7584 105.466 77.2057 104.933 77.2057C104.575 77.2057 104.473 73.3369 104.47 59.4589C104.467 49.6985 104.551 41.5739 104.656 41.4045C104.862 41.0706 157.623 40.966 157.623 41.2994ZM218.284 42.847C211.406 51.0728 205.63 60.8557 199.844 74.0738C197.219 80.0712 195.36 85.779 192.761 95.8129C190.606 104.13 188.743 117.068 188.396 126.119L188.166 132.106L189.24 132.112C191.214 132.122 191.325 132.384 190.853 135.927C190.618 137.686 190.52 139.37 190.635 139.669C190.792 140.076 191.493 140.212 193.441 140.212C195.813 140.212 196.039 140.278 196.039 140.967C196.039 143.1 192.726 146.397 187.687 149.28C183.073 151.92 182.741 152.216 182.741 153.695C182.741 155.631 183.969 156.047 186.516 154.972C187.588 154.519 188.703 154.051 188.992 153.933C189.281 153.814 188.565 154.837 187.402 156.205C184.996 159.034 184.418 160.209 184.947 161.195C185.281 161.817 186.103 162.32 186.787 162.32C186.948 162.32 188.119 161.491 189.39 160.477C191.615 158.703 192.213 158.322 191.848 158.911C188.919 163.639 188.282 164.807 188.282 165.445C188.282 166.006 185.155 168.71 176.554 175.589C170.104 180.747 162.288 187.015 159.184 189.518L153.542 194.069L155.591 196.986L157.64 199.902H132.175C118.169 199.902 106.441 199.799 106.112 199.674C104.426 199.028 104.475 200.63 104.447 144.875C104.432 115.965 104.548 92.3099 104.704 92.307C107.252 92.2584 121.809 90.6784 125.038 90.1003C144.275 86.6563 158.725 79.772 173.137 67.184C179.269 61.8285 188.174 51.8075 193.809 43.9214L195.828 41.0968H207.788H219.747L218.284 42.847ZM356.626 93.1416C356.678 121.665 356.595 144.998 356.441 144.993C355.195 144.953 352.344 143.966 349.541 142.605C344.962 140.382 340.329 139.475 333.544 139.475C329.29 139.475 327.837 139.629 324.934 140.386C317.625 142.292 309.747 146.207 298.871 153.338C293.974 156.549 289.938 159.663 280.072 167.843C263.281 181.763 252.012 190.535 246.549 193.94C245.177 194.795 242.091 196.488 239.691 197.703L235.329 199.912L221.526 199.815L207.723 199.718L217.747 191.796C223.26 187.439 227.778 183.738 227.788 183.571C227.805 183.277 224.585 178.662 216.947 168.031C213.86 163.733 213.23 162.626 213.174 161.398C213.138 160.588 212.519 157.189 211.8 153.845C211.08 150.501 210.378 146.412 210.238 144.757C209.988 141.789 209.997 141.747 210.861 141.625C211.716 141.505 211.747 141.369 212.163 135.975C213.524 118.283 220.014 101.313 231.992 84.1228C241.979 69.789 257.988 54.1616 274.51 42.6163L276.69 41.0935L316.611 41.1874L356.532 41.281L356.626 93.1416ZM57.8918 73.0978C65.0651 74.59 71.5081 77.1766 76.6377 80.6228C79.0297 82.23 79.4202 82.7326 78.2777 82.7326C77.9098 82.7326 76.4556 83.2952 75.0456 83.9828C73.6357 84.6703 71.3186 85.6887 69.8965 86.2459C63.3752 88.8007 60.4719 90.7735 60.483 92.6427C60.4959 94.8107 61.8645 95.2491 64.7903 94.0214C67.3272 92.9573 71.0604 91.9382 71.353 92.23C71.466 92.3431 71.5587 92.9772 71.5587 93.6397C71.5587 95.4172 72.105 96.5546 73.6631 98.0207C76.819 100.99 79.3884 100.492 85.2397 95.776C86.743 94.5645 88.0296 93.7912 88.3428 93.9109C89.2807 94.2698 90.4664 98.8508 90.6721 102.911C90.8823 107.058 90.2939 110.381 88.7211 113.932C86.1546 119.725 80.4234 125.521 73.3133 129.511C72.1453 130.166 71.1894 130.795 71.1894 130.908C71.1894 131.022 71.7933 132.208 72.5313 133.544C75.1169 138.227 79.3271 143.253 82.7878 145.789C83.5801 146.369 84.0787 146.843 83.8959 146.842C82.8801 146.835 74.7579 144.466 71.3238 143.175C66.6708 141.426 62.8126 139.309 59.663 136.777L57.4253 134.979L54.4267 135.464C49.442 136.271 40.3546 136.102 35.3769 135.109C19.7884 132.001 8.60705 124.566 3.58169 113.966C0.423523 107.305 0.734907 98.8331 4.37363 92.415C8.78435 84.6357 16.9003 78.4286 27.1316 75.0093C30.3559 73.932 36.1381 72.6324 39.2383 72.2886C42.9299 71.8797 54.4345 72.3786 57.8918 73.0978ZM86.7032 85.8251C86.7032 88.5259 86.7449 88.4898 83.2092 88.8512C81.451 89.031 80.3429 88.9345 78.9511 88.4802C77.9161 88.1423 76.9243 87.9555 76.747 88.0646C76.5701 88.174 76.2206 89.7554 75.9709 91.5789C75.4712 95.227 74.9877 96.2572 73.9601 95.8641C73.3668 95.6367 73.3199 95.2359 73.502 91.9367C73.7466 87.5093 74.3501 86.2245 76.7363 85.048C78.4144 84.2208 81.7517 83.5977 84.9486 83.5148L86.7032 83.4695V85.8251ZM72.149 88.7488C71.927 89.929 71.7656 90.0498 69.6114 90.6478C68.3463 90.9993 66.3387 91.6924 65.1504 92.188C63.9621 92.6839 62.7524 93.0391 62.4625 92.9772C61.6048 92.7952 62.8551 91.3291 64.6573 90.4035C66.8865 89.2587 72.064 87.1666 72.238 87.3405C72.3196 87.4216 72.2794 88.0554 72.149 88.7488ZM86.6947 92.6224C86.4568 92.7016 85.6911 93.2665 84.9929 93.8781C84.2945 94.4894 83.6617 94.9264 83.5867 94.8486C83.5114 94.7709 83.3359 93.7867 83.1963 92.6614L82.9425 90.6158L84.915 90.2665L86.8878 89.9175L87.0075 91.1979C87.0773 91.9466 86.9473 92.5384 86.6947 92.6224ZM81.0702 91.1346C81.666 91.8855 81.6567 95.1754 81.0558 96.3656C80.4082 97.6471 77.8791 98.5126 76.549 97.9079C75.6754 97.5111 75.633 97.4072 76.1386 96.9031C76.7692 96.2738 77.461 94.0837 77.4717 92.681C77.4758 92.1743 77.5799 91.3829 77.7037 90.9227C77.9017 90.1861 78.09 90.1136 79.2683 90.3188C80.0056 90.4474 80.8164 90.8144 81.0702 91.1346ZM200.471 133.028C204.433 133.332 208.399 133.685 209.284 133.812L210.894 134.044L210.674 135.378C210.552 136.112 210.45 137.44 210.448 138.33L210.444 139.949L208.32 139.728C207.152 139.607 203.121 139.315 199.363 139.079C195.605 138.843 192.428 138.546 192.303 138.418C192.03 138.138 192.743 132.474 193.051 132.474C193.171 132.474 196.509 132.724 200.471 133.028ZM203.845 141.011L208.512 141.445L208.766 144.789C208.906 146.629 209.59 150.787 210.286 154.029C211.726 160.736 211.771 161.214 210.974 161.214C210.61 161.214 209.92 160.158 209.11 158.359C208.403 156.788 207.471 154.716 207.04 153.753C206.608 152.79 206.041 152.003 205.779 152.003C205.518 152.003 204.853 152.79 204.302 153.753C200.792 159.882 195.539 168.62 195.261 168.792C194.286 169.393 195.194 166.108 197.187 161.826C198.428 159.159 199.467 156.645 199.496 156.24C199.611 154.602 198.331 155.747 194.579 160.638C192.413 163.462 190.442 165.839 190.199 165.919C189.241 166.238 189.892 164.814 192.954 159.897C196.489 154.219 196.823 153.477 195.844 153.477C195.213 153.477 193.109 155.106 189.083 158.713C188 159.683 186.961 160.477 186.774 160.477C185.731 160.477 186.868 158.9 190.361 155.499C193.171 152.763 194.222 151.506 194.056 151.077C193.783 150.366 193.423 150.451 189.02 152.263C185.108 153.872 184.065 154.131 184.283 153.437C184.372 153.155 185.522 152.344 186.839 151.634C192.617 148.522 196.535 145.021 197.498 142.109C197.808 141.171 198.23 140.58 198.591 140.579C198.914 140.578 201.278 140.772 203.845 141.011ZM342.069 141.711C346.162 142.542 348.438 143.405 349.388 144.488C350.658 145.935 355.24 155.48 355.24 156.678C355.24 157.018 354.056 159.439 352.609 162.059C349.932 166.904 349.348 167.363 349.335 164.633C349.33 163.466 350.532 160.473 351.757 158.604C352.37 157.669 352.352 157.608 350.675 155.104C348.127 151.299 347.68 150.805 346.914 150.953C345.443 151.235 345.286 154.749 346.564 158.741C347.504 161.678 347.762 164.162 347.127 164.162C346.789 164.162 343.345 159.095 340.388 154.248C339.052 152.057 338.981 152.003 337.433 152.011C336.003 152.018 330.762 153.641 325.874 155.589C324.858 155.994 320.454 158.078 316.086 160.22C308.211 164.082 307.137 164.535 298.51 167.639C290.593 170.488 289.117 171.573 289.679 174.128C290.031 175.725 291.278 176.567 293.685 176.834C296.408 177.136 297.129 177.523 297.418 178.837C297.838 180.741 296.5 183.379 290.705 192.07L284.991 200.639H273.436H261.882L261.658 199.244C261.095 195.73 260.986 191.377 261.386 188.38C261.623 186.601 261.909 184.943 262.02 184.695C262.132 184.446 265.377 181.673 269.232 178.532C273.087 175.391 277.934 171.436 280.004 169.745C293.666 158.573 297.862 155.459 305.374 150.916C312.717 146.474 322.159 142.341 327.252 141.34C330.438 140.714 338.102 140.905 342.069 141.711ZM361.245 147.962C363.264 148.413 363.342 148.471 362.769 149.103C362.189 149.742 362.097 149.73 360.457 148.799C358.607 147.748 357.632 146.974 358.564 147.296C358.869 147.401 360.076 147.701 361.245 147.962ZM358.564 149.447C360.291 150.473 362.659 151.838 363.828 152.48C364.996 153.121 365.952 153.774 365.952 153.93C365.952 154.581 363.316 154.141 361.58 153.2C359.849 152.262 354.478 147.581 355.134 147.582C355.294 147.582 356.837 148.421 358.564 149.447ZM360.526 155.503C363.404 158.327 363.786 158.837 363.099 158.935C362.263 159.054 361.121 158.366 358.076 155.907C356.46 154.603 355.244 152.741 354.081 149.792C353.687 148.794 353.701 148.806 360.526 155.503ZM370.356 150.175C382.563 151.425 392.041 156.686 396.878 164.899C397.296 165.608 398.097 167.432 398.659 168.952C399.543 171.346 399.683 172.281 399.709 175.953C399.744 181.021 399.101 183.801 396.755 188.726C390.678 201.482 376.466 211.49 358.973 215.331L356.241 215.93L354.789 218.316C352.795 221.592 349.76 224.952 345.903 228.155C343.057 230.518 336.366 235.274 335.888 235.274C335.794 235.274 336.279 234.343 336.966 233.205C339.497 229.012 341.709 222.332 342.013 217.969L342.127 216.324L339.003 215.671C331.426 214.088 325.954 211.453 321.468 207.226C311.941 198.25 311.31 185.077 319.81 172.592C323.423 167.285 330.501 161.037 336.811 157.584L339.622 156.046L342.269 160.144C344.567 163.702 344.886 164.4 344.691 165.436C344.566 166.102 344.707 167.439 345.01 168.457C345.544 170.25 345.534 170.326 344.436 172.588C342.551 176.474 342.614 178.234 345.043 189.605C347.64 201.755 347.698 201.964 348.684 202.653C349.862 203.475 350.303 203.392 354.539 201.544L358.378 199.869L359.799 200.666C363.108 202.521 366.983 200.658 367.773 196.834C367.962 195.915 368.448 195.596 371.864 194.147C378.417 191.367 378.451 191.663 370.214 179.637C363.07 169.206 361.844 167.932 358 166.945C354.18 165.964 353.423 164.205 355.238 160.528C357.027 156.904 356.869 156.978 359.184 158.683C362.219 160.92 364.385 161.263 365.778 159.729C366.35 159.098 366.297 158.961 364.897 157.446L363.408 155.835H364.632C366.17 155.835 367.798 154.798 367.798 153.819C367.798 153.366 367.349 152.827 366.654 152.446C364.475 151.251 363.626 150.456 364.166 150.115C364.814 149.705 365.863 149.715 370.356 150.175ZM338.605 154.189C339.08 155.076 339.085 155.319 338.629 155.319C337.903 155.319 332.02 159.02 328.812 161.496C321.077 167.465 315.412 175.491 313.509 183.176C312.274 188.164 312.47 193.964 314.02 198.336L314.575 199.902H301.11C293.703 199.902 287.644 199.812 287.644 199.701C287.644 199.182 300.018 181.028 303.831 175.953C306.226 172.764 310.003 168.344 312.381 165.945C316.302 161.989 316.948 161.496 320.518 159.742C325.202 157.439 326.877 156.744 332.154 154.918C336.814 153.306 338.056 153.165 338.605 154.189ZM349.134 155.51C349.851 156.629 350.438 157.645 350.438 157.77C350.438 157.894 350.075 158.582 349.631 159.298L348.824 160.601L347.969 158.072C347.101 155.508 346.914 154.167 347.36 153.722C347.74 153.342 347.749 153.351 349.134 155.51ZM208.41 160.836C208.721 161.815 210.358 163.057 211.337 163.057C211.946 163.057 213.254 164.653 216.995 169.965C219.671 173.765 222.797 178.183 223.942 179.782C225.988 182.641 226.005 182.687 224.974 182.489C224.398 182.378 218.026 181.25 210.814 179.981C203.602 178.713 197.66 177.648 197.611 177.614C197.403 177.475 200.935 168.212 202.002 166.101C204.304 161.543 207.737 158.722 208.41 160.836ZM196.607 176.875C193.457 185.75 190.836 193.047 190.782 193.09C190.727 193.134 182.886 193.266 173.356 193.383C158.949 193.56 156.117 193.514 156.55 193.108C156.836 192.839 163.053 187.841 170.367 182.001C177.681 176.161 184.742 170.5 186.058 169.42C188.097 167.747 188.609 167.491 189.517 167.69C190.464 167.897 190.808 167.683 192.607 165.767L194.632 163.609L194.043 165.036C193.293 166.848 193.273 169.449 194.002 170.053C194.902 170.798 196.303 170.16 197.438 168.488C198.022 167.629 199.315 165.485 200.31 163.725C201.305 161.966 202.168 160.574 202.227 160.632C202.285 160.69 199.756 168 196.607 176.875ZM353.393 165.217C353.393 165.94 355.442 167.502 356.859 167.859C359.343 168.485 361.017 169.332 362.197 170.559C363.933 172.365 375.555 189.534 375.555 190.292C375.555 190.664 375.348 191.128 375.094 191.322C374.665 191.649 351.739 201.432 350.38 201.867C349.214 202.241 348.647 200.789 347.167 193.639C346.349 189.687 345.322 184.878 344.886 182.953C343.879 178.505 344.048 176.142 345.595 173.087C346.907 170.494 346.959 170.021 346.18 167.817C345.869 166.939 345.697 166.008 345.798 165.747C346.132 164.876 347.87 166.032 348.468 167.524C349.442 169.952 350.639 169.546 352.134 166.281C352.712 165.016 353.393 164.442 353.393 165.217ZM207.674 180.553C224.63 183.582 225.589 183.767 225.573 184.006C225.564 184.136 224.691 184.902 223.633 185.707C222.576 186.512 217.222 190.731 211.737 195.082C206.252 199.433 197.276 206.551 191.791 210.899C186.305 215.246 180.613 219.776 179.14 220.964C176.745 222.896 176.461 223.036 176.456 222.291C176.444 220.315 177.625 196.659 177.79 195.573L177.973 194.376H184.559C189.422 194.376 191.248 194.254 191.534 193.909C191.747 193.653 192.92 190.627 194.139 187.185C197.185 178.585 197.047 178.9 197.784 178.902C198.144 178.902 202.595 179.645 207.674 180.553ZM259.756 192.257C259.756 195.55 259.876 198.783 260.024 199.442L260.292 200.639L248.758 200.633L237.224 200.626L240.548 198.941C245.862 196.25 249.153 194.184 254.628 190.103C257.448 188.001 259.756 186.279 259.756 186.275C259.756 186.272 259.756 188.964 259.756 192.257ZM176.605 196.494C176.393 199.397 175.353 220.108 175.353 221.452C175.353 222.398 175.286 222.467 174.826 221.997C174.328 221.487 166.994 211.213 163.132 205.613C160.917 202.404 160.165 199.933 160.967 198.508C162.422 195.923 166.855 194.584 174.487 194.423L176.761 194.376L176.605 196.494Z"
    fill="black" />
</svg>
